<?xml version="1.0" encoding="utf-8"?>
<!-- Generator: Adobe Illustrator 25.4.1, SVG Export Plug-In . SVG Version: 6.00 Build 0)  -->
<svg version="1.1" id="Layer_1" xmlns="http://www.w3.org/2000/svg" xmlns:xlink="http://www.w3.org/1999/xlink" x="0px" y="0px"
	 viewBox="0 0 1400 785" style="enable-background:new 0 0 1400 785;" xml:space="preserve">
<style type="text/css">
	.st0{fill:#FDFDFD;}
	.st1{fill:#E4A306;}
	.st2{fill:#010000;}
	.st3{fill:#8700AC;}
	.st4{fill:#010001;}
	.st5{fill:#E4A406;}
	.st6{fill:#8700AB;}
	.st7{fill:#E3A306;}
	.st8{fill:#8600AB;}
	.st9{fill:#010101;}
	.st10{fill:#8901AC;}
	.st11{fill:#8702AA;}
	.st12{fill:#8A03AC;}
	.st13{fill:#8801AC;}
	.st14{fill:#040203;}
	.st15{fill:#8902AD;}
	.st16{fill:#8A04AC;}
	.st17{fill:#8802AB;}
	.st18{fill:#8803AB;}
	.st19{fill:#8904AB;}
	.st20{fill:#8905AB;}
	.st21{fill:#8E0CAC;}
	.st22{fill:#8D03AF;}
	.st23{fill:#0F0609;}
	.st24{fill:#100D0D;}
	.st25{fill:#1D1804;}
	.st26{fill:#121112;}
	.st27{fill:#050303;}
	.st28{fill:#8403A6;}
	.st29{fill:#060204;}
	.st30{fill:#433505;}
	.st31{fill:#5F4709;}
	.st32{fill:#765708;}
	.st33{fill:#6F4E06;}
	.st34{fill:#694E09;}
	.st35{fill:#7B5B0A;}
	.st36{fill:#5E0470;}
	.st37{fill:#5B4307;}
	.st38{fill:#93641E;}
	.st39{fill:#7A5A0A;}
	.st40{fill:#8C6409;}
	.st41{fill:#856007;}
	.st42{fill:#835F08;}
	.st43{fill:#6A4E0A;}
	.st44{fill:#7F5B08;}
	.st45{fill:#FEFEFE;}
	.st46{fill:#FDFDFE;}
	.st47{fill:#FBFBFD;}
	.st48{fill:#030205;}
	.st49{fill:#010102;}
	.st50{fill:#765332;}
	.st51{fill:#946C26;}
	.st52{fill:#865D2B;}
	.st53{fill:#755030;}
	.st54{fill:#7A582E;}
	.st55{fill:#725634;}
	.st56{fill:#060303;}
	.st57{fill:#050201;}
	.st58{fill:#8B06AB;}
	.st59{fill:#74560C;}
	.st60{fill:#070204;}
	.st61{fill:#7E5A2F;}
	.st62{fill:#040202;}
	.st63{fill:#13050A;}
	.st64{fill:#5F196A;}
	.st65{fill:#6D5238;}
	.st66{fill:#6A4D36;}
	.st67{fill:#785E34;}
	.st68{fill:#705435;}
	.st69{fill:#060201;}
</style>
<path class="st0" d="M590.02,784.91c-195.11,0-390.22-0.01-585.33,0.09c-3.62,0-4.67-0.61-4.67-4.51C0.13,521.91,0.14,263.34,0,4.76
	C0,0.52,1.09,0,4.96,0c463.36,0.1,926.73,0.1,1390.09,0c3.89,0,4.95,0.55,4.95,4.77c-0.13,258.58-0.13,517.15-0.02,775.73
	c0,3.93-1.08,4.51-4.68,4.5c-216.1-0.09-432.21-0.08-648.31-0.08c-4.43-4.74-6.12-10.94-8.38-16.71c-1.9-4.87,3.13-4.16,5.72-5.24
	c22.27-1.27,44.4-4.01,66.56-6.4c15.91-1.71,31.68-4.32,47.45-6.92c37.17-6.13,73.93-14.22,110.18-24.54
	c37.7-10.73,74.6-23.69,110.41-39.68c13.54-6.05,26.82-12.61,39.95-19.47c35.21-18.62,68.19-40.41,96.91-68.25
	c5.04-4.89,9.17-10.56,13.39-16.14c3.83-5.05,5.86-10.64,5.47-17.2c-0.83-13.99,1.1-27.92,1.12-41.92
	c0.01-7.96-2.42-14.57-6.48-21.05c-12.77-20.41-30.77-35.26-50.78-47.98c-9.86-6.27-20.09-11.91-30.8-16.52
	c-5.41-2.33-7.85-5.54-7.21-11.43c0.24-2.17,1.26-5.4-0.92-6.5c-2.17-1.1-4.12,1.67-5.8,3.09c-5.35,4.56-10.7,4.49-17.14,2
	c-21.79-8.43-44.32-14.36-67.21-19.04c-10.78-2.2-21.62-3.98-32.42-6.04c-4.43-0.84-7.02,0.16-8.19,4.68
	c-0.58,2.24-1.62,4.37-2.74,6.42c-6.31,13.63-14.29,26.24-23.43,38.13c-8,10.42-17.17,19.76-26.68,28.78
	c-29.16,26.18-62.89,44.44-99.49,57.91c-30.12,11.08-61.11,18.49-92.79,23.25c-2.92-0.11-3.85-2.17-4.44-4.55
	c-1.57-6.26-3.73-12.36-5.05-18.7c-0.35-1.68-0.26-3.68-2.14-4.79c-1.86,0.71-1.68,2.4-1.64,3.76c0.23,7.39-2.04,14.4-3.16,21.58
	c-0.35,2.22-1.24,4.12-3.35,5.23c-10.22,2.42-20.71,2.63-31.09,3.64c-5.72,0.56-5.77,0.48-4.53,6.27
	c2.33,10.88,5.65,21.51,7.92,32.4c0.5,2.4,1.58,4.81-0.02,7.21c-1.56,1.24-3.43,1.1-5.24,1.11c-11.12,0.03-22.24-0.1-33.36,0.07
	c-4.39,0.07-6.66-1.54-7.62-5.92c-1.28-5.83-3.07-11.54-4.31-17.39c-0.33-1.56-0.37-3.59-2.57-3.71c-2.15-0.12-3.32,1.44-3.85,3.28
	c-1.85,6.41-5.01,12.28-7.3,18.51c-1.05,2.85-2.65,4.98-5.97,5.17c-5.5,0.22-11,0.18-16.49,0.07c-6.05-0.12-7.5-1.75-6.34-7.76
	c2.18-11.29,3.9-22.66,6.27-33.91c1.39-6.61,1.26-6.65-5.18-7.71c-2.3-0.38-4.64-0.53-6.92-1.01c-15.59-1.93-31.07-4.55-46.48-7.57
	c-1.79-0.35-3.58-0.62-5.34-1.09c-15.78-3.97-31.6-7.83-47.05-12.99c-26.74-8.93-52.24-20.51-76.2-35.42
	c-1.69-1.05-3.47-1.99-4.67-3.66c-1.74-4.8-2.79-9.79-3.78-14.78c-0.22-1.13-0.33-2.28-0.76-3.36c-0.66-1.65-1.76-2.84-3.64-2.82
	c-1.97,0.02-2.12,1.74-2.6,3.11c-0.85,2.42-0.69,5.31-3.19,6.97c-2.31,0.43-3.75-1.19-5.24-2.41
	c-26.61-21.78-48.46-47.34-62.77-78.91c-1.1-3.15-2.62-6.13-3.82-9.23c-2.05-5.28-2.34-5.51-7.63-4.18
	c-13.25,3.31-26.44,6.88-39.4,11.24c-19.59,6.59-38.97,13.71-57.57,22.79c-22.85,11.16-44.55,24.14-63.66,41.01
	c-5.19,4.59-9.69,5.5-16.12,2.61c-11.84-5.31-24.21-9.38-36.39-13.91c-0.94-0.35-1.86-0.79-2.86-0.87c-3.22-0.25-4.34,2.26-5.2,4.53
	c-0.84,2.23,1.37,2.73,2.83,3.32c7.43,2.96,14.77,6.14,22.23,9.02c2.49,0.96,5.01,1.85,7.4,3.02c1.34,0.66,3.07,1.54,2.53,3.23
	c-0.54,1.7-2.47,1.36-3.93,1.13c-9.05-1.41-18.23-1.82-27.23-3.57c-1.47-0.29-2.93-0.65-4.44-0.68c-2.58-0.05-4.14,1.19-4.37,3.77
	c-0.22,2.5,1.61,3.02,3.54,3.27c10.07,1.29,20.1,2.88,30.17,4.17c2.69,0.34,6.67-0.17,7.18,2.95c0.46,2.85-3.41,3.63-5.75,4.68
	c-8.67,3.87-17.39,7.62-26,11.62c-1.93,0.9-4.45,1.68-2.78,4.65c1.46,2.59,2.84,5.63,6.85,3.82c2.73-1.23,5.49-2.43,8.34-3.36
	c2.84-0.94,3.69,0.45,3.15,3.08c-0.17,0.82-0.49,1.63-1.01,2.27c-3.99,5.04-4.33,10.87-4.28,17.01c0.07,9.31,0.64,18.64-0.79,27.93
	c-0.72,4.7,0.49,9.09,2.79,13.42c12.25,23.12,29.42,41.83,50.35,57.31c45.02,33.28,95.07,56.82,147.26,76.27
	c31.57,11.77,63.81,21.36,96.51,29.35c28.49,6.96,57.31,12.36,86.34,16.54c16.79,2.42,33.64,4.51,50.54,6.04
	c6.61,0.6,13.29,0.63,19.91,1.32c2.93,0.3,6.07,0.11,8.21,2.8C597.28,773.34,595.16,779.81,590.02,784.91z"/>
<path class="st1" d="M1005.32,409.6c4.02-13.58,3.99-13.39,17.4-11.1c29.55,5.05,58.7,11.67,87.08,21.45
	c3.93,1.35,7.94,2.53,11.7,4.26c3.18,1.47,5.63,0.93,8.26-1.08c2.9-2.21,6.03-4.14,9.03-6.22c2.2-1.53,3.33-1.17,3.21,1.68
	c-0.02,0.5,0.11,1.02-0.01,1.49c-2.45,10.01,2.87,14.12,11.39,18.11c24.69,11.57,47.28,26.44,65.54,47.11
	c3.18,3.6,6.03,7.51,8.93,11.35c7.05,9.33,10.57,19.4,9.26,31.53c-1.31,12.21-1.26,24.61-1.14,36.92
	c0.06,6.38-1.92,11.55-5.36,16.66c-9.42,13.97-21.93,24.88-34.74,35.48c-22.63,18.71-47.4,34.21-73.1,48.29
	c-0.85,0.47-1.86,0.65-2.8,0.97c-2.45,0.42-4.88,0.94-7.41,0.9c-20.21-0.34-39.24,4.86-57.14,13.68
	c-10.75,5.3-21.46,7.63-33.24,5.61c-4.19-0.72-8.31,0.21-12.17,1.93c-11.24,5.02-22.44,10.09-32.97,16.6
	c-10.88,6.73-22.67,7.85-35.06,4.7c-10.36-2.64-19.3,1.32-27.67,6.9c-2.79,1.86-5.63,3.54-8.71,4.83
	c-3.65,1.53-7.21,1.74-11.14,0.43c-14.44-4.81-28.58-3.88-42,3.48c-13.44,7.37-27.47,10.08-42.81,8.19
	c-9.34-1.15-18.95-1.29-28.39-0.2c-6.76,0.78-12.74,3.92-17.95,8.18c-3.84,3.14-7.47,3.64-12.4,2.57
	c-14.02-3.05-27.47-1.98-38.7,8.47c-3.61,3.35-7.19,6.72-10.75,11.5c8.58,0.24,16.18,1.03,23.7-0.65c4.28-0.96,8.56-1.2,12.89-1.03
	c1.75,0.07,3.76-0.28,4.86,1.73c-4.08,0.16-4.27,1.97-2.64,5.27c2.48,5,5.12,9.96,6.72,15.35c-25.66,0-51.32,0-76.99,0
	c-0.63-4.57,1.64-8.33,3.52-12.16c2.5-5.08,2.4-5.14-3.4-5.42c-5.71-0.28-11.19,1.44-16.75,1.73c-10.57,0.55-21.22,1.07-31.79-0.54
	c-5.59-0.85-11.19-1.32-16.85-1.18c-2.12,0.05-4.35,0.4-6.23-1.06c-5.32-1.59-10.86-1.5-16.29-1.88
	c-49.77-3.46-98.85-11.49-147.32-23.01c-39.84-9.47-78.86-21.66-116.92-36.93c-39.93-16.02-78.43-34.72-114.24-58.7
	c-24.52-16.42-46.4-35.44-61.65-61.29c-4.71-7.99-8.14-15.81-6.52-25.35c0.66-3.89-0.02-8,0.3-11.97
	c0.91-11.21-2.46-23.25,7.99-33.63c-5.67,0.66-8.85,2.76-12.11,4.38c-3.12,1.56-5.04,1.37-6.88-1.8c-4.58-7.86-5.87-5.89,2.96-10.02
	c8.89-4.15,17.88-8.09,26.84-12.1c1.33-0.6,2.8-0.95,4.23-2.96c-9.49-1.31-18.42-2.55-27.35-3.77c-3.79-0.52-7.61-0.89-11.38-1.52
	c-1.86-0.31-5.08,0.47-4.17-3.18c0.72-2.89,0.07-7.22,5.44-6.49c10.71,1.47,21.44,2.82,32.16,4.21c1.15,0.15,2.3,0.24,4.05,0.42
	c-2.62-3.11-6.12-3.3-8.97-4.55c-8.21-3.62-16.52-7.06-24.94-10.16c-4.05-1.49-3.39-2.84-1.63-6.01c2.54-4.58,5.17-4.65,9.63-2.87
	c13.58,5.45,27.39,10.31,41.02,15.63c2.61,1.02,4.38,0.65,6.29-1.04c40.78-36.13,89.51-56.67,140.97-71.84
	c8.93-2.63,17.98-4.85,26.95-7.37c2.73-0.77,4.27-0.36,5.12,2.7c1.2,4.29,2.92,8.44,4.42,12.65c-1.84,2.18-4.47,3.17-7.04,3.26
	c-15.89,0.51-31.13,4.78-46.33,8.61c-31.34,7.9-61.56,18.93-89.18,36.16c-8.89,5.55-16.99,12.16-24.94,18.96
	c-0.4,0.26-0.94,0.41-1.21,0.79c-0.7,1.02,0.19,1.07,0.81,1.06c4.7-0.07,9.49,0.68,13.93-1.62c8.5-0.12,16.74-2.77,25.3-2.54
	c4.16,0.11,8.01-2.17,12.26-2.08c1.84,0.04,2.44-1.47,2.63-3.09c1.23-10.91,8.17-16.49,17.95-19.73c6.25-2.07,12.28-4.5,18.56-0.1
	c1.82,1.28,3.88,0.38,5.69-0.58c3.69-1.96,7.69-3.18,11.44-4.99c1.34-0.65,2.96-1.31,4.24-0.15c1.47,1.34,0.16,2.8-0.46,4.04
	c-1.65,3.27-3.25,6.62-5.34,9.59c-3.05,4.33-5.36,8.31-4.02,14.18c0.74,3.23-1.21,7.14-3.23,10.25
	c-5.6,8.63-13.02,14.17-23.89,13.47c-3.67-0.24-5.51,0.39-5.71,5.04c-0.6,14.5-8.93,23.87-21.74,29.6
	c-3.77,1.69-7.61,3.2-11.85,3.72c-3.59,0.44-6.37,8.78-4.18,11.63c0.93,1.21,2.31,1.2,3.63,1.24c4,0.14,7.97-0.17,11.95-0.68
	c4.95-0.64,6.37,0.71,6.67,5.58c0.66,10.71-0.4,11.86-11.02,11.87c-6.5,0-12.99,0.05-19.49-0.02c-6.34-0.07-8.68-2.22-9.08-8.62
	c-0.32-5.15-0.18-10.33-0.07-15.49c0.07-3.44-1.33-5.1-4.74-5.76c-13.75-2.63-24.27-9.59-30.22-22.73c-1.54-3.4-3.15-3.34-4.91,0.22
	c-2.66,5.37-4.77,10.99-6.57,16.72c-3.29,10.46-5.37,21.06-2.43,31.9c3.76,13.91,10.8,25.89,20.84,36.42
	c21.52,22.58,48.11,36.93,76.36,48.94c19.81,8.42,40.38,14.56,60.93,20.75c13.04,3.93,26.46,6.5,39.74,9.51
	c1.91,1.48,4.19,1.46,6.44,1.57c0.79,0.1,1.53,0.33,2.25,0.67c2.68,1.85,5.7,0.98,8.61,1.04c8.64,0.75,16.89,3.61,25.47,4.71
	c16.97,2.18,33.76,5.57,50.81,7.38c8.91,0.95,17.9,1.42,26.72,3.18c6.68,1.33,13.57,1.38,20.3,1.98c9.91,0.88,19.81,2.13,29.76,2.74
	c16.91,1.04,33.87,1.41,50.71,3.49c1.49,0.18,2.98,0.35,4.48,0.39c42.77,1.15,85.54,3.03,128.35,1.97
	c25.78-0.64,51.52-2.24,77.27-3.49c12.96-0.63,25.85-2.05,38.8-2.73c9.54-0.5,19.17-1.53,28.7-3.04c8.01-1.27,16.19-1.38,24.27-2.55
	c12.82-1.85,25.67-3.44,38.46-5.52c5.89-0.96,11.76-2.28,17.76-2.56c3.06,0.31,6.07,0.19,8.89-1.29c1.3-0.41,2.64-0.54,4-0.54
	c2.89,0.22,5.65-0.22,8.27-1.51c21.22-4.78,42.64-8.6,63.81-13.74c30.44-7.4,60.26-16.76,89.63-27.5
	c21.46-7.85,41.76-18.27,60.77-31.15c7.88-5.34,15.39-11.08,22.62-17.23c13.17-11.2,23.52-24.6,29.81-40.71
	c7.13-18.24,2.87-34.86-8.83-49.94c-14.49-18.67-34.1-30.45-54.93-40.55c-3.6-1.74-7.28-3.32-10.78-5.25
	c-2.78-1.54-4.1-0.74-4.97,2.32c-3.42,12.05-8.66,23.4-13.75,34.8c-4.63,10.36-12.69,16.86-23.23,20.54c-6.89,2.4-6.9,2.39-6.9,9.49
	c0,5.15,0.55,10.29,0,15.46c-0.51,4.8-2.31,7.18-7.01,7.49c-7.15,0.47-14.32,0.35-21.48,0.03c-2.71-0.12-4.84-1.49-5.54-4.25
	c-0.68-2.7,1.12-4.34,3.03-5.8c3.59-2.77,7.81-2.45,11.98-2.48c6.01-0.03,6.24-0.27,6.31-6.12c0.01-0.67,0,0.17,0-0.5
	c0.07-9.9,0.06-9.83-9.64-10.78c-5.81-0.57-10.95-3.09-15.34-6.75c-2.93-2.45-5.96-3.36-9.61-3.16c-2.82,0.15-5.66,0.01-8.5,0.05
	c-2.06,0.03-3.93,0.55-5.59,1.84c-6.55,5.12-13.05,10.29-19.55,15.46c-2.4,1.75-4.81,4.23-7.14-0.07c-0.06-2.2,1.21-3.83,2.65-5.18
	c4.41-4.13,7.09-9.65,11.36-13.89c2.24-2.22,2.84-4.55,0.43-7.42c-3.49-4.15-3.48-9.18-2.51-14.26c1.09-2.59,1.32-5.39,2.08-8.07
	c0.52-0.98,1.39-1.54,2.44-1.41c6.26,0.76,12.62-0.33,18.87,1.44c5.76,1.64,10.93,0.96,16.38-2.86
	c12.26-8.58,24.61-17.09,37.3-25.06c2.55-1.6,4.72-3.59,7.69-6.22c-21.34-7.84-42.94-12.38-63.95-18.81
	c-2.61-1.43-5.47-1.58-8.35-1.67c-7.3-2.08-14.95-2.75-22.14-5.27C1007.97,411.4,1006.1,411.43,1005.32,409.6z"/>
<path class="st2" d="M598.51,766.29c7.15-0.38,14.3-0.34,21.41,0.56c17.29,2.2,34.48,0.12,51.71-0.94c1.33-0.08,2.66-0.11,3.99-0.02
	c2.45,0.16,2.94,2,1.77,3.45c-3.74,4.64-4.97,10.36-7.37,15.57c-26.66,0-53.32,0-79.99,0C592.85,778.7,595.68,772.5,598.51,766.29z"
	/>
<path d="M351.86,674.17c-10.7-1.23-21.07-4.16-31.44-6.83c-16.9-4.35-33.59-9.54-50.06-15.37c-21.42-7.59-42.26-16.62-61.55-28.59
	c-17.49-10.85-33.58-23.62-45.23-41.13c-9.67-14.54-15.04-30.1-11.23-47.65c2.06-9.5,5.25-18.73,9.9-27.33
	c0.86-1.59,1.57-4.06,4.02-3.86c2.24,0.18,1.63,2.58,2.27,3.98c5.94,12.93,16.06,20.55,29.95,22.74c4.7,0.74,6.1,2.43,5.68,6.97
	c-0.46,4.96-0.37,9.98-0.28,14.98c0.11,6,2.25,8.16,8.16,8.16c8.33-0.01,16.65-0.34,24.98-0.32c3.05,0.01,4-1.22,4.19-4.12
	c0.7-10.81,0.78-10.8-9.63-10.14c-1.33,0.08-2.68,0.22-3.99,0.08c-3.04-0.32-7.31,1.9-8.84-1.04c-1.78-3.42-0.27-7.86,0.53-11.75
	c0.47-2.3,2.91-2.44,4.89-2.77c11.39-1.89,20.86-6.99,27.62-16.55c3.74-5.29,5.64-11.26,4.76-17.72c-0.5-3.69,0.98-4.5,4.05-4.13
	c7.6,0.92,14.62-0.44,20.22-5.95c5.74-5.65,10.63-11.81,7.55-20.75c-0.87-2.51,0.97-4.29,2.08-5.82c3.9-5.33,6.79-11.23,10.91-18.09
	c-6.4,2.82-11.82,4.94-16.96,7.61c-2.42,1.26-4.06,1.33-6.29-0.23c-3.89-2.73-7.82-3.25-12.6-1.11c-5.64,2.54-11.95,3.45-16.33,8.58
	c-3.03,3.55-4.84,7.36-5.02,12c-0.07,1.75,0.39,3.76-2.45,3.99c-13.22,1.1-26.28,3.71-39.58,4.01c-3.76,1.51-7.68,0.89-11.55,0.86
	c-1.67-0.01-3.43-0.39-2.48-2.87c12.58-11.75,26.78-21.22,42.08-28.95c13.56-6.85,27.53-12.72,42.02-17.52
	c9.64-3.2,19.35-6.23,29.09-8.99c10.44-2.95,21.39-4.11,31.92-6.79c7.7-1.96,15.81-0.97,23.27-3.92
	c6.78,12.9,13.79,25.66,22.65,37.32c11.53,15.16,24.84,28.54,39.62,40.5c1.41,1.14,2.78,2.32,4.17,3.49
	c2.34,3.02,0.67,6.11-0.23,8.92c-1.41,4.39-1.41,8.79-1.19,13.24c0.21,4.24,3.3,7.83,6.77,7.96c4.4,0.17,5.74-3.01,6.89-6.5
	c1.38-4.21,0.56-8.9,2.88-12.89c36.96,23.83,77.4,39.18,120.02,49.2c2.4,0.56,4.93,0.69,7.1,2.07c-1.7,3.4-5.42,4.23-8.25,5.98
	c-7.64,4.72-15.36,9.33-23.21,13.7c-3.12,1.74-5.85,1.92-8.86,0.09c-1.56-0.95-3.46-1.41-4.87-2.51c-9.56-7.5-20.48-6.17-31.35-4.95
	c-4.94,0.56-7.46,4.13-8.78,8.51c-1.2,3.96,0.47,7.22,3.46,9.75c2.82,2.38,6.1,3.95,9.6,5.2c4.37,1.55,4.83,3.18,2.07,6.98
	c-3.34,4.59-4.55,10.4-8.49,14.64c-0.83,0.76-1.79,1.26-2.9,1.48c-7.27-0.77-14.54-0.75-21.81-0.08c-1.87-2.96-0.84-6.24-1.07-9.38
	c0-0.85,0.14-1.67,0.34-2.49c1.29-3.75,1.93-7.6,1.66-11.57c1.77-8-1.42-13.03-9.17-15.35c-0.63-0.19-1.19-0.58-1.77-0.91
	c-8.94-4.97-9.08-5.1-15.85,2.31c-2.98,3.26-6.75,5.33-10.08,8.03c-2.32,1.87-4.82,1.58-7.38-0.03
	c-19.38-12.18-38.44-24.88-58.08-36.67c-2.43-1.46-4.52-3.37-6.58-5.3c-1.91-2.38-3.48-2.45-4.2,0.81
	c-0.54,2.43-0.23,4.93-0.15,7.42c0.04,0.84,0.05,1.67,0.01,2.5c-0.32,6.08-2.15,7.55-7.85,5.9c-3.81-1.11-7.71-2.07-11.16-4.18
	c-1.33-0.85-2.77-2.6-4.29-1.22c-1.8,1.63,0.29,3.22,0.89,4.8c2.98,7.11,3.55,14.86,5.98,22.12c1.91,5.71,5.64,9.71,10.85,12.49
	c5.31,2.83,9.34,6.36,10.6,12.9c1.44,7.44,7.38,10.77,14.29,12.23c6.52,1.38,7.74,2.71,6.19,9.47c-1.25,5.43-1.49,10.86-1.47,16.37
	c0.01,4,1.51,6.03,5.78,6.47c6.77,0.7,13.41,2.4,20.33,1.96c3.08-0.2,5.11-0.72,5.13-4.41c0.02-3.31-1.08-5.03-4.59-4.9
	c-3.73,0.14-7.08-1.76-10.74-2.2c-3.3-0.39-3.77-3-3.48-5.63c0.43-3.98,0.75-7.94,0.87-11.95c0.16-5.11,1.71-5.96,6.73-4.51
	c15.59,4.51,29.16,0.8,40.82-10.32c2.08-1.98,3.22-4.66,5.08-6.79c1.46-1.66,3.04-3.25,5.54-2.58c2.21,0.59,2.3,2.65,2.67,4.4
	c1.13,5.31,3.68,10.35,3.1,15.99c-2.42,3.44-6.06,5.68-8.8,8.81c-2.04,2.33-3.97,4.83-2.91,8.04c1.13,3.44,4.48,3.75,7.46,3.9
	c5.48,0.28,10.97,0.43,16.38-1.05c5.06-1.39,10.26-0.79,15.41-0.69c2.94,0.06,5.14,1.66,6.45,4.12
	c7.08,13.32,16.57,11.54,27.39,8.93c2.41-0.58,4.75-1.54,7.13-2.3c4.89-1.55,9.58-1.3,13.64,2.2c9.08,7.82,18.9,7.15,28.91,2.36
	c7.35-3.52,14.63-7.2,19.64-14.11c2.28-3.14,3.16-6.57,3.15-10.3c-0.01-4.34-3.54-5.64-6.61-7.29c-3.29-8.57-1.54-12.96,6.42-16.64
	c7.29-3.37,12.96-8.63,16.94-15.59c3.96-6.92,7.54-14.03,10.49-21.45c0.82-2.05,1.17-4.69,4.2-4.96c4.12,0.42,8.23,1.1,12.35,1.18
	c3.5,0.07,4.1,1.33,3.45,4.56c-2.63,13.15-4.85,26.39-7.63,39.51c-0.95,4.5,0.37,5.37,4.52,5.18c6.11-0.27,12.25,0.03,18.38,0.09
	c2.19,0.25,2.51,1.77,2.47,3.57c-0.04,2-0.1,3.99-0.05,5.99c0.14,6.08,3.14,9.52,9.13,10.49c9.75,1.58,12.3-0.45,12.87-10.26
	c0.56-9.54,0.56-9.52,10.39-9.55c11.14-0.03,22.29,0.13,33.43-0.09c1.5-1.23,0.77-2.68,0.42-4.1c-3.2-12.85-6.28-25.74-9.69-38.54
	c-0.87-3.28-0.51-4.32,3.07-4.59c11.73-0.88,23.43-2.12,35.14-3.22c2.5,0.88,1.66,2.93,1.51,4.62c-0.34,3.98-0.86,7.94-1.86,11.83
	c-0.72,2.81-0.71,5.66,0.93,8.21c2.66,4.15,8.73,4.58,12.03,0.83c2.65-3.02,3.53-6.75,3.7-10.65c0.18-3.99,0.01-7.99,0.08-11.99
	c0.04-2.19,0.1-4.39,2.47-5.54c28.55-4.74,56.76-10.92,84.17-20.35c37.86-13.03,73.1-30.83,103.7-57.09
	c1.53-1.31,2.33-3.7,4.85-3.77c4.99,3.57,9.83,7.23,16.55,7.06c2.73-0.07,4.24,2.34,4.76,5.03c1.24,6.37,3.77,12.38,5.26,18.72
	c0.32-4.9,0.09-9.8,0.27-14.69c0.07-1.99,0.03-4.31,2.3-5.09c2.56-0.89,3.95,1.19,5.19,2.94c2.11,2.98,4.44,5.82,6.19,9.05
	c0.75,1.23,1.44,2.5,2.25,3.99c0.19-2.16-1.04-3.47-2.01-4.9c-2.49-6.5-4.39-13.21-7.19-19.6c-0.75-1.71-0.97-3.61-0.32-5.37
	c3.34-9.08,2.03-16.93-5.85-23.16c-0.65-0.51-1.03-1.29-1.21-2.13c3.28-4.87,6.77-9.62,9.8-14.65c4.67-7.76,9.02-15.72,13.5-23.59
	c8.88,2.13,17.76,4.27,26.64,6.41c2.48,1.44,5.5,0.64,8.01,1.94c8.44,2.1,16.94,3.94,25.29,6.35c12.8,3.69,25.48,7.78,38.21,11.7
	c1.06,0.33,2.44,0.18,2.61,1.79c0.16,1.54-1.1,1.7-2.07,2.34c-15.3,10.16-30.83,20.02-45.68,30.8c-5.95,4.31-11.5,2.8-17.37,2.03
	c-6.31-0.82-12.56-1.8-18.94-0.9c-1.53,2.44-1.08,5.37-1.98,7.97c-0.48,5.91-0.22,11.69,4.66,15.92c2.11,1.83,0.16,2.71-0.54,3.59
	c-5.39,6.82-10.91,13.53-16.38,20.27c-1.98,2.15-4.63,1.58-7.05,1.55c-9.67-0.11-19.3,0.15-28.73,2.59
	c-0.97,0.25-1.97,0.41-2.88,0.8c-1.58,0.67-4.15,0.74-3.7,3.19c0.38,2.04,2.62,2.28,4.47,2.51c16.1,1.97,32.2,1.26,48.28-0.22
	c2.81-0.26,5.58-1,8.06-2.47c1.18-0.7,2.31-1.64,2.14-3.11c-0.17-1.49-1.55-2.05-2.82-2.52c-1.91-0.71-3.92-0.61-5.91-0.76
	c-1.9-0.15-4.09,0.4-5.35-1.77c6.35-6.3,13.6-11.52,20.72-16.87c2.51-1.88,5.86-0.24,8.82-0.49c6.06-0.52,11.5-0.74,16.66,4.46
	c4.96,5,12.42,5.87,19.56,5.43c3.08-0.19,4.33,0.98,3.93,3.99c-0.04,0.33,0.01,0.67,0,1c-0.16,4.64,1.28,10.37-0.93,13.63
	c-2.24,3.32-8.4,0.85-12.79,1.53c-1.5,0.23-2.94,0.41-4.26,1.22c-2.02,1.23-4.29,2.51-3.56,5.29c0.71,2.67,3.1,2.99,5.6,2.99
	c6.16-0.01,12.33,0.22,18.49,0.22c5.81,0.01,7.51-1.62,7.63-7.31c0.13-6.15,0.26-12.3,0.04-18.44c-0.11-2.97,0.82-5.01,3.61-5.59
	c18.25-3.81,25.89-17.69,31.82-33.24c3.1-8.11,6.79-16.02,8.54-24.61c0.5-2.47,2.11-3.38,4.44-2.24
	c22.2,10.79,44.43,21.6,61.9,39.71c11.29,11.7,19.38,25.28,18.96,42.01c-0.38,14.74-6.91,27.6-15.85,39.1
	c-15.62,20.08-35.9,34.45-57.68,47.08c-17.56,10.19-36.06,18.33-55.17,24.86c-13.29,4.54-26.52,9.38-40.2,12.84
	c-10.66,2.7-21.06,6.45-31.71,9.2c-9.91,2.55-20,4.41-30.01,6.55c-11.62,2.48-23.24,4.95-34.87,7.38c-1.95,0.41-3.95,0.54-5.93,0.8
	c-2.57,1.3-5.67,0.1-8.16,1.75c-1.27,0.09-2.54,0.18-3.82,0.27c-2.63,0.99-5.56,0.55-8.14,1.75c-11.1,1.68-22.19,3.45-33.3,5.01
	c-12.48,1.75-24.97,3.53-37.5,4.87c-19.45,2.08-38.93,3.95-58.42,5.63c-12.26,1.06-24.55,1.79-36.85,2.35
	c-44.23,2.03-88.49,3.08-132.76,1.89c-30.41-0.82-60.82-2.26-91.18-4.15c-16.38-1.02-32.81-2.03-49.1-3.95
	c-20.41-2.4-40.93-3.93-61.24-7.28c-14.85-2.45-29.82-4.16-44.67-6.62c-6.29-1.04-12.44-2.93-18.8-3.71
	c-2.4-2.03-5.72,0.08-8.14-1.83c-0.62-0.06-1.24-0.13-1.87-0.19C356.26,674.39,353.74,675.47,351.86,674.17z"/>
<path d="M985.26,338.31c22.92,24.95,19.65,57.09,0.75,81.72c-17.06,22.24-39.94,36.67-64.77,48.82
	c-51.45,25.18-106.5,35.56-162.86,40.98c-17.25,1.66-34.53,3.33-51.85,3.34c-71.33,0.03-142.15-4.96-211.18-24.5
	c-34.48-9.76-67.44-23.12-95.88-45.77c-15.84-12.61-29.77-26.65-36.81-46.27c-2.8-7.8-2.58-15.79-1.18-23.64
	c2.77-15.62,10.87-28.88,21.9-39.67c23.53-23.02,50.49-41.15,81.54-52.74c0.46-0.17,0.96-0.25,1.44-0.38
	c2.18,1.99,0.27,3.65-0.52,5.29c-3.33,6.86-6.87,13.58-6.51,21.62c0.47,10.25,4.34,18.66,12.8,24.6c3.34,2.35,4.87,4.47,3.66,8.99
	c-2.02,7.56,1.51,13.86,6.51,19.38c-0.8,2.69-3.31,2.52-5.29,2.93c-8.54,1.76-16.57,4.88-24.38,8.68c-1.8,0.88-3.52,1.89-4.99,3.27
	c-5.97,5.61-4.51,12.93,3.3,15.56c5.2,1.75,10.51,3.23,15.95,4.07c2.83,0.44,5.48,1.4,8.13,2.37c6.31,2.32,7.78,5.73,5.37,12.04
	c-4.87,12.72-4.02,15.09,9.21,18.58c9.39,2.48,19.19,1.31,28.78,0.56c5-0.39,9.96-0.52,14.94-0.36c4.38,0.14,8.23,1.81,10.86,5.32
	c8.95,11.95,21.81,15.83,35.71,17.22c8.99,0.9,16.44-3.55,23.37-8.57c6.34-4.6,10.82-11.28,17.12-16c2.13-1.6,0.68-2.73-0.78-3.82
	c-2.36-1.76-5.31-2.93-6.28-6.12c0.4-3.78,3.02-4.84,6.27-5.08c3.18-0.23,5.48,1.09,6.72,4.07c1.87,4.47,3.92,8.77,7.5,12.23
	c6,5.82,14.97,7.55,22.64,4.08c4.85-2.19,9.44-4.91,14.41-6.86c3.25-1.27,6.38-1.66,9.67-0.23c5.63,2.43,11.54,3.15,17.59,2.37
	c3.78-0.49,5.19,1.27,5.23,4.75c0.02,1.5,0.08,3,0.01,4.49c-0.29,5.58-2.1,7.42-7.61,7.71c-2.82,0.15-5.66-0.14-8.47,0.22
	c-1.18,0.15-2.56,0.51-2.66,1.83c-0.14,1.81,1.52,2.01,2.81,2.06c6.32,0.26,12.64,0.2,18.96,0.05c3.23-0.08,4.2-2.12,4.21-5
	c0.03-5.49-0.03-10.98,0.03-16.47c0.11-9.51,4.28-12.78,13.34-10.18c7.98,2.3,13.8-0.7,18.88-6.65
	c8.78-10.28,14.04-22.48,19.56-34.58c2.54-5.57,4.13-11.61,7.99-16.54c0.31-0.73,1.94-0.83,1.16-2c-0.23-0.35-1.01,0.44-1.49,0.8
	c-1.34,1.1-2.82,1.87-4.52,2.22c-6.99,0.33-7.45-0.07-6.74-5.78c0.1-0.47,0.25-0.94,0.43-1.39c0.45-1.27,1-2.62-1.25-2.52
	c-1.66,0.08-2.99,1.06-4.41,1.78c-10.67,4.57-21.9,7.61-32.66,11.92c-2.92,1.17-5.89,2.22-8.84,3.34c-2.65,1.01-5.5,1.77-7.56-1.3
	c-1.76-8.47-3.48-16.95-5.3-25.41c-0.54-2.51-0.51-3.96,2.81-4.19c14.86-1.03,28.93-5.52,43.09-9.81
	c24.7-7.49,46.69-19.99,67.44-34.97c3.03,0.08,2.57,2.5,2.72,4.3c0.27,3.14-0.09,6.31,0.19,9.45c0.56,6.24,4.63,8.97,11.75,8.01
	c5.58-0.75,8.46-4.9,7.04-10.88c-1.34-5.64-3.64-11.02-5.29-16.58c-0.75-2.52-2.93-5.13-0.5-7.92c0.5-0.65,1.05-1.27,1.5-1.95
	c4.72-7.1,10.07-10.51,19.33-6.91c8.91,3.46,18.98,3.07,28.23,5.94c1.6,2.26-0.17,4.14-0.81,6.06c-2.94,8.79-0.78,15.51,6.88,20.85
	c6.52,4.54,6.29,4.89,2.68,11.97c-6.71,13.15-3.67,31.51,12.61,37.98c5.46,2.17,11,3.75,16.7,4.85c4.47,0.86,6.16,3.45,5.76,7.76
	c-0.06,0.66-0.05,1.33-0.11,1.99c-0.97,10.85-1.77,11.59-12.68,11.71c-2.49,0.03-5.01-0.08-7.28,1.25
	c-1.21,0.71-2.17,1.68-2.04,3.17c0.13,1.57,1.4,2.36,2.75,2.45c7.96,0.55,15.96,0.83,23.88-0.11c3.99-0.48,3.88-3.99,3.35-7.1
	c-1.12-6.58-0.07-12.87,2.31-19.02c2.35-1.96,5.65-1.12,8.12-2.75c13.73-3.78,26.9-8.98,39.46-15.73
	C980.92,338.58,982.71,336.26,985.26,338.31z"/>
<path class="st3" d="M541.84,121.58c0.1-2.49,0.22-4.98,0.3-7.46c0.69-21.87,10.54-38.96,28.17-51.24
	c9.82-6.84,21.35-10.09,33.49-9.85c8.97,0.18,17.95,0.78,26.9,1.46c14.87,1.14,24.39,9.47,29.86,22.92
	c1.09,2.69,1.93,5.48,3.14,8.95c2.05-3.91,3.63-7.13,5.39-10.25c8.07-14.3,20.68-20.62,36.76-22.07
	c28.06-2.52,46.31,10.43,57.78,34.94c0.5,1.06,0.92,2.16,2.19,2.54c1.49,1.92-0.11,3.44-0.73,5.03c-1.91,4.99-4.86,9.48-7.08,14.32
	c-3.32,7.27-5.74,7.8-11.72,2.24c-7.07-6.58-14.74-12.48-21.64-19.26c-1.15-1.13-2.24-2.65-4.25-1.57c-2.7-3.14-4.34-6.96-9.42-7.91
	c-12.32-2.32-17.32-0.62-24.71,9.61c-6.43,8.91-11.14,18.31-11.09,29.71c0.01,2.95,2.14,5.14,1.78,8c-2.34,3.8-1.54,8.09-1.75,12.17
	c-0.15,2.87,2.56,2.63,4.45,2.67c7.48,0.15,14.95,0.01,22.43,0.08c2.64,0.02,5.37-0.17,7.59,1.74c1.26,1.9-0.44,2.15-1.53,2.76
	c-10.24,5.63-17.42,13.5-18.95,25.6c-0.19,1.47,0.15,3.62-2.51,3.39c-3.81-4.3-4.54-9.93-6.26-15.07c-1.33-3.99-3.1-5.76-7.57-4.85
	c-3.22,0.66-6.61,1.22-9.9,1.1c-4.98-0.19-7.59,1.92-9.08,6.59c-4.89,15.39-10.29,30.61-15.23,45.99c-1.16,3.6-0.12,4.83,3.58,4.81
	c16.99-0.08,33.98-0.08,50.97,0c3.79,0.02,4.51-1.32,3.5-4.87c-1.08-3.8-3.28-7.33-3.03-11.48c1.81-1.71,2.97-0.08,4.22,0.86
	c4.73,3.57,9.3,7.33,14.29,10.56c6.65,4.3,13.3,8.62,20.46,12.02c3.7,1.76,5.52,4.08,3.97,8.21c-1.49,1.89-1.32,4.14-1.32,6.34
	c-0.15,3.39-2.11,6.28-2.63,9.56c-1.51,1.96-1.39,4.25-1.32,6.53c0.09,2.35-0.37,4.54-1.3,6.74c-1.61,3.8-4.26,4.84-7.97,3.47
	c-2.21-0.82-4.44-1.19-6.79-1.17c-2.69,0.02-4.82,0.83-6.1,3.39c-1.14,2.28-2.85,4.04-5.26,5.05c-7.93,2.44-16.22,2.08-24.28,2.38
	c-33.75,1.25-67.25-1.33-100.13-9.44c-18.51-4.57-36.3-11.19-52.54-21.38c-6.64-4.17-12.67-9.24-17.5-15.52
	c-4.78-6.21-5.17-13.02-2.32-20.16c0.7-0.42,1.45-0.55,2.25-0.42c2.32,1.19,4.64,2.32,6.71-0.46c3.06-3.1,3.77-7.4,5.22-11.18
	c2.4-6.24,6.43-12.16,5.31-19.4c-0.1-0.65,0.13-1.39-0.11-1.98c-4.14-10.17,1.13-18.07,5.92-26.29c1.99-3.41,3.74-6.97,6-10.25
	c1.85-2.68,2.19-5.8,2.24-9.03C540.75,127.69,539.85,124.43,541.84,121.58z"/>
<path class="st1" d="M735.82,233.9c0.45-2.94,0.07-4.66-3.28-6.48c-13.52-7.32-27.01-14.82-38.13-25.76
	c-6.69-5.06-10.26-15.72-7.34-21.92c1.35-4.92,1.16-10.15,4.32-14.73c4.69-6.8,9.46-13.2,17.89-15.6c0.19-0.05,0.26-0.54,0.39-0.82
	c2.23-2.98,5.48-1.82,8.32-1.89c7.97-0.19,7.97-0.08,7.51-8.2c-0.06-1-0.15-1.99-0.01-2.99c1.97-4.81,2.39-10.35,6.67-14.06
	c11.92-2.64,23.89-5.07,35.77-7.9c3.01-0.72,5.45-2.1,7.36-4.49c-0.03,3.4,1.39,5.49,4.49,7.39c7.9,4.84,8.11,12.98,7,20.87
	c-0.66,4.69,0.54,5.28,4.64,4.44c6.53-1.34,13.21-2.04,19.85-1.17c15.69,2.06,25.57,13.62,26.6,30.61c0.19,3.13-0.55,6.34,0.72,9.38
	c0.14,9.41-4.64,16.73-10.13,23.74c-0.82,1.04-1.93,1.84-2.79,2.86c-3.35,3.99-5.89,8.14-2.99,13.57c0.78,1.46,0.69,3.24,1.17,4.84
	c1.81,6.01,1.87,6.11,6.97,2.76c2.63-1.73,4.76-1.04,6.72,0.87c2.1,2.06,1.56,4.25-0.26,6.17c-3.44,3.63-6.92,7.21-10.63,10.57
	c-2.44,2.21-4.74,2.07-6.74-0.73c-2.8-3.93-5.56-7.86-7.31-12.42c-0.76-1.97-1.27-4.1-3.11-6.19c-3.91,4.93-8.51,8.94-12.67,13.4
	c-1.65,1.77-1.07,3.71-0.27,5.6c2.32,5.52,4.4,11.15,7.02,16.54c0.9,1.85,1.45,3.68,1.2,5.73c1.19,2.91,2.07,6.02,3.66,8.69
	c2.2,3.68,0.95,5.45-2.42,7.31c-5.76,3.17-5.63,3.35-7.73-2.87c-1.01-2.98-2.14-5.92-3.21-8.87c-3.49-3.21-3.05-8.22-5.46-12.04
	c-1.25,4.88,1.12,10.04-1.67,14.62c-0.3,3.94-0.84,7.88-0.85,11.82c-0.02,4.61-3.48,3.5-5.95,3.9c-3.26,0.53-2.66-1.97-2.79-3.87
	c-0.18-2.77,0.62-5.61-0.6-8.3c-2.28-3.48-1.04-7.38-1.23-11.09c-0.18-3.45-0.2-6.93,0.12-10.39c1.43-7.4,0.7-8.44-6.31-10.78
	c-5.96-1.99-11.73-4.52-17.47-7.06c-5.35-2.37-6.48-2.33-7.09,3.44c-0.89,8.43-5.33,16.06-5.08,24.67
	c-0.34,0.93-0.79,1.81-1.14,2.73c-3.79,9.9-3.79,9.92-14.05,6.77c-1.73-0.53-3.45-1.09-5.13-1.76c-2.6-1.38-5.21-3.05-7.54,0.44
	c-1.68,2.22-4.31,2.98-6.58,4.26c-1.38,0.78-3.12,1.83-4.49,0.18c-1.35-1.62-0.72-3.43,0.41-5.01c0.48-0.67,1.19-1.13,1.73-1.76
	c1.06-1.16,2.25-2.23,3.15-3.5c4.08-5.82,6.6-6.86,12.94-5.13c8.65,2.36,9.1,2.03,9.99-7.22c0.03-0.33,0.06-0.66,0.09-0.99
	c1.67-1.74,0.16-4.41,1.8-6.16c-0.63-3.58,2.2-6.42,2.12-9.89C735.8,238.36,734.3,235.69,735.82,233.9z"/>
<path d="M742.91,764.29c-10.87-1.67-21.47,2.28-32.3,1.52c-2.82-0.2-5.66-0.08-8.49-0.09c-2.67-0.01-3.66-1.42-1.83-3.33
	c9-9.4,17.95-19.42,31.9-20.73c6.89-0.65,14.15-0.94,20.95,1.98c2.17,0.94,4.4,0.85,6.48-1c10.2-9.07,22.18-12.44,35.7-11.05
	c6.61,0.68,13.28,0.76,19.91,1.31c13.32,1.11,25.35-2.68,37-8.84c14.3-7.55,29.1-8.37,44.48-2.83c5.78,2.08,10.8-1.62,15.41-4.9
	c8.43-5.98,17.51-9.71,28.11-8.22c3.88,0.55,7.62,1.68,11.57,2.08c9.06,0.92,17.02-1.7,24.49-6.3
	c10.84-6.68,22.36-12.04,34.01-17.03c4.28-1.84,9.09-2.52,14.13-1.55c10.61,2.06,20.42-0.63,30.04-5.43
	c12.52-6.24,25.76-10.31,39.73-12.5c8.67-1.36,17.14-1.36,25.75-0.91c-14.72,8.85-30.37,15.84-46.08,22.65
	c-88.15,38.19-180.6,59.52-275.76,70.22C779.75,761.41,761.38,763.34,742.91,764.29z"/>
<path class="st1" d="M1323.01,154.83c-0.18,2.05-1.96,2.5-3.36,3.26c-21.8,11.76-43.61,23.5-65.41,35.25
	c-51.5,27.75-103.03,55.47-154.46,83.35c-3.19,1.73-4.79,1.27-7.55-0.94c-7.12-5.71-14.74-10.81-22.24-16.04
	c-2.7-1.88-2.83-2.84,0.31-4.56c34.12-18.69,68.15-37.55,102.24-56.29c41.95-23.06,83.97-46.01,125.87-69.18
	c3.35-1.85,5.04-1.8,7.26,1.38c5.05,7.21,10.46,14.16,15.71,21.23C1321.97,153.08,1322.45,153.96,1323.01,154.83z"/>
<path class="st1" d="M765.95,357.94c1.36-0.63,2.72-1.26,4.08-1.89c0.73-0.57,1.45-0.57,2.04,0.17c0.45,0.57,0.27,1.16-0.18,1.68
	c-6.19,10.8-9.99,22.73-15.85,33.69c-4.74,8.87-9.71,17.52-17.91,23.79c-4.51,3.45-9.38,3.56-14.47,1.78
	c-7.09-2.48-11.27,0.25-11.39,7.49c-0.11,6.49-0.43,12.98-0.23,19.46c0.11,3.63-1.6,4.81-4.66,4.83
	c-7.15,0.05-14.31,0.07-21.46-0.12c-1.57-0.04-4.1,0.26-4.1-2.47c0-2.75,1.71-4.28,4.4-4.41c3.65-0.17,7.32-0.24,10.97-0.15
	c3.18,0.07,4.58-1.33,4.52-4.47c-0.05-2.99,1.13-6.62-0.18-8.81c-1.65-2.76-5.28,0.21-8.15-0.15c-3.29-0.42-6.58-0.26-9.63-1.95
	c-7.09-3.94-13.33-0.76-19.57,2.47c-3.75,1.94-7.38,4.25-11.64,4.92c-13.63,2.13-22.38-5.11-26.75-16.55
	c-0.75-1.96-0.44-5.21-4.02-5.4c-3.57-0.18-6.63,0.33-7.96,4.23c-3.55,4.29-6.38,9.41-12.49,10.74c-1.53-0.38-2.18-1.5-2.48-2.91
	c-0.6-4.84,2.1-9.09,2.47-13.77c1.75-2.67,1.47-5.32-0.09-7.94c-6.08-10.22-3.65-22.95,5.16-31.2c1.78-1.66,3.83-2.67,6.07-3.21
	c6.85-1.65,13.7-2.36,20.32,0.98c1.64,0.83,3.24,1.72,3.74,3.71c3.07,4.61,6.23,9.09,7.25,14.81c0.47,2.64,2.85,0.71,4.08,0.28
	c13.44-4.66,26.83-9.48,40.23-14.26c4.52-1.61,9-3.38,13.58-4.81c1.88-0.59,2.82-1.47,2.86-3.36c2.07,1.98,4.47,1.12,6.5,0.31
	c14.15-5.68,28.61-10.45,43-15.45c1.12-0.66,2.42-0.79,3.64-1.1c3.09-0.77,3.3,0.75,2.35,3.1l0,0.01c-0.1,0.13-0.27,0.26-0.28,0.4
	c-0.23,2.04-2.39,4.45-0.63,5.97C760.92,359.98,763.69,359.14,765.95,357.94z"/>
<path d="M636.49,372.48c-5.18-3.46-10.73-4.93-17.1-4.8c-12.61,0.25-21.66,12.91-20.02,24.57c0.5,3.54,1.05,7.05,3.57,10.11
	c1.66,2.03,2.25,5.02-0.59,7.2c-8.25-4.83-18.57-5.1-25.92-12.06c-2.67-2.53-6.39-2.41-9.97-1.69c-5.39,1.09-10.52,3.1-15.81,4.54
	c-5.75,1.57-10.22,0.31-13.52-4.64c-3.65-5.47-8.64-6.84-14.68-6.09c-0.99,0.12-1.96,0.44-2.96,0.44c-3.57-0.01-7.04-0.3-9.17-3.79
	c-2.22-3.65-1.2-7.01,0.91-10.27c1.81-2.8,4.55-4.86,6.27-7.73c1.2-2,2.73-4.11,1.38-6.46c-1.18-2.06-3.55-1.38-5.48-1.43
	c-3.16-0.08-6.31-0.02-9.47,0.04c-1.61,0.03-3.57,0.37-3.41-2.31c1.35-3.66,5.12-5.62,6.46-9.34c1.16-3.19,2.09-6.27,0.67-9.64
	c-1.58-3.74-0.19-6.38,2.63-9.2c6.44-6.44,11.72-13.58,10.42-23.63c-0.59-4.55-2.29-8.6-4.19-12.66c-0.56-1.2-2.73-3.24,0.83-3.71
	c9.76,5.98,19.56,11.91,29.23,18.02c1.39,0.88,2.77,1.64,4.25,2.28c2.61,1.33,2.06,3.42,1.34,5.55c-1.49,4.4-2.9,8.81-3.48,13.46
	c-0.37,2.99-0.37,5.94,0.29,8.9c1.73,7.66,6.1,10.83,14.46,10.46c6.33-0.28,10.26-4.42,11.04-11.8c0.38-3.63-0.06-7.3,0.25-10.94
	c0.15-1.83-0.16-4.25,2.92-4.11c16.74,5.25,33.42,10.79,50.95,12.94c3.77,0.46,7.54,0.87,11.32,1.25c1.58,0.16,3.18,0.29,2.78,2.47
	c-2.01,11.07-2.87,22.34-5.61,33.29C637.03,372,636.7,372.22,636.49,372.48z"/>
<path class="st4" d="M778.03,255.93c0.28,7.47,0.67,14.93-0.25,22.38c-31.58,10.14-64.05,14.63-97.11,16
	c-36.44,1.51-72.44-1.36-107.96-9.54c-23.78-5.48-46.74-13.26-67.48-26.53c-8.16-5.22-15.81-11.13-21.63-19
	c-15.22-20.6-13.57-40.62,4.81-58.55c4.09-3.98,8.43-7.71,12.65-11.55c1.52-0.94,3.2-0.68,4.83-0.6c5.69,0.27,6.77,1.76,4.98,7.14
	c-2.53,7.6-0.74,15.42-1.34,23.11c-0.27,3.53,1.02,7.31-1.52,10.51c-2.7,9.43-0.8,17.63,6.55,24.37
	c8.72,7.99,18.55,14.06,29.31,19.12c17.42,8.2,35.75,12.94,54.49,16.44c13.7,2.56,27.48,4.76,41.48,4.83
	c4.48,0.02,8.85,1.09,13.38,1.07c16.94-0.06,33.87-0.03,50.71-2.18c0.27,2.4-3.88,4.55-1.31,6.44c1.53,1.12,4.17-1.39,6.07-2.82
	c1.12-0.84,2.96-0.65,3.47-2.39c2.58-1.84,5.26-1.38,7.96-0.33c3.85,0.89,7.83,1.43,11.51,2.78c3.18,1.18,4.14,0.35,5.26-2.63
	c0.89-2.38,0.36-5.45,2.92-7.14c3-1.96,6.55-2.19,9.87-3.15c7.78-2.25,15.55-4.53,23.15-7.33
	C774.46,255.77,776.18,254.77,778.03,255.93z"/>
<path class="st1" d="M508.02,209.3c0.02-9.39,0.05-18.79,0.08-28.18c0-0.66,0.11-1.32,0.12-1.98c0.02-3.07,3.81-6.07,1.8-8.56
	c-1.85-2.29-6-0.16-8.94-1.43c-4.64-0.49-7.65-3.52-9.09-7.41c-2.34-6.32-6.35-8.95-12.95-8.14c-1.43,0.18-3-0.19-4.43-0.57
	c-6.58-1.75-7.74-3.45-7.26-10.25c0.27-3.81,0.61-7.62,0.83-11.44c0.22-3.79-1.49-6.11-5.09-7.61c-7.83-3.24-8.34-4.34-7.59-12.8
	c0.13-1.49,0.31-2.98,0.44-4.47c0.74-8.38,0.74-8.4-6.81-11.98c-5.03-2.39-7.46-6.21-7.4-11.88c0.07-6.9,2.99-12.85,5.54-18.98
	c1.24-2.99,2.67-1.36,4.18-0.38c16.17,10.47,32.33,20.95,48.52,31.4c13.94,9,27.92,17.96,41.87,26.94
	c0.57,8.69,0.45,16.78-5.62,24.45c-4.29,5.42-7.48,12.17-9.65,19.03c-0.58,1.82-0.84,4.21-0.15,5.87c3.93,9.4,0.64,17.85-3.04,26.25
	c-1.28,2.92-2.91,5.68-3.52,8.86c-0.42,2.16-2.15,3.07-3.84,4.01c-2,1.36-4.02,1.31-6.04,0.05
	C509.33,209.83,508.67,209.57,508.02,209.3z"/>
<path class="st5" d="M932.08,358.12c-1.45,6.86-2.16,13.71-1.35,20.77c0.63,5.48-0.94,6.89-6.38,6.92
	c-6.99,0.05-13.98,0.06-20.96-0.03c-2.6-0.04-5.97,0.27-6.27-3.33c-0.32-3.84,2.68-5.63,6.02-5.99c3.62-0.39,7.32-0.29,10.96-0.06
	c3.22,0.2,4.57-1.27,4.81-4.23c0.04-0.5,0.03-1,0.09-1.49c1.59-12.47,1.55-12.26-10.84-14.85c-9.61-2.01-17.82-6.53-23.43-15.03
	c-4.38-6.64-4.16-22.27,0.88-29.16c2.67-3.65,2.79-5.67-1.52-8.5c-11.27-7.4-12.84-15.52-6.59-28.91c5.37-1.21,4.46-4.24,2.23-7.66
	c1.23-3.19,3.92-3.15,6.66-3c0.45-0.13,0.89-0.26,1.34-0.4c3.18-1.36,6.26-0.52,9.34,0.45c5.13,6.99,8.39,15.07,12.97,22.39
	c2.9,1.81,3.75,4.93,4.88,7.82c1.92,4.91,5.15,7.27,10.66,6.9c5.25-0.35,10.57-0.38,15.79,0.72c10.62,2.33,21.46,1.61,32.2,2.38
	c8.68,0.62,17.4,0.75,26.47,2.13c-3.7,2.82-7.4,5.65-12.4,9.47c6.66,0.3,11.84,0.51,17.01,0.81c1.08,0.06,2.57-0.6,3.15,0.71
	c0.68,1.55-0.78,2.31-1.77,3.15c-6.22,5.22-12.4,10.49-18.71,15.6c-0.97,0.78-1.56,1.6-2.03,2.64c-5.35,1.11-9.38,4.95-14.34,6.93
	c-10.16,4.05-19.99,8.99-30.9,10.88C937.52,357.36,934.47,356.43,932.08,358.12z"/>
<path class="st1" d="M1293.9,291c0,4.33-0.23,8.67,0.07,12.98c0.25,3.66-1.19,4.84-4.71,5.25c-23.45,2.8-46.88,5.8-70.32,8.73
	c-31.02,3.88-62.05,7.76-93.07,11.64c-5.45,0.68-10.9,1.34-16.33,2.1c-2.15,0.3-3.37,0.12-3.44-2.62c-0.17-6.65-0.54-13.3-1.1-19.93
	c-0.27-3.26,1.48-3.87,4.06-4.31c20.48-3.49,40.96-7.06,61.43-10.61c29.97-5.19,59.93-10.37,89.9-15.58
	c10.15-1.76,20.3-3.53,30.44-5.39c2.41-0.44,3.37,0.27,3.32,2.75c-0.09,4.99-0.03,9.98-0.03,14.98
	C1294.04,291,1293.97,291,1293.9,291z"/>
<path class="st1" d="M615.98,559.69c-3.84,4.99-5.09,11.21-7.9,16.71c-4.87,9.55-9.76,18.9-19.48,24.53
	c-0.56,0.32-1.06,0.92-1.64,1.02c-9.98,1.62-9.92,8.65-8.82,16.26c2.14,2.82,1.49,6.02,1.16,9.13c-0.24,2.27-1.65,3.8-3.9,3.86
	c-10.95,0.31-21.92,1.22-32.84-0.52c-2.54-2.72-1.7-4.66,1.5-5.86c1.22-0.46,2.52-0.7,3.62-1.44c3.33-1.32,6.83-0.8,10.26-0.83
	c2.98-0.02,4.76-1.04,4.66-4.26c0.01-0.66,0.04-1.32,0.04-1.99c0.03-8.52-0.09-8.41-8.37-9.08c-6.47-0.52-12.83-1.8-17.36-7.21
	c-2.08-2.48-4.24-3.05-7.38-1.52c-3.18,1.55-6.87,1.12-10.27,0.44c-2.75-0.55-3.71,0.44-4.71,2.84c-1.4,3.38-0.91,6.86-1.37,10.27
	c-1.14,2.7-1.55,5.67-3.05,8.24c-1.27,0.81-2.57,0.84-3.91,0.19c-1.96-2.21-1.82-5.28-3.17-7.74c-2.18-9.85-3.49-10.31-11.17-3.82
	c-0.63,0.53-1.17,1.18-1.91,1.6c-0.72,0.33-1.47,0.44-2.25,0.37c-1.46-0.36-2.53-0.98-1.92-2.77c2.79-5.14,5.21-10.52,8.5-15.32
	c2.14-3.13,1.16-3.77-1.67-4.63c-5.61-1.7-10.75-4.18-13.58-9.76c-3.08-6.09,2.04-15.59,8.82-16.28c5.25-0.54,10.55-0.26,15.77-1.69
	c2.91-0.8,5.68,1.29,8.34,2.53c5.16,2.41,10.44,4.66,15.3,7.58c1.9,1.14,2.73,0.72,4.22-0.1c9.16-5.05,18.24-10.24,27.06-15.88
	c2.07-1.33,4.39-2.28,6.6-3.4c11.58,1.98,23.16,3.98,34.75,5.94C605.26,558,610.63,558.83,615.98,559.69z"/>
<path class="st6" d="M420.52,130.59c-22.04,3.99-43.16,6.93-63.83,11.8c-21.85,5.15-43.57,4.07-65.48,2.2
	c-7.63-0.65-15.27-1.19-22.91-1.62c-7.55-0.43-12.75-5.81-12.77-13.4c-0.02-9.19,3.28-15.94,12.59-19.26
	c8.89-3.17,17.93-5.05,27.32-5.18c39.22-0.52,76.99,7.52,114.1,19.41C413.19,125.7,416.49,127.56,420.52,130.59z"/>
<path class="st7" d="M1030.16,254.41c-3.68-3.09-7.9-4.63-11.84-6.69c-7.98-4.17-8.45-2.73-1.13-9.1
	c52.76-45.92,105.59-91.76,158.3-137.74c2.71-2.36,3.97-2.72,5.76,0.7c2.39,4.56,5.14,8.93,7.86,13.3c1.4,2.26,1.07,3.67-1.03,5.45
	c-51.67,43.88-103.27,87.84-154.89,131.78C1032.21,252.93,1031.14,253.67,1030.16,254.41z"/>
<path class="st1" d="M517.37,289.95c-0.14,4.05,2.72,7.08,3.63,10.83c1.88,7.69,2.18,15.02-2.87,21.71c-2.65,3.51-4.8,7.47-8.7,9.9
	c-1.68,1.05-1.99,2.69-1.23,4.36c4.33,9.4-1.15,15.6-6.99,21.69c-1.95,3.28-1.74,6.93-1.79,10.53c-0.03,1.83-0.06,3.66-0.82,5.38
	c-0.45,0.86-0.91,1.69-1.1,2.67c-1.23,6.37-1.41,6.5-7.84,6.08c-2.54-0.76-2.92-2.86-3.06-5.05c-0.19-2.94-0.12-5.89-0.05-8.83
	c-0.03-2.17,0.73-4.45-0.92-6.38c-1.01-1.25-2.63-1.65-3.78-2.71c-6.69-5.07-9.86-13.64-7.14-21.37c0.94-2.68,0.15-3.58-1.65-4.72
	c-11.85-7.53-16.26-18.65-14.87-32.15c0.67-6.51,3.55-12.46,7.13-17.97c0.76-1.18,1.18-2.32,1.03-3.69
	c6.64-5.27,10.63-12.68,15.45-19.38c2.4-3.33,3.66-4.21,6.71-0.27c7.32,9.46,15.8,17.9,25.04,25.55
	C514.94,287.26,516.11,288.66,517.37,289.95z"/>
<path class="st7" d="M51.99,457.2c0.76-15.07,2.36-30.03,12.15-42.39c11.36-14.34,26.25-22.26,44.81-22.16
	c3.82,0.02,4.46-1.67,4.47-4.75c0.04-14.64,6.45-25.01,20.24-30.73c6.55-2.71,13.13-1.99,19.66-0.94
	c10.73,1.72,20.81,5.66,30.66,10.19c2.59,1.19,2.71,2.49,0.75,4.44c-1.17,1.16-2.04,2.63-3.08,3.92c-2.08,2.59-3.72,6.11-6.43,7.46
	c-2.7,1.35-5.02-2.56-7.91-3.55c-7.57-2.57-15.12-2.77-22.57-0.33c-10.84,3.54-14.17,8.61-12.36,19.93c0.87,5.41,0.2,9.08-4.5,12.28
	c-2.72,1.85-4.47,2.76-8.23,1.93c-8.13-1.8-16.75-1.69-24.49,2.02c-13.11,6.29-22.25,16.1-24.91,30.98
	c-1.44,8.05-2.75,16.13-1.4,24.31c0.56,3.4-1.09,4.79-3.9,5.83c-10.43,3.89-10.37,3.91-12.23-6.95
	C52.07,464.87,52.11,461.05,51.99,457.2z"/>
<path class="st8" d="M177.6,143.94c-11.29,12.42-22.58,24.83-33.86,37.25c-4.25,4.68-8.81,9.13-12.66,14.12
	c-9.03,11.72-21.7,17.2-35.28,21.03c-9.49,2.67-17.62,0.19-21.18-5.61c-3.55-5.79-1.89-15.8,4.29-22.62
	c8.98-9.91,20.11-16.99,32.31-22.15c20.68-8.75,41.4-17.51,63.44-22.45c0.79-0.18,1.58-0.32,2.37-0.48
	C177.22,143.34,177.41,143.64,177.6,143.94z"/>
<path class="st9" d="M804.8,267.93c-3.31-7.67-6.54-15.38-9.96-23c-1.02-2.26-0.87-3.59,0.97-5.58c4.13-4.45,8.83-8.43,12.23-13.54
	c0.59-0.89,1.2-1.71,2.35-1.39c1.13,0.32,1.18,1.45,1.43,2.41c1.78,6.74,5.43,12.49,9.4,18.13c1.7,2.42,3.08,2.1,4.73,0.39
	c3.53-3.67,6.93-7.47,10.49-11.11c1.68-1.72,1.62-3.02-0.23-4.5c-1.48-1.18-2.42-2.21-4.58-0.49c-5.84,4.67-5.99,4.51-8.78-2.58
	c-1.14-2.89-1.61-5.97-2.8-8.89c-1.66-4.09,1.23-7.07,3.75-9.93c4.13-4.69,7.88-9.6,10.75-15.22c1.98-3.86,1.59-8.4,4.05-12.03
	c3.59,3.48,6.66,7.39,9.25,11.65c10.36,17.05,7.36,35.58-8.23,51.77C829.64,254.38,817.44,261.47,804.8,267.93z"/>
<path class="st10" d="M406.29,52.09c-4.61,1.65-9.22,3.29-13.82,4.95c-13.47,4.86-26.92,9.76-40.4,14.59
	c-7.17,2.57-17.41-1.09-21.43-7.57c-2.7-4.35-1.64-9.47,2.91-12.7c5.32-3.78,11.46-5.3,17.89-5.48c15.52-0.44,30.97,0.04,46.13,4.02
	c2.79,0.73,5.74,0.9,8.61,1.33C406.21,51.52,406.25,51.8,406.29,52.09z"/>
<path class="st11" d="M577.67,321.76c-2.37,1.26-1.3,3.5-1.44,5.34c-0.39,5.24,0.45,10.54-2.03,15.62
	c-3.29,6.74-5.28,7.9-14.92,7.16c-5.45-0.42-10.05-4.17-11.33-9.53c-2.08-8.74-0.08-17.09,2.97-25.23c0.67-1.77,1.41-3.27-0.08-4.87
	c4.78-2.92,5.8-8.06,7.02-12.8c0.73-2.83,1-3.18,3.95-2.26c7.86,2.44,11.79,7.25,12.43,15.54
	C574.53,314.44,574.77,318.64,577.67,321.76z"/>
<path class="st12" d="M234.04,67.08c-0.49,2.5-2.02,2.59-3.12,3.15c-16.81,8.41-33.63,16.81-50.45,25.19
	c-4.8,2.39-14.6,0.36-18.03-3.63c-1.7-1.97-1.17-4.03-0.45-6.11c2.91-8.34,9.26-13.39,17-16.57
	C197.05,61.69,215.49,66.11,234.04,67.08z"/>
<path class="st5" d="M995.82,500.09c-2.13-3.04-4.11-6.19-6.44-9.07c-1.05-1.3-1.68-3.88-3.86-3.31c-2.41,0.63-1.25,3.1-1.29,4.72
	c-0.15,6.35-0.06,12.71-0.77,19.11c-3.71-7.13-5.59-14.7-7.33-22.22c-0.9-3.88-2.3-5.38-6.15-5.3c-6.22,0.13-10.87-2.81-14.16-8.01
	c8.73-9.39,17.46-18.77,26.19-28.16c8.59,4.39,12.91,13.08,8.4,24.49c-0.73,1.85-0.69,3.66,0.06,5.3
	c3.03,6.65,5.07,13.65,7.31,20.57c0.55,0.49,0.73,1.07,0.22,1.64C997.37,500.56,996.6,500.53,995.82,500.09z"/>
<path class="st13" d="M715.3,610.38c-12.42,0.95-24.86,0.24-37.28,0.3c-3.93,0.02-6.25,0.33-5.17,5.25
	c0.74,3.38-0.23,6.91-0.56,10.38c-0.38,3.94-2.22,5.72-6.02,5.69c-2.66-0.02-5.41,0.3-7.95-0.28c-8.11-1.88-11.17-5.03-10.58-12.39
	c0.24-2.94,2.15-6.3-0.69-9.1c0.85-0.47,2.16-0.75,2.44-1.45c2.76-6.72,5.73-13.4,7.83-20.34c0.92-3.05,2-4.83,4.95-5.99
	c2.82-1.1,4.07-0.38,4.37,2.43c0.8,7.3,3.68,14.11,4.99,21.26c0.6,3.3,2.06,3.87,4.96,3.84c11.28-0.11,22.56-0.05,33.84-0.01
	C712.05,609.97,713.67,610.24,715.3,610.38z"/>
<path class="st14" d="M775.29,109.08c1.15,6.13-4.1,4.97-7.01,5.67c-11.95,2.85-23.81,6.22-36.1,7.39c-1.28-0.26-1.96-1.2-2.37-2.3
	c-3.2-8.47-6.23-17.01-9.37-25.51c-0.35-0.94-0.38-1.94,0.33-2.8c0.48-2.96,1.59-1.4,2.7-0.4c8.23,7.37,16.52,14.67,24.71,22.08
	c4.44,4.02,5.61,3.84,8.12-1.67c3.07-6.72,7.13-12.98,9.53-20.01c2.51-4.95,5.03-9.9,7.55-14.85c0.64,0.08,1.28,0.16,1.92,0.24
	C775.29,87.64,775.29,98.36,775.29,109.08z"/>
<path class="st15" d="M763.11,557.22c-1.9,1.47-1.24,3.55-1.31,5.47c-0.25,6.61,1.07,13.3-1.53,19.77c-1.97,4.9-5.67,7.86-9.52,7.11
	c-6.47-1.26-8.97-4.07-8.5-10.54c0.36-4.95,1.34-9.87,2.18-14.77c0.26-1.5,0.67-2.92-0.19-4.34c2.99-8.64,4.57-17.55,5.12-26.65
	c0.06-0.99-0.14-1.99-0.1-2.98c0.07-2.13,1.82-2.87,3.37-3.09c1.91-0.27,1.58,1.6,1.88,2.83c2.05,8.37,4.2,16.72,6.18,25.11
	C761.04,556.64,762.13,556.73,763.11,557.22z"/>
<path class="st16" d="M780.3,63.27c6.02-7.86,11.41-14.82,18.29-19.71c9.37-6.66,20.28-9.14,31.68-4.84
	c3.12,1.18,6.36,3.12,6.38,6.93c0.02,4.03-3.33,5.88-6.63,7.27c-5.74,2.41-11.93,2.86-18,3.71
	C801.68,58.07,791.63,60.97,780.3,63.27z"/>
<path class="st17" d="M828.44,277.15c0.71,7.45,4.03,14.13,6.43,21.05c1.73,5,1.61,9.51-1.68,13.54c-2.15,2.64-10.68,2.9-14.73,1.01
	c-3.48-1.63-4.4-4.78-4.63-8.13c-0.23-3.3-0.02-6.63-0.02-9.94c0-1.44,0.49-3.05-1.29-3.91c3.94-6.05,4.16-13.59,7.95-19.71
	c0.85-1.38,1.43-2.94,2.36-4.9C826.15,269.47,825.15,274.46,828.44,277.15z"/>
<path class="st18" d="M225.89,177.08c-3.62,15.15-7.25,30.31-10.86,45.46c-0.28,1.17-0.56,2.55-2.07,2.29
	c-4.21-0.73-8.69-0.08-12.61-2.41c-3.37-2-5.01-4.67-4.02-8.71c0.79-3.25,1.68-6.48,3.36-9.35
	C206.14,193.32,215.08,184.52,225.89,177.08z"/>
<path class="st19" d="M438.05,499.89c-0.41,4.77-0.3,9.57-1.76,14.24c-1.33,4.26-3.69,7.06-8.4,6.81c-3.84-0.2-7.62-4.65-7.96-8.82
	c-0.53-6.55,0.93-12.81,2.61-19.06c0.34-1.25,0.27-2.6,0.39-3.9c2.17-2.14,1.83-5.19,2.84-7.75c0.64-1.64-0.03-4.6,3.12-3.99
	c2.3,0.44,4.97,0.57,5.54,3.96C435.47,487.58,436.83,493.72,438.05,499.89z"/>
<path class="st20" d="M411.92,177.04c-3.82-0.49-8.47,0.11-9.46-3.76c-1.12-4.41,3.81-5.12,6.74-6.63
	c10.74-5.52,22.44-8.27,33.97-11.46c0.32-0.09,0.66-0.18,0.98-0.16c2.7,0.17,6.64-1.3,7.69,1.22c0.88,2.12-3.25,3.1-5.08,4.67
	c-2.53,2.16-5.45,3.92-7.72,6.31C431.47,175.18,421.34,175.54,411.92,177.04z"/>
<path class="st21" d="M486.23,59.17c0.28,1.16-0.19,1.97-1.29,2.31c-1.98,0.62-3.91,2.28-6.07,0.66c-8-5.99-15.63-12.33-19.72-21.86
	c-0.85-1.99-1.02-3.86,0.65-5.49c1.46-1.43,3.12-1.46,5.06-0.91C473.2,36.25,485.64,50.88,486.23,59.17z"/>
<path class="st22" d="M757.41,59.91c-2.87-7.01-6.83-13.1-10.24-19.47c-1.29-2.41-1.61-4.99-1.55-7.69c0.1-4.2,1.87-7.03,6.19-7.7
	c4.62-0.71,8.54,1.55,9.74,5.79c1.48,5.21,1.09,10.54-0.16,15.73C760.31,51.03,758.37,55.25,757.41,59.91z"/>
<path class="st23" d="M941.35,301.44c-7.22,1.5-14.49,0.27-21.73,0.23c-1.93-0.01-3.08-1.67-3.87-3.39
	c-1.9-4.1-3.82-8.19-5.73-12.29C921.01,290.04,931.35,295.39,941.35,301.44z"/>
<path class="st24" d="M897.06,263.61c-3.12,0.03-6.32,1.58-9.34-0.46c-1.71-5.19-3.46-10.38-5.1-15.6c-0.4-1.27-1.93-3.05,0.18-3.84
	c1.93-0.73,4.45-1.16,5.6,1.49C891.1,251.43,895.05,257.07,897.06,263.61z"/>
<path class="st24" d="M886.38,263.56c-2.22,1-4.44,2-6.66,3c-3.25-3.97-5.74-8.41-7.9-13.04c0.06-1.3-1.95-2.64-0.27-3.8
	c1.48-1.03,2.61,0.22,3.57,1.33C878.87,255.22,882.63,259.39,886.38,263.56z"/>
<path class="st25" d="M787.97,274.77c0-6.04,0-12.08,0-18.12c0.5-0.12,1-0.24,1.5-0.36c2.85,4.89,4.06,10.47,5.63,15.9
	C792.73,273.05,790.35,273.91,787.97,274.77z"/>
<path class="st26" d="M875.12,251.05c-3.14-1.9-3.79-0.47-3.3,2.47c-0.86-1.52-3.69-2.99-1.46-4.73
	C872.04,247.48,874.53,248.14,875.12,251.05z"/>
<path class="st27" d="M1072.28,482.33c-0.67-2.65,0.43-3.98,2.35-5.16c15.22-9.37,30.4-18.81,45.57-28.27
	c1.53-0.95,2.83-0.9,2.67,1.02c-0.5,6.07-0.71,12.36-3.93,17.71c-1.38,2.29-3.34,5.08-7.12,4.15c-2.09-0.52-3.15,1.12-3.56,2.72
	c-0.8,3.13-3.07,5.37-4.58,8.04c-2.14,3.78-5.71,3.75-8.9,1.39c-2.44-1.8-3.44-1.73-5.26,0.95c-3.29,4.84-10.15,5.96-14.48,2.95
	C1073.05,486.43,1071.48,484.75,1072.28,482.33z"/>
<path class="st28" d="M1014.29,519.6c3.32,0.15,6.67,0.06,9.94,0.54c2.72,0.4,6.09,1.01,6.36,4.46c0.24,3.09-2.63,4.41-5.13,5.35
	c-2.16,0.81-4.46,1.5-6.74,1.7c-16.57,1.45-33.15,2.29-49.75,0.34c-0.66-0.08-1.38-0.06-1.96-0.33c-2.11-1.01-4.69-2.28-4.7-4.6
	c-0.01-1.85,2.62-2.63,4.52-3.21c8.46-2.57,17.14-3.84,25.96-4.06c4.99-0.12,9.98,0.01,14.97,0.03c-0.06,2.88,1.71,2.63,3.48,1.87
	C1012.36,521.21,1013.28,520.31,1014.29,519.6z"/>
<path class="st29" d="M238.06,486.72c-6.12,5.72-10.5,12.62-17.94,16.31c-2.72,1.35-5.57,1.82-7.97,0.2
	c-3.13-2.11-5.18-1.48-7.73,0.94c-2.97,2.82-6.42,4.01-10.79,2.36c-3.16-1.19-4.85-2.99-5.76-6.08c-1.25-4.22,1.87-5.47,4.58-6.06
	c13.66-2.99,27.38-5.65,41.09-8.4C234.82,485.75,236.16,485.55,238.06,486.72z"/>
<path class="st30" d="M188.11,474.02c0.26,2.49,2.19,1.97,3.73,1.99c3.43,0.05,6.86,0.02,10.29,0.02
	c-5.39,3.55-11.32,1.34-18.06,2.15C185.78,476.14,185.71,474.05,188.11,474.02z"/>
<path class="st31" d="M359.95,676.05c2.75,0.47,6.1-1.79,8.14,1.83C365.35,677.43,362.06,679.4,359.95,676.05z"/>
<path class="st32" d="M943.87,681.84c2.09-3.5,5.4-1.35,8.16-1.76C949.7,682.49,946.73,681.91,943.87,681.84z"/>
<path class="st33" d="M1039.96,417.95c-2.86,0.13-5.78,0.5-8.01-1.94C1034.79,415.96,1037.71,415.58,1039.96,417.95z"/>
<path class="st34" d="M931.91,683.86c2.35-2.27,5.23-2.11,8.14-1.75C937.67,684.24,934.81,684.14,931.91,683.86z"/>
<path class="st35" d="M1020.04,480.03c-0.25-2.88-0.67-5.81,1.98-7.97C1022.04,474.88,1021.79,477.64,1020.04,480.03z"/>
<path class="st31" d="M351.86,674.17c2.26-0.12,4.72-0.94,6.23,1.7C355.95,675.53,353.27,677.19,351.86,674.17z"/>
<path class="st1" d="M449.86,615.97c-1.31-6.12-2.64-12.24-3.94-18.37c-0.52-2.46-2.13-1.9-3.29-0.91c-1.61,1.38-3.12,3-4.27,4.77
	c-6.93,10.67-17.25,15.43-29.4,16.62c-5.68,0.56-11.51,1.18-16.91-2.1c-2.7-1.64-4.08-0.58-4.04,2.86
	c0.05,3.97-0.56,7.95-0.92,11.92c-0.29,3.12-0.12,5.29,4.16,5.55c4.08,0.25,8.11,1.57,12.28,1.63c2.11,0.03,2.69,1.28,2.85,3.25
	c0.62,8.18,0.24,8.41-8.09,8.54c-6.86,0.11-13.57-0.99-20.35-1.62c-4.1-0.38-5.93-2.64-5.93-6.53c0-6.15,0.21-12.26,1.52-18.36
	c1.32-6.09,0.7-6.61-5.32-7.38c-7.43-0.95-14.34-7.31-15.79-15.46c-0.74-4.15-3.16-6.72-6.34-8.21
	c-9.61-4.51-15.09-11.53-16.27-22.27c-0.59-5.36-2.51-10.57-3.83-15.85c-0.97-4.72-0.5-5.19,4.1-4.11c4.33,1.4,8.73,2.62,12.97,4.24
	c4.02,1.54,5.03-0.13,4.85-3.77c-0.07-1.46,0.14-2.94,0.22-4.41c0.84-1.68,0.85-3.51,0.99-5.34c0.25-3.37,1.8-4.53,4.93-2.68
	c19.35,12.29,38.7,24.59,58.06,36.86c0.82,0.52,1.74,0.87,2.63,1.26c3.3,1.43,5.27,6.88,10.05,3.72c3.08-2.04,5.85-4.57,8.62-7.03
	c3.09-2.75,5.58-6.95,9.13-8.18c3.54-1.22,6.76,3.1,10.18,4.85c0.73,0.37,1.62,0.44,2.35,0.8c9.59,4.78,9.59,4.78,8.84,15.63
	c-0.83,4-0.92,8.11-1.8,12.1c-0.05,0.64-0.11,1.27-0.16,1.91c-1.47,3.94-0.95,7.98-0.57,12c0.11,1.88,0.07,3.75-0.53,5.56
	c-1.99,2.31-1.14,5.37-2.08,7.96c-0.24,0.49-0.6,0.86-1.08,1.12c-2.83,1-4.6-0.57-6.19-2.56
	C450.58,621.4,447.96,619.14,449.86,615.97z"/>
<path class="st7" d="M810.13,639.06c5.46-5.39,7.51-12.89,11.74-19.05c0.37-0.54,0.42-1.32,0.84-1.78
	c5.33-5.94,6.13-11.02-0.61-17.19c-4.69-4.3-2.15-10.54,0.4-15.68c2.42-4.87,5.6-9.42,10.12-12.38c2.97-1.95,7.06-1.97,10.64-1.82
	c9.95,0.42,19.25,2.89,26.14,10.78c2.18,2.5,3.18,2.29,5.07-0.51c6.54-9.72,17.26-12.03,27.69-6.32c1.75,0.96,2.59,1.1,3.67-1.19
	c3.98-8.37,14.65-13.97,23.33-5.98c2.9,2.67,3.6,0.04,4.53-1.62c2.89-5.15,7.16-8.78,12.79-9.99c7.46-1.61,14.52,3.75,15.08,12.77
	c1.09,17.8-1.48,35.01-16.91,46.78c-10.73,8.18-23.25,12.92-36.83,13.74c-4.27,0.26-5.85,1.39-5.58,5.52
	c0.35,5.3,0.31,10.64,0.84,15.92c0.44,4.35-1.77,6.15-5.51,6.64c-7.98,1.04-15.97,0.62-23.88-0.6c-2.46-0.38-4.89-0.83-7.37-0.98
	c-0.77-0.05-1.77,0.11-2.09-0.89c-0.4-1.24,0.68-1.78,1.41-2.36c1.24-1,2.82-0.86,4.3-1.03c5.1-0.6,10.2-1.24,15.32-1.73
	c2.12-0.2,2.91-1.24,2.86-3.23c-0.05-2-0.32-4.04-0.01-5.99c1.41-8.97-1.43-14.33-10.76-17.48c-8.87-2.99-13.73-10.74-18.02-22.86
	c-4.89,8.03-11.13,13.37-21.14,11.59c-1.96-0.35-3.12,1.04-4.04,2.4c-5.23,7.76-10.39,15.57-15.57,23.36c0.41,1.2,0,2.2-0.79,3.1
	c-1.54,1.62-3.44,2.41-5.64,1.99C809.93,642.57,808.47,641.56,810.13,639.06z"/>
<path class="st13" d="M449.86,615.97c0.11,2.83,2.66,5,2.17,8c1.39,2.51,3,4.37,6.01,1.98l0,0c2.13-2.35-0.03-5.69,1.88-8.09
	c0.07-1.98,0.15-3.95,0.22-5.93c0.67-0.64,0.99-1.6,1.85-2.07c5.74-4.02,12-1.25,18.03-1.34c1.26-0.02,2.52,0.65,3.78,1
	c1.66,0.94,0.19,2.28,0.41,3.5c1.24-1.2,2.55-2.15,4.01-2.89c0.65-0.13,1.3-0.26,1.95-0.39c4.86-1.99,9.45-1.83,13.6,1.75
	c1.08,2.7,2.7,5.24,2.42,8.33c1.23,2.33,2.46,2.31,3.69,0c0.03-2.8,0.06-5.61,2.1-7.87c2.14-1.8,4.64-1.41,7.13-1.19
	c12.85,1.15,25.58,3.51,38.52,3.75c2.38,0.04,4.69,0.4,5.81,2.97c0.64,6.68,0.64,6.7-5.93,6.71c-3.14,0.01-6.27-0.07-9.41-0.1
	c-0.55,0.37-1.12,0.78-1.79,0.76c-2.95-0.09-5.88,0.77-8.91,0.23c2.87,0.34,3.26,3.03,4.66,4.74c10.6,0.86,21.21,0.38,31.82,0.55
	c3,0.05,4.13-1.29,4.03-4.22c-0.09-2.64,0.15-5.3,0.24-7.95c6.2,0.38,8.66,3.36,7.79,9.36c-1.08,7.48-4.95,13.01-11.44,16.84
	c-7.13,4.2-13.97,8.9-22.49,10.16c-7.18,1.07-13.62-0.17-18.99-5.11c-4.32-3.97-8.98-4.57-14.27-2.57
	c-4.34,1.64-8.74,3.04-13.38,3.73c-9.84,1.46-16.14-1.09-20.85-9.65c-2.18-3.97-4.99-5.07-9.19-5.29
	c-8.56-0.44-16.71,3.06-25.26,2.31c-1.99-0.17-4.02-0.04-5.97-0.38c-7.71-1.34-9.68-7.02-4.4-12.98
	C442.65,621.28,445.86,618.14,449.86,615.97z"/>
<path class="st16" d="M810.13,639.06c1.07,3.35,3.45,4.14,5.81,1.78c0.62-0.62,1.13-0.96,1.92-1.04c0.86-0.56,1.81-0.85,2.83-0.81
	c8.65,0.28,17.27-0.7,25.91-0.51c1.24,0.03,2.96-0.6,3.55,0.95c0.69,1.81-0.85,2.61-2.25,3.27c-8.77,4.39-17.72,7.83-27.85,7.62
	c-4.34-0.09-8.12-1.54-11.95-2.98c-4.26-1.6-8.39-1.52-12.67-0.31c-5.76,1.64-11.6,2.59-17.61,3.12
	c-8.58,0.76-14.71-2.49-19.97-10.09C775.6,639.73,792.86,639.39,810.13,639.06z"/>
<path class="st36" d="M847.9,642.71c2.4-2.56,2.29-3.74-1.66-3.73c-9.47,0.03-18.9,1.68-28.39,0.82c0.04-0.71-0.05-1.47,0.71-1.91
	c11.52,0,23.05,0,35.16,0C852.41,640.99,850.81,642.62,847.9,642.71z"/>
<path class="st37" d="M354.04,538c-2.43-0.32-4.21,0.1-4.01,3.19c0.12,1.85-0.42,3.56-1.91,4.83c0.08-2.47-0.08-4.98,0.33-7.39
	c0.26-1.51,0.9-3.75,2.52-3.86C352.28,534.67,353.84,536.11,354.04,538z"/>
<path class="st38" d="M488.23,610.14c-0.76,2.9-3.62,3.61-5.12,5.77c-2.75-2.96,1.26-4.24,0.71-6.39c0.67-0.47,1.34-0.94,2-1.41
	C486.02,609.5,486.87,610.12,488.23,610.14z"/>
<path class="st39" d="M461.99,609.87c-0.06,1.19-0.55,2-1.86,2.07c0.14-4.08-1.21-8.38,1.81-12.02
	C461.96,603.23,461.98,606.55,461.99,609.87z"/>
<path class="st40" d="M995.82,500.09c1.17-0.09,1.99-0.54,1.97-1.87c2.8,1.56,2.1,4.52,2.73,6.94c0.02,0.06-1.02,0.61-1.17,0.48
	C997.62,504.15,996.49,502.25,995.82,500.09z"/>
<path class="st41" d="M330.08,549.96c-3.36-0.62-4.53,0.95-4.1,4.11c-2.81-1.28-2.74-4.05-1.31-5.48
	C326.05,547.21,328.89,547.01,330.08,549.96z"/>
<path class="st39" d="M462.11,598.01c-0.52-4.2-0.02-8.25,1.8-12.1C464.37,590.1,464.15,594.19,462.11,598.01z"/>
<path class="st8" d="M487.82,368.21c0.13,3.43,0.26,6.85,0.41,10.28c0.06,1.44-0.1,3.01,1.77,3.56c6.02,2.08,6.79,1.6,7.04-4.43
	c0.05-1.3-0.02-2.62,0.86-3.72c0.07-3.25,0.34-6.51,0.15-9.74c-0.16-2.73,0.76-4.57,3.17-5.73c4.69,1.19,9.46,0.37,14.18,0.52
	c5.43,0.18,7.04,2.43,4.8,7.56c-1.27,2.91-3.27,5.36-5.7,7.41c-1.98,1.67-3.23,3.8-4.04,6.16c-1.28,3.75,0.88,7.2,4.65,8.27
	c3.03,0.87,5.94,0.01,8.9-0.09c6.11-0.19,11.28,0.87,14.51,7.17c2.22,4.34,6.68,5.06,11.3,3.75c5.1-1.45,10.17-3.01,15.29-4.38
	c5.49-1.47,10.48-0.5,14.8,3.41c3.68,3.33,8.11,4.98,13,5.6c3.98,0.51,6.8,3.03,9.46,5.76c0.5,5-2.39,9.44-2.42,14.35
	c-0.76,0.91-1.29,2.01-0.29,2.9c0.85,0.75,1.72-0.19,2.51-0.64c4.55-2.61,6.92-7.72,11.65-10.11c2.86,1.98,5.66,4.05,8.6,5.89
	c1.68,1.05,2.22,2.71,0.83,3.58c-8.77,5.53-14.34,14.63-23.18,20.16c-9,5.62-18.34,7.19-28.52,4.92
	c-11.24-2.51-21.3-6.82-28.24-16.8c-2.67-3.85-7.12-5.12-11.89-5.03c-11.8,0.21-23.54,1.67-35.37,1.2c-4.95-0.2-9.5-1.39-13.91-3.34
	c-6.3-2.79-8.29-8.13-5.01-14.23c6.82-12.7,2.15-13-8.03-15.97c-5.52-1.61-11.31-2.42-16.87-4.15c-5.6-1.74-10.05-5.44-9.92-9.7
	c0.16-5,3.16-8.5,7.5-10.93c9.05-5.07,18.79-8.19,28.85-10.47c1.09-0.25,2.38,0.02,3.2-1.08c1.6,0.2,3.61-0.54,4.24,1.87
	C487.78,363.76,486.35,366.39,487.82,368.21z"/>
<path class="st8" d="M813.38,417.83c-16.83,1.13-33.56-0.74-50.32-1.66c-4.98-0.27-3.52-2.91-2.2-5.31
	c3.72-6.81,7.61-13.52,11.45-20.26c7.28-12.75,14.6-25.48,21.83-38.26c1.44-2.53,3.41-4.01,6.31-4.24c14-1.13,27.47,0.94,40.14,7.1
	c7.28,3.54,10.9,10.92,3.67,17.5c-0.85,0.77-1.42,1.84-2.18,2.7c-3.97,4.49-3.59,8.45,1.28,12.15c3.54,2.68,7.49,4.77,10.39,8.34
	c3.63,4.46,3.28,9.61,1.71,14.18c-1.61,4.67-5.96,7.57-11.13,7.69C834.01,418.01,823.69,417.83,813.38,417.83z"/>
<path class="st19" d="M689.25,468.27c17.11-3.94,33.91-5.79,50.55-8.53c16.68-2.74,33.37-5.45,50.06-8.18
	c1.55-0.25,3.58-1.4,4.43,0.42c0.68,1.46-1.28,2.57-2.38,3.4c-12.42,9.4-25.76,16.15-42.03,14.64c-3.43-0.32-6.46-1.56-9.46-2.89
	c-3.73-1.65-6.67-1.43-10.02,1.28C718.98,477.64,701.39,477.61,689.25,468.27z"/>
<path class="st42" d="M765.95,357.94c-2.32,2.47-5.94,3.37-7.89,1.43c-1.55-1.55-0.32-5.25,1.91-7.36c0.01,0.65,0.22,1.38,0.01,1.94
	c-1.44,3.69-0.01,4.72,3.53,4.02C764.29,357.82,765.13,357.94,765.95,357.94z"/>
<path class="st42" d="M759.97,352c-0.36-5.58-4.26-0.53-5.99-2c1-1.2,2.25-1.96,3.82-2.04c1.27-0.07,2.9-0.65,3.62,0.73
	C762.12,350.04,761.08,351.16,759.97,352z"/>
<path class="st43" d="M932.08,358.12c2.1-2.86,5.13-1.98,7.94-1.99C937.79,358.42,934.86,357.98,932.08,358.12z"/>
<path class="st44" d="M771.89,357.9c0.11-1.35-0.79-1.68-1.86-1.85c0.54-2.47,2.15-2.31,3.34-0.88
	C774.45,356.47,774.12,357.92,771.89,357.9z"/>
<path class="st5" d="M600.5,165.52c-5.51-0.34-6.64,2.13-6.88,7.6c-0.49,11.22-2.31,22.4-3.91,33.55c-0.24,1.71-1.84,3.3-1.75,5.32
	c-5.44,7.3-10.69,8.92-20.05,6.19c-2.6-0.11-5.2-0.22-7.8-0.32c-0.97-0.7-2.09-0.78-3.24-0.83c-3.67-0.17-4.46-2.05-3.06-5.2
	c0.5-4.56,2.95-8.54,4.85-12.43c3.6-7.4,3.88-14.69,0.75-21.71c-2.26-5.08-0.82-9.05,0.86-13.42c1.94-0.83,2.78-2.59,3.65-4.33
	c6.84-7.74,10.9-16.54,10.23-27.11c7.97-11.44,28.56-14.44,37.23-3.24c1.16,1.5,3,2.01,4.46,3.07c-0.35,3.77,0.12,7.38,1.13,11.08
	c0.94,3.47,0.02,6.75-2.98,9.43C609.45,157.23,606.39,162.91,600.5,165.52z"/>
<path class="st45" d="M615.02,133.7c-1.79-0.11-2.94-1.17-4.09-2.46c-7.76-8.82-18.56-10.25-28.52-3.85
	c-2.77,1.78-5.51,3.63-8.26,5.44c-0.07-7.1,1.85-13.83,4.17-20.41c2.37-6.75,5.42-13.27,9.13-19.37
	c9.72-16.03,33.85-18.15,46.6-4.38c7.78,8.4,12.83,18.12,15.06,29.35c0.65,3.26,1.44,6.51,2.46,9.66c0.53,1.62,0.16,2.48-1.19,3.19
	c-3.65,3.19-8.25,1.87-12.33,2.15C630.4,133.54,622.75,135.84,615.02,133.7z"/>
<path class="st45" d="M687.06,179.75c-1.25,8.55,3.44,15.1,7.34,21.92c1.53,4.9,2.96,9.84,4.62,14.7c0.83,2.45,0.73,3.6-2.37,3.59
	c-19.29-0.06-38.58-0.02-57.86,0.1c-2.98,0.02-3.38-1.18-2.55-3.64c5.92-17.64,11.83-35.28,17.66-52.95
	c0.66-2.01,1.68-2.99,3.83-3.18c6.29-0.56,12.57-1.2,18.83-1.98c2.56-0.32,3.51,0.91,4.22,3.06
	C682.8,167.52,684.96,173.63,687.06,179.75z"/>
<path class="st46" d="M720.77,91.53c3.8,10.2,7.61,20.41,11.41,30.61c-1.93,4.41-3.85,8.81-5.78,13.22c-1.92,1.51-4.1,1.1-6.23,0.81
	c-12.87-1.75-25.82-2.64-38.76-3.58c-1.81-0.13-3.72-0.03-4.99-1.74c-0.9-0.75-2.62-0.19-2.71-2.28
	c-0.76-17.26,5.91-31.42,18.35-42.88c5.18-4.77,19.47-4.49,25.14-0.49C719.46,86.79,718.81,89.86,720.77,91.53z"/>
<path class="st47" d="M628.08,225.99c-5.7,2.13-11.01,3.61-15.61,6.61c-1.3,0.85-3.53,1.54-2.85,3.51c0.59,1.69,2.66,0.69,4.05,0.77
	c7.34,0.38,14.6-0.84,21.91-1.16c5.16-0.23,11.49-2.11,12.66,6.32c0.26,1.88,2.37,1.37,3.82,1.33c5.33-0.15,10.63-0.56,15.84-1.78
	c7.3-1.71,14.65-3.02,22.16-3.41c1.47-0.07,3-0.33,4.37-0.85c3.36-1.3,6.14-2.79,8.33,2.21c2.09,4.76,0.84,7.63-3.11,9.91
	c-4.8,2.76-9.88,4.93-15.56,4.7c-11.17-0.44-21.88,1.18-31.89,6.45c-2.69,1.42-5.68,1.89-8.69,2.03c-4.9,0.22-8.86-1.26-10.7-6.29
	c-1.92-5.24-5.8-7.31-11.23-7.26c-8.31,0.07-16.64,0.88-24.92-0.35c-4.79-0.71-10.23-1.31-11.57-6.96
	c-1.33-5.61,2.7-9.31,6.79-12.36c7.25-5.41,15.59-8.85,23.67-12.77c1.96-0.95,3.34-0.48,4.82,1.09
	C622.82,220.33,624.54,223.57,628.08,225.99z"/>
<path class="st48" d="M615.02,133.7c11.7-1.95,23.55-2.13,35.35-2.84c4.69,1.83,3.31,6.47,4.36,9.87c1.95,6.32,1.72,6.38-4.99,6.37
	c-10.27-0.01-20.54,0-31.89,0c6.26,6.2,14.13,8.64,20.26,15.03c-7.24,0.32-13.61,0.14-19.92-0.87c-4.03-0.65-6.06,0.05-6.42,4.82
	c-0.5,6.54-2,13-3.68,19.6c-3.67-6.37-4.17-13.84-7.59-20.17c3.85-4.04,7.32-8.53,11.63-11.99c4.65-3.72,4.44-7.79,2.94-12.61
	C614.34,138.57,612.45,136.12,615.02,133.7z"/>
<path class="st49" d="M676.42,130.85c16.73,0.7,33.41,1.96,49.98,4.51c0.47,3.39,0.99,6.78,1.38,10.18c0.3,2.61-1.71,2.35-3.31,2.37
	c-4.94,0.06-9.9-0.2-14.81,0.71c-10.22-1.07-20.47-0.56-30.71-0.58c-4.39-0.01-6.65-0.82-5.43-5.89c0.6-2.52,0.31-5.28,0.16-7.92
	C673.56,132.08,674.61,131.24,676.42,130.85z"/>
<path class="st50" d="M567.91,218.18c0.16-0.03,0.33-0.12,0.48-0.09c7.5,1.1,14.16-0.47,19.56-6.1c-0.6,4.84-4.08,8.6-8.43,8.06
	C575.66,219.58,571.25,221.91,567.91,218.18z"/>
<path class="st51" d="M553.82,211.82c-0.07,2.69,0.5,4.75,3.93,4.31c1.22-0.16,2.2,0.3,2.37,1.73c-1.61,0.06-3.22,0.21-4.83,0.15
	c-1.2-0.04-2.91,0.36-3.11-1.45C551.98,214.83,550.93,212.58,553.82,211.82z"/>
<path class="st52" d="M563.92,159.94c0.16,2.61,0.16,5.06-3.65,4.33C560.62,162.09,561.79,160.61,563.92,159.94z"/>
<path class="st53" d="M735.82,233.9c-0.31,2.14,1.43,4.87-1.79,6.17C734.31,237.92,732.56,235.19,735.82,233.9z"/>
<path class="st54" d="M509.99,210.1c2.01-0.02,4.03-0.03,6.04-0.05C514.04,213.27,512.03,213.48,509.99,210.1z"/>
<path class="st55" d="M731.9,249.96c-0.25,2.16,1.37,4.86-1.8,6.16C730.27,253.94,728.81,251.28,731.9,249.96z"/>
<path class="st56" d="M745.71,218.12c-6.59-0.01-11.25-3.78-13.44-11.19c-0.9-3.05-1.71-3.48-4.29-1.9
	c-3.94,2.41-7.21,0.24-9.51-2.54c-2.92-3.55-5.33-7.59-4.48-12.71c0.21-1.26,0.92-4.24-1.99-3.07c-3.76,1.5-7.27,1.64-9.24-1.83
	c-2.09-3.69-1.64-7.97,0.65-11.8c0.25-0.43,0.39-0.92,0.64-1.35c4.11-7.29,6.08-7.68,11.26-1.62
	c11.95,13.98,23.75,28.08,35.57,42.17c2.42,2.88,1.37,5.19-2.46,5.7C747.27,218.12,746.09,218.1,745.71,218.12z"/>
<path class="st57" d="M811.87,153.94c4.3,0.11,6.89,2.62,8.56,5.59c1.6,2.83-0.86,4.96-2.93,6.59c-3.21,2.53-0.58,4.12,0.95,5.42
	c4.22,3.57,5.33,7.84,3.43,12.87c-1.08,2.86-3.53,4.74-5.83,6.55c-2.13,1.67-2.95,2.95-1.19,5.63c2.1,3.21,2.38,7.15-0.23,10.19
	c-3.33,3.88-8.24,4.65-13.08,4.79c-1.91,0.05-1.44-1.93-1.4-3.14c0.15-4.64,1.53-9.1,2.19-13.68c1.8-12.53,4.41-24.94,5.86-37.54
	C808.47,154.86,809.74,153.59,811.87,153.94z"/>
<path class="st58" d="M778.03,255.93c-11.07,4.15-22.31,7.78-33.85,10.44c-1.47,0.34-2.89,0.63-4.38,0.49
	c-0.37-6.14,1.59-11.82,3.43-17.53c1.24-3.85,0.97-7.95,2.43-11.86c1.01-2.7,1.7-2.58,3.89-1.66c8.72,3.69,17.27,7.77,26.35,10.69
	C779.91,247.79,779.26,252.3,778.03,255.93z"/>
<path class="st59" d="M720.12,273.85c-2.65,0.11-5.31,0.22-7.96,0.33C714.66,270.5,717.35,271.19,720.12,273.85z"/>
<path class="st60" d="M675.18,407.86c-1.91-0.25-4.07,1.03-5.62-1.68c-2.7-4.73-2.31-5.61,2.95-6.29
	c12.78-1.65,25.59-3.12,38.29-5.39c6.84-1.22,13.79-1.82,20.71-2.53c1.43-0.15,3.89-1.06,4.1,1.32c0.23,2.47,0.43,5.51-2.49,6.93
	c-1.61,0.78-3.46,1.4-5.23,1.48c-14.41,0.68-28.51,4.19-42.95,4.51C681.6,406.29,678.68,408.65,675.18,407.86z"/>
<path class="st61" d="M602.15,426.18c0.17,2.43-2.16,2.31-3.56,4.34c-0.51-3.11-1.63-5.29,1.34-6.6
	C600.15,425.19,600.61,426.22,602.15,426.18z"/>
<path class="st62" d="M897.62,327.96c-0.07-9.23,3.1-11.47,11.97-8.87c4.74,1.39,9.75,1.81,14.61,2.54
	c10.9,1.65,21.7,3.71,32.47,6.01c2.25,0.48,4.63,0.36,6.95,0.59c0.97,0.09,2.06,0.19,2.24,1.5c0.16,1.17-0.49,1.76-1.52,2.24
	c-4.15,1.93-7.65,4.94-12.02,6.64c-3.51,1.36-6.62,1.74-10.03,0.22c-3.57-1.59-6.9-0.36-9.95,1.4c-4.52,2.61-8.66,2.68-12.79-0.75
	c-3.67-3.04-7.38-4.02-12.3-1.96C901.85,339.78,897.68,335.26,897.62,327.96z"/>
<path class="st62" d="M563.43,617.49c-1.17-0.44-2.33-1.24-3.5-1.27c-16.08-0.34-31.91-3.55-47.95-4.27
	c-0.81-4.89,1.25-9.36,2.01-14.03c0.25-1.51,1.01-1.85,2.46-1.34c5.31,1.9,10.53,2.36,15.62-0.87c1.52-0.97,2.81,0.02,3.78,1.34
	c4.98,6.73,12.09,8.66,19.98,8.88c7.91,0.21,7.92,0.22,7.89,8.11C563.72,615.19,563.53,616.34,563.43,617.49z"/>
<path class="st63" d="M503.78,611.5c-4.43-1.36-9.04-1.39-13.6-1.75c1.52-3.67,5.63-4.56,7.97-7.42c0.99-1.21,2.73-0.57,3.06,0.96
	C501.82,606.12,504.18,608.38,503.78,611.5z"/>
<path class="st64" d="M542.06,629.83c-2.67-2.46-5.48-4.66-9.58-4.2c0.04-0.51,0.07-1.02,0.11-1.53c5.17,0,10.34,0,15.51,0
	c-0.31,1.43-1.4,1.59-2.57,1.56C542.61,625.59,541.57,627.07,542.06,629.83z"/>
<path class="st65" d="M509.88,619.83c0.07,1.56,0.94,3.72-1.56,3.9c-2.95,0.22-2.2-2.16-2.13-3.9
	C507.42,619.83,508.65,619.83,509.88,619.83z"/>
<path class="st66" d="M497.9,373.9c0.05,2.1,0.2,4.21,0.11,6.31c-0.06,1.32,0.59,3.53-1.45,3.53c-2.2,0-5.27,2.16-6.55-1.69
	c4.28,0.64,7.05-0.37,6.22-5.54C496.03,375.3,496.52,374.24,497.9,373.9z"/>
<path class="st67" d="M487.82,368.21c-3.23-1.33-1.28-4.11-1.73-6.21C489.66,363.23,487.45,366.08,487.82,368.21z"/>
<path class="st68" d="M459.92,617.86c-0.36,2.76,1.83,6.11-1.88,8.09C458.48,623.21,456.63,619.94,459.92,617.86z"/>
<path class="st68" d="M458.04,625.95c-0.02,3.07-2.33,2.24-3.93,2.11c-2.7-0.2-2.29-2.27-2.08-4.1
	C453.93,624.95,455.49,626.96,458.04,625.95z"/>
<path class="st69" d="M944.89,585.87c-14.5,15.3-29.2,26.44-50.29,24.35c-2.53-0.25-4.83-0.89-7.13-1.95
	c-2.28-1.05-3.39-2.58-3.19-5.01c0.2-2.4,1.4-3.94,3.88-4.53c6.38-1.52,12.74-3.12,19.1-4.73c9.35-2.36,18.71-4.66,28.01-7.2
	C938.02,586.05,940.67,585.75,944.89,585.87z"/>
</svg>
