<?xml version="1.0" encoding="utf-8"?>
<!-- Generator: Adobe Illustrator 25.4.1, SVG Export Plug-In . SVG Version: 6.00 Build 0)  -->
<svg version="1.1" id="Layer_1" xmlns="http://www.w3.org/2000/svg" xmlns:xlink="http://www.w3.org/1999/xlink" x="0px" y="0px"
	 viewBox="0 0 140 440" style="enable-background:new 0 0 140 440;" xml:space="preserve">
<style type="text/css">
	.st0{fill:#FEFEFE;}
	.st1{fill:#5C00AB;}
	.st2{fill:#989898;}
	.st3{fill:#878787;}
	.st4{fill:#5D01AB;}
	.st5{fill:#5F02AC;}
	.st6{fill:#B1B1B1;}
	.st7{fill:#E49106;}
	.st8{fill:#FBFCFB;}
	.st9{fill:#FBFBFC;}
	.st10{fill:#FCFBFD;}
	.st11{fill:#5E01AC;}
	.st12{fill:#5E00AC;}
	.st13{fill:#030202;}
	.st14{fill:#E18F06;}
	.st15{fill:#E28F06;}
	.st16{fill:#5C07A1;}
	.st17{fill:#59089B;}
	.st18{fill:#540891;}
	.st19{fill:#DF8F07;}
	.st20{fill:#DF8E06;}
	.st21{fill:#DE8E07;}
	.st22{fill:#E38F01;}
	.st23{fill:#E29107;}
	.st24{fill:#E08F07;}
</style>
<g>
	<path class="st0" d="M-629.9,230c0-132.77,0.02-265.54-0.08-398.31c0-3.58,0.54-4.7,4.49-4.7c463.66,0.11,927.33,0.11,1390.99,0
		c3.96,0,4.49,1.12,4.49,4.7C769.89-35.2,769.9,97.9,769.9,231c-2.12,1.66-4.17,0.49-6.12-0.29c-8.36-3.32-16.73-6.62-25.21-9.63
		c-3.5-1.24-5.92-3.46-7.52-6.83c-12.2-25.74-25.23-51.07-37.69-76.68c-14.06-28.9-28.19-57.76-42.89-86.35
		c-2.44-4.75-6.73-8.26-11.02-11.25c-34.14-23.83-67.43-48.9-103.48-69.91c-12.52-7.3-24.62-15.29-37.02-22.79
		c-2.97-1.8-5.88-2.62-9.45-2.22c-5.35,0.6-10.56-1.14-15.82-1.91c-26.52-3.92-53-8.13-79.52-12.07
		c-30.64-4.56-61.23-9.39-91.88-13.85c-4.2-0.61-4.86,0.01-3.82,4.21c2.54,10.29,6.77,19.83,13.02,28.43
		c2.68,3.69,6.55,5.76,10.62,7.17c14.48,4.99,28.38,11.69,43.23,15.54c15.97,4.14,32.2,6.94,48.68,8.3
		c8.32,0.68,16.58,1.39,24.9,0.27c2.36-0.32,4.11,0.91,5.8,2.38c16.51,14.25,32.31,29.3,48.74,43.63
		c7.9,6.89,15.58,14.04,23.52,20.89c1.8,1.55,5.19,3.55,3.58,5.74c-1.75,2.39-4.46-0.49-6.44-1.74
		C483,32.39,451.7,13.01,420.46-6.48c-1.87-1.17-3.8-1.96-5.98-2.35c-43.61-7.86-87.07-16.47-130.74-24
		c-5.41-0.93-10.78-2.13-16.16-3.26c-5.35-1.12-7.72,0.96-6.97,6.39c1.51,10.94,6.49,20.22,14.42,27.85
		c12.07,11.61,27.08,18.12,42.57,23.43c18.43,6.32,37.06,12.09,56.49,14.67c2.83,0.37,5.66,0.69,8.46,0.43
		c4.9-0.44,8.4,1.47,10.75,5.66c9.52,16.97,24.22,28.5,40.33,38.62c7.76,4.87,15.3,10.08,22.87,15.25c2.05,1.4,4.3,2.59,5.65,4.82
		c-0.02,1.38-1.01,1.74-2.09,2.02c-2.26,0.33-4.22-0.69-6.23-1.45c-43.24-16.31-86.78-31.8-130.14-47.77
		c-12.01-4.42-23.83-9.35-36.2-12.75c-1.6-0.44-3.18-1.04-4.25-2.45c-8.99-15.41-19.32-29.78-31.04-43.34
		c-16.02-18.55-34.3-34.36-54.31-48.21c-17.71-12.26-37.09-21.42-57.33-28.88c-16.78-6.19-34.09-10.48-51.64-13
		c-19.38-2.78-38.99-3.74-58.71-2.19c-15.33,1.2-30.41,3.57-45.38,6.67c-16.67,3.45-32.55,9.48-48.07,16.46
		c-32.93,14.82-61.5,35.71-86.34,61.83c-1.84,1.94-3.4,4.1-5.19,6.07c-1.72,1.89-3.61,2.99-6.08,1.24
		c-4.77-0.98-9.24,0.83-13.75,1.66C-220.72,5.44-266.87,13.89-313,22.41c-3.02,0.56-5.66,1.8-8.23,3.41
		C-349.01,43.2-376.79,60.58-404.54,78c-2.93,1.84-5.69,4.1-9.22,4.83c-1.14,0.01-2.11-0.29-2.58-1.45
		c-0.11-3.13,2.42-4.61,4.23-6.43c19.75-19.82,39.55-39.59,59.33-59.37c1.18-1.18,2.52-2.23,3.5-3.56c3.7-5.05,8.09-6.73,14.78-6.8
		c12.41-0.12,24.75-2.49,37.07-4.7c24.91-4.49,47.49-15.14,70.5-24.82c5.62-2.37,9.19-6.61,12.1-11.46
		c6.6-11.01,10.83-22.83,10.6-35.91c-0.01-0.83-0.03-1.67-0.11-2.49c-0.81-8.04-1.56-8.64-9.2-6.52
		c-44.29,12.28-88.51,24.77-132.73,37.29c-14.09,3.99-28.15,8.14-42.36,11.71c-3.77,0.95-7.22,2.47-10.4,4.71
		c-46.72,32.85-93.45,65.68-140.24,98.44c-2.68,1.88-4.52,4.3-6.05,7.14c-20.13,37.18-40.39,74.29-60.55,111.46
		c-6.51,12-13.17,23.91-19.63,35.94C-626.48,227.8-627.02,230.24-629.9,230z"/>
	<path class="st0" d="M769.9,504.93c0,34.16-0.07,68.32,0.1,102.47c0.02,3.75-0.85,4.59-4.6,4.59
		c-399.28-0.1-798.55-0.09-1197.83-0.09c-64.49,0-128.98-0.03-193.47,0.1c-3.42,0.01-4.12-0.67-4.1-4.1
		c0.17-32.66,0.1-65.32,0.1-97.97c0.59-4.9,4.15-7.75,7.51-10.67c7.42-6.44,14.72-13.03,21.62-20c3.98-4.02,8.26-5.06,13.54-4.42
		c15.21,1.83,30.47,3.28,45.79,2.72c30.09-1.1,58.46-8.39,84.78-23.53c33.15-19.08,63.86-41.67,94.66-64.18
		c18.96-13.86,38.75-26.64,56.74-41.74c13.99-11.75,29.14-21.73,44.93-30.58c13.08-7.33,26.18-14.58,38.82-22.64
		c0.98-0.63,1.99-1.22,2.95-1.88c6.97-4.81,7.5-7.48,2.84-14.71c-3.9-6.05-9.84-8.56-16.64-9.92c-27.14-5.46-52.98-0.96-78.04,9.86
		c-4.59,1.98-9.16,3.99-13.63,6.24c-7.94,3.99-15.51,8.47-21.36,15.34c-2.79,3.27-6.21,4.63-10.56,4.54
		c-14.03-0.32-27.79,2.81-41.75,3.46c-15.98,0.73-30.98,6.04-46.26,10.02c-0.97,0.25-1.92,0.59-2.9,0.76
		c-2.03,0.35-4.51,2.22-6.02,0.07c-1.57-2.24,1.05-3.83,2.3-5.46c5.49-7.18,12.41-13.01,18.6-19.52
		c6.33-6.65,11.96-13.85,16.98-21.55c8.72-13.38,13.09-28.34,16.15-43.79c1.49-7.51,1.66-7.61,9.13-8.65
		c11.9-1.65,24.04-2.95,34.4-9.57c14.75-9.42,28.99-19.58,38.71-34.69c2.62-4.07,5.98-7.57,8.76-11.52c1.72-2.44,4.4-3.5,7.28-3.96
		c6.08-0.98,12.18-1.77,18.32-2.29c10.69-0.91,20.96-3.77,31.08-7.18c8.52-2.87,17.19-5.31,25.46-8.9c0.92-0.4,1.91-0.58,2.93-0.49
		c2.85,0.48,2.47,2.58,2.38,4.62c-0.34,8.14-1.3,16.22-1.28,24.4c0.08,40.09,8.79,78.18,25.49,114.57
		c11.2,24.41,25.82,46.52,43.69,66.51c4.43,4.96,9.46,9.37,13.87,14.36c1.45,1.63,3.18,3.17,1.47,5.62
		c-8.44,6.56-18.14,11.11-27.13,16.8c-8.92,5.65-8.92,3.17-5.81,14.77c1.42,5.31,2.91,10.6,3.9,16.02c1.16,6.38,0.28,8.32-5.3,11.4
		c-8.02,4.43-15.86,9.17-23.93,13.5c-3.83,2.06-7.54,4.27-9.4,8.57c-0.6,1.39-1.79,2.4-3.35,2.82c-13.4,1.53-26.88,1.65-40.32,2.36
		c-17.43,0.92-34.85,1.87-52.28,2.75c-15.11,0.76-30.21,1.81-45.33,2.31c-15.95,0.52-31.87,1.83-47.83,2.13
		c-2.2,0.04-4.33,0.56-5.99,2.12c-4.98,4.67-8.59,10.44-13.61,15.86c5.16,1.4,9.54,1.2,13.71,0.63c11.1-1.49,22.28-1.08,33.38-1.48
		c15.11-0.54,30.27-0.89,45.38-1.51c20.59-0.84,41.2-1.54,61.79-2.47c15.1-0.68,30.23-1.81,45.37-1.29c5,0.17,9.89-1.6,14.89-0.49
		c2.45,1.3,1.71,2.87,0.26,4.35c-1.3,1.32-3.05,1.98-4.67,2.81c-10.77,5.52-21.8,10.52-32.68,15.8c-3.98,1.93-7.84,3.71-8.04,8.98
		c-0.04,1.04-0.99,1.67-1.98,2.05c-8.13,0.58-16.23,1.59-24.4,1.57c-9.33-0.02-18.66-0.13-27.99,0.02
		c-28.47,0.44-56.95,0.68-85.42,1.27c-17.31,0.36-34.66-0.19-51.93,0.86c-19.49,1.19-38.97,0.48-58.44,0.89
		c-2.56,0.05-5.93-0.75-7.13,2.26c-1.46,3.67-2.14,7.71-1.47,11.74c0.27,1.66,1.94,1.64,3.23,1.77c3.15,0.31,6.27,1.03,9.44,0.95
		c23.49-0.63,46.96,0.6,70.43,1.21c20.98,0.55,41.99,0.09,62.93,1.07c16.33,0.77,32.66-0.08,48.94,0.89
		c19.32,1.15,38.66,0.01,57.93,1.09c15.5,0.87,30.97,0.31,46.44,0.93c6.97,0.28,13.9,1.46,20.9,1.08
		c28.03,4.37,55.9,9.7,83.88,14.41c3.9,0.66,7.98,0.56,11.59,2.58c1.07,0.98,1.99,2.01,0.16,3.1c-1.18,0.7-2.54,0.87-3.87,0.81
		c-10.17-0.48-20.27,1.18-30.43,1.06c-19.82-0.24-39.61,0.9-59.41,1.25c-23.62,0.42-47.24,1.29-70.86,1.97
		c-12.14,0.35-24.29,0.62-36.43,0.84c-6.39,0.11-11.31,8.13-8.64,13.86c0.49,1.05,1.33,1.41,2.33,1.61c0.98,0.2,1.98,0.23,2.98,0.25
		c1.83,0.03,3.66,0.01,5.5,0.02c104.92,0.29,209.84-1.75,314.77-1.04c5.14,0.03,10.31,0.78,15.43-0.31
		c47.82-7.57,95.45-16.33,143.2-24.37c28.22-4.75,56.38-9.89,84.63-14.46c7.55-1.22,15.06-2.71,22.61-4c3.3-0.56,6.6-0.83,9.94-0.66
		c22-0.19,44.03,0.62,65.97-0.38c26.33-1.2,52.65,0.25,78.93-0.95c23.16-1.06,46.33,0.15,69.43-1.04
		c21.83-1.13,43.63-0.31,65.44-0.81c19.31-0.44,38.61-1.35,57.93-1.04c5.48,0.09,6.13-0.87,5.17-6.25
		c-0.76-4.26-1.53-8.53-2.23-12.8c-0.51-3.16-2.27-4.66-5.44-4.61c-13.65,0.2-27.32-0.75-40.95,0.6c-1.49,0.15-2.99,0.34-4.49,0.3
		c-24.16-0.65-48.28,0.94-72.43,1.16c-37.96,0.34-75.9,1.65-113.86,2.17c-15.14,0.21-30.3,0.27-45.44,0.75
		c-8.31,0.27-16.6,1.33-24.94,0.96c-2.16-0.1-4.34,0.08-6.45-0.49c-3.5-1.31-3.63-4.55-3.85-7.43c-0.39-5.19-2.78-8.41-7.65-10.41
		c-5.04-2.07-9.88-4.67-14.67-7.3c-1.55-0.85-3.96-1.45-2.93-4.24c4.33-2.26,9.17-1.71,13.69-1.93c17.44-0.84,34.84-2.35,52.25-3.52
		c18.08-1.21,36.18-2.12,54.25-3.43c17.9-1.3,35.8-2.94,53.76-3.39c4.34-0.11,8.6-0.96,12.92-1.16c1.86-0.09,3.19-1,3.63-2.85
		c0.98-4.09,0.71-8.26,0.69-12.42c-0.01-1.12-0.72-1.79-1.81-2.08c-0.97-0.25-1.97-0.4-2.97-0.36c-12.66,0.6-25.25-1.04-37.9-1.1
		c-28.94-0.14-57.85-1.67-86.79-2.18c-21.27-0.37-42.53-1.53-63.82-1.77c-2.98-0.03-6.04,0.21-8.61-1.8
		c-6.42-13.01-19.7-17.2-30.97-23.95c-7.08-4.24-7.78-5.62-5.65-13.73c0.93-3.55,2.23-6.98,3.16-10.52
		c0.89-3.35,0.02-5.71-2.79-7.77c-5.91-4.33-11.83-8.65-17.79-12.91c-2.02-1.44-4.28-2.66-5.11-5.27c-0.15-2.7,1.79-4.22,3.44-5.79
		c15.9-15.11,29.59-32.06,41.18-50.61c16.62-26.6,28.69-55.18,35.19-85.95c6.12-29.03,7.11-58.4,4.26-87.82
		c-0.99-10.17-3.38-20.29-5.3-30.4c-0.36-1.92-2.25-4.73,1.67-5.54c8.39,3.22,16.55,7,25.03,10c18.75,6.62,37.74,12.11,57.74,13.24
		c6.45,0.36,11.63,2.65,15.8,8.08c4.24,5.52,8.88,10.78,13.55,16c11.64,13.03,26.72,20.84,41.91,28.46
		c10.41,5.23,21.03,10.09,32.06,13.94c3.51,1.22,5.8,3.73,7.53,6.93c13.63,25.08,17.33,51.43,10.43,79.23
		c-1.61,6.48-2.91,13.01-6.08,18.97c-2.86,5.39-7.17,7.91-13.15,6.59c-16.6-3.66-32.81-0.4-49.04,2.4
		c-4.25,0.73-8.43,1.99-12.68,2.85c-6.28,1.27-12.06,3.57-17.36,7.31c-5.32,3.75-6.69,3.16-12.09-0.24
		c-17.23-10.83-35.56-18.7-56.08-21.04c-9.37-1.07-18.64-0.96-27.87,0.32c-11.83,1.64-22.26,6.62-31.19,14.62
		c-1.37,1.22-2.49,2.68-3.44,4.27c-4.36,7.25-3.19,10.54,4.7,13.55c12.3,4.69,24.46,9.72,36.65,14.66c2.16,0.88,4.31,1.88,6.58,2.37
		c18.89,4.15,34.91,14.57,51.69,23.38c15.94,8.36,31.36,17.61,46.89,26.68c12.57,7.34,26.21,12.91,40.37,15.75
		c13,2.61,25.19,7.45,37.87,10.81c8.27,2.19,16.83,2.32,25.26,2.86c20.3,1.3,40.37,4.39,60.54,6.68
		c19.67,2.23,39.21,5.63,59.13,5.68c7.95,0.02,15.93,1.18,23.92,0.48c2.64-0.23,4.36,1.29,6.08,2.91c4.11,3.89,8.03,7.97,12.22,11.8
		c14.14,12.91,31.22,21.53,46.77,32.37c6.29,4.39,12.44,8.95,18.55,13.58C766.94,501.34,768.76,502.82,769.9,504.93z"/>
	<path d="M769.9,504.93c-16.05-12.16-32.51-23.8-49.8-34.08c-12.66-7.52-23.01-17.47-33.25-27.71c-1.55-1.55-2.97-2.83-5.53-2.73
		c-27.24,1.02-54.23-1.87-81.14-5.63c-26.4-3.69-52.87-6.65-79.47-8.36c-6.65-0.43-12.59-2.99-18.78-4.83
		c-6.85-2.04-13.47-5.48-20.44-6.42c-16.29-2.2-30.96-8.59-45.34-15.82c-7.71-3.88-14.82-8.93-22.38-13.13
		c-18.19-10.1-36.48-20.02-54.77-29.95c-2.33-1.26-4.81-2.39-7.35-3.07c-22.16-5.84-42.69-16-64.1-23.83
		c-3.77-1.38-4.19-3.54-3.61-6.88c1.34-7.76,6.57-12.42,12.67-16.52c13.48-9.06,28.57-11.19,44.37-10.85
		c23,0.5,43.92,7.96,62.97,20.05c6.7,4.25,10.55,4.74,17.23,0.3c10.86-7.22,24.18-8.07,36.75-10.24c13.28-2.3,26.69-3.75,40.21-0.79
		c6.28,1.38,9.71-0.76,12.09-6.9c12.66-32.66,11.96-64.68-4.94-95.86c-1.84-3.39-4.35-5.33-8.1-6.73
		c-20.48-7.66-40.18-17.07-58.43-29.14c-12.22-8.09-20.8-20-30.14-31.03c-2.28-2.69-4.59-4.42-8.17-4.99
		c-14.76-2.35-29.84-2.81-44.15-7.88c-14.11-5-28.64-8.84-42-15.83c-0.7-0.37-1.31-0.9-1.97-1.36c-4.05-0.24-7.01-2.84-10.26-4.78
		c-7.29-4.35-14.07-9.43-20.84-14.57c-12.13-9.2-16.54-21.16-14.54-35.92c0.36-2.63,0.35-5.29,0.38-7.95
		c0.1-7.28,4.96-10.3,11.55-7.55c2.05,0.86,3.81,2.01,5.32,3.61c1.21,2.51,3.89,1.95,5.89,2.68
		c54.69,19.98,109.41,39.89,164.14,59.76c1.97,0.71,3.55,2.5,5.89,2.18c1.28,0.63,2.78,0.27,3.42,0.74
		c-0.38-0.11-0.95-0.87-1.47-1.71c-17.79-12.22-36.72-22.8-53.05-37.11c-7.37-6.46-12.29-14.82-17.77-22.75
		c-1.13-1.64-2.05-3.27-4.59-3.18c-18.84,0.63-36.49-5.2-54.2-10.4c-17.59-5.17-34.88-11.3-50.08-21.94
		c-11.89-8.33-19.97-19.3-22.86-33.88c-0.65-3.27,0.36-5.91,1.16-8.69c0.75-2.6,3.11-1.27,4.7-0.99c16.06,2.9,32.09,5.91,48.13,8.88
		c34.05,6.3,68.11,12.6,102.17,18.86c2.17,0.4,3.99,1.21,5.89,2.41c32.4,20.4,64.87,40.69,97.32,61c0.4,0.25,0.9,0.34,1.86-0.07
		c-5.1-4.68-10.15-9.41-15.3-14.04c-20.43-18.37-40.89-36.7-61.32-55.07c-2.08-1.87-3.81-2.84-7.01-1.55
		c-2.73,1.1-6.24,0.44-9.39,0.31c-30.33-1.27-59.92-6.09-88.08-18.06c-6.12-2.6-12.43-4.77-18.7-7.01
		c-7.24-2.59-11.72-8-15.03-14.57c-3.83-7.58-7.43-15.27-9.15-23.68c-0.72-3.53,0.17-4.75,4.09-4.15
		c61.38,9.42,122.77,18.71,184.16,28.04c2.31,0.35,4.6,0.87,6.88-0.13c2.4-1.06,4.19,0.49,5.98,1.59
		c21.99,13.51,44.09,26.85,65.89,40.66c26.55,16.82,51.7,35.69,77.38,53.79c5.09,3.59,9.47,8.02,12.41,14.02
		c24.67,50.38,49.59,100.64,74.44,150.93c1.77,3.58,3.54,7.16,5.26,10.77c0.74,1.54,1.56,3.04,3.23,3.63
		c11.26,3.98,22.1,9.08,33.67,12.2C769.9,322.31,769.9,413.62,769.9,504.93z"/>
	<path d="M-222.47,141.47c-22.1,8.88-44.42,17.34-68.52,18.26c-11.22,0.43-17.62,6.35-23.55,14.71
		c-18.61,26.25-42.46,44.31-75.84,46.59c-4.4,0.3-6.34,1.52-7.08,6.42c-4.08,26.86-16,49.85-35.38,68.96
		c-7.09,6.99-14.28,13.9-21.09,23.2c10.52-3.69,19.96-6,29.37-8.4c22.56-5.75,45.73-6.52,68.77-8.31c2.6-0.2,5.33,0.43,7.36-2.04
		c9.68-11.75,23.12-17.67,36.62-23.47c25.82-11.09,52.34-16.22,80.4-10.21c10.48,2.25,17.52,7.46,20.08,18.2
		c0.65,2.73,0.13,4.22-2.21,5.77c-12.77,8.46-25.63,16.74-39.25,23.81c-17.02,8.84-33.04,19.24-47.96,31.34
		c-22.25,18.04-46.11,33.9-69.14,50.9c-26.79,19.78-54,38.9-82.65,55.98c-32.69,19.48-68,27.18-105.73,25.41
		c-10.83-0.51-21.61-1.34-32.34-2.79c-2.52-0.34-4.4,0.13-6.3,1.92c-9.82,9.24-19.72,18.41-29.71,27.47
		c-1.54,1.39-1.9,3.39-3.3,4.75c0-93.31,0-186.62,0-279.93c4.31-4.28,6.2-10.04,9.02-15.19c25.09-45.85,50.04-91.78,74.97-137.72
		c1.48-2.72,3.34-4.82,5.87-6.59c46.61-32.7,93.2-65.44,139.74-98.24c8.18-5.77,17.97-6.84,27.15-9.46
		c54.27-15.48,108.66-30.53,162.95-45.93c4.18-1.19,5.5-0.23,6.3,3.7c3.33,16.44-2.16,30.82-10.03,44.72
		c-3.34,5.89-8.05,9.92-14.46,12.32c-16.66,6.25-32.16,15.35-49.65,19.6c-18.31,4.45-36.65,8.58-55.55,9.47
		c-0.33,0.02-0.72,0.17-0.99,0.05c-7.45-3.24-10.59,2.79-14.6,6.82c-22.32,22.43-44.61,44.89-66.91,67.34
		c-0.3,1.31-0.82,2.48-1.63,2.85c0.88-0.6,2.49-0.87,3.94-1.56c29.88-18.7,59.82-37.29,89.56-56.2c4.79-3.05,9.68-4.69,15.12-5.68
		c48.28-8.81,96.54-17.74,144.81-26.6c1.6-0.29,3.6-1.81,4.55,1.02c5.74,6.55,1.67,13.19-0.86,18.95
		c-6.39,14.53-17.62,24.71-31.97,31.45c-14.65,8.18-30.51,13.24-46.54,17.73c-14.89,4.17-29.84,8.28-45.48,8.51
		c-2.64,0.04-4.34,1.36-5.61,3.52c-9.29,15.9-22.48,27.84-37.92,37.54c-9.44,5.93-18.31,12.73-28.05,18.2
		c-2.06,1.01-3.97,2.32-6.02,3.37c3.11-1.6,6.63-2.2,9.64-4.05c20.18-7.86,40.62-15.02,60.95-22.46
		c25.8-9.45,51.58-18.98,77.41-28.36c2.35-0.85,4.76-1.51,7.11-2.38c10.09-4.76,20.96-7.47,31.11-12.09
		c4.29-1.95,8.5,0.59,8.96,5.65c0.84,9.39,2.35,18.91,0.05,28.24c-1.45,5.88-4.71,10.96-9.58,14.82c-2.99,2.46-6.04,4.86-8.97,7.4
		c-9.87,7.06-20.07,13.59-30.78,19.3C-218.25,141.07-220.19,141.97-222.47,141.47z"/>
	<path class="st1" d="M-192.46,43.78c13.29-6.59,24.01-15.94,30.29-29.58c2.81-6.1,5.53-12.53,2.4-19.5
		c2.21,2.37,3.19-0.25,3.98-1.29c4.26-5.59,9.49-10.24,14.42-15.16c18.1-18.03,38.59-32.78,61.01-45.02
		C-54.83-80.7-27.64-89.72,0.8-95.09c9.23-1.74,18.65-2.42,28.04-3.28c9.15-0.84,18.25-0.91,27.35-0.7
		c22.88,0.54,45.3,4.34,67.37,10.45c15.25,4.22,29.89,10,44.04,16.84c18.69,9.04,36.09,20.27,52.14,33.55
		c9.36,7.74,18.29,15.92,26.58,24.78c13.28,14.21,25.05,29.57,34.93,46.34c0.91,1.55,1.79,3.12,2.69,4.67
		c-3.03-1.28-6.05-2.56-9.08-3.81c-2.64-1.09-6.87,3.05-6.48,7.23c0.52,5.51-0.43,10.9-0.66,16.31
		c-0.47,11.09,4.84,18.88,12.65,25.65c9.81,8.5,20.86,15.18,31.96,21.78c-1.52,1.22-0.73,2.69-0.39,4.06
		c6.26,24.9,8.53,50.25,7.21,75.79c-1.6,31.07-8.2,61.15-20.2,89.96c-11.5,27.6-26.95,52.69-46.79,75.14
		c-5.29,5.99-11.04,11.48-16.51,17.26c-1.14,1.2-2.51,2.23-2.76,4.03c-7.95,8.08-16.84,15.03-25.99,21.66
		c-10.8,7.82-22.23,14.61-34.03,20.82c-3.44,1.81-6.98,1.97-10.65,1.97c-51.46,0-102.92,0-154.39,0c-24.15,0-48.3-0.06-72.45,0.05
		c-5.3,0.02-9.9-1.24-14.7-3.73c-20.98-10.9-39.61-25.09-57.7-40.09c-0.25-0.21-0.39-0.53-0.55-0.82c1.56-2.43-0.83-3.23-1.97-4.32
		c-15.49-14.9-29.13-31.35-40.63-49.49c-18.61-29.36-31.3-61.08-37.74-95.33c-3.84-20.44-5.34-41-4.75-61.73
		c0.15-5.43,0.73-10.85,1.4-16.25c0.17-1.4-0.36-1.74-1.23-2.21c11.77-4.83,22.12-12.07,32.59-19.11c1.21-0.81,2.52-1.49,3.78-2.23
		c2.11,2.86,0.63,5.89-0.04,8.6c-4.25,17.14-5.01,34.6-4.37,52.07c1,27.38,7.09,53.67,18.31,78.76
		c11.36,25.42,27.23,47.7,47.26,66.87c15.07,14.42,31.92,26.61,50.93,36.19c0.7-2.26-0.45-3.81-1.11-5.35
		c-5.45-12.88-10.61-25.9-16.38-38.63c-4.07-8.98-11.5-15.85-17.12-23.89c-12.24-17.5-28.79-30.9-43.84-45.69
		c-4.71-4.63-7.53-9.59-7.64-16.08c-0.36-21.63-4.52-42.98-4.37-64.69c0.06-8.74-0.62-17.63-2.19-26.32
		c-1.64-9.12-6.37-17.12-9.69-25.63c-0.48-1.23-1.26-2.35-1.41-3.71c9.45-7.48,11.32-17.77,10.45-28.91
		c-0.26-3.3-0.76-6.59-0.66-9.92c0.21-7.6-2.58-9.52-9.64-6.83c-9.56,3.65-19.17,7.2-28.75,10.79c-1.36-2.15,0.47-3.68,1.12-5.4
		C-201.56,62.6-196.55,53.39-192.46,43.78z"/>
	<path class="st2" d="M-413.8,82.18c-1.96,2.07-4.34,3.44-8.04,4.83c1.87-2.99,3.55-4.77,5.72-6.13
		C-415.71,81.98-414.64,81.87-413.8,82.18z"/>
	<path class="st3" d="M461.81,101.2c2.2,0.24,3.73,1.39,5.37,3.79c-3.23-0.4-5.42-1.22-7.33-2.82
		C460.5,101.84,461.15,101.52,461.81,101.2z"/>
	<path d="M-137.56,370.81c2.97-0.62,4.51,1.8,6.2,3.3c17.12,15.26,36.2,27.6,56.28,38.51c1.96,1.06,4.09,1.26,6.29,1.26
		c78.24-0.02,156.48,0,234.72-0.09c6.97-0.01,12.06-4.95,17.76-8.06c16.77-9.14,31.82-20.75,46.2-33.24c0.93-0.81,1.81-1.39,3-1.54
		c8.08,5.84,16.08,11.8,24.3,17.45c2.83,1.94,3.52,3.87,2.47,7.05c-1.56,4.73-2.56,9.65-4.19,14.36c-1.46,4.21-0.6,6.75,3.59,8.77
		c5.83,2.81,11.17,6.64,17.06,9.3c7.24,3.26,12.31,8.22,15.05,15.61c3.21,2.54,4.75,6.3,6.85,9.61c1.93,3.04,1.37,6.39-0.08,9.54
		c-1.59,3.46-3.12,6.95-4.68,10.43c-1.24,2.76-0.74,4.52,2.03,6.08c2.25,1.27,4.92,2.09,6.48,4.43c6.89,3.55,13.7,7.27,20.7,10.58
		c3.62,1.72,5.81,3.82,5.92,8.1c0.08,2.92,1.07,5.81,1.65,8.72c3.15,8.09-5.79,22.71-14.3,23.3c-3.96,0.27-7.82,1.24-11.77,1.56
		c-21.55,1.93-42.67,6.62-63.95,10.22c-61.27,10.36-122.49,20.99-183.72,31.57c-3.91,0.68-7.77,1.53-11.76,1.41
		c-7.84,0-15.38-2.13-23.04-3.35c-18.53-2.96-37-6.25-55.5-9.43c-15.22-2.61-30.45-5.14-45.6-8.11c-2.82-0.55-5.15-2.3-7.94-2.85
		c-31.68-5.47-63.37-10.94-95.05-16.41c-16.27-0.94-32.2-4.34-48.29-6.59c-4.12-0.58-8.08-1.97-12.26-2.28
		c-1.55-0.12-3.19-1.01-3.42-2.54c-0.93-6.14-2.59-12.39,1.14-18.26c-0.55-6.35,3.3-8.97,8.54-11.33
		c11.61-5.23,22.96-11.04,34.35-16.73c1.75-0.87,4.41-1.07,4.36-4.02c-3.95-5.71-5.84-12.4-8.74-18.6
		c-0.68-1.46-1.23-3.07-0.32-4.71c2.63-7.69,9.59-10.42,15.9-13.91c6.7-3.7,13.32-7.53,20.04-11.19c3.88-2.11,5.44-4.76,4.08-9.37
		c-2.25-7.65-3.79-15.51-5.94-23.19c-0.81-2.92-0.33-4.5,2.38-6.03C-159.61,383.81-148.61,377.27-137.56,370.81z"/>
	<path class="st1" d="M304,535.83c4.2-1.3,8.35-2.75,12.81-2.96c3.43-0.16,5.85-1.6,7.2-5.03c2.2-5.56,7-10.17,6.06-16.87
		c40.12-0.8,80.24-1.59,120.36-2.39c63.26-1.27,126.53-2.49,189.78-3.94c4.81-0.11,6.32,1.52,6.79,5.92
		c0.57,5.28,1.59,10.52,2.75,15.71c0.92,4.15,0.29,5.8-4.63,5.83c-34.64,0.19-69.27,0.69-103.9,1.12
		c-77.43,0.97-154.85,1.95-232.28,2.91C307.29,536.15,305.64,535.94,304,535.83z"/>
	<path class="st4" d="M-245.4,509.21c-0.14,5.13-0.17,10.26-0.47,15.38c-0.18,3.01,1.04,3.92,3.94,4.28
		c19.67,2.51,38.96,7.43,58.73,9.35c0.23,0.02,0.43,0.43,0.63,0.65c-31.45-0.66-62.89-1.33-94.33-1.98
		c-74.42-1.53-148.85-3.08-223.27-4.47c-4.41-0.08-6.13-1.07-4.82-5.58c0.51-1.74,0.61-3.6,0.79-5.42c0.93-9.39,0.22-8.15,9.05-8.29
		c76.59-1.2,153.19-2.37,229.79-3.55C-258.71,509.49-252.05,509.34-245.4,509.21z"/>
	<path class="st4" d="M-87.52,555.28c4.48-1.01,8.31,1.7,12.55,2.28c11.62,1.6,23.2,3.73,34.72,5.85
		c17.06,3.14,34.2,5.87,51.24,9.14c8.44,1.62,16.96,3.04,25.48,4.31c2.82,0.42,5.45,1.28,8.1,2.17c-1.66,1.2-3.55,0.51-5.3,0.52
		c-110.93,0.53-221.87,1.01-332.8,1.5c-6.15,0.03-6.3,0.02-5.09-6.01c0.83-4.11-0.66-9.76,2.93-11.96c3.12-1.91,8.08-0.89,12.24-1
		c64.77-1.74,129.54-3.45,194.3-5.17c0.67-0.02,1.44,0.19,1.98-0.08C-85.59,556.04-87.97,555.93-87.52,555.28z"/>
	<path class="st4" d="M301.78,483.57c-3.74-0.53-6.36-3.39-9.73-4.71c-1.75-0.69-1.86-1.84-1.03-3.59c2.12-4.47,3.9-9.11,5.96-13.61
		c1.52-3.33,1.3-6.28-0.78-9.36c-1.89-2.8-3.37-5.87-5.04-8.82c2.01,1.55,4.4,1.24,6.69,1.3c63.24,1.73,126.47,3.45,189.71,5.17
		c1.16,0.03,2.34,0.23,3.49,0.11c3.96-0.44,4.86,1.25,4.22,4.98c-0.65,3.75-0.69,7.62-0.84,11.44c-0.12,3.24-1.47,4.43-4.86,4.62
		c-24.59,1.44-49.17,3.12-73.75,4.7c-36.87,2.38-73.75,4.74-110.62,7.13C304.04,483.01,302.91,483.35,301.78,483.57z"/>
	<path class="st5" d="M-207.2,453.82c2.54,6.62,5.04,13.25,8.51,19.46c0.66,1.18,0.87,2.49,0.55,3.85
		c-72.68,2.7-145.36,5.4-219.58,8.15c6.33-7.67,11.74-14.28,17.22-20.82c1.2-1.43,3.07-1.1,4.7-1.18
		c57.55-2.91,115.09-5.8,172.64-8.7C-217.84,454.32-212.52,454.08-207.2,453.82z"/>
	<path class="st0" d="M-177.78,112.64c0.64,0.47,1.61,0.81,1.86,1.44c4.75,11.81,11.14,23.01,11.63,36.3
		c0.95,26.11,3.34,52.13,5.18,78.19c0.61,8.6,2.37,15.73,9.52,21.74c20.97,17.63,38.87,38.15,54.9,60.38
		c5.19,7.2,7.57,15.5,11.15,23.32c4.56,9.96,8.51,20.2,13.18,31.42c-5.93-1.75-10.21-4.85-14.61-7.38
		c-18.73-10.74-35.48-24.09-50.07-39.98c-15.12-16.48-27.5-34.83-37.03-55.19c-9.38-20.04-15.43-41.01-18.33-62.8
		c-3.33-24.99-2.27-49.95,3.5-74.6c0.41-1.76,0.54-3.58,0.79-5.37C-183.33,117.64-180.55,115.14-177.78,112.64z"/>
	<path class="st0" d="M-192.46,43.78c0.49,0.34,1.54,0.56,1.11,1.29c-6.09,10.41-9.88,21.88-15.04,32.71
		c-48.77,17.81-97.55,35.63-146.33,53.44c-1.11,0.31-2.21,0.74-3.3,0.95c-2.99,0.57-2.29-0.83-1.06-2.34
		c12.69-8.48,25.44-16.87,38.06-25.45c11.61-7.89,20.6-18.28,27.7-30.3c1.88-3.18,4.06-4.55,7.95-4.53
		c20.28,0.07,39.19-6.69,58.28-12.35C-213.79,53.85-202.88,49.36-192.46,43.78z"/>
	<path class="st6" d="M-357.08,129.83c0.4,0.57-1.45,2.67,1.15,1.72c1.06-0.39,2.07-0.85,3.21-0.33c-4.05,1.63-8.1,3.27-12.16,4.9
		C-362.94,132.91-360.1,131.25-357.08,129.83z"/>
	<path class="st7" d="M177.84,29.83c1.09,4.62,4.97,7.39,7.59,10.91c16.82,22.54,33.97,44.83,51.03,67.19
		c1.17,1.54,2.3,3.18,3.75,4.41c2.66,2.26,2.54,5.09,1.38,7.66c-4.73,10.47-8.69,21.27-12.98,31.91
		c-4.93,12.23-9.72,24.55-14.61,36.81c-5.73,14.37-11.48,28.74-17.35,43.06c-5,12.19-9.61,24.55-14.52,36.79
		c-3.57,8.92-6.88,17.95-10.5,26.85c-0.59,1.46-1.24,3.67-3.56,3.45c-6.53-0.6-12.64,2.55-19.15,2.01
		c-2.87-1.65-1.48-5.17-3.14-7.68c-2.53,2.43-0.78,6.66-4.16,8.24c-11.15,1.51-22.32,2.76-33.51,3.94
		c-12.4,1.3-24.79,2.77-37.2,4.11c-11.26,1.21-22.62,2.09-33.75,3.93c-20.2,3.34-40.5,3.17-60.8,4.03
		c-7.74,0.33-15.47,1.24-23.25,1.52c-4,0.14-6.45-1.28-8.3-4.63c-11.94-21.57-25.35-42.27-38.13-63.34
		c-15.92-26.25-31.94-52.43-47.96-78.63c-0.75-1.23-0.91-2.65-2.01-3.85c-2.32-2.53-1.96-5.53-0.54-8.6
		c6.67-14.39,13.23-28.83,19.86-43.25c7.75-16.86,15.96-33.52,23.15-50.61c7.84-18.61,16.84-36.68,24.84-55.2
		c1.28-2.95,2.66-5.86,3.99-8.79c0.8-1.77,2.02-2.77,4.1-2.94c5.88-0.47,11.93,0.84,17.64-1.64c1.59-0.69,2.47,1.62,4.08,1.28
		c2.59,4.04-0.46,7.69-1.12,11.38c-0.63,3.53-1.57,7.12-2.61,10.63c-1.81,6.08,2.81,12.37,9.11,12.71c4.16,0.23,8.34,0.3,12.35-1.18
		c0.78-0.29,1.62-0.56,2.44-0.51c9.7,0.59,19.29-1.38,28.71-2.67c13.06-1.79,26.3-0.1,39.18-3.07c0.49-0.11,0.99-0.26,1.48-0.23
		c12.18,0.7,24.11-2.32,36.27-2.38c11.78-0.06,23.45-2.49,35.29-2.32c1.8,0.03,3.65-0.42,5.39-1.02c5.56-1.91,8.07-6.39,6.52-11.93
		c-1.62-5.77-3.18-11.55-5.09-17.24c-0.68-2.03-1.58-4.14,0.25-6.09c4.48,0.29,8.65-1.53,13.09-1.91c5.09-0.43,7.83,1.9,10.45,5.41
		c7.53,10.09,15.03,20.21,22.75,30.15c1.04,1.34,1.77,2.6,2.23,4.13c-0.55,1.9-2.96,1.13-4,3.03c1.99,1.81,4.62,1.56,7.02,2.06
		C175.14,28.08,177.34,27.27,177.84,29.83z"/>
	<path d="M122.04-15.12c2.15,7.93,4.19,15.89,6.49,23.77c1.63,5.57-2.44,12.24-8.44,13.29c-1.96,0.34-3.95,0.78-5.92,0.75
		c-14.32-0.22-28.48,1.99-42.73,2.77c-19.69,1.08-39.35,2.93-59.04,4.22c-12.46,0.82-24.97,2.23-37.41,3.71
		c-5.08,0.61-10.09,1.75-15.26,1.81c-7.92,0.09-13.58-8.67-10.98-16.14C-49,12.49-47.8,5.56-46.13-1.21
		c0.68-2.73,1.85-5.43,1.95-8.18c0.22-5.8,3.73-7.16,8.54-7.3c4.99-0.14,9.98-0.42,14.97-0.43c4.86-0.01,8.74-1.37,10.88-6.19
		c0.73-1.64,1.87-3.17,3.11-4.49c2.84-3,2.08-5.5-0.03-8.7c-4.2-6.37-7.72-12.99-5.55-21.29c2.06-7.84,9.31-11.37,14.55-10.85
		c7.11,0.71,13.31,7.52,13.83,14.06c0.59,7.47-2.16,13.64-6.76,19.06c-1.97,2.32-1.73,4.05-0.13,6.11c0.81,1.04,2.03,1.9,2.47,3.06
		c2.86,7.59,9.2,5.5,14.78,5.42c1.88-0.03,2.75-1.59,3.69-2.99c2.29-3.43,4.65-6.81,6.98-10.21c1.84-2.67,0.84-4.69-0.93-7.14
		c-4.7-6.54-8.74-13.38-6.25-22.1C32.19-71.1,37.7-75,45.57-73.97c6.65,0.87,12.4,7.64,12.69,14.35c0.29,6.86-1.78,12.78-6.23,17.83
		c-2.68,3.04-2.81,5.66-0.07,8.73c2.08,2.33,3.79,4.99,5.6,7.55c2.25,3.16,4.91,2.94,6.97,0.24c3.31-4.32,6.35-8.88,9.09-13.58
		c1.14-1.96,0.6-4.12-0.83-6.44c-4.16-6.75-8.41-13.56-5.11-22.27c2.64-6.97,8.1-10.5,15.91-9.38c5.67,0.81,11.92,7.65,12.29,13.26
		c0.56,8.38-2.33,15.38-8.57,20.84c-2.51,2.2-2.51,4.02-0.47,6.23c1.58,1.71,2.68,3.71,3.91,5.67c2.06,3.27,4.64,5.61,9.44,4.69
		c5.01-0.96,10.28-0.56,15.43-0.87c2.28-0.14,3.27,0.87,3.79,2.97C120.16-21.12,121.15-18.13,122.04-15.12z"/>
	<path class="st8" d="M177.84,29.83c-3.05-0.47-6.09-0.95-9.15-1.39c-1.93-0.27-4.23-0.17-4.32-2.88c-0.11-3.18,2.54-2.18,4.28-2.49
		c0.64-0.12,1.27-0.26,1.9-0.4c10.89,0.85,21.44-1.87,32.15-2.92c3.06-0.3,2.96-2.55,3.09-4.76c0.41-6.98,0.87-13.95,1.33-20.92
		c0.45-6.77,0.92-13.54,1.41-20.71c2,0.56,2.04,2.18,2.48,3.44c4.08,11.78,8.24,23.54,12.13,35.38c1.2,3.68,3.3,5.63,6.91,7.01
		c8.21,3.16,16.21,6.86,24.28,10.37c1.34,0.58,2.7,1.2,3.85,2.99c-3.99,1.5-7.89,1.53-11.72,1.71c-5.65,0.27-11.32,0.46-16.97,0.34
		c-4.31-0.09-6.08,1.47-6.64,5.96c-1.13,9.06-1.26,18.28-3.91,27.12c-0.42,1.41-0.79,2.83-1.19,4.26c-1.43-0.47-1.67-1.45-1.81-2.44
		c-1.47-10.54-5.74-20.49-6.61-31.17c-0.33-3.99-2.36-6.08-6.65-6.58C194.41,30.8,186.18,29.73,177.84,29.83z"/>
	<path class="st9" d="M141.64,301.44c0.48-2.42,0.97-4.83,1.43-7.26c0.34-1.8,0.99-3.07,3.2-2.92c2.33,0.16,1.87,1.83,2.01,3.24
		c0.21,2.13,0.44,4.25,0.67,6.38c0.42,6.12,0.56,12.28,1.34,18.36c0.74,5.76,6.57,9.55,14.93,9.78c8.81,0.25,17.63,0.06,26.58,0.06
		c-0.15,2.68-1.51,2.56-2.48,2.71c-10.54,1.66-20.79,4.57-31,7.53c-8.42,2.44-14.14,7.52-15.3,16.96c-0.9,7.34-2.6,14.58-4.98,21.8
		c-1.62-9.32-3.27-18.63-4.85-27.95c-1.31-7.78-2.68-9.15-10.63-9.66c-8.48-0.54-16.97-0.82-25.44-1.41
		c-1.59-0.11-4.49,1.05-4.61-1.27c-0.13-2.49,1.89-4.34,4.88-4.71c7.42-0.92,14.82-2.03,22.22-3.1c3.95-0.57,7.88-1.28,11.84-1.85
		c3.16-0.46,5.2-2.27,6.07-5.2C139.59,315.91,141.26,308.8,141.64,301.44z"/>
	<path class="st10" d="M-171.67,51.24c6.62-4.9,13.19-9.88,19.9-14.66c2.31-1.65,3.63-3.45,4.11-6.37
		c1.38-8.53,3.12-17.01,4.8-25.48c0.37-1.84,0.33-3.89,2.55-6.4c0.76,7.12,1.41,13.25,2.07,19.38c0.35,3.31,0.95,6.62,0.99,9.93
		c0.05,3.9,2.05,4.82,5.43,4.53c9.19-0.79,18.02-3.02,26.66-6.17c1.83-0.67,3.58-1.75,5.73-1.55c1,3.74,0.08,6.18-3.69,8
		c-8.09,3.9-15.86,8.48-23.95,12.37c-4.11,1.98-5.94,4.36-5.65,9.17c0.51,8.46,0.31,16.97,0.24,25.46
		c-0.01,1.43,1.26,3.81-0.99,4.24c-2.49,0.47-3.27-1.89-3.65-3.89c-1.58-8.42-5.56-15.96-8.58-23.86c-1.61-4.2-3.85-5.55-8.16-4.99
		c-5.75,0.75-11.56,0.99-17.35,1.45C-171.36,52-171.51,51.62-171.67,51.24z"/>
	<path class="st11" d="M-97.91,143.09c1.18-39.28,30.23-70.13,72.16-69.53c18.29,0.26,34.46,7.91,47.61,21.53
		c14.23,14.74,20.8,33.01,19.18,52.28c-3,35.69-29,64.57-69.09,64.8C-67.66,212.38-96.6,182.27-97.91,143.09z"/>
	<path class="st12" d="M195.82,131.41c-2.04,39.37-30.7,68.61-68.06,68.93c-41.98,0.36-71.14-29.8-71.06-69.35
		c0.09-39.73,29.64-69.56,70.37-69.15C165.43,62.22,194.08,91.1,195.82,131.41z"/>
	<path class="st13" d="M161.96,253.72c0.17,9-0.9,10.76-9.99,10.87c-11.68,0.15-23.2,1.91-34.8,2.77
		c-25.48,1.89-50.87,4.92-76.32,7.28c-14.23,1.32-28.54,1.89-42.75,3.42c-11.91,1.28-23.95,0.48-35.79,2.58
		c-3.73,0.66-6.25,0.56-6.83-4.79c-1.05-9.67-3.25-19.22-3.64-29c-0.04-1,0.01-2.03-0.26-2.97c-2.29-8-2.04-8.17,6.2-8.69
		c23.22-1.46,46.37-3.72,69.54-5.66c14.57-1.22,29.15-2.47,43.74-3.45c11.26-0.76,22.5-1.98,33.75-2.93
		c14.23-1.2,28.52-1.79,42.69-3.75c8.37-1.16,9.73,0.07,10.55,8.35C158.92,236.46,161.68,244.9,161.96,253.72z"/>
	<path class="st14" d="M-11.63-1.31C-8.16-7.62-4.95-13.4-1.8-19.22c1.29-2.39,2.6-2.66,4.49-0.54c3.91,4.38,7.94,8.66,11.9,12.99
		c1.25,1.36,2.8,3.66-0.32,3.67C5.82-3.06-2.42-0.21-11.63-1.31z"/>
	<path class="st14" d="M74.77-7.06c-2.19-0.36-5.14,1.44-6.49-0.69c-1.54-2.43,1.31-4.54,2.35-6.62c2.16-4.34,5.12-8.27,7.31-12.6
		c1.3-2.58,2.4-1.31,3.16-0.16c3.31,5.04,6.39,10.23,9.65,15.3c1.15,1.78,0.91,2.95-1.25,2.93C84.49-8.95,79.87-6.19,74.77-7.06z"/>
	<path class="st15" d="M42.62-5.08c-3.35-0.26-7.9,2.1-9.69-0.72c-1.1-1.72,2.81-5.26,4.46-8c1.67-2.77,3.17-5.66,4.46-8.62
		c1.32-3.05,2.62-3.14,4.18-0.33c2.52,4.54,4.97,9.12,7.41,13.7c1.38,2.58,0.9,4.08-2.38,3.99C48.25-5.15,45.43-5.08,42.62-5.08z"/>
	<path class="st16" d="M86.93-62.58c-0.2,0.66-0.46,1.61-0.79,2.54c-0.77,2.17-1.48,4.64-3.75,5.46c-1.36,0.49-2.3-1.19-2.3-2.59
		c0-3.14-4.1-6.38,0.04-9.39c1.29-0.94,2.88-1.7,4.63-0.92C86.8-66.58,86.86-64.74,86.93-62.58z"/>
	<path class="st17" d="M44.09-65.05c4.63,0.15,5.87,2.13,5.75,5.25c-0.12,2.93-0.8,6.51-3.99,6.4c-3.67-0.13-4.39-4.03-4.58-7.22
		C41.11-63.22,42.17-65.21,44.09-65.05z"/>
	<path class="st18" d="M6.33-54C6-50.92,6.29-49.15,5.11-47.79c-0.83,0.97-1.64,2.12-3.32,1.26c-2.34-1.2-3.94-8.48-2.34-10.63
		c1.05-1.41,2.36-2.04,3.84-1.23C5.53-57.18,6.51-55.14,6.33-54z"/>
	<path class="st0" d="M15.29,141.68c0.07,23.8-19.65,43.83-43.26,43.94c-25.48,0.12-45.01-19.25-45.05-44.68
		c-0.04-23.93,19.86-43.7,44.03-43.72C-4.26,97.2,15.22,116.76,15.29,141.68z"/>
	<path class="st0" d="M169.84,130.87c-0.03,24.21-19.96,43.94-44.37,43.94c-24.59,0-44.17-19.86-44.08-44.7
		c0.1-24.21,20.05-43.78,44.57-43.72C150.12,86.45,169.87,106.47,169.84,130.87z"/>
	<path class="st19" d="M126.73,253.07c-8.73,0.04-8.73,0.04-8.95-8.51c-0.21-8.23-0.21-8.23,8.16-9.18c0.82-0.09,1.66-0.1,2.49-0.14
		c11.13-0.56,12.78,0.99,13.58,12.28c0.19,2.71-0.75,4.05-3.4,4.32C134.65,252.24,130.69,252.66,126.73,253.07z"/>
	<path class="st20" d="M96.53,254.76c-11.29,0.51-9.25,1.96-9.66-8.85c-0.31-8.18,1.03-7.44,6.56-7.13c0.49,0.03,1-0.01,1.49-0.11
		c3.51-0.68,8.14-3.42,10.33-0.75c2.78,3.38,1.78,8.84,2.21,13.4c0.2,2.12-1.59,3.48-3.97,3.45
		C101.17,254.74,98.85,254.76,96.53,254.76z"/>
	<path class="st21" d="M-29.94,254.88c-1.32-4.41,0.74-6.95,6.13-6.83c0.33,0.01,0.66-0.08,0.99-0.15
		c12.19-2.49,14.35-0.59,13.83,11.71c-0.11,2.63-1.03,3.53-3.54,3.52c-2.49-0.01-5.01,0.07-7.46,0.47
		C-29.22,265.11-29.78,264.71-29.94,254.88z"/>
	<path class="st22" d="M67.14,240.95c8.75-0.43,8.75-0.43,8.96,8.51c0.17,7.38,0.17,7.38-7.04,7.57
		c-10.63,0.27-10.34,0.24-11.55-9.75c-0.6-4.94,0.7-6.9,5.65-6.35C64.46,241.07,65.81,240.95,67.14,240.95z"/>
	<path class="st23" d="M36.99,259.11c-10.52,0.26-8.71,1.34-8.99-8.28c-0.22-7.53-0.11-7.54,8.15-7.79
		c9.96-0.31,9.96-0.31,10.13,9.47c0.11,6.45,0.11,6.45-6.3,6.59C38.99,259.13,37.99,259.11,36.99,259.11z"/>
	<path class="st24" d="M1.75,254.09c0.16-10.49-1.51-8.42,10.56-9c5.18-0.25,5.38,0.29,5.46,11.43c0.03,4.8-1.58,5.68-12.68,5.24
		C-1.08,261.52,3.33,256.19,1.75,254.09z"/>
</g>
</svg>
