<?xml version="1.0" encoding="utf-8"?>
<!-- Generator: Adobe Illustrator 25.4.1, SVG Export Plug-In . SVG Version: 6.00 Build 0)  -->
<svg version="1.1" id="Layer_1" xmlns="http://www.w3.org/2000/svg" xmlns:xlink="http://www.w3.org/1999/xlink" x="0px" y="0px"
	 viewBox="0 0 140 440" style="enable-background:new 0 0 140 440;" xml:space="preserve">
<style type="text/css">
	.st0{fill:#FEFEFE;}
	.st1{fill:#4200AB;}
	.st2{fill:#010101;}
	.st3{fill:#020306;}
	.st4{fill:#030304;}
	.st5{fill:#8057C2;}
	.st6{fill:#E27C07;}
	.st7{fill:#040205;}
	.st8{fill:#E37D06;}
	.st9{fill:#E27D07;}
	.st10{fill:#4F13A9;}
	.st11{fill:#E17C07;}
	.st12{fill:#FBFBFB;}
	.st13{fill:#FAFAFA;}
	.st14{fill:#E9E9E9;}
	.st15{fill:#FDFDFD;}
	.st16{fill:#FAFAFB;}
	.st17{fill:#030305;}
	.st18{fill:#07080B;}
	.st19{fill:#F9F9FB;}
	.st20{fill:#030309;}
	.st21{fill:#F5F4F8;}
	.st22{fill:#D6D2E2;}
	.st23{fill:#A79AC2;}
	.st24{fill:#FCFCFC;}
	.st25{fill:#4604AB;}
	.st26{fill:#4503AC;}
	.st27{fill:#E27A00;}
	.st28{fill:#F8F7F6;}
	.st29{fill:#4506A8;}
	.st30{fill:#490AA9;}
	.st31{fill:#F1F0F6;}
	.st32{fill:#E2DDEB;}
	.st33{fill:#535353;}
	.st34{fill:#78480C;}
	.st35{fill:#BFB4A3;}
	.st36{fill:#888888;}
	.st37{fill:#4403AB;}
	.st38{fill:#090909;}
	.st39{fill:#2E2D2E;}
	.st40{fill:#484848;}
	.st41{fill:#151A22;}
	.st42{fill:#382205;}
	.st43{fill:#432807;}
	.st44{fill:#231803;}
	.st45{fill:#040404;}
	.st46{fill:#160D04;}
	.st47{fill:#161616;}
	.st48{fill:#0F0F0F;}
	.st49{fill:#130F0D;}
	.st50{fill:#695A4C;}
	.st51{fill:#2E2E2E;}
	.st52{fill:#454545;}
	.st53{fill:#1E1E1E;}
	.st54{fill:#110402;}
	.st55{fill:#6B4637;}
	.st56{fill:#454546;}
</style>
<g>
	<path class="st0" d="M70-172.91c231.8,0,463.6,0.01,695.41-0.09c3.75,0,4.59,0.84,4.59,4.59c-0.1,258.61-0.1,517.21,0,775.82
		c0,3.75-0.84,4.59-4.59,4.59c-463.6-0.1-927.21-0.1-1390.81,0c-3.75,0-4.59-0.84-4.59-4.59c0.1-258.61,0.1-517.21,0-775.82
		c0-3.75,0.84-4.59,4.59-4.59C-393.6-172.9-161.8-172.91,70-172.91z"/>
	<path class="st1" d="M199.58,475.77c-2.01-0.56-3.84-0.01-5.77,0.64c-24.58,8.26-49.24,16.32-73.78,24.72
		c-7.02,2.41-14.08,3.89-21.46,3.82c-2.88-0.03-5.54,0.6-8.06,1.93c-23.04,1.88-46.13,3.01-67.45,5.03
		c11.7,1.03,25.08,2.38,38.37,4.36c5.08,0.76,10.28,0.71,15.27,2.08c0.65,1.38,1.61,1.09,2.87,0.82
		c37.38-8.05,74.78-15.97,112.14-24.14c4.68-1.02,6.62-0.28,7.69,4.71c2.58,12.05,2.88,12.06-8.12,17.24
		c-23.62,11.13-47.17,22.43-70.98,33.13c-9.85,4.43-20.78,5.83-31.15,8.85c-8.41,2.45-17.11,3.94-25.2,7.49
		c-3.81,0.85-6.91-1.66-10.44-2.31c-17.18-3.15-34.77-2.85-51.89-6.31c-6.33-2.43-13.08-2.03-19.65-2.77
		c-18.18-2.05-36.39-3.94-54.6-5.74c-2.46-0.24-4.44-1.21-6.46-2.35C-151.06,506.23-223.1,465.55-295,424.61
		c-15.76-8.97-30.68-19.44-46.86-27.68c-7.56-3.85-15.02-8.26-23.61-9.73c-2.92-3.83-7.49-5.26-11.43-7.42
		c-12.17-6.66-23.97-13.97-36.34-20.27c-5.74-6.57-13.97-9.2-21.18-13.44c-0.53-0.31-1.03-0.69-1.55-1.04
		c0.46-0.62,1.66-1.64,1.49-1.57c-4.29-0.5-7.9-4.23-12.5-5.41c-15.5-7.37-30.01-16.55-44.98-24.89
		c-20.07-11.17-39.91-22.74-59.98-33.92c-9.06-5.05-13.4-13.61-13.94-22.74c-1.92-32.56-2.73-65.2-3.81-97.81
		c-1.42-43.12-2.65-86.25-4.12-129.37c-0.14-4.22,0.89-5.74,5.29-6.87c14.2-3.65,27.55-9.87,41.27-14.98
		c18.4-6.85,36.71-13.95,55.06-20.95c2.22,1.77,1.18,3.9,0.6,5.93c-7.23,25.3-16.92,49.7-27.08,73.93
		c-0.64,1.54-1.01,3.23-1.82,4.64c-5.61,9.68-6.05,19.57-2.25,30.05c2.28,6.3,0.67,12.28-2.83,18.08
		c-3.43,5.67-5.56,12.07-8.52,18.03c-1.36,2.74-1.17,5.46,0.19,8.16c0.6,1.19,1.16,2.4,1.77,3.58c3.32,6.53,4.09,12.91,1.12,20.09
		c-4.39,10.6-3.98,10.46,7.08,10.69c21.26,0.43,42.49,1.4,63.68,3.53c11.34,1.14,22.24,3.74,33.13,6.76c2.51,1.4,5.38,1.6,8.09,2.37
		c9.66,3.61,19.52,6.71,29.04,10.7c2.13,1.46,4.32,2.79,6.93,3.22c3.22,1.58,6.48,3.05,10.11,3.43c5.61,5.52,13,7.81,19.95,10.87
		c1.19,0.53,2.62,0.49,3.67,1.46c4.83,4.51,11,6.9,16.59,10.14c22.21,12.87,43.64,26.94,64.53,41.81
		c16.55,11.78,32.69,24.11,48.61,36.74c13.82,10.97,27.29,22.35,40.77,33.73c20.36,17.19,40,35.17,59.28,53.54
		c2.56,2.44,3.82,2.18,5.56-0.85c4.76-8.29,6.79-17.68,11.01-26.22c10.87-22.01,28.92-32.68,52.75-33.11
		c14.6-0.26,28.82-2.42,43.11-4.75c17.91-2.92,35.8-5.93,53.2-11.32c4.65-1.44,9.06-3.29,13.42-5.36
		c6.38-3.03,11.08-0.74,11.56,6.43c0.61,8.88-1.77,17.22-7.7,24.14c-7.8,9.1-17.25,15.26-29.29,17.8
		c-12.86,2.72-25.11,7.8-37.89,10.97c-11.66,2.89-23.11,6.39-33.76,12.12c-5.02,2.7-9.22,6.33-13.03,10.57
		c1.74,1.71,3.49,1.13,5.07,1.15c5.5,0.08,11,0.14,16.49,0.01c31.31-0.7,62.59,1.47,93.91,1.08c5.31-0.07,10.61,0.74,15.93,1.05
		c15.48,0.93,30.44-2.62,45.55-4.79c19.12-2.75,38.18-5.87,57.28-8.78c6.03-0.92,7.04-0.09,7.87,5.77
		c0.91,6.43,2.1,12.82,3.23,19.22c0.95,5.34,0,6.91-5.21,8.37c-19.4,5.43-39,10.05-58.55,14.92c-7.92,1.97-15.73,4.36-23.72,6.07
		c-13.7,2.93-27.67,3.83-41.49,5.87c-9.21,1.36-18.49,2.18-27.73,3.3c-7.9,0.96-15.75,2.51-23.75,2.79
		c-6.13,0.22-12.2,1.54-18.24,2.49c-9.1,1.42-18.43,1.05-27.18,3.81c2.34,1.01,5.02,0.88,7.65,0.81
		c29.15-0.78,58.21,2.01,87.34,2.47c14.18,0.22,27.75-1.21,41.54-3.67c16.05-2.87,31.98-6.36,48.06-9.09
		c10.65-1.81,21.29-3.83,31.91-5.86c6.73-1.28,8.49-0.18,9.68,6.43c0.79,4.41,2.36,8.64,2.62,13.2c0.19,3.24-0.9,5.06-3.83,6.05
		C209.08,472.67,204.42,474.49,199.58,475.77z"/>
	<path d="M199.58,475.77c2.24-3.56,6.4-3.22,9.68-4.46c7.86-2.97,7.98-2.73,6.4-10.95c-0.28-1.46-1-2.82-1.33-4.27
		c-2.35-10.55-2.32-10.49-13.09-8.53c-17.95,3.27-36,6.04-53.86,9.77c-13.64,2.85-27.37,5.18-41.02,7.95
		c-4.99,1.01-9.96,0.62-14.93,0.47c-32.62-0.97-65.23-2.03-97.84-3.04c-3.28-0.1-6.53-0.13-9.41-3.19c4.74-1.06,9.25-1.65,13.5-1.94
		c13.93-0.96,27.62-3.6,41.49-4.94c19.62-1.9,39.1-5.13,58.7-7.33c15.36-1.72,30.53-4.06,45.45-8.2c14.8-4.1,29.74-7.73,44.62-11.54
		c7.37-1.88,14.74-3.79,22.16-5.47c3.36-0.76,4.15-2.42,3.53-5.69c-1.35-7.16-2.64-14.35-3.41-21.58c-0.37-3.49-1.79-4.22-4.79-3.73
		c-11.31,1.84-22.6,3.72-33.93,5.45c-14.61,2.22-29.23,4.37-43.86,6.44c-29.02,4.1-58.09-0.01-87.13,0.24
		c-21.32,0.18-42.65-0.23-63.98-0.37c-3.3-0.02-6.59,0-11.2,0c4.64-6.32,9.68-10.45,15.31-13.59c13.28-7.41,27.84-11.22,42.54-14.76
		c9.64-2.32,18.95-6.04,28.56-8.53c7.45-1.93,14.57-4.2,20.88-8.78c10.06-7.29,16.45-16.61,17.25-29.32
		c0.22-3.52-0.29-6.95-3.15-9.02c-2.88-2.09-5.49,0.33-8.2,1.61c-10.89,5.13-22.58,7.82-34.25,10.36
		c-18.64,4.06-37.53,6.74-56.39,9.54c-5.4,0.8-10.96,0.51-16.45,0.69c-24.89,0.82-43.62,10.94-54.09,34.6
		c-3.89,8.79-6.52,18.11-11.42,26.46c-1.24,2.11-1.84,3.8-4.54,1.01c-9.9-10.23-20.66-19.55-31.14-29.18
		c-15.45-14.19-31.37-27.83-47.53-41.19c-16.91-13.97-34.26-27.37-51.68-40.71c-21.29-16.3-43.66-30.98-65.92-45.8
		c-10.72-7.14-22.32-12.94-33.61-19.2c-1.35-0.75-2.2-1.29-1.95-2.87c0.91-2.18,3.03-2.38,4.9-2.98c0.63-0.2,1.28-0.42,1.93-0.49
		c17.92-2.1,26.5-14.25,31.99-29.72c0.56-1.57,0.91-3.2,1.59-4.73c0.98-2.22,2.61-3.02,4.82-1.83c5,2.71,10.39,4.45,15.7,6.39
		c3.08,1.13,3.93,3.35,2.84,6.38c-0.23,0.63-0.45,1.27-0.82,1.82c-9.89,14.27-7.4,30.13-5.9,45.86c0.37,3.94,2.48,6.06,6.39,6.29
		c13.28,0.78,26.51,2.08,39.77,3.07c0.63,0.05,1.34-0.12,1.82-1.07c-0.89-1.97-2.86-1.63-4.53-1.69c-3.83-0.13-7.66,0.03-11.48-0.07
		c-5.86-0.16-7.06-1.18-6.9-7.16c0.21-7.97,0.79-15.93,1.18-23.9c0.52-10.78,1.68-21.54,1.76-32.35c0.02-3.02,0.61-5.95,1.19-8.89
		c2.27-4.61,6.65-4.44,10.81-4.77c3.71,2.74,4.71,6.97,6.04,11.03c-0.18,2.79-2.55,2.6-4.35,3.22c-2.2,0.75-4.77,1.21-3.56,4.65
		c1,2.85,2.25,4.37,5.85,3.37c14.43-3.97,28.41-9.28,42.65-13.83c9.17-2.94,18.56-5.18,27.6-8.53c1.28-0.47,2.62-0.43,3.88,0.18
		c0.29,0.18,0.54,0.39,0.73,0.66c1.66,2.23,0.58,6.28,3.75,7.21c5.08,1.5,10.34,2.55,15.68,2.79c2.08,0.09,3.13-1.64,4.3-3.05
		c5.74-6.9,11.13-14.1,17.22-20.73c1.89-0.87,3.9-5.45,5.59,0.17c-1.25,6.99-5.11,12.97-7.54,19.51c-1.82,4.9-1.68,5.51,3.46,7.02
		c10.71,3.14,21.63,5.51,32.21,9.11c2.09,0.71,5.21,0.96,4.35,4.27c-0.83,3.21-3.72,2.84-6.23,2.35
		c-10.47-2.03-20.97-3.89-31.42-6.02c-5.04-1.03-5.5-0.69-5.41,4.56c0.29,16.65-0.79,33.31,0.63,49.94
		c0.37,4.36-1.28,5.72-6.25,5.08c-10.74-1.37-21.39-3.38-32.08-5.08c-5.95-0.95-6.09-0.69-6.35,5.36
		c-0.32,7.48-0.85,14.94-1.74,22.38c-0.21,1.76-0.94,3.89,1,5.03c1.94,1.13,3.91,0.17,5.59-1.01c3.88-2.73,5.17-6.72,5.44-11.26
		c0.44-7.38,1.12-8,8.51-6.99c10.56,1.43,21.11,2.99,31.66,4.52c10.33,1.5,13.71-0.55,17.52-10.19
		c4.04-10.22,7.73-20.58,11.93-30.74c2.21-5.36,3.29-5.8,8.72-3.74c5.3,2.01,10.42,4.44,15.7,6.5c3.18,1.24,4.83,3.57,4.62,6.95
		c-0.63,10.63-0.66,21.28-1.44,31.9c-0.59,8.13-0.38,16.3-1.47,24.4c-0.46,3.38,0.83,5.45,4.53,5.64c1.49,0.08,2.95,0.65,4.45,0.6
		c11.17-0.4,22.28,0.92,33.43,1.09c1,0.02,2,0.04,3-0.04c1.51-0.12,3.18-0.17,3.42-2.15c0.27-2.22-1.03-3.45-3.06-3.85
		c-4.09-0.79-8.21-1.4-12.4-1.24c-2.33,0.09-4.67,0.08-7-0.02c-5.08-0.21-6.35-1.17-6-6.35c0.52-7.81,0.53-15.64,1.2-23.42
		c1.13-13.1,1.2-26.25,2.37-39.34c0.24-2.73-1.39-4.32-3.44-5.63c-5.05-3.24-10.28-6.18-15.39-9.3c-4.7-2.87-5.45-4.68-2.83-9.32
		c9.59-16.97,18.38-34.36,27.76-51.44c0.91-1.65,1.5-4.14,4.03-3.82c2.29,0.29,2.9,2.57,3.62,4.41c4.8,12.25,9.72,24.46,14.22,36.83
		c0.74,2.04,1.61,4.03,2.57,5.96c1.79,3.6,3.1,3.85,5.8,0.74c3.6-4.15,6.98-8.5,10.31-12.87c3.13-4.11,6.19-8.27,9.32-12.38
		c1.6-2.09,3.33-3.67,6.31-2.92c3.09,0.78,3.54-1.82,4.26-3.77c1.8-4.92,3.7-9.63,8.96-12.03c4.29-1.96,5.86-1.62,7.91,2.64
		c6.51,13.51,12.46,27.26,18.61,40.93c2.26,5.02,4.48,10.06,7.86,14.45c2.86,3.71,5.06,4.06,8.97,1.54
		c4.07-2.63,7.51-6.07,11.32-9.04c1.17-0.92,2.44-2.21,3.99-1.41c1.94,1,1.15,2.93,0.8,4.48c-0.92,4.07-2.26,8.03-3.91,11.85
		c-1.18,2.72-0.26,4,2.42,4.68c13.57,3.42,27.16,6.78,40.74,10.18c3.43,0.86,5.81-0.34,7.54-3.3c1.44-2.46,2.36-5.14,3.46-7.75
		c0.59-1.39,1.31-2.93,3.06-2.89c1.68,0.04,2.47,1.53,3.15,2.89c0.75,1.5,1.18,3.11,1.77,4.67c3.3,8.78,9.78,11.22,17.72,6.34
		c15.75-9.69,31.24-19.79,46.98-29.51c4.14-2.56,8.41-4.05,13.14-1.5c1.2,1.87,0.74,3.8,0.26,5.77c-1.7,6.91-2.23,13.61,1.56,20.26
		c2.2,3.86,1.59,7.89-1.7,11.47c-3.21,3.5-2.91,4.63,1.48,6.27c3.23,1.21,4.48,3.54,4.31,6.53c-0.5,8.79-0.93,17.58-1.09,26.39
		c-0.03,1.71-0.86,3.24-2.14,4.38c-5.66,5.04-5.07,11.94-5.48,18.5c-0.15,2.33,1.33,3.52,3.64,3.96c7.45,1.42,8.92,0.67,10.64-6.69
		c1.27-5.42,1.57-10.88-1.4-15.99c-0.58-1.01-1.24-2.11-1.07-3.28c1.41-9.51,0.99-19.24,3.57-28.6c0.9-3.25,3.44-3.11,6.01-3
		c1.76,0.08,3.83,0.88,4.93-1.21c1.05-2-0.43-3.43-1.56-4.87c-2.12-2.7-1.29-5.38,1.06-6.99c8.42-5.76,8.73-14.31,9.47-23.28
		c0.57-6.86,1.42-13.82,3-20.61c1.34-5.74,1.33-11.65,0.29-17.35c-1.56-8.53-11.42-14.24-19.87-12.11
		c-0.82,0.21-1.62,0.36-2.45,0.17c-1.87-0.94-0.99-2.27-0.19-3.18c2.46-2.78,4.61-5.97,8.37-7.26c8.38,0.39,16.16,3.61,24.27,5.32
		c3.02,0.64,4.28,3.54,5.47,6.12c7.15,15.57,14.57,31.01,21.94,46.48c1.68,3.53,3.85,5.91,7.54,7.33
		c11.63,4.48,23.15,9.26,34.67,13.99c10.29,4.22,20.36,9.19,30.84,12.74c11.89,4.03,18.5,13.8,26.53,21.79
		c16.87,16.79,32.94,34.34,54.95,44.75c1.35,0.64,2.91,1.25,1.91,3.29c-14.15,24.48-27.94,49.19-42.77,73.26
		c-3.01,4.88-2.84,8.34-1.55,12.88c1.23,4.32,2.96,8.61,3.37,13.02c1.57,16.96,13.28,27.8,23.53,39.36
		c22.19,25.02,32.8,53.96,31.04,87.39c-0.73,13.95-5.01,16.3-17.02,8.9c-8.55-5.27-15.7-12.35-22.82-19.31
		c-6.34-6.19-13.19-11.65-20.25-16.95c-10.26-7.69-16.18-17.89-16.75-30.91c-0.31-7.15-0.77-14.3-0.89-21.46
		c-0.05-2.81-0.87-4.51-3.5-5.81c-12.22-6.08-24.39-12.26-36.45-18.63c-2.62-1.38-3.78-0.74-5.18,1.46
		c-3.58,5.61-7.44,11.04-10.97,16.68c-1.56,2.49-2.79,2.97-5.47,1.28c-7.73-4.89-15.72-9.37-23.54-14.13
		c-1.96-1.19-3.77-1.65-6.09-1.29c-23,3.64-46.02,7.23-69.05,10.67c-3.08,0.46-3.38,2.01-3.73,4.66
		c-1.32,10.03-6.66,18.7-10.05,28.04c-0.31,0.86-1.14,1.19-1.99,1.27c-6.3,0.6-12.6,1.66-18.89,1.56
		C205.5,480.91,202.69,477.67,199.58,475.77z"/>
	<path class="st1" d="M468.08,309.03c-2.43-3.05-6.24-3.93-9.38-5.84c-12.29-7.5-23.56-15.98-33.46-26.7
		c-10.26-11.12-21.41-21.48-32.11-32.23c-2.67-2.68-7.44-3.28-11.25-4.83c-22.03-8.97-44.07-17.91-66.09-26.93
		c-1.62-0.66-3-1.57-3.89-3.49c-6.97-15.19-14.67-30.07-20.99-45.52c-3.24-7.92-8.58-11.01-16.14-12.31
		c-5.06-0.87-10.07-1.99-15.1-3c-7.23,0.71-13.98-2.32-21.09-2.71c-10.42-0.57-20.7-2.7-31.13-3.27
		c-10.79-0.6-19.71-6.58-29.39-10.35c-4.8-3.98-5.56-9.86-6.82-15.35c-0.62-2.68,0.97-5.12,4.15-5.71c1.78-0.33,3.44-1.09,5.23-1.38
		c12.61,1.61,24.93-2.85,37.51-1.84c3.41,1.28,5.4-2.02,8.24-2.6c1.88,1.17,3.95,2,6.14,1.52c8.85-1.97,17.47,0,26.12,1.39
		c9.08,2.6,18.31,4.56,27.65,6c2.32,0.36,4.77,0.89,5.34-2.57c0.55-3.32-1.72-3.96-4.1-4.38c-8.81-1.56-17.34-4.54-26.36-4.99
		c-10.38-3.39-21.06-5.42-31.81-7.16c-2.81-0.37-5.2-2.18-8.08-2.32c-14.64-2.79-29.09-6.68-43.75-9.05
		c-10.49-1.7-13.33-10.48-19.6-16.06c-1.53-1.36-0.61-3.46,0.4-5.07c1.42-2.26,2.51-4.67,3.64-7.08c1.71-3.54,4.79-3.74,8.09-3.22
		c14.75,2.33,29.55,4.43,44.26,7.02c4.99,0.88,10.11,2.05,15.28,0.78c6.1,3.92,12.86,3.76,19.69,3.1c5.76,4.11,12.79,3,19.18,4.49
		c7.24,1.69,14.79,1.96,22.07,3.68c2.33,0.55,4.27,0.41,5.1-2.4c0.88-2.95-0.49-4.25-3.1-5.12c-3.38-1.12-6.91-0.92-10.33-1.53
		c-8.32-1.48-16.61-3.13-25.05-3.9c-2.69-0.24-5.27-0.2-7.89,0.27c-5.81-3.76-12.26-3.67-18.8-3.1c-6.94-3.86-14.93-4.09-22.29-4.37
		c-14.68-0.54-25.19-8.38-35.74-16.82c-1.96-1.57-2.61-3.79-2.29-6.28c0.1-0.82,0.21-1.65,0.28-2.48
		c0.79-9.67,2.81-11.04,12.51-9.37c13.91,2.4,28,2.85,42.08,3.37c12.64,0.91,25.24,2.4,37.9,3.02c9.07,2.24,18.42,0.81,27.58,2.13
		c3.55,0.51,7.22,0.63,10.85,0.79c12.04,1.14,24.1,2.13,36.15,3.19c4.02,0.35,6.62,2.37,8.8,5.64
		c10.02,15.07,19.98,30.17,30.07,45.2c1.12,1.66,2.28,3.27,3.82,4.55c2.76,7.56,8.51,13.27,12.42,20.13
		c2.86,5.01,6.54,9.52,9.42,14.52c1.83,3.18,3.78,5.77,7.93,5.54c0.97-0.05,1.93,0.46,2.24,1.61c-0.09,0.33-0.3,0.57-0.51,0.81
		c-0.86,0.93-2.88,0.15-3.07,1.94c-0.09,0.83,0.57,1.61,1.36,1.89c1.9,0.69,2.48-1.14,3.52-2.04c0.62-0.53,1.04-1.27,1.52-1.94
		c4.77-5.4,9.6-10.75,14.73-15.84c2.05-0.23,3.84,0.77,5.74,1.2c4.73,1.07,4.93,1.64,2.69,6.33c-2.28,0.91-3.46,2.97-4.82,4.8
		c-4.04,5.41-8.98,10.05-12.95,15.52c-1.62,1.64-4.93,3.26-0.01,4.92c2.71,11.47,12.2,16.61,20.97,22.4c1.21,0.8,2.78,1.04,3.96,2
		c4.86,3.35,5.29,7.56,2.57,12.53c-0.95,1.74-1.55,3.68-2.35,5.51c-1.44,3.28-3.5,5.58-7.39,5.75c-3.73,0.16-5.04,2.24-5.03,5.94
		c0,2.92,1.65,7.51-1.9,8.3c-2.94,0.65-3.86-4.03-5-6.63c-1.82-4.15-4.46-5.26-8.75-4.14c-7.81,2.04-15.3,4.46-21.08,10.61
		c-3.02,3.21-6.8,5.68-9.67,9.21c5.14-2.22,9.56-5.58,14.24-8.5c1.73-1.08,3.88-3.95,5.47-2.14c1.97,2.24-1.35,3.89-2.77,5.45
		c-4,4.39-8.74,8.14-11.73,13.91c1.83,0.57,2.71-0.47,3.62-1.28c4.84-4.33,10.1-8.16,14.8-12.66c1.17-1.12,2.67-2.77,4.29-1.52
		c2.04,1.59,0.25,3.41-0.74,4.76c-3.45,4.71-6.53,9.66-9.92,14.4c-0.74,1.03-1.71,1.97-1.65,4.18c5.13-4.43,8.53-9.55,12.6-14.03
		c1.34-1.48,2.49-3.13,4.12-4.33c0.79-0.58,1.73-1.4,2.69-0.79c1.24,0.79,0.76,2.1,0.32,3.15c-1.75,4.15-4.05,8.03-5.86,12.14
		c-0.81,1.83-3.33,4.38-1.13,5.66c2.46,1.42,3.11-2.19,4.12-3.8c2.83-4.51,5.29-9.25,8.01-13.83c1.62-2.73,3.8-4.47,7.13-4.81
		c5.96-0.61,11.77-2.21,17.72-2.94c2.63-0.33,4.72-1.4,6.45-3.38c4.05-4.63,8.35-9.04,11.34-14.52c1.15-2.11,2.29-4.52,5.11-5.09
		c5.46,2.5,10.34,6.16,16.14,7.98c5.78,5.49,13.23,8.25,19.98,12.13c3.06,1.76,3.48-1.4,4.11-3.33c3.26-10.15,5.9-20.48,8.9-30.71
		c7.21-24.61,13.68-49.44,21.12-73.99c1.66-5.47,1.41-5.62-4.12-7.18c-4.45-1.25-9.23-1.56-13.16-4.4c1-4.15,4.94-5.11,7.95-6.68
		c3.64-1.9,5.42-4.35,4.77-8.3c-1.31-7.96,1.81-12.66,9.49-15.42c6.06-2.18,11.64-5.7,17.47-8.56c2.88-1.41,3.21-3.02,0.93-5.31
		c-3.64-3.65-7.31-7.28-10.92-10.96c-2.44-2.48-3.8-5.33-3.93-8.88c-0.44-11.22,0.93-22.24,3.36-33.15
		c0.52-2.32,1.53-4.51,3.43-5.96c6.62-5.03,12.38-11.07,19.07-16.01c0.63-0.46,1.31-1.75,2.35-0.42c-0.11,1.93,1.36,1.84,2.64,2.22
		c37.14,11,74.2,22.26,111.44,32.87c7.61,2.17,10.02,7.34,10.98,13.55c1.73,11.17,2.54,22.47,3.83,33.71
		c0.25,2.16-0.56,3.9-1.43,5.69c-30.82,63.64-61.65,127.27-92.47,190.91c-5.07,10.48-10.24,20.92-15.09,31.5
		c-2.14,4.67-5.11,8.4-9.1,11.61c-24.98,20.11-53.13,31.14-85.51,30.46c-12-0.25-23.31-3.32-34.33-7.79
		C471.29,309.73,469.86,308.75,468.08,309.03z"/>
	<path class="st1" d="M-329.79-67.01c18.02-7.78,36.62-14.06,54.89-21.2c10.54-4.12,21.35-7.61,31.68-12.21
		c8.9-3.96,18.2-3.68,27.43-4.31c42.36-2.92,84.75-5.58,127.12-8.39c74.6-4.95,149.21-9.93,223.81-14.93
		c32.07-2.15,64.13-4.35,96.19-6.59c4.07-0.28,7.86,0.47,11.75,1.62c90.62,26.85,181.26,53.62,271.9,80.41
		c4.94,1.46,9.87,2.97,14.81,4.46c1.08,4.51-3.86,13.94-8.29,15.19c-8.47,2.39-16.9,4.89-25.38,7.23
		c-10.57,2.92-21.02,6.26-31.71,8.75c-2.47,0.57-4.41,1.9-6.03,4.06c-6.1,8.11-11.71,16.55-17.24,25.05
		c-1.57,2.41-1.35,4.3,0.43,6.26c9.16,10.08,5.5,11.18-0.81,19.21c-1.23,1.56-2.45,3.16-4.07,4.37c-3.3,1.08-4.42-1.95-6.37-3.4
		c-1.35-1.01-2.39-3.17-4.49-1.71c-1.84,1.27-0.69,2.88,0,4.34c0.44,0.93,0.69,1.86-0.42,2.56c-6.07,1.9-11.75,5.31-18.45,4.79
		c-10.52-4.97-21.93-7.28-32.85-11.06c-1.71-0.59-3.52-0.91-5.22-1.57c-8.7-3.18-17.58-5.78-26.44-8.48
		c-9.97-3.04-19.93-6.08-29.86-9.28c-0.52-0.11-1.03-0.27-1.53-0.45c-7.69-2.04-15.33-4.32-22.86-6.83
		c-11.32-3.78-22.46-3.34-33.79-0.75c-1.75,0.4-3.52,1.12-5.33,0.19c-0.95-2.46,1.11-3.57,2.31-5.03c1.17-1.42,2.87-2.3,4.02-3.73
		c1.38-1.7,1.59-3.73,0.64-5.63c-0.93-1.87-2.84-1.42-4.46-1.2c-2.31,0.31-4.61,0.68-6.91,1.09c-4.41,0.78-8.71,1.92-13.03-0.86
		c-1.92-1.24-4.57-0.5-6.89-0.52c-6.83-0.05-13.66,0.14-20.49-0.07c-8.27-0.25-11.57-4.04-11.04-12.32
		c0.27-4.14-1.23-5.58-5.24-4.96c-2.37,0.37-4.51,1.3-6.1,3.14c-6.94,8.05-15.69,13.87-24.37,19.74c-2.3,1.56-4.15,3.15-4.99,5.91
		c-1.12,3.71-3.66,4.78-7.4,3.71c-4.64-1.33-9.36-2.34-14.03-3.54c-5.15-1.32-6.07-4.53-2.42-8.26c2.09-2.14,4.16-4.35,6.58-6.12
		c3.02-2.21,4.79-1.78,5.9,1.82c0.97,3.15,2.82,4.18,5.87,4.17c3.23-0.01,3.48-2.41,4.22-4.63c1.15-3.49,2.35-6.98,2.86-10.6
		c0.83-5.78,2.33-11.04,7.53-14.58c1.76-1.19,2.16-2.93-0.67-3.21c-13.41-1.37-26.56-4.41-39.92-6.14c-0.99-0.13-2-0.02-3-0.13
		c-14.5-2.93-29.27-4.16-43.74-7.26c-4.58-0.98-9.33-0.92-13.91-0.3c-6.94,0.93-13.98,1.45-20.86,1.42
		c-15.99-0.08-31.83,1.99-47.75,2.66c-15.21,0.64-30.44,1.98-45.66,3.05c-10.24,0.72-20.38,2.9-30.71,2.22
		c-3.22-1.29-1.83-3.4-0.79-5.26c4.39-7.82,8.51-15.8,13.07-23.52c1.42-2.41,1.94-4.47-0.53-6.59c-3.35-2.88-4.63-2.73-6.76,1.21
		c-5.6,10.38-11.39,20.65-17.04,31c-0.94,1.72-1.71,3.74-4.28,3.56c-14.44-2.39-29.05-3.21-43.55-5.07c-1.97-0.25-4-0.24-5.77-1.35
		c-1.93-4.49,0.39-8.76,0.79-13.12c0.58-6.3,0.06-6.92-6.15-6.53c-3.02,0.19-4.66,1.53-4.82,4.5c-0.21,3.97-1,7.88-1.28,11.85
		c-0.12,1.7,0.44,4.24-2.69,4.19c-1.27-1.06-2.48-2.24-4.29-2.31c-13.61-0.55-26.96-3.36-40.55-4.37
		c-14.87-1.11-29.64-3.69-44.5-5.13c-15.02-1.46-30.03-3.09-45.01-4.89c-8.55-1.03-17.22-1.25-25.68-3.1
		C-326.3-65.21-328.38-65.32-329.79-67.01z"/>
	<path d="M-329.79-67.01c21.57,2.6,43.09,5.71,64.72,7.65c21.33,1.91,42.5,5.16,63.86,6.82c11.56,0.9,23.01,3.25,34.63,3.73
		c2.46,0.1,2.34,1.87,3.02,3.23c1.58,2.65,1.02,5.49,0.64,8.27c-3.19,23.41-5.22,46.95-8.39,70.36c-0.26,1.95-1.75,5.04,2.08,5.48
		c3.32,0.38,4.63-1.7,5.14-4.75c4.16-24.61,7.66-49.33,11.63-73.97c0.37-2.27,0.32-4.73,2.71-6.11c16.73,1.75,33.57,2.55,50.11,5.92
		c0.79,2.4-0.82,4.17-1.79,5.98C-111.71-15.36-122,3.66-132.52,22.54c-0.64,1.15-1.56,2.16-1.91,3.91
		c6.26-1.34,11.15-3.47,14.46-9.67c9.8-18.33,20.26-36.3,30.51-54.39c0.83-1.46,1.11-3.67,3.6-3.51
		c15.89-1.24,31.77-2.77,47.69-3.66c25.72-1.44,51.39-3.72,77.16-4.4c6.63-0.18,13.23-1.09,19.85-1.55
		c7.84-0.55,15.57,0.04,23.3,1.65c12.19,2.54,24.69,3.32,36.83,6.23c0.45,1.95-0.88,3.12-1.99,4.31c-2.74,2.92-5.56,5.75-8.48,8.48
		c-2.4,2.24-4.7,3.59-6.1-0.97c-0.66-2.16-2.56-2.51-4.44-2.46c-4.63,0.12-7.9-1.68-11.25-5.13c-4.16-4.28-10.36-3.66-16.03-3.51
		c-8.31,0.22-16.74,2.27-24.85,1.23c-10.85-1.39-21.57-0.05-32.33-0.61c-4.32-0.23-8.63,0.1-12.95,0.64
		c-5.11,0.64-10.33,0.89-15.29-1.16c-2.56-1.06-3.71-0.25-3.83,2.51c-0.18,4.1,0.01,8.01,3.38,11.02c0.99,0.89,1.63,2.09,2.17,3.33
		c4.53,10.34,1.75,15.02-9.46,15.59c-2.93,0.15-5.09,1.04-6.54,3.7c-1.89,3.46-5.74,5.55-6.76,9.72c-0.38,1.53-2.04,2.1-3.54,2.46
		c-1.51,0.36-2.89,0.96-3.56,2.47c-1.98,4.47-5.67,5.85-10.18,5.65c-3.26-0.15-5.89,0.62-7.41,3.84c-0.57,1.21-1.71,2.04-2.98,2.56
		c-5.9,2.41-10.24,6.21-12.02,12.64c-0.77,2.79-3.15,4.22-5.97,4.69c-2.65,0.44-5.32,0.44-7.97,0.03c-5.09-0.78-7.47-3.09-7.78-8.19
		c-0.24-3.9-0.97-7.56-2.78-11.03c-1.41-2.7-1.37-5.46,0.28-8.09c1.17-1.85,1.45-4.3,2.64-5.85c4.09-5.32,8.54-11,15.07-12.84
		c4.4-1.24,7.38-2.56,10.88-5.9c3.78-3.6,6.51-8.58,11.57-11.16c-6.81-0.96-13.58-0.46-20.3-0.78c-0.65-0.03,0.15-0.1-0.49,0.05
		c-0.86,0.2-1.86,0.65-1.89,1.42c-0.22,5.73-8.68,5.16-8.45,11.32c0.16,4.26-1.59,7.78-5.46,10c-1.36,0.78-2.19,2.01-2.79,3.42
		c-0.53,1.23-0.92,2.81-2.05,3.37c-7.61,3.74-5.78,10.84-5.96,17.01c-0.11,3.88-0.94,6.89-4.5,8.7c-1.87,0.95-3.15,2.36-4.11,4.2
		c-1.53,2.93-4.1,4.6-7.3,4.39c-4.67-0.31-9.31,0.17-13.95,0.14c-4.77-0.03-7.1-1.93-8.04-6.57c-1.21-6.01-0.93-11.7,4.89-15.57
		c2.71-1.81,3.35-4.45,2.93-7.45c-0.62-4.3,0.49-7.58,4.94-9.12c2.6-0.9,2.76-3.15,2.67-5.35c-0.18-4.72,1.09-8.41,5.76-10.61
		c3.31-1.56,2.46-4.89,2-7.56c-0.52-2.95-3.17-1.57-4.98-1.68c-1.49-0.09-3,0-4.5-0.03c-3.45-0.08-5.73-1.5-6.17-5.18
		c-0.25-2.15-0.87-4.06-3.66-3.59c-2.64,0.45-5.48,0.73-5.57,4.44c-0.03,1.17-0.1,2.33-0.04,3.5c0.6,12.63-0.93,25.26-0.13,37.9
		c0.25,3.9-0.33,7.68-5.15,9.09c-2.51,0.73-2.55,3.27-2.66,5.44c-0.19,3.99,0.08,8-0.14,11.99c-0.32,5.61-2.83,8.17-8.47,8.36
		c-4.98,0.17-10,0.44-14.92-0.83c-6.21-1.61-7.79-5.52-4.92-11.15c3.94-7.72,6.73-15.56,6.26-24.72
		c-0.32-6.35-0.99-12.91,0.23-19.37c1.22-6.43-0.7-12.92,0.01-19.42c0.38-3.46,0.9-6.58,4.06-8.65c0.81-0.53,1.72-1.27,1.33-2.43
		c-0.38-1.13-1.51-1.16-2.49-1.25c-1.49-0.13-3-0.1-4.5-0.07c-14.15,0.34-28.27-0.47-42.4-0.94c-2.52-0.08-5,0.05-7.41,0.83
		c-4.08,1.31-8.19,1.46-12.31,0.27c-2.13-0.62-4.26-0.5-6.44-0.38c-5.48,0.29-11,0.73-16.39-0.81c-2.39-0.68-4.59,0.18-6.87,0.62
		c-6.8,1.31-9.02,0.2-11.9-6.16c-0.84-1.85-2.01-2.56-3.91-2.14c-2.79,0.61-5.61,0.66-8.45,0.73c-4.64,0.12-8.59-0.92-10.88-5.47
		c-0.92-1.84-2.64-2.42-4.59-2.49c-0.83-0.03-1.67-0.11-2.5-0.04c-12.47,1.06-24.91-0.11-37.35-0.68c-3.36-0.15-6.61,0.73-9.96,0.67
		c-3.93-0.08-7.25-1.12-9.18-4.85c-1.12-2.15-2.86-3.02-5.25-3.14c-13.11-0.67-26.23-0.59-39.35-1.02
		c-3.28-0.11-5.79,0.64-5.33,4.61c1.48,12.95-8.35,13.85-18.77,11.47c-2.37-0.54-4.48-2.03-7.14-1.61c-1.6,0.25-3.03-0.56-3.74-2.01
		c-1.49-3.06-4.05-3.73-7.07-3.44c-3.66,0.35-7.81-1.82-10.8,0c-3.76,2.3-0.17,6.65-0.78,10.16c-1.01,5.85,0.55,11.91-0.59,17.88
		c-0.48,2.48,0.9,4.26,3.21,5.64c7.85,4.7,8.12,16.45,0.51,21.55c-1.93,1.3-2.37,2.69-2.49,4.92c-0.37,7.13,0.52,14.28-0.42,21.39
		c-0.62,4.7-1.79,9.09-5.96,12.18c-2.86,2.12-2.15,6.85-5.58,8.62c-3.38,1.74-4.47,4.91-4.01,7.96c1.17,7.69-1.69,15.11-0.69,22.81
		c0.93,7.15-2.67,10.53-9.82,10.76c-1.81,0.06-4.61-1.31-5.13,1.39c-0.54,2.78-0.82,5.95,1.89,8.31c7.56,6.59,7.59,15.7,0.1,21.91
		c-1.23,1.02-2.08,2.07-2.14,3.73c-0.27,7.97-0.96,15.89,0.02,23.92c0.84,6.89-0.68,13.89-0.46,20.89c0.22,7.22,0.32,7.75,7.55,8.79
		c2.16,0.31,4.32,0.39,6.48,0.33c14.29-0.39,28.6,1.32,42.87-0.74c3.43-0.49,6.9,1.01,10.44,0.66c2.97-0.29,4.75-1.13,5.13-4.69
		c0.81-7.51,3.92-10.34,11.38-11.48c10.14-1.55,20.27-0.5,30.4,0.13c5.24,0.33,6.86-0.88,6.7-4.86c-0.1-2.6-1.26-4.02-3.93-4.14
		c-1.83-0.09-3.67-0.02-5.49-0.18c-1.7-0.15-3.95-0.37-4.41-1.86c-1.67-5.43-8-7-9.71-12.25c-0.58-1.77-1.52-2-2.92-0.84
		c-1.16,0.96-2.4,1.79-3.61,2.68c-1.99,1.46-4.86,1.95-5.91,4.39c-1.07,2.49,1.49,4.21,2.08,6.4c0.77,2.86,0.15,5.31-1.99,7.28
		c-2.33,2.14-5,2.35-7.89,1.13c-6.36-2.69-11.87-0.85-14.99,5.07c-1.09,2.06-2.72,2.97-4.86,2.77c-3.16-0.3-6.28-0.37-9.45-0.03
		c-3.38,0.37-5.37-1.33-5.5-4.88c-0.04-1,0.01-2-0.07-3c-0.4-5.43-1.53-6.66-7.11-6.69c-4.83-0.03-9.1-0.49-10.25-6.33
		c-0.16-0.83-0.98-1.29-1.65-1.8c-8.74-6.62-8.88-16.1,0.09-23.41c-2.56-2.19-6.17-3.85-5.89-7.85c0.25-3.47,0.85-6.91,1.01-10.41
		c0.09-2.02,1.58-3.4,3.57-3.65c4.43-0.55,8.63-2.35,13.3-1.7c4.78,0.66,5.41-0.27,4.97-5.26c-0.73-8.31,1.96-11.61,10.39-11.29
		c7.31,0.28,14.65-0.92,21.94,0.57c3.32,0.68,6.04,1.87,7.01,5.47c0.93,3.44,4.17,4.14,6.81,5.29c2.23,0.97,2.22-1.22,2.5-2.61
		c1.46-7.29,2.52-8.72,9.34-7.64c7.89,1.25,15.56-0.86,23.34-0.26c3.64,0.28,7.33,0.01,10.99,0.05c2.85,0.03,4.5-1.12,4.32-4.12
		c-0.33-5.48,2.47-8.65,6.34-12.5c3.85-3.83,9.06-6.67,11.54-11.98c1.27-2.72,3.99-3.26,6.79-3.37c5.18-0.19,10.3,0.34,15.44,0.84
		c7.21,0.7,8.89-1.19,8.38-8.51c-0.42-6,1.46-8.11,7.19-8.02c6.88,0.1,7.82-1.01,7.94-8.15c0.11-6.51,1.07-12.88,4.07-18.83
		c1.68-3.34,4.18-5.14,7.84-5.22c10.5-0.21,20.99-0.18,31.49-0.01c2.91,0.05,4.82,1.57,6.5,3.95c5.38,7.65,6.76,16.06,5.55,25.13
		c-0.46,3.48-0.41,6.98,0.14,10.46c0.21,1.32,0.86,2.78,0.43,3.94c-3.06,8.35,2.12,13.38,7.11,18.63c1.47,1.54,3.12,1.79,4.95,1.78
		c4.15-0.02,6.8,2.37,9.95,4.79c4.97,3.82,7.77,9.8,13.46,12.74c1.87,0.96,2.49,3.06,4.19,4.97c1.14-2.41,0.58-4.71,0.73-6.87
		c0.38-5.47,2.06-7.03,7.35-7.25c7.16-0.3,14.31-0.44,21.48-0.35c4.09,0.05,7.33,1.35,9.64,5.07c2.64,4.24,8.75,6.27,13.72,5.08
		c4.16-1,8.22-2.11,10.34,3.49c0.99,2.6,3.8,2.26,6.13,2.34c8.8,0.31,10.12,1.58,10.06,10.36c-0.03,4.7,1.24,10.02-4.96,12.42
		c3.7,1.44,6.37,1.11,7.4-3.14c0.28-1.14,1.24-2.11,2.37-2.43c2.85-0.78,4.36-2.55,5.2-5.38c0.74-2.48,3-3.32,5.44-3.77
		c3.98-0.74,7.92-0.62,11.92-0.18c3.47,0.38,6.99,0.23,11.04-0.9c-2.53-1.82-4.44-3.7-3.91-6.84c0.47-2.81,1.92-4.93,4.1-6.62
		c1.72-1.34,2.68-3.02,2.19-5.21c-0.83-3.69,0.17-7.29,0.4-10.92c0.25-3.95,1.59-7.13,5.41-8.84c1.61-0.72,2.61-2,3.36-3.55
		c1.84-3.8,5.1-5.01,9.07-4.92c7.12,0.17,14.2,1.64,21.36,0.35c1.86-0.34,3.92,0.42,4.91,1.97c4.41,6.91,11.86,12.05,11.09,21.95
		c-0.49,6.29,1.73,7.75,8.19,7.28c3.51-0.25,6.93-0.27,10.43,0.07c5.65,0.56,12.45-2.88,13.78-10.25c0.85-4.72,4.17-6.91,8.83-5.53
		c6.71,1.98,13.24-0.46,19.85-0.14c1.75,0.09,3.24-0.94,4.08-2.5c2.28-4.24,6.03-5.5,10.49-5.28c3.13,0.15,5.02-0.89,5.42-4.32
		c0.38-3.23,2.8-4.51,5.77-4.26c11.97,0.99,23.92,0.38,35.87-0.24c5.88-0.3,9.76,1.34,13.48,6.92c4.79,7.19,12.24,12.03,21.92,12.15
		c8.68,0.11,10.52,4.29,5.74,11.8c-1.43,2.25-3.22,4.11-5.28,5.89c-3.98,3.43-5.68,8.53-7.45,13.23c-1.51,4-3.69,5.63-7.67,5.58
		c-2.16-0.02-4.33,0.12-6.49,0.21c-4.8,0.18-9.5-0.03-12.18,5.41c-1.02,2.07-3.94,2.24-6.33,2.33c-2.66,0.1-5.34,0.16-8,0.03
		c-3.44-0.17-6.14,0.44-7.58,4.15c-0.99,2.55-3.46,3.78-6.13,3.43c-7.53-0.98-14.9,1.27-22.56,0.83c2.51,1.82,4.89,3.64,5.91,7.38
		c2.73-3.9,5.49-6.68,10.18-6.56c5.07,0.13,8.91,2.63,12.26,5.91c1.89,1.86,3.8,2.27,6.26,2.23c7.84-0.12,10.67,2.56,10.75,10.31
		c0.07,7.66,0.23,15.33-0.15,22.99c-0.14,2.68-0.42,5.77,2.9,6.66c3.26,0.88,5.88-0.37,7.02-3.88c0.31-0.96,0.9-2.09,1.79-2.32
		c5.72-1.51,6.73-7.97,12.12-10.57c-5.22-3-6.85-7.24-6.45-12.44c0.19-2.48-1.28-3.82-3.28-5.09c-4.52-2.87-6.18-9.96-4.07-16.17
		c1.43-4.2,4.7-5.84,11.06-5.5c1.66,0.09,3.31,0.24,4.99,0.12c6.61-0.47,10.88-5.43,10.43-12.19c-0.5-7.53,4.57-12.55,11.92-11.44
		c7.72,1.17,15.26-0.68,23.36-0.75c-0.93-1.11-1.86-0.86-2.68-0.84c-1,0.02-1.98,0.29-2.97,0.37c-6.05,0.52-9.98-2.68-9.48-8.64
		c0.53-6.31,0.13-12.64,0.83-18.93c0.17-1.5,0.36-3.01,1.26-4.27c1.46-2.05,3-4.43,5.77-4.21c2.69,0.21,4.36,2.2,4.91,4.94
		c-0.21,0.8-0.17,1.83-0.67,2.35c-5.76,5.99-1.53,9.93,2.2,14.81c4.3,5.63,9.59,8.33,16.25,9.64c13.93,2.75,27.8,5.82,41.7,8.76
		c2.67,1.29,4.99,2.97,6.48,5.62c0.51,1.56,0.1,2.93-0.83,4.19c-2.83,2.48-4.76,6.04-8.65,7.26c-11.74,0.39-23.35,2.61-35.12,2.59
		c-1.36,0-2.64-0.09-3.82-0.79c-4.28-7.5-11.7-7.51-18.97-8.12c-4.97-0.42-9.94-0.93-14.87-1.69c-1.48-0.23-3.07-0.43-4.13,1.01
		c-0.66,0.9-0.39,1.92,0.15,2.82c0.95,1.6,2.35,2.27,4.22,1.93c0.65-0.12-0.14,0.08,0.48-0.14c3.16-1.15,6.53-1.32,7.29,2.5
		c0.78,3.93-2.89,5.21-5.95,6.13c-2.81,0.85-5.62,0.59-8.08-1.28c-1.54-1.17-3.21-1.47-4.37,0.26c-3.55,5.31-8.86,7.88-14.63,9.83
		c-0.46,0.16-0.76,0.61-0.83,1.28c0.86,1.74,2.71,1.6,4.25,1.79c3.87,0.47,4.78,2.42,3.42,5.88c-0.4,1.01-1.4,2.31-0.29,3.2
		c1.29,1.03,2.47-0.27,3.55-0.96c1.98-1.27,3.51-3.05,5.12-4.73c1.2-1.26,2.61-2.43,4.33-1.12c1.57,1.2,1.25,3.01,0.59,4.59
		c-2.18,5.24-6.47,8.29-11.32,10.77c-1.51,0.77-4.01,0.66-3.89,3.17c0.09,2.02,1.9,3.01,3.42,4.04c1.1,0.75,2.34,1.26,3.52,1.89
		c2.02,1.07,2.74,2.52,0.97,4.33c-2.08,2.13-0.86,3.49,0.87,4.88c1.17,0.94,2.38,1.82,3.52,2.79c4.98,4.22,7.74,3.83,11.58-1.44
		c1.1-1.5,0.88-2.83-0.03-4.13c-2.76-3.97-1.44-6.97,1.76-10.03c3.96-3.79,3.81-3.95-1.16-6.16c-6.38-2.84-6.76-4.39-1.92-9.66
		c4.2-4.57,6.29-10.13,8.05-15.9c0.24-0.78,0.59-1.56,1.71-2.1c1.88,0.94,1.67,2.87,1.7,4.56c0.06,4.89-0.78,9.67-2.82,14.09
		c-1.33,2.89-0.66,4.34,2.27,5.13c1.28,0.34,2.51,0.9,3.73,1.42c3.58,1.52,6.19,0.98,8.31-2.73c1.58-2.78,2.8-6.15,6.29-7.43
		c4.94,0.79,9.27,3.22,13.7,5.3c3.92,1.84,7.85,3.39,12.23,3.85c14.35,1.5,28.69,3.03,43,4.85c4.32,0.55,8.51,2.06,12.76,3.14
		c-2.9,2.85-5.8,5.69-8.7,8.54c-2.01,3.61-5.33,6.15-7.74,9.44c-2.17,2.06-4.13,4.34-6.39,6.31c-1.55,1.35-3.21,2.62-5.29,0.94
		c-1.88-1.52-3.5-3.11-2.09-5.9c2.12-4.22,1.77-8.68,1.18-13.19c-0.35-2.62-1.61-3.98-4.2-3.87c-7.46,0.32-14.91-0.83-22.4,0.37
		c-7.59,1.21-15.23-0.48-22.87-0.49c-4.03,0-7.44,0.23-9.52,4.55c-1.57,3.24-5.36,3.31-9.8,3.89c10.39,2.62,10.8,3.09,11.49,12.66
		c0.14,1.91,0.33,3.71,2.35,4.56c4.54,1.91,5.75,5.62,5.66,10.12c-0.05,2.51-0.22,5.02,3.26,5.76c3.22,0.69,5.43,0.15,6.8-3.16
		c1.82-4.4,5.72-5.31,9.94-4.96c2.97,0.24,5.03-0.32,6.28-3.41c1.41-3.51,4.61-4.68,8.16-4.6c3.55,0.08,6.48-0.51,8.29-4.11
		c1.1-2.19,3.08-2.38,4.92-0.52c1.27,1.29,2.83,2.36,3.49,4.16c-0.9,5.42-5.48,7.72-9.15,10.79c-2.14,0.79-3,2.34-3.11,4.61
		c-0.08,1.72,0.31,3.82-2.02,4.62c-2.95-3.74-5.89-3.18-9.69-0.8c-7.04,4.42-14.42,8.31-21.76,12.26
		c-5.69,3.06-7.65,2.85-10.92-2.85c-5.88-10.26-11.85-20.46-18-30.56c-2.65-4.36-2.69-4.43-5.55-0.57c-2.36,3.19-4.37,6.39-9.16,3.3
		c-1.74-1.12-3.81,0.66-5.67,1.28c-3.24,1.08-5.51,0.26-6.85-2.97c-1.28-3.08-2.95-5.98-4.33-9c-1.49-3.24-3.21-3.54-6.17-1.45
		c-8.02,5.67-16.09,11.29-24.25,16.77c-4.72,3.17-5.98,2.87-8.2-2.22c-1.26-2.91-2.85-5.66-4.05-8.58
		c-1.42-3.44-3.65-4.31-7.15-3.21c-2.37,0.74-5.75,2.96-7.14-0.02c-1.13-2.42,2.58-3.8,4.47-5.21c2.55-1.88,3.74-3.98,3.16-7.23
		c-0.83-4.66,1.81-8.99,2-14.03c-6.14,6.27-6.13,6.26-10.08-1.58c-0.52-1.03-0.85-2.18-2.16-3.22c0.08,2.76,1.21,5.06,1.3,7.49
		c0.08,2.15-0.41,4.13-2.78,4.71c-2.35,0.57-3.08-1.36-3.94-3.01c-0.94-1.81-1.16-4.07-3.53-6.03c0.08,3.76,1.51,6.46,1.95,9.33
		c0.34,2.24,0.58,4.63-2.11,5.41c-2.32,0.67-2.99-1.61-3.89-3.12c-1.64-2.75-2.26-5.9-3.32-8.88c-1.06-2.98-2.33-4.77-5.74-2.8
		c-1.1,0.63-2.56,1.4-3.7,0.27c-1.27-1.26-0.57-2.79,0.04-4.19c0.2-0.46,0.51-0.87,0.7-1.32c0.66-1.56,2.91-3.32,0.86-4.77
		c-1.99-1.41-3.07,1.07-4.28,2.33c-0.57,0.6-1.16,1.43-2.05,1.08c-1.04-0.41-1.14-1.53-1.23-2.53c-0.15-1.71,0.72-3.62-1.06-5.48
		c-2.43,3.38-2.37,7.38-3.98,10.72c-0.7,1.45-0.81,3.67-2.83,3.69c-2.46,0.03-2.26-2.47-2.85-4.08c-0.46-1.25-0.63-2.59-1.04-3.86
		c-0.44-1.37-1.13-2.53-2.83-2.09c-1.56,0.4-2.08,1.64-1.85,3.1c0.39,2.47,0.46,5,1.06,7.41c1.04,4.23,0.16,7.54-3.72,9.87
		c-1.48,0.89-2.79,1.98-1.7,4.03c1.23,2.3,0.1,4.19-1.16,6c-2,2.87-4.08,5.69-6.44,8.27c-2.84,3.1-3.88,2.96-5.66-0.86
		c-3.66-7.86-6.59-16.01-9.7-24.09c-1.55-4.04-3.95-7.73-4.92-12c-0.26-1.16-0.28-2.31,0.19-3.44c2.01-3.53,5.95-3.44,9.09-4.51
		c26.13-8.83,52.48-17,78.68-25.6c13.1-4.3,26.27-8.4,39.36-12.73c1.42-0.47,2.85-0.91,4.22-1.53c1.46-0.66,2.66-1.57,2.21-3.4
		c-0.5-2.04-2.14-2.25-3.92-2.25c-2.13,0-4.04,1.79-6.29,0.74c-0.59-5.95-4.89-7.64-9.84-8.85c-2.84-0.69-5.71-1.52-8.25-3.1
		c-2.47-5.94-2.43-5.8-8.64-3.9C50.2,71.51,17.54,82.46-15.37,92.66c-7.47,2.31-14.82,4.99-22.38,7.01
		c-2.05,0.55-4.52,2.15-6.05-1.01c1.14-6.39,2.07-12.89,8.29-16.77c0.86-0.54,1.91-1.18,1.52-2.31c-1.8-5.21-1.61-11.29-7.06-15.94
		c0.51,3.66,1.59,6.4,1.96,9.25c0.19,1.47,0.48,3.39-1.17,3.97c-1.87,0.65-2.98-1.05-3.77-2.52c-1.27-2.38-1.77-5.01-2.13-7.66
		c-0.52-4.66-1.26-5.32-4.4-3.85c-1.83,3.38-3.94,6.55-6.4,9.49c-0.85,1.02-1.69,2.09-3.05,2.46c-1.33,0.36-2.76,0.45-3.71-0.68
		c-0.92-1.09-0.12-2.25,0.48-3.19c2.41-3.77,5.94-6.73,8.14-11.22c-5.43,0.56-8.85,3.75-11.35,7.75c-1.76,2.83-3.41,5.2-8.38,4.77
		c4,2.44,8.84,2.82,8.15,7.25c-0.74,4.72-5.49,5.72-9.75,7.25c1.68,0.8,2.85-0.05,4.04-0.18c1.8-0.19,3.05,0.34,2.97,2.33
		c-0.17,3.96,1.62,3.18,3.85,1.74c1.82-1.18,3.31-2.8,5.22-3.83c1.39-0.75,2.96-1.05,4.18,0.15c1.43,1.41,0.34,2.79-0.56,3.97
		c-2.12,2.77-4.01,5.99-7.41,7.21c-5.07,1.82-6.89,5.27-6.37,10.35c-0.85,1.61-2.28,1.66-3.82,1.43c-2.78-1.61-5.45-2.9-6.11,2
		c-1.68,2.03-3.24,2.59-4.53-0.35c0-3.6-1.95-4.76-5.36-5.72c-7.55-2.11-12.93-0.79-16.76,6.6c-1.94,3.75-4.39,7.4-7.47,10.47
		c-4.95,4.49-11.6,4.91-17.46,7.22c-1.77,0.7-3.72,1.22-5.67,1.47c-4.06-2.29-2.88-5.21-0.5-7.68c1.57-1.63,1.97-3.08,0.98-4.84
		c-3.28-5.84-1.39-10.86,2.15-15.75c0.93-1.28,2.22-2.56,1.58-4.92c-2.49,1.53-3.28,4.24-5.05,6.03c-0.82,0.83-1.68,1.84-2.95,1.57
		c-1.38-0.29-1.45-1.67-1.64-2.79c-0.56-3.19-0.83-6.45-1.94-10.14c-2.07,2.03-1.41,3.97-1.67,5.66c-0.26,1.63-0.18,3.55-2.37,3.86
		c-2.2,0.31-2.71-1.49-3.26-3.08c-0.38-1.11-0.54-2.27-0.95-3.94c-0.44,2.25,0.47,3.87,0.41,5.56c-0.07,1.94-0.44,3.88-2.63,4.28
		c-2.42,0.44-3.58-1.34-4.28-3.34c-0.5-1.43-0.3-2.97-0.53-4.45c-0.76-4.95-3.85-6.36-8.1-3.75c-1.35,0.83-2.85,2.69-4.3,1
		c-1.23-1.43,0.39-3.04,1.18-4.48c0.95-1.74,3.81-3.67,1.55-5.44c-2.12-1.66-3.55,1.47-5.19,2.68c-1.78,1.31-3.42,4.58-5.56,3.03
		c-2.05-1.49,0.72-3.74,1.57-5.59c0.69-1.49,2.01-3.21-0.21-4.24c-1.88-0.87-2.42,1.11-3.19,2.34c-1.35,2.17-1.19,6.05-4.33,6.13
		c-3.77,0.09-3.09-4.09-4.32-6.43c-0.38-0.73-0.73-1.67-1.73-1.54c-1.28,0.17-1.42,1.29-1.31,2.29c0.29,2.65,0.8,5.27,1.21,7.9
		c1.1,6.99,0.24,8.26-6.69,10.13c-0.62,0.17-1.3,0.25-1.68,1.26c1.6,2.62,4.61,4,6.72,6.28c0.97,1.04,2.51,2.22,1.44,3.8
		c-0.87,1.29-2.59,0.75-3.69,0.18c-4.73-2.45-6.91,1.02-9.57,3.76c-1.55,1.59-2.54,4.63-5.18,4.11c-2.92-0.58-2.8-3.87-3.44-6.16
		c-3.07-11.07-5.84-22.22-8.83-33.31c-0.92-3.4-2.55-5.12-5.94-5.68c-8.71-1.43-17.3-3.48-26.05-4.66c-2.31-0.31-4.62-0.7-6.85-1.38
		c-4.52-1.37-5.56-4.7-1.98-7.67c3.98-3.31,6.48-7.53,9.09-11.78c3.5-4.25,2.67-9.07,1.84-13.88c-0.85-2.84-2.32-5.46-2.92-8.38
		c1.36-5.72,1.2-5.43-4.27-8.3c-4.02-2.11-8.24-3.42-12.49-4.79c-5.38-1.73-7.79-0.61-10.79,4.1c-2.65,4.15-4.95,8.19-2.52,13.23
		c-0.4,2.63-1.18,5.12-2.7,7.34c-4.26,4.84-3.88,11.06-4.97,16.83c-0.45,2.36,0.39,5.16-2.64,6.44c-7.67-0.04-15.09-1.93-22.62-3.06
		c-2.3-0.35-4.61-0.73-6.84-1.39c-3.89-1.15-6.46,0.06-8.92,3.34c-6.17,8.25-12.22,16.62-18.73,24.6c-3.54,4.34-4.62,8.55-2.8,13.76
		c0.56,1.59,1.75,3.77-0.36,4.94c-1.95,1.08-3.35-0.82-4.66-2c-1.85-1.67-3.61-3.44-5.17-5.4c-2.08-2.62-3.16-1.68-3.75,1.02
		c-0.64,2.92-1.43,5.82-1.9,8.77c-0.48,3.02-1.96,4.86-5.01,5.34c-2.85,0.03-3.98-2.08-5.06-4.16c-1.46-2.81-2.95-5.6-4.56-8.32
		c-2.4-4.03-4.51-4.77-8.73-3.13c-2.63,1.02-5.06,2.54-7.89,3.06c-0.79,0.14-1.75,0.42-1.46,1.57c0.23,0.88,1.01,1.27,1.85,1.48
		c1.9,0.47,3.59-0.32,5.34-0.87c7.12-2.23,7.77-2.03,11.34,4.66c1.61,3.03,3.96,5.84,3.78,9.6c-6.78,4.81-4.37,10.22-1.04,15.71
		c0.94,1.55,1.33,3.39,2.55,4.79c0.55,0.63,1.26,1.21,2.14,0.82c0.97-0.43,0.71-1.34,0.54-2.14c-0.55-2.58-1.65-5.34,2.16-6.46
		c2.98,0.47,3.56,3.14,4.72,5.23c1.68,3.02,2.92,6.28,4.8,9.19c0.97,1.5,2.62,2.46,4.2,1.39c1.48-1.01-0.03-2.38-0.5-3.48
		c-0.98-2.27-2.45-4.28-3.63-6.45c-1.2-2.19-1.66-4.31,0.21-6.39c3.5-4.65,7.67-8.18,13.72-9.1c2.97-0.45,4.49-1.93,2.38-5.17
		c-1.54-2.36-0.26-4.48,1.43-6.27c5.35-5.69,11.16-10.94,16.11-17.01c1.42-1.74,3.48-2.51,5.74-2.62c0.83-0.04,1.67-0.12,2.49-0.02
		c16.48,2.01,14.65,1.21,17.46,15.55c0.06,0.33,0.04,0.68,0.15,0.99c4.29,12.88-0.43,24.45-5.13,36.06
		c-4.06,10.02-7.47,20.3-11.78,30.2c-3.21,7.36-3.38,14.8-2.58,22.47c0.19,1.82,0.56,3.61,0.58,5.45c0.04,5.46-0.65,6.32-6.05,6.93
		c-5.17,0.59-9.95,2.67-15,3.67c-1.9,0.38-3.8,1.44-5.79,0.29c-3.75,0.97-6.54-0.89-9.23-3.1c-1.31-9.28-0.72-18.59-0.34-27.88
		c0.12-3.07,2.14-5.59,5.58-5.04c3.37,0.54,2.73,3.65,2.69,6.09c-0.03,1.7-1.05,3.16-1.37,4.78c-0.61,3.02-0.92,6.04,2.16,8.07
		c3.33,2.18,6.66,2.8,10.19,0.24c4.7-3.41,6.72-8.33,5.23-13.81c-0.79-2.89-0.54-5.44,0.93-8.13c5.34-9.77,0.02-19.95-10.99-21.05
		c-4.43-0.44-3.72-2.71-2.46-5.5c0.75-1.65,1.79-3.4,0.31-5.12c-1.48-1.73-3.59-1.6-5.57-1.32c-2.06,0.29-2.79,1.49-0.96,2.91
		c2.44,1.89,2.29,3.97,1.59,6.64c-1.31,4.93,1.19,7.51,6.05,6.34c3.47-0.83,6.56-1.11,8.9,2.27c2.42,3.49,3.02,7.18,0.59,10.72
		c-2.72,3.98-2.87,8.03-1.37,12.35c1.44,4.16-0.03,7.51-2.91,10.41c-1.85,1.86-4.06,2.24-6.38,0.9c-2.28-1.31-2.61-3.47-1.77-5.65
		c1.16-2.99,1.13-5.68-0.32-8.62c-1.79-3.63-4.38-5.9-8.41-6.12c-13.81-0.75-27.63-0.28-41.44-0.26c-2.8,0-3.71,1.78-3.73,4.27
		c-0.04,4-0.1,7.99,0.08,11.98c0.06,1.39,0.83,3.01-0.85,4.07c-6.75-0.63-13.17-2.89-19.73-4.34c-7.35-1.63-14.82-2.59-22.15-2.98
		c-18.41-0.99-36.82-2.72-55.3-2.35c-0.83,0.02-1.67-0.01-2.5,0.02c-9.34,0.41-9.36,0.41-6.93-8.84c0.37-1.42,0.99-2.79,1.6-4.14
		c2.87-6.35,2.7-12.55-1.19-18.39c-4.46-6.7-3.02-12.78,0.87-19.25c3.21-5.34,5.21-11.37,8.31-16.84c2.69-4.73,0.72-9.74-0.12-14.61
		c-0.17-0.97-0.52-1.93-0.91-2.85c-3.1-7.2-1.38-13.8,1.53-20.74c6.89-16.45,12.76-33.34,19.85-49.7
		c5.06-11.66,6.3-24.45,11.75-35.92c0.44-0.92,0.01-2.25-0.02-3.39c-1.52-18.23-3.02-36.46-4.56-54.69
		c-0.47-5.53-0.52-5.53,4.63-3.91c11.74,3.71,23.5,7.34,35.19,11.2c3.39,1.12,3.79,0.16,2.94-2.82c-1-3.52-1.68-7.13-2.76-10.62
		c-1.01-3.29-0.45-4.41,3.33-3.96c20.15,2.41,40.32,4.64,60.49,6.84C-358.57-69.89-344.17-68.49-329.79-67.01z"/>
	<path d="M435.44,41.85c2.95-3.55,5.8-7.2,8.89-10.63c2.17-2.42,2.22-4.51,0.22-7.05c-7.24-9.23-7.17-9.24-0.67-18.63
		c4.79-6.92,9.52-13.89,14.19-20.89c1.71-2.56,4.63-2.48,6.98-3.15c18.43-5.3,36.92-10.37,55.44-15.35c3.7-0.99,6.1-2.48,5.46-6.72
		c-0.52-3.44,4.64-4,3.82-7.58c2.68-2.21,3.04-5.4,3.51-8.5c1.38-9.23,1.45-18.55,1.74-27.86c0.19-5.99,0.6-11.96,1.76-17.85
		c0.58-2.99,1.69-5.71,3.53-8.16c1.92-2.56,3.34-4.49,6.74-1.14c3.32,3.27,7.27,2.6,10.87-1.45c2.35-2.65,3.75-2.42,6.3-0.31
		c3.34,2.76,5.66,5.86,6.98,10.01c2.26,7.12,4.49,14.25,7.55,21.1c1.75,3.91,4.22,6.45,8.44,6.59c8.91,0.28,12.6,7.83,18.18,12.72
		c1.97,1.73,0.32,3.57-0.87,4.74c-7.84,7.68-14.32,16.65-22.66,23.86c-6.77,5.77-13.48,11.6-20.34,17.24
		c-1.64,1.35-3.01,2.85-3.37,4.77c-2.22,11.93-3.96,23.92-3,36.13c0.19,2.35,1.64,3.91,3.18,5.44c4.24,4.2,8.41,8.48,12.74,12.6
		c2.28,2.17,1.85,3.4-0.82,4.7c-8.21,3.98-16.26,8.31-24.58,12.05c-2.92,1.31-4.56,2.84-3.91,5.89c2.08,9.81-2.5,15.5-11.2,18.85
		c-0.88,0.34-1.59,1.09-2.38,1.64c-2.09,3.51-5.91,4.65-9.16,6.5c-2.4,1.36-3.35,2.88-2.55,5.64c4.25,14.78-1.27,26.25-12.35,35.76
		c-3.77,3.24-3.78,3.86-0.1,7.94c11.82,13.14,11.23,35.59-1.5,46.88c-3.35,2.97-6.85,6.42-12.12,5.63
		c-6.07-1.08-10.95-4.48-15.72-8.09c-1.15-2.42,0.63-4.08,1.61-5.89c6.18-11.44,5.64-21.08-1.74-30.05
		c-0.63-0.77-1.29-1.51-2.05-2.16c-6.25-5.47-7.55-5.37-12.28,1.44c-3.59,5.17-7.08,10.41-10.78,15.51
		c-1.25,1.72-2.27,3.73-4.71,4.11c-9.07-3.2-16-9.25-22.1-16.46c-1.99-2.35-3.03-5.01-3.11-8.06c-1.22-1.99-0.92-3.88,0.37-5.71
		c4.91-7.36,10.21-14.39,17.19-19.97c0.46,5-1.9,9.21-3.81,13.54c-0.26,0.59-0.83,1.04-1.2,1.59c-5.54,8.45-4.51,11.71,4.81,15.07
		c1.57,0.56,3.14,1.12,4.69,1.72c1.99,0.76,3.51,0.24,4.77-1.51c4.42-6.12,8.75-12.2,7.38-20.48c-0.82-4.97,1.33-9.39,2.97-13.96
		c2.36-6.59,5.08-13.04,7.4-19.64c1.68-4.78,3.3-4.99,7.06-1.45c3.27,3.07,6.69,6,9.48,9.55c0.92,1.17,2.02,2.22,3.28,3.06
		c1.02,0.68,2.19,1.17,3.16,0.09c0.79-0.88,0.26-1.9-0.3-2.75c-1.36-2.1-2.92-4.06-4.49-6c-2.2-2.72-4.39-5.45-6.55-8.2
		c-4.15-5.29-4.19-5.33-0.29-11.05c1.93-2.84,3.36-5.75,2.79-9.3c4.08-7.72,10.26-13.82,15.89-20.34c1.83-2.11,4.29-1.64,6.42-0.34
		c6.51,3.97,11.83,1.98,17.21-2.59c6.42-5.45,10.15-12.72,14.34-19.67c3.86-6.41,7.36-13.05,10.66-19.77c0.49-1,1.37-1.99,0.32-3.21
		c-2.12-0.25-2.75,1.54-3.67,2.82c-7.66,10.69-15.29,21.39-22.81,32.18c-0.38,0.55-0.71,1.14-1.15,1.64
		c-1.17,1.31-2.27,3.56-4.34,2.03c-1.67-1.24-0.41-3.14,0.48-4.48c5.27-7.91,9.13-16.64,14.44-24.53c3.22-4.79,5.92-9.92,8.99-15.55
		c-2.74,0.04-3.44,1.63-4.3,2.92c-6.36,9.58-13.34,18.71-20,28.06c-1.17,1.65-2.32,4.65-4.68,3.27c-2.27-1.33-0.6-3.94,0.43-5.8
		c5.63-10.2,10.15-20.98,16.12-31.01c0.4-0.67,1.09-1.33,0.3-2.76c-4.98,6-10.19,11.57-14.82,17.57
		c-3.26,4.23-6.98,8.05-10.17,12.32c-0.91,1.22-2.26,3.14-4.02,1.72c-1.59-1.29-0.34-3.1,0.53-4.5
		c5.19-8.34,10.24-16.77,16.51-24.37c1.58-1.92,3.19-3.83,4.47-6.81c-2.57,0.92-3.82,2.61-5.14,4.11
		C502,0.47,494.69,10.6,486.3,19.89c-5.4,5.99-7.44,11.8-0.52,18.49c1.63,1.58,2.26,3.93,0.67,5.94
		c-3.83,4.83-7.82,9.52-11.93,14.11c-0.91,1.02-2.17,1.53-3.61,1.37c-4.17-1.81-7.22-5.1-10.56-8.01c-4.43-3.86-8.76-6.61-15-2.84
		C441.37,51.37,437.81,48.45,435.44,41.85z"/>
	<path d="M-339.85,539.39c-29.23-0.59-51.49-7.04-71.21-21.73c-12.33-9.19-18.64-21.78-22.1-36.26c-1.32-5.55-1.37-5.49-6.15-2.46
		c-7.04,4.47-15.08,4.99-23.05,5.56c-6.99,0.5-13.97,0.08-20.94-0.7c-22.15-2.47-34.7-17.39-45.1-34.93
		c-8.87-14.94-10.43-31.35-9.05-48.27c0.19-2.37,0.94-3.77,3.56-4.55c6.69-2,13.32-4.25,19.8-6.86c3.56-1.44,4.65-0.76,4.88,2.98
		c0.86,13.68,5.58,26.28,11.25,38.59c7.28,15.79,16.8,20.76,36.14,18.67c9.97-1.08,19.4-4.64,28.73-8.22
		c2.4-0.92,4.24-0.84,6.43,0.69c8.19,5.71,16.52,11.22,24.81,16.79c1.51,1.02,3.08,1.87,3.15,4.12
		c0.78,24.47,18.56,33.72,37.02,38.12c13.11,3.13,26.2,1.04,38.97-2.52c3.64-1.01,4.96,0,6.36,3.04c3.83,8.32,7.76,16.59,12,24.7
		c1.44,2.76,0.79,3.73-1.72,4.79C-318.45,536.18-331.18,539.71-339.85,539.39z"/>
	<path d="M679.01,493.21c-12.7,4.57-24.36,8.43-36.88,8.57c-22.7,0.25-38.9-11.57-52.31-28.34c-3.03-3.78-4.48-8.5-5.21-13.35
		c-0.17-1.14,0.39-3.05-1.97-2.38c-10.14,2.86-18.19-1.93-25.72-7.52c-11.99-8.9-20.01-20.22-19.89-36.92
		C584.44,439.96,631.26,466.33,679.01,493.21z"/>
	<path class="st2" d="M669.91,293.19c0.15,2.81-1.07,4.68-1.93,6.58c-18.05,39.72-48.85,64.97-89.89,78.05
		c-11.46,3.65-23.72,3-35.71,3.24c-2.74,0.06-2.71-1.01-1.63-2.97c1.28-2.33,2.58-4.68,3.58-7.13c1.46-3.56,3.96-5.02,7.72-6.05
		c15.22-4.17,30.71-7.42,45.02-14.59c12.88-6.46,22.31-16.66,31.52-27.21c6.02-6.9,11.78-14.02,15.49-22.54
		c0.71-1.62,1.57-3.34,3.73-3.69C655.13,295.67,662.44,294.43,669.91,293.19z"/>
	<path d="M599.96,421.41c-7.73,0.42-16.74-0.79-25.61-3.36c-2.32-0.67-3.16-1.7-3.3-4.11c-0.75-13.35-0.81-13.34,12.31-13.27
		c21.42,0.11,40.8-6.91,59.22-17.14c2-1.11,3.74-2.77,5.43-4.36c4.84-4.56,4.82-4.61,8.72,0.5c3.73,4.89,7.28,9.93,11.18,14.68
		c1.94,2.36,1.44,3.43-0.87,5C647.24,412.88,625.93,421.81,599.96,421.41z"/>
	<path class="st2" d="M1.63,557.86c1.79-1.45,3.81-0.71,5.73-0.51c11.32,1.14,22.67,2.08,33.94,3.64c7.69,1.07,15.77,0.97,22.66,5.5
		c0.18,6.24,2.93,12.2,1.74,18.65c-0.44,2.4-1.06,2.65-3.16,1.97c-14.66-4.79-29.33-9.59-44.06-14.18
		c-3.63-1.13-4.26-4.94-7.06-6.71C7.78,563.91,4.43,561.19,1.63,557.86z"/>
	<path class="st3" d="M76.71,518.37c-4.76,1.75-9.41-0.03-14.08-0.53c-15.33-1.65-30.64-3.43-45.96-5.18
		c-0.6-0.07-1.17-0.35-1.77-1.37c7.9-0.74,15.78-1.59,23.69-2.18c14.39-1.08,28.79-2.07,43.19-2.92c2.89-0.17,5.96-1.16,8.73,0.71
		C85.91,510.71,81.31,514.54,76.71,518.37z"/>
	<path class="st4" d="M-413.25,359.5c0.9-1.44,1.88-0.78,2.93-0.17c14.77,8.43,29.55,16.86,44.36,25.25c1.4,0.79,3.25,1.2,0.48,2.62
		c-10.88-0.95-21.76-1.9-32.64-2.86c-1.67-0.15-3.29-0.34-4.16-2.15C-405.91,374.61-409.59,367.06-413.25,359.5z"/>
	<path class="st5" d="M-446.98,338.04c4.19,0.38,7.69,2.26,11.36,4.29c3.75,2.07-0.76,1.8-0.35,2.69
		C-440,343.26-443.62,340.85-446.98,338.04z"/>
	<path class="st0" d="M-254.9,50.94c-2.09,4.38-4.39,8.6-8.65,11.31c-1.44,0.91-2.88,1.89-2.6,3.87c0.35,2.46,2.7,2.33,4.27,2.63
		c11.08,2.09,22.16,4.15,33.31,5.83c3.39,0.51,4.75,1.87,5.56,5.08c3.45,13.65,7.16,27.22,11.01,41.7c2.32-2.69,4.37-4.6,5.86-6.88
		c2.39-3.65,5.12-4.84,9.1-2.56c1.08,0.62,2.46,0.7,4.93,1.35c-4.8-4.3-8.66-7.77-12.41-11.13c0.32-0.62,0.35-0.82,0.46-0.87
		c3.25-1.59,8.49,0.14,9.92-3.16c1.26-2.89-0.47-7.09-0.92-10.71c-0.21-1.65-0.49-3.29-0.77-4.93c-0.29-1.66-0.18-3.03,1.98-3.16
		c1.7-0.1,3.32-0.33,3.81,2.05c0.56,2.67,1.4,5.28,2.52,9.41c2.01-4.18,3.55-6.88,4.62-9.75c1.12-3,2.59-2.53,4.96-1.46
		c2.99,1.35,1.89,2.91,0.8,4.67c-1.22,1.97-2.49,3.89-3.25,6.36c2.24-2.13,4.59-4.15,6.67-6.42c1.67-1.82,2.94-2.63,5.39-0.9
		c2.72,1.92,1.13,3.21,0.01,4.82c-1.48,2.13-2.92,4.29-4.62,6.78c2.23,0.05,2.81-1.61,3.98-2.27c1.59-0.89,2.82-3.39,5.12-1.73
		c2.11,1.53,5.45,2.04,4.99,5.95c-0.23,1.95,0.17,3.98,0.34,5.97c0.12,1.42,1.13,1.97,2.39,2.04c1.69,0.1,1.81-1.14,1.75-2.36
		c-0.12-2.49-0.32-4.98-0.45-7.47c-0.06-1.15-0.26-2.58,1.34-2.75c1.66-0.18,1.64,1.24,1.75,2.41c0.17,1.82,0.37,3.64,0.53,5.47
		c0.1,1.11,0.56,2.03,1.72,2.07c1.46,0.06,1.31-1.22,1.37-2.16c0.12-1.99,0.19-3.99,0.22-5.99c0.03-1.58,0.75-2.52,2.33-2.7
		c1.86-0.21,2.18,1.09,2.35,2.5c0.47,3.79,0.95,7.57,1.47,11.77c3.91-2.67,5.05-7.37,8.41-10.37c2.47,2.37,2.27,4.66,0.41,7.07
		c-0.41,0.53-0.65,1.18-1.09,1.67c-4.42,4.87-5.08,10.04-1.69,15.81c1.2,2.04,2.77,4.14-1.88,4.98c-3.84,0.69-0.65,3.97-0.57,6.1
		c2.23,2.89,2.12,6.58,3.37,9.8c0.36,4.67,2.41,8.95,3.2,13.52c2.23,7.94,2.19,7.76,10.08,5.98c2.99-0.67,5.93-3.64,9.28-0.88
		c-6.06,7.42-12.15,14.83-18.18,22.28c-1.9,2.35-3.77,3.75-7.18,2.65c-3.42-1.1-7.1-1.66-10.69-1.84c-4.48-0.23-6.73-1.99-6.38-6.63
		c0.07-0.96-0.26-1.95-0.4-2.93c-2.13-3.56-2.13-7.56-2.33-11.51c-0.79-4.05-0.91-8.19-1.72-12.23c-0.28-4.54-0.79-9.06-1.66-13.53
		c-0.37-1.3-0.8-2.66-2.21-3.13c-4.2-1.4-4.2-4.42-3.56-8.06c0.95-5.4,2-10.81,2.21-16.32c0.07-1.82-0.32-3.61-1.01-5.83
		c-4.5,3.56-7.31,7.91-9.55,12.69c-0.99,2.11-1.71,4.34-2.73,6.44c-1.05,2.16-2.75,3.15-4.85,1.87c-3.27-1.98-5.2-0.19-7.32,1.93
		c-7.19,7.17-14.39,14.35-21.04,22.03c-1.3,1.5-2.72,2.96-4.48,3.96c-4.06,2.32-7.91,1.13-9.81-3.15
		c-4.74-10.66-8.44-21.74-12.85-32.53c-0.5-1.23-0.96-2.49-1.53-3.7c-0.84-1.78-1.9-2.42-3.17-0.42
		c-4.47,7.03-10.44,13.3-13.49,20.97c-3.05,7.67-2.75,16.29-2.23,24.6c0.15,2.43,2.77,2.53,4.59,3.24c3.8,1.48,8.28,1.24,11.37,4.5
		c0.4,1.48-0.33,2.38-1.44,3.29c-4.53,3.73-4.35,5.75,0.68,8.87c-1.27,21.76-2.42,43.53-3.89,65.27c-0.33,4.89,1.12,6.38,5.97,6.03
		c5.13-0.37,10.31,0.21,15.47,0.23c2.42,0.01,3.14,1.01,3.05,3.35c-0.09,2.61-1.64,2.4-3.38,2.25c-14.58-1.27-29.16-2.61-43.76-3.72
		c-2.92-0.22-4.16-1.44-4.54-4.13c-2.44-17.42-4.98-34.81,6.14-50.63c1.68-2.39,2.06-4.47-2.22-5.64
		c-6.01-1.64-12.36-3.03-17.31-8.16c-1.43,4.11-2.6,7.86-4.03,11.51c-5.74,14.55-15.06,24.93-31.55,27.03
		c-2.44,0.31-4.79,1.31-7.19,1.99c-3.4,0.57-5.94-1.48-8.7-2.85c-3.99-1.98-7.96-3.98-11.95-5.94c-1.29-0.64-2.88-0.99-2.37-3.02
		c7.91-1.64,15.26-5.66,23.59-5.5c2.58,0.05,1.81-1.88,1.78-3.19c-0.13-5.48,0.08-11.03-0.73-16.43c-0.61-4.07,0.47-7.44,1.84-11.01
		c6.09-15.82,11.86-31.77,18.29-47.46c2.37-5.78,0.9-11.1,0.27-16.62c-0.55-4.77-1.64-9.48-2.24-14.25
		c-0.32-2.52-1.27-4.01-3.91-4.19c-0.66-0.04-1.33-0.16-1.96-0.38c-9.28-3.24-16.46-0.85-22.15,7.36
		c-2.71,3.91-6.44,7.17-9.98,10.44c-2.44,2.25-3.13,4.01-0.21,6.29c2.7,2.11,3.14,3.91-1.02,4.59c-7.13,1.17-12.76,4.87-17.38,10.28
		c-3.2-0.26-6.32-2.51-9.61-0.4c-3.49,1.28-1.59,3.46-1.11,5.6c0.3,1.33,2.24,3.36-0.37,4.17c-1.81,0.57-3.95,0.56-5.02-1.92
		c-2.03-4.73-4.18-9.41-6.35-14.08c-0.68-1.46-0.46-2.47,0.92-3.36c1.67-1.07,3.26-2.29,4.89-3.44c1.95-0.13,2.25,1.64,3.15,2.73
		c0.7,0.85,1.19,2.39,2.6,1.65c1.45-0.75,1.19-2.2,0.57-3.5c-0.85-1.78-2.07-3.53-0.43-5.5c4.87-1.77,3.45-6.6,4.85-10.05
		c1.17-2.88,0.38-7.76,2.87-8.5c2.62-0.78,4.38,3.78,6.7,5.8c1.93,1.68,3.55,3.71,5.24,5.51c1.05-0.76,1.03-1.42,0.74-2.03
		c-3.72-7.78-1.19-13.9,4.2-20.08c6.54-7.5,12.3-15.71,18.21-23.74c1.72-2.33,3.26-2.91,6.24-2.32c10.4,2.04,20.89,3.59,31.35,5.32
		c2.45,2.89,4.73,5.82,8.74,1.73c1.33-1.35,3.51,0.03,5.76-0.17c-0.96-1.57-2.25-3.07-1.25-4.88c2.77-4.98,6.62-9.11,10.84-12.81
		c1.89-1.66,4.43-0.45,6.56,0.6c1.49,1.82-0.08,3.74,0.25,6.07c2.17-0.6,3.1-2.69,4.76-3.7C-259.07,47.75-256.5,47.55-254.9,50.94z"
		/>
	<path class="st6" d="M-407.27,190.83c-0.14-5.97-0.28-11.93-0.44-17.89c-0.06-2.29,0.57-4.03,3.24-4
		c15.45,0.15,30.94-1.39,46.33,0.97c5.46,0.84,9.67,9.78,7.1,14.78c-0.98,1.92-1.76,3.75,0.18,5.27c2.25,1.77,4.51,0.88,6.11-1.06
		c2.17-2.63,3.45-5.37,1.65-9.06c-2.05-4.23-1.96-8.74,1.33-12.5c3.2-3.66,2.01-7.01-0.36-10.27c-2.27-3.12-5.04-2.2-7.89-0.7
		c-2.5,1.32-4.51-0.06-6.26-1.67c-2.12-1.95-2.23-4.59-1.16-6.91c1.19-2.55,3.33-4.73-1.74-5.15c-1.08-0.09-1.7-1.99-1.71-3.3
		c-0.01-1.62,1.23-2.27,2.69-2.34c2.75-0.13,5.6-1.1,8.1,0.97c3.66,3.04,1.05,5.95-0.23,8.84c-0.31,0.7-1.12,1.19-0.87,2.36
		c0.67,0.09,1.3,0.28,1.9,0.24c8.6-0.6,16.2,6.66,15.19,15.4c-0.79,6.83-3.41,13.01-2.73,20.54c0.8,8.79-9.9,13.56-18,9.56
		c-2.85-1.41-4.14-7.36-2.48-11.63c0.29-0.75,0.98-1.41,1.09-2.16c0.28-1.91,1.3-4.02-0.37-5.66c-0.45-0.44-1.96-0.15-2.8,0.23
		c-2,0.89-2.74,2.49-2.68,4.78c0.15,6.65,0.15,13.32,0.02,19.97c-0.05,2.26,0.72,4.65-0.62,6.82c-2.98-0.02-5.52-1.05-7.51-3.33
		c-1.95-3.04-1.07-6.44-1.2-9.7c-0.21-5.33-0.46-5.68-5.64-5.76c-3.48-0.05-6.96,0-10.44-0.01c-4.44-0.01-9.26-0.97-11.38,4.67
		C-401.83,193.03-404.87,193.09-407.27,190.83z"/>
	<path class="st7" d="M-398.84,193.14c0.41-6.28,0.41-6.27,7.46-6.25c5.66,0.01,11.33,0.09,16.99-0.09c3.11-0.1,4.58,0.71,4.34,4.17
		c-0.3,4.31-0.11,8.65-0.13,12.98c-9.65-2.3-18.27-7.66-28.09-9.51C-398.54,194.38-398.66,193.59-398.84,193.14z"/>
	<path class="st0" d="M223.01,185.04c3.54-2.37,6.47-5.38,9.1-8.7c2.15-2.58,5.11-2.76,8.13-2.76c3.6,0.2,7.29-0.68,10.79,0.85
		c2.78,2.91,3.39,5.76-0.24,8.49c-3.16,0.74-6.36,1.32-9.59,1.64c-3.06,0.81-5.25,3.2-9.01,4.55c2.87,0.77,5.24-0.78,6.9,0.98
		c1.36,1.44,1.14,3.34,0.98,5.17c-0.28,1.31-0.78,2.44-2.19,2.89c-4.98-0.79-9.26,0.44-13.57,3.25
		c-15.34,9.99-31.16,19.27-46.28,29.57c-5.92,4.03-14.86,1.82-18.03-5.89c-1.37-3.33-2.63-6.71-4.3-10.99
		c-1.9,4.41-3.29,7.91-4.9,11.3c-2.06,4.33-4.73,6.48-10.26,4.91c-13.75-3.9-27.7-7.12-41.59-10.51c-2.78-0.68-4.4-0.99-2.61-4.68
		c2.56-5.26,4.59-10.85,5.69-17.74c-4.99,3.97-9.28,7.42-13.61,10.81c-6.59,5.15-9.76,4.6-13.94-2.84
		c-6.78-12.06-11.75-24.99-17.6-37.51c-2.61-5.58-5.22-11.16-7.62-16.83c-1.12-2.65-2.28-2.66-4.9-1.72
		c-6.75,2.42-7.81,8.55-9.99,13.99c-1.08,2.71-1.46,5.87-5.34,2.14c-2.17-2.09-3.1,0.86-4.05,2.07
		c-6.88,8.77-13.6,17.66-20.46,26.45c-3.57,4.58-5.69,4.25-7.8-1.12c-6.27-15.93-12.5-31.88-19.15-48.87
		c-2.41,4.33-4.41,7.82-6.32,11.37c-8.3,15.38-16.47,30.84-24.95,46.12c-1.8,3.24-1.02,4.52,1.84,6.14
		c5.79,3.27,11.28,7.08,17.12,10.26c3.21,1.74,3.79,4.01,3.57,7.3c-1.32,20.43-2.4,40.87-3.8,61.29c-0.31,4.52,0.75,6.18,5.58,5.9
		c5.96-0.35,11.98,0.22,17.97,0.39c2.56,0.08,4.71,1.05,5.29,3.68c0.68,3.06,1.06,5.95-3.91,5.69c-15.12-0.77-30.26-1.32-45.4-1.79
		c-3.29-0.1-2.71-1.97-2.6-4.01c1.01-19.62,1.9-39.24,3.06-58.85c0.2-3.36-0.59-5.1-3.86-6.29c-5.78-2.1-11.43-4.59-17.03-7.14
		c-2.74-1.25-3.96-0.88-5.07,2.14c-4.08,11.09-8.55,22.03-12.74,33.09c-3.82,10.1-7,12.09-17.68,10.57
		c-11.85-1.69-23.73-3.23-35.53-5.23c-3.59-0.61-3.93,0.49-3.66,3.47c0.43,4.82-0.96,9.23-3.91,13.08
		c-1.12,1.46-2.52,2.67-4.27,3.37c-6.23,2.51-8.08,1.18-7.19-5.38c1.23-9.09,1.63-18.23,1.86-27.37c0.09-3.44,1.14-4.24,4.51-3.64
		c11.78,2.12,23.67,3.7,35.41,6c4.5,0.88,4.84-0.61,4.74-4.39c-0.44-17.32-0.51-34.64-0.96-51.96c-0.1-3.83,0.57-4.86,4.67-3.97
		c11.7,2.54,23.52,4.54,35.28,6.81c1.67,0.32,3.43,1.09,4.05-1.27c0.69-2.63-1.58-2.39-3.06-2.8c-11.7-3.27-23.4-6.58-35.13-9.73
		c-3.83-1.03-5.06-2.42-3.07-6.52c3.4-7.03,6.1-14.4,9.1-21.62c0.04-2.5,1.94-3.4,3.81-4.06c7.05-2.49,14.12-4.96,21.38-6.8
		c1.71-0.43,3.61-1.15,5.01,0.8c0.88,4.06-1.12,7.81-1.32,11.76c-0.32,6.14,2.33,9.41,8.36,10.11c2.89,0.34,5.22-0.59,6.92-2.98
		c0.19-0.27,0.36-0.56,0.54-0.84c6.93-10.84,6.59-11.74-5.37-15.89c-2.32-0.81-5.49-0.66-6.19-4.07c5.97-5.12,13.15-6.56,20.72-6.83
		c8.69,0.61,14.17,5.62,17.59,13.32c-1.88-6.26-8.33-11.5-2.93-18.82c7.35-3.88,15.39-5.8,23.28-8.11c1.13-0.33,2.3-0.19,3.23,0.72
		C-7.95,140.83-2.42,154.7,3.4,169.3c3.63-4.85,6.78-9.07,9.94-13.29c0.75-1,1.36-2.1-0.03-2.96c-3.37-2.08-1.37-3.59,0.66-4.55
		c4.58-2.16,5.68-5.45,4.28-10.12c-0.66-2.21-0.88-4.59-1.01-6.91c-0.1-1.77-2.15-4.37,1.87-4.8c2.87-0.3,5.2-0.66,5.59,3.32
		c0.25,2.56,1.21,5.06,2.06,8.4c2.93-4.58,3.31-9.24,4.98-13.41c0.49-1.23-0.12-4.11,2.57-3.14c1.87,0.67,3.31,2.76,2.41,4.8
		c-0.73,1.68-0.53,3.18-0.89,5.64c0.72-1.11,0.9-1.5,1.18-1.8c1.82-1.94,2.54-6.22,6.65-3.61c4.23,2.69-0.32,4.69-0.86,6.97
		c-0.33,1.38-1.27,2.62-1.84,3.71c0.35,0.89,0.72,0.9,1.24,0.69c7.35-3.12,7.32-3.1,9.99,4.38c1,2.81,2.19,5.55,3.35,8.3
		c0.43,1.04,0.82,2.4,2.42,1.72c1.26-0.54,1.56-1.68,1.19-2.93c-0.93-3.18-1.89-6.36-2.87-9.53c-0.45-1.47-1.08-3.07,0.85-3.83
		c2.13-0.85,2.38,1.1,2.98,2.39c0.84,1.81,1.57,3.68,2.48,5.45c0.6,1.17,0.45,3.53,2.68,2.68c1.46-0.56,1.89-2.26,1.55-3.87
		c-0.53-2.43-1.15-4.84-1.71-7.27c-0.28-1.24-1.15-2.84,0.53-3.49c1.8-0.69,2.03,1.21,2.57,2.32c1.6,3.26,3.14,6.56,4.84,10.12
		c2.23-1.47,2.73-3.66,3.88-5.36c0.82-1.23,1.84-2.06,3.31-1.39c1.57,0.72,0.63,2.02,0.37,3.04c-0.69,2.74-1.49,5.46-2.22,8.19
		c-0.3,1.12-1.11,2.54-0.72,3.36c3.58,7.54-2.84,9.41-6.93,12.63c-0.39,0.3-0.74,0.65-1.07,1.01c-0.09,0.1-0.07,0.32-0.15,0.78
		c3.39,0.09,6.41-1.3,9.44-2.24c2.56-0.79,3.57-0.07,4.53,2.15c1.78,4.12,3.99,8.06,5.68,12.21c1.2,2.95,2.21,3.36,4.95,1.37
		c8.89-6.44,18.09-12.46,27-18.88c2.83-2.04,4.11-1.82,5.4,1.44c1.4,3.55,3.55,6.81,4.86,10.39c1.35,3.69,2.99,4.61,6.57,2.54
		c2.59-1.49,5.76-4.38,8.18,0.59c0.45,0.92,1.43,0.45,1.99-0.32c0.3-0.4,0.5-0.89,0.85-1.23c2.43-2.34,3.32-7.43,6.52-7.16
		c1.99,0.17,3.65,5.06,5.33,7.9c5.86,9.87,11.77,19.72,17.44,29.7c1.6,2.82,2.92,3.27,5.78,1.59c8.45-4.98,17.08-9.67,25.65-14.45
		c5.75-3.21,5.76-3.19,8.48,2.25c3,0.28,1.74-2.08,1.74-3.21C219.91,188.84,220.19,186.4,223.01,185.04z"/>
	<path class="st0" d="M120.68,242.5c4.4-1.21,6.41-4.64,8.53-7.94c0.58-0.91,0.42-2.77,1.93-2.43c4.81,1.08,10.54,0.5,14.13,3.96
		c3.15,3.04,1.64,7.84,0.51,11.9c-0.09,0.32-0.17,0.66-0.35,0.93c-2.2,3.46-0.17,4.39,2.83,5.25c11.36,3.24,22.7,6.56,33.99,10.03
		c12.74,3.91,15.75,12.12,10.13,24.24c-5.73,12.36-15.32,21.65-23.6,32.01c-2.91,3.64-5.91,7.2-8.92,10.76
		c-1.73,2.04-1.19,2.84,1.35,2.84c3.66,0,7.36,0.42,10.98,0.04c4.37-0.46,6.4,2.17,8.11,5.29c1.6,2.93-0.24,6.14-3.56,6.39
		c-5.98,0.44-11.97,0.74-17.96,1.06c-1.13,0.06-2.64,0.51-3.23-0.67c-1.51-2.97-2.01-0.93-3.57,0.11c-2.9,1.93-7.08,1.54-9.45-0.07
		c-2.48-1.68-2.37-5.79-0.63-8.73c8.45-14.33,11.77-30.68,18.22-45.78c0.98-2.3,0.92-3.29-2.08-3.04
		c-22.34,1.87-31.78-5.35-36.06-27.4c-0.25-1.27-0.48-2.54-0.81-4.32c-2.23,1.6-2.86,3.7-3.85,5.45
		c-6.53,11.6-13.08,23.2-19.4,34.92c-1.51,2.8-3.3,4-6.48,4.42c-16.65,2.19-33.22,5.1-49.99,6.29c-2.9,0.21-2.72,1.3-1.92,3.49
		c1.32,3.58,2.13,7.34,3.45,10.92c0.93,2.5,0.11,3.36-2.27,3.55c-1.33,0.11-2.65,0.3-3.95,0.57c-3.76,0.79-5.76-0.42-5.59-4.54
		c0.29-7.28-1.79-14.39-1.25-21.83c0.18-2.51-2.73-6.41-3.11-10.14c-0.54-5.32,3.33-10,8.12-8.2c13.14,4.94,25.99,0.38,38.92-0.23
		c9.15-0.43,8.72-1.01,8.11-10.04c-0.75-11.08-2.35-22.26,1.03-33.24c0.1-0.32,0.18-0.64,0.28-0.96
		c3.98-12.79,6.39-14.25,19.18-11.54c6.83,1.45,13.62,3.14,20.5,4.3c3.72,0.63,3.99,2.52,2.6,5.11
		C124.2,237.8,122.33,240.09,120.68,242.5z"/>
	<path class="st8" d="M237.88,198.15c0.43-1.22,0.85-2.43,1.28-3.65c1.47-3.54-1.97-7.31,0.51-10.81c3.12-1.32,6.41-1.23,9.7-1.15
		c0.51,5.77,0.73,11.71-0.58,17.21c-1.44,6.06-0.87,12.26-2.45,18.21c-0.16,0.61-0.09,1.34,1.5,2.27
		c1.67-17.82,5.44-34.97,6.12-52.54c-2.57,1.82-1.59,5.05-3.56,6.96c-3.3-0.02-6.61-0.05-9.91-0.07c-0.34-3.42,0.4-6.59,2.24-9.5
		c2.44-3.1,4.71-6.38,8.26-8.38c7.98-3.31,14.73-0.72,20.62,4.7c2.79,2.58,4.47,6.04,4.53,10.03c0.17,10.81-1.77,21.39-3.52,32
		c-1.05,6.37-0.51,12.94-2.37,19.25c-0.6,2.05-0.56,3.74-3.32,4.69c-2.2,0.76-3.74,3.48-5.56,5.34c-1.77,1.81-1.85,3.37,0.61,4.67
		c2.89,1.53,2.59,4.42,1.79,6.57c-0.83,2.23-3.4,2.26-5.63,1.62c-4.57-1.32-5.72,0.21-6.68,5.06c-1.52,7.72-0.8,15.6-2.67,23.2
		c-0.33,1.32-0.47,2.41,0.55,3.67c4.8,5.92,3.06,12.55,1.37,18.9c-0.65,2.43,0.82,6.04-2.02,7.13c-2.06,0.78-4.84-0.41-7.31-0.6
		c-7.58-0.58-7.73-0.57-7.26-8.09c0.26-4.12,1.15-8.2,1.69-12.3c0.14-1.08,0.61-2.09,1.5-2.44c4.93-1.95,4.67-6.06,4.74-10.29
		c0.13-7.14,0.65-14.28,0.86-21.42c0.08-2.69,0.02-5.63-4-5.35c-2.37,0.17-3.78-1.15-4.55-3.05c-0.93-2.27,1-3.75,2.23-5.1
		c4.36-4.76,4.77-7.88,0.77-12.58c-1.34-1.57-1.54-3.06-1.6-4.94C235.55,210.84,237.06,204.54,237.88,198.15z"/>
	<path class="st9" d="M-13.49,126.96c-9.13,1.78-17.76,5.16-26.47,8.28c-4.22,3.39-9.77,3.36-14.43,5.62
		c-7.6,0.4-14.51,3.14-21.32,6.24c-0.61,0.88-1.42,1.38-2.5,1.41c-4.36-1.08-8.06,1.36-11.76,2.73c-6.23,2.3-13.34,2.55-18.55,7.4
		c-1.75-2.71-2.35,1.13-3.71,0.65c-4.34-0.59-7.95,1.8-11.85,2.96c-6.37,1.91-6.34,2.04-7.88-4.2c-0.28-1.12-0.45-2.27-0.68-3.41
		c0.24-2.04,1.81-2.51,3.44-3.09c23.8-8.51,48.07-15.62,72.14-23.27c20.42-6.49,40.95-12.69,61.38-19.19
		c26.1-8.31,52.22-16.55,78.39-24.61c8.06-2.48,15.71-6.36,24.17-7.58c1.14-0.16,2.22-0.72,3.37-0.1c2.19,0.02,3.82-1.65,6.05-1.81
		c2.56-0.19,4.77-0.36,5.32,2.76c0.46,2.62,0.83,4.61-3.08,5.78c-16.33,4.88-32.51,10.31-48.71,15.63
		c-15.12,4.97-30.17,10.16-45.3,15.09c-11.33,3.7-22.73,7.21-34.14,10.65C-11.09,125.37-12.09,126.48-13.49,126.96z"/>
	<path class="st10" d="M-157.9,148.7c0.57,4.2,1.14,8.39,1.71,12.59c-3.77,4.68-9.65,4.89-14.71,6.48
		c-12.31,3.87-24.68,7.57-36.88,11.79c-5.03,1.74-10.24,2.76-15.31,4.35c-1.62,0.51-3.3,0.49-4.71-0.75
		c-2.77-2.88-3.09-7.07-5.43-10.17c1.14-4.19,5.21-3.86,8.1-4.72c14.44-4.32,28.77-8.98,43.06-13.79
		c6.14-2.06,12.31-4.04,18.43-6.14C-161.69,147.67-159.75,147.49-157.9,148.7z"/>
	<path class="st11" d="M-157.9,148.7c-8.33,1.38-16.08,4.75-24.08,7.23c-9.71,3.01-19.37,6.2-28.99,9.44
		c-7.42,2.5-15.2,4.04-22.25,7.62c-3.45,0.93-7.13,1.27-9.95,3.82c-3.95,0.85-4.78-1.51-5.46-4.74c-0.77-3.65,1.43-4.17,3.93-4.68
		c1.09-0.22,1.63-0.97,2.18-1.78c11.04-4.52,22.3-8.43,33.54-12.42c12.66-4.49,25.48-8.57,37.98-13.49
		c3.72-1.46,7.59-2.37,11.3-3.79C-158.21,140.04-158.21,144.39-157.9,148.7z"/>
	<path class="st11" d="M-227.8,183.16c6.96-0.2,13.11-3.42,19.62-5.28c7.6-2.18,15.13-4.63,22.66-7.05
		c9.79-3.14,19.55-6.36,29.33-9.55c-0.01,3.89,2.36,7.54,1.14,11.54c-8.16,2.39-16.37,4.64-24.48,7.2
		c-13.55,4.27-27.12,8.5-40.49,13.3c-3.37,1.21-7.06,1.19-10.23,3.26c-1.83,1.19-4.98,1.08-5.19-1.64
		c-0.21-2.74-5.42-5.72,0.29-8.73C-232.73,184.94-229.24,186.42-227.8,183.16z"/>
	<path class="st12" d="M241.31,333.29c1.77-4.89,3.46-7.94,7.6-9.88c7.82-3.67,15.53-7.73,22.76-12.43
		c6.19-4.02,11.38-9.16,10.77-17.81c-0.46-6.57-3.34-10.89-9.4-13.39c-1.33-0.55-4.37-0.34-3.15-3.28c0.91-2.19,1.61-4.68,5.05-4.63
		c7.75,0.12,17.21,8.34,18.07,16.08c1.22,10.92-2.4,19.91-10.73,27.1c-8.08,6.97-17.14,11.97-27.56,14.49
		C250.56,330.53,246.47,331.83,241.31,333.29z"/>
	<path class="st13" d="M319.61,319.48c0.34,1.48-0.95,1.55-1.76,1.93c-14.46,6.74-28.96,13.4-43.38,20.2
		c-4.59,2.17-5.6-2.12-7.04-4.22c-1.5-2.2,1.73-2.51,3.08-3.15c13.64-6.5,27.34-12.89,41.04-19.27
		C314.46,313.59,319.26,316.33,319.61,319.48z"/>
	<path class="st14" d="M-101.45,303.98c-9.31,0-18.61,0.03-27.92-0.03c-1.46-0.01-3.92,0.67-3.35-2.13
		c0.42-2.04-0.73-5.42,3.47-5.28c18.77,0.66,37.54,1.26,56.31,1.84c2.06,0.06,2.98,0.82,2.88,3.01c-0.11,2.55-1.76,2.33-3.46,2.32
		c-9.31-0.02-18.61-0.01-27.92-0.01C-101.45,303.8-101.45,303.89-101.45,303.98z"/>
	<path d="M162.61,55.93c-0.51-0.43-0.97-0.93-1.53-1.28c-1.45-0.91-2.29-3.88-4.16-2.68c-2.22,1.42-4.74,3.18-4.94,6.49
		c-0.39,6.72-0.01,13.45-0.84,20.2c-0.68,5.47,3.16,8.12,8.66,6.95c0.97-0.21,1.94-0.49,2.92-0.55c2.38-0.14,5.6-0.16,5.56,2.64
		c-0.04,2.47-3.26,1.22-5,1.26c-8.24,0.21-16.41,2.17-24.76,0.24c-3.67-0.85-8.67,5.78-7.56,9.7c0.89,3.13,1.57,5.77-1.89,7.63
		c-0.14,0.07-0.29,0.24-0.31,0.38c-1.3,9.01-8.29,5.69-13.46,6.12c-3.56,0.29-7.86-1.14-10,2.74c-2.43,4.4-1.77,9.31-0.37,14.02
		c0.35,1.17,1.27,2.22,2.43,2.32c5.46,0.48,4.79,4.41,4.61,8.01c-0.21,4.21,0.7,7.66,5.37,8.86c1.33,0.34,2.08,1.28,2,2.51
		c-0.08,1.15-1.23,1.43-2.27,1.51c-4.86,0.37-3.75,6.17-6.45,7.52c-3.08,1.55-6.23,1.41-6.99,6.16c-0.61,3.81-5.27,2.89-8,2.83
		c-3.84-0.09-4.5-4.05-4.14-6.81c1.05-8.15,0.28-16.29,0.47-24.42c0.18-7.68-2.83-10.39-10.42-9.08c-3.21,0.56-4.64-0.03-6.19-2.95
		c-1.96-3.7-10.31-6.17-14.5-5.02c-2.68,0.74-4.22,2.54-4.77,5.21c-0.23,1.12-0.16,2.51-1.88,2.35c-1.38-0.13-2.13-1.14-2.1-2.39
		c0.1-3.83-2.05-5.25-5.49-5.72c-1.05-0.14-2.49-0.73-2.35-2.17c0.2-1.95,1.98-1.63,3.15-1.44c7.9,1.29,15.71-2.12,23.68-0.26
		c2.14,0.5,4.59-0.9,4.91-3.87c0.33-3.14,2.14-4.14,5.15-3.96c3.15,0.19,6.34-0.09,9.49,0.07c4.59,0.23,8.3-0.68,9.49-5.9
		c0.41-1.79,1.95-2.42,3.5-2.06c5.12,1.19,10.18-0.69,15.27-0.09c2.03,0.24,4.3-0.52,4.18-2.55c-0.34-5.79,5-8.88,6.13-14.12
		c0.63-2.93,5.66-3.68,7.35-7.18c0.86-1.78,1.88-3.53,2.26-5.43c0.59-2.93-0.32-5.18-3.9-4.52c-5.8,1.08-10.9-2.43-16.55-2.32
		c-1.29,0.03-2.05-1-2.34-2.25c-0.78-3.27-2.76-5.23-6.15-5.65c-1.5-0.18-1.8-1.17-1.9-2.45c-0.41-5.59-4.31-6.5-8.82-6.39
		c-10.85,0.26-21.69,0.59-32.54,0.88c-1,0.03-2.01,0.06-2.99-0.08c-6.66-0.92-6.73-0.94-7.61,5.41c-0.26,1.85-0.96,2.69-2.8,2.67
		c-2.17-0.03-4.33-0.04-6.5,0.02c-2.46,0.07-5.02,0.72-5.7,3.21c-1.31,4.76-4.69,5.01-8.56,4.77c-6.52-0.41-12.97,2.2-19.68-0.58
		c-2.87-1.19-5.36,1.97-5.58,5.46c-0.08,1.23,1.54,3.16,0.1,3.6c-3.63,1.1-3.9,5.87-7.75,6.45c-1.63,0.25-3.32,1.12-4.85,0.87
		c-6.68-1.07-13.46,0.62-20.1-0.87c-2.02-0.45-2.37-1.57-2.33-3.61c0.07-3.75-0.41-7.53-0.78-11.28c-0.33-3.37-1.93-5.95-5.14-7.35
		c-1.5-0.65-2.08-1.75-2.51-3.37c-1.09-4.16-3.64-6-8.21-4.73c-5.47,1.53-11.01-0.01-16.45-0.53c-6.32-0.6-8.78,0.14-11.12,6.04
		c-0.66,1.65-1.7,1.72-2.97,2.05c-2.21,0.57-4.41,1.78-4.54,4.1c-0.26,4.59-2.38,9.06-1.01,13.73c0.94,3.24,0.79,5.69-2.85,7.31
		c-2.59,1.15-3.58,3.74-3.68,6.63c-0.13,3.61,2.49,3.77,4.98,4.26c0.83,0.16,1.6,0.72,1.52,1.68c-0.09,1.1-1.1,1.01-1.9,1.12
		c-5.74,0.79-11.39,1.55-17.28,0.43c-3.08-0.59-7.67-0.6-9.51,1.22c-3.32,3.28-4.55,8.47-9.97,10.08c-1.71,0.51,1.34,4.1-1.59,5
		c-3.17,0.97-6.13-1.3-9.32-0.79c-0.65,0.1-1.39-0.24-1.4-1.06c-0.01-0.96,0.75-1.66,1.55-1.65c6.31,0.1,6.17-4.19,5.96-8.58
		c-0.02-0.5,0-1,0-1.5c0-10.04,0-10.15-10.23-10.06c-3.41,0.03-6.1-0.57-6.61-4.33c-0.4-2.96-2.27-3.21-4.26-2.46
		c-2.31,0.88-4.97,0.29-7.08,2.11c-1.2,1.04-2.84,0.94-3.89-0.65c-1.18-1.79-2.68-2.85-4.95-2.79c-1.75,0.05-2.68-0.99-2.96-2.74
		c-0.63-3.9-3.52-5.11-6.89-5.15c-8.42-0.11-16.84-0.09-25.25,0.07c-2.55,0.05-3.79,1.87-3.84,4.36c-0.06,2.83-0.01,5.66-0.04,8.5
		c-0.01,1.36-0.01,2.78-1.91,2.89c-1.55,0.09-1.89-0.94-2.11-2.2c-0.54-3.13-2.41-5.02-5.54-5.63c-0.49-0.1-1.37-0.11-1.41-0.31
		c-1.21-5.45-6.83-6.9-9.57-10.66c-2.6-3.57-5.17-5.21-9.29-5.07c-3.15,0.1-6.47,0.64-6.83-4.14c-0.13-1.74-1.72-3.1-3.4-3.28
		c-3.97-0.41-4.55-3.03-3.83-5.96c1.39-5.64,0.27-11.16-0.02-16.76c-0.33-6.23,0.86-12.41,0.15-18.75
		c-0.65-5.75-4.8-9.25-6.86-14.01c-0.7-1.61-2.99-1.07-4.63-1.07c-9.33-0.02-18.66-0.01-27.99-0.01c-7.36,0-11,3.5-11.73,11.03
		c-0.52,5.34-1.08,10.68-1.87,15.98c-0.69,4.61-3.25,6.28-7.88,5.57c-6.41-0.98-7.87,0.53-6.58,6.83c1.27,6.21-1.34,9.59-7.44,9.58
		c-5.97-0.01-11.85-1.64-17.87-1.01c-1.47,0.15-3.59-0.56-4.25,0.76c-2.23,4.45-6.24,6.9-9.57,10.17c-2.23,2.2-3.63,4.97-6.91,6.52
		c-3.31,1.56-2.91,5.42-2.55,8.53c0.55,4.79-1.13,6.52-6.02,6.12c-5.13-0.42-10.32-0.07-15.49-0.1c-6.62-0.04-13.14,1.2-19.88,0.2
		c-6.09-0.91-6.53,0.13-6.68,6.19c-0.03,1.16,0.02,2.35-0.17,3.48c-0.18,1.03-0.9,1.77-2.01,1.96c-1.6,0.27-9.66-5.6-9.79-7.26
		c-0.21-2.75-1.59-4.02-4.29-4.6c-8.86-1.92-17.81-0.52-26.7-0.79c-4.97-0.15-6.97,3.9-5.86,9.87c1.23,6.6-0.18,8.26-6.87,6.73
		c-4.88-1.11-8.94,2.12-13.58,1.6c-0.41-0.05-1.37,0.89-1.33,1.28c0.52,4.43-1.26,8.7-0.9,13.04c0.19,2.32,2.32,3.52,4.52,4.16
		c1.17,0.34,2.95-0.07,2.76,2.02c-0.12,1.37-1.3,1.69-2.4,2.19c-5.15,2.37-7.57,12.97-3.96,17.5c0.69,0.86,1.78,1.76,2.8,1.92
		c3.15,0.51,4.74,1.68,4.03,5.27c-0.29,1.47,1.34,2.62,2.86,3.04c0.94,0.26,1.98,0.17,2.98,0.19c11.23,0.23,11.25,0.23,10.99,11.42
		c-0.06,2.63,1.3,4.02,3.62,3.46c3.66-0.88,7.13-0.78,10.77,0.02c2.09,0.46,3.87-0.87,3.4-3.12c-0.65-3.1,0.54-3.93,3.29-3.84
		c0.63,0.02,1.47-0.12,1.88-0.53c4.01-3.97,7.76-3.76,12-0.06c2.02,1.76,4.59,0.36,6.25-1.4c2.03-2.16,2.15-4.68,0.54-7.33
		c-3.63-5.95-3.57-5.96,2.45-9.27c2.78-1.52,5.39-3.27,7.56-5.63c0.63-0.69,1.4-1.78,2.46-1.07c0.5,0.34,0.68,1.44,0.68,2.2
		c0.01,3.62,1.6,6.08,5.14,7.02c1.88,0.5,2.85,1.48,2.9,3.46c0.09,3.69,2.37,4.8,5.67,4.67c1.66-0.06,3.35,0.14,5-0.04
		c4.25-0.47,5.54,1.48,5.39,5.53c-0.21,5.9-0.63,6.75-6.66,6.43c-8.38-0.43-16.75-1.2-25.15-0.9c-3.63,0.13-7.28,0.47-10.85,1.11
		c-3.43,0.61-6.92,7.09-5.95,11.43c0.57,2.55-0.11,3.11-2.37,3.65c-2.14,0.51-4.25,1.02-6.39,0.73c-8.6-1.16-17.21,1.24-25.58,0.64
		c-12.92-0.92-25.92,0.61-38.76-1.6c-1.35-0.23-1.87-0.5-1.84-2.15c0.17-7.84-0.93-15.63,0.3-23.54c0.91-5.84-1.08-11.82-0.96-17.84
		c0.08-4.07,1.79-8.07,0.43-12.28c-0.4-1.24,0.81-2.75,2.52-3.25c6.52-1.89,4.99-7.31,5.2-11.97c0.18-3.96-1.23-6.83-5.3-7.89
		c-1.97-0.51-2.88-1.47-2.01-3.6c1.16-2.82-2.51-6.06,0.27-8.5c2.38-2.09,5.3,0.58,8.11,0.1c5.92-1.02,7.64-3.85,6.61-11
		c-0.44-3.07-0.78-5.89,0.3-8.75c2.12-5.61-0.95-11.39,0.7-17.15c0.52-1.82,0.57-2.88,2.47-3.34c0.94-0.23,2.26-0.64,2.6-1.36
		c4.25-9,13.38-16.07,10.45-27.94c-1.3-5.24,1.17-10.77-0.1-16.22c-0.48-2.06,1.58-2.02,2.99-2.46c5.92-1.81,4.75-6.77,4.92-11.17
		c0.16-4.02-0.67-7.56-5.17-8.42c-3.34-0.64-4.27-2.82-3.76-5.36c1.43-7.01-0.52-14.1,0.8-21.07c0.32-1.72-0.27-3.26-0.77-4.86
		c-1.43-4.49,0.34-6.71,4.98-5.58c3.51,0.85,6.94,0.61,10.41,0.64c2.94,0.03,5.73-0.21,6.01,3.9c0.06,0.91,1.01,2.34,1.92,1.95
		c6.27-2.67,11.03,3.83,17.43,2.43c5.78-1.26,8.01-2.35,8.11-8.34c0.16-8.9,0.16-9.03,9.06-8.87c12.87,0.22,25.73,0.64,38.6,0.97
		c1.69,0.04,3.63-0.08,4.11,1.98c1.34,5.82,5.67,6.77,10.39,5.92c7.75-1.39,15.45-0.65,23.04,0.26c8.33,1,16.5-0.65,24.76-0.25
		c3.27,0.16,5.73,0.37,6.7,4.19c0.76,2.96,3.43,3.87,6.3,3.88c4.15,0.02,8.34,0.41,12.35-1.04c2.34-0.85,3.31-0.54,4,2.26
		c1.74,7.14,5.16,8.71,12.19,5.94c1.99-0.78,3.69-1.16,5.69-0.24c2.31,1.06,4.82,1,7.32,1.16c6.19,0.39,12.44-1.51,18.64,0.79
		c1.85,0.69,4.38,0.32,6.39-0.28c8.45-2.54,16.93-1.19,25.46-0.83c10.31,0.44,20.65,0.16,30.98,0.3c1.85,0.02,4.61-1.04,5.23,1.47
		c0.54,2.21-0.52,4.31-3.35,5.19c-2.6,0.81-2.61,3.39-2.94,5.79c-0.88,6.4,0.9,12.74,0.11,19.14c-1.34,10.9,0.79,21.96-1.13,32.81
		c-0.9,5.08-3.5,9.71-6.13,14.11c-1.82,3.05-1.06,7.31,2.44,8.24c6.34,1.67,12.88,1.54,19.32,0.95c2.77-0.25,4.49-2.63,4.46-5.76
		c-0.03-3.83-0.29-7.69,0.07-11.49c0.35-3.71-1.79-8.91,5.63-9c2.4-0.03,2.29-4.29,2.29-6.94c0-13.91-0.01-27.82,0.01-41.72
		c0.01-4.52,2.02-6.06,8.88-6.22c3.82-0.09,3.03,3.13,3.07,5.39c0.06,2.68,1.11,4.05,3.87,3.98c2.5-0.06,5.18,0.52,7.46-0.19
		c4.09-1.29,5.02,0.1,4.75,3.88c-0.27,3.86,1.39,8.17-4.99,9.18c-2.99,0.47-3.2,4.15-3.1,7.16c0.12,3.84,1.17,8.07-5.24,8.45
		c-2.9,0.17-3.1,3.61-2.57,6.17c0.91,4.36,0.84,7.74-4.08,10.14c-4.83,2.36-5.76,14.39-1.7,17.88c2.95,2.53,6.67,1.31,10.06,0.94
		c1.47-0.16,2.81-0.58,4.37-0.25c7,1.47,7.9,1.04,11.23-5.84c0.79-1.63,2.11-1.32,3.26-1.77c3.57-1.4,4.82-3.69,4.38-7.77
		c-0.49-4.52-1.44-10.54,0.89-13.44c3.02-3.75,6.09-8.18,9.69-10.97c3.99-3.1,5.86-5.86,5.74-10.47c-0.07-2.8-0.3-5.27,3.84-5.34
		c2.58-0.04,4.04-2.21,4.13-4.85c0.09-2.51,1.32-3.9,3.72-3.47c6.46,1.15,12.95,0.23,19.42,0.56c1.77,0.09,4.07-0.45,4.57,1.94
		c0.57,2.76-2.26,1.64-3.43,2.46c-0.13,0.09-0.38,0.09-0.45,0.2c-3.14,4.87-9.34,6.94-11.68,12.4c-0.87,2.04-1.75,3.01-3.86,2.99
		c-5.5-0.06-11.5-1.02-12.54,6.96c-0.02,0.14-0.18,0.4-0.26,0.39c-7.62-0.71-6.7,6.47-9.5,10.22c-1.87,2.51-2.57,4.99-0.77,7.8
		c2.22,3.47,3.22,7.21,2.87,11.38c-0.34,3.96,1.77,6.39,5.6,6.89c2.95,0.39,5.98,0.39,8.95,0.19c1.81-0.12,4.37-1.11,4.25-2.88
		c-0.38-5.65,4.62-7.65,6.97-11.39c0.5-0.8,1.37-1.85,2.14-1.91c4.3-0.33,6.78-2.38,8.28-6.51c0.78-2.17,3.6-1.13,5.48-1.09
		c4.96,0.1,9.57-0.11,10.4-6.51c0.04-0.31,0.33-0.87,0.4-0.85c7.75,1.64,6.22-8.04,11.48-9.4c2.2-7.72,8.2-7.5,14.58-7.53
		c4.12-0.02,5.97-3.84,4.8-8.02c-1.12-3.98-2.11-7.96-5.72-10.7c-1.61-1.22-2.46-12.24-1.41-13.91c0.92-1.46,2.38-1.4,3.48-0.59
		c4.77,3.49,10.33,2.99,15.43,2.27c7.82-1.1,15.61-0.87,23.39-0.71c7.35,0.15,14.65-1.62,22.13,0.68
		c5.02,1.55,10.47-1.07,15.77-1.05c8.33,0.03,16.73-1.27,24.96,1.21c1.17,0.35,2.23,0.41,2.61,1.81c1.28,4.64,4.78,5.64,8.95,5.21
		c4.67-0.48,8.02,0.4,7.17,5.89c4.93-4.59,9.87-9.17,14.81-13.76c11.59,0.84,22.92,3.43,34.38,5.16c3.14,0.47,6.27,0.58,9.39,1
		c1.13,0.15,2.44,0.35,2.96,1.52c0.67,1.51-0.73,2.03-1.67,2.61c-5.74,3.51-7.77,8.92-8.62,15.32c-0.63,4.71-2.31,9.28-3.35,13.95
		c-0.82,3.69-3.63,2.04-5.65,2.18c-2.85,0.2-5.8,0.21-6.52-3.67c-0.25-1.34,0.69-3.3-1.29-3.86c-1.75-0.49-2.54,1.34-3.62,2.25
		c-2.16,1.8-4.17,3.79-6.23,5.71c-2.5,2.33-1.81,4.25,1.13,5.08c5.88,1.65,11.83,3.02,17.79,4.35c2.29,0.51,3.36-1.01,3.65-3.08
		c0.44-3.16,2.21-4.83,4.96-6.67c8.6-5.78,17.71-11.04,24.31-19.4c1.53-1.94,3.56-3.23,6.21-3.77c6.95-1.41,9.09,0.48,7.76,7.34
		c-1.11,5.75,2.2,9.7,8.63,9.83c8.48,0.16,16.97,0,25.45,0.08c2.04,0.02,4.27-0.52,5.75,1.91c0.7,1.14,2.3,0.83,3.7,0.56
		c4.71-0.92,9.44-1.83,14.21-2.41c1.9-0.23,4.92-1.57,5.54,1.31c0.6,2.81,1.45,6.25-1.71,8.6c-2.52,1.87-5.11,3.7-6.49,6.68
		c-0.32,1.25-1.3,1.89-2.37,2.29c-7.49,2.83-14.7,6.43-22.53,8.35c-6.16,1.48-12.19-0.29-18.27-0.73
		c-10.06-0.72-20.11-1.56-30.15-2.47c-3.46-0.32-4.13,1-4.68,4.39c-1.25,7.77,2.03,11.82,8.07,16.51c8.8,6.84,18.04,10.1,28.88,11.3
		c6.83,0.76,13.88,1.05,20.54,3.32c1.02,0.35,1.86,0.61,2.15,1.72c1.12,2.47,0.49,4.51-1.52,6.22c-1.14,0.29-0.74,2.26-2.89,1.87
		c-13.78-2.51-27.61-4.77-41.43-7.02c-5.7-0.92-11.47-1.43-17.14-2.46C165.4,52.51,164.13,54.25,162.61,55.93z"/>
	<path class="st0" d="M435.44,41.85c0.61,0.79,1.25,1.55,1.83,2.36c2.78,3.9,5.73,6.09,10.47,2.41c2.81-2.17,6.04-1.47,8.76,0.72
		c4.91,3.96,9.75,8,14.62,12.01c3.67,1.61,6.1,4.37,7.49,8.1c2.8,5.11-0.29,8.9-3.21,12.36c-2.04,2.41-2.09,3.88-0.06,6.26
		c4.51,5.32,8.69,10.91,13,16.39c1.1,1.4,2.78,2.76,0.31,4.47c-1.92,1.33-3.58,2.13-5.61-0.1c-4.35-4.8-8.99-9.33-13.37-14.11
		c-1.79-1.95-2.73-2.66-3.91,0.51c-3.29,8.87-7.05,17.58-10.09,26.53c-1.02,3.01-0.87,6.61-0.5,9.86c0.63,5.46-1.09,9.81-4.22,14.21
		c-6.21,8.72-6.07,8.99-15.9,4.83c-2.61-1.1-6.49-0.94-7.44-4.17c-1.23-4.16,0.43-9.85,2.56-11.65c5.02-4.25,4.03-10.31,6.92-14.92
		c1.73-2.68,3.21-5.08-2.08-5.08c-1.88,0-3.76-1.06-5.64-1.64c-3.18,0.37-4.59-1.67-4.94-4.25c-0.38-2.75,2.21-2.84,4.04-3.46
		c3.52-1.19,6.81-2.83,8.98-5.96c1.14-1.65,1.69-3.59,0.31-5.97c-2.64,2.56-4.87,5.44-8.66,6.21c-4.68,0.95-6.29,0.26-7.32-4.46
		c-0.49-2.26-1.85-2.88-3.7-3.41c-2.06-0.59-3.61-1.88-3.78-4.14c-0.17-2.3,1.3-3.84,3.25-4.56c4.58-1.69,6.43-4.96,6.26-9.64
		c-0.01-0.33,0.06-0.66,0.1-0.99c1.39-10.2,3.96-11.53,12.7-6.51c5.33,3.06,10.5,6.41,16.81,9.94
		c-8.82-9.26-16.78-17.88-24.51-26.72c-1.19-1.36-2.8-2.42-3.04-4.43c-0.67-0.9-1.24-1.92-2.04-2.69c-1.98-1.89-0.78-3.09,0.71-4.4
		c1.41-1.23,2.62-2.58,4.47-0.54C431.06,37.5,433.28,39.65,435.44,41.85z"/>
	<path class="st15" d="M444.72,168.13c5.65-7.98,11.5-15.83,16.87-23.99c2.34-3.55,4.17-3.5,7.41-1.3
		c12.13,8.24,15.84,20.5,9.86,33.88c-1.28,2.87-2.8,5.64-4.2,8.45c-4.83,7.12-9.62,14.27-15.51,20.61c-1.44,1.55-2.87,2.6-4.95,2.91
		c-6.57,1-13.12,2.21-19.71,3.01c-2.79,0.33-4.62,1.4-5.95,3.8c-2.91,5.23-5.71,10.54-8.98,15.54c-1.13,1.73-0.99,6.16-5.26,4.01
		c-4.36-2.19-0.63-4.57,0.17-6.51c2.2-5.34,4.86-10.48,6.57-16.31c-3.48,3.96-6.98,7.89-10.42,11.87c-1.85,2.14-3.55,4.4-5.44,6.51
		c-1.13,1.27-2.17,3.66-4.33,2.16c-2.38-1.66-0.02-3.28,0.85-4.57c4.34-6.47,8.83-12.84,14.08-20.42
		c-5.25,2.45-7.96,5.99-11.37,8.52c-3.07,2.27-5.84,4.94-8.81,7.34c-1.42,1.15-2.73,3.65-4.97,1.67c-2.52-2.24,0.48-3.34,1.43-4.78
		c3.91-5.92,9.72-10.18,13.78-16.12c-5.61,3.72-11.21,7.45-16.83,11.16c-1.45,0.96-3.03,2.85-4.64,0.58
		c-1.5-2.12,0.95-2.82,2.04-3.79c2.97-2.66,6.36-4.9,9.07-7.79c6.51-6.95,15.17-9.12,23.83-11.48c3.4-0.93,5.65-0.38,6.99,3.33
		c1.14,3.15,3.03,6.03,5.4,8.72c0-3.57,0.06-7.15-0.02-10.72c-0.04-2.03,0.2-3.84,2.75-3.71c6.91,0.35,9.28-4.16,11.93-9.58
		C448.91,175.91,449.13,171.98,444.72,168.13z"/>
	<path d="M425.85,42.84c9.87,10.56,19.75,21.12,29.6,31.71c0.28,0.3,0.29,0.86,0.61,1.92c-4.82-1.65-8.41-4.56-12.36-6.75
		c-4.07-2.26-8.13-4.56-12.01-7.12c-2.85-1.88-4.16-0.75-5.24,1.86c-1.12,2.69-1.15,5.53-1.23,8.34c-0.13,4.7-2.02,7.97-6.72,9.29
		c-2.09,0.59-3.74,1.43-3.21,4.12c0.48,2.39,2.13,2.68,4.12,2.58c1.67-0.09,3.21-0.4,3.52,2.21c0.25,2.07-1.85,5.61,2.36,5.88
		c3.76,0.24,7.38-0.68,9.58-4.16c1.03-1.62,0.68-4.86,4.05-3.19c2.67,1.32,1.54,3.83,1.08,5.75c-1.23,5.15-5.65,7-9.87,9.09
		c-1.66,0.83-4.73-0.46-4.92,2.19c-0.16,2.26,2.47,3.3,4.13,4.64c-3.75,5.96-9.08,10.6-13.53,15.97c-1.64,0.34-3.13,0.22-4.21-1.29
		c-6.65,0.45-9.22-4.34-12.2-9.05c-5.94-9.41-12.21-18.61-18.5-27.8c-1.02-1.49-1.48-2.82-1.21-4.51c0.22-2.62,2.77-3.77,3.72-5.92
		c4.17-4.71,8.74-9.02,13.23-13.42c2.26-2.21,2.27-3.86,0.1-6.22c-5.96-6.5-5.55-7.84,2.92-10.04c2.47-0.64,4.87-2.36,7.64-1.13
		C413.73,47.06,419.53,43.99,425.85,42.84z"/>
	<path class="st0" d="M490.37,193.26c22.21-8.58,23.63-26.16,16.86-46.04c-0.98-2.88-3.26-5.07-5.62-6.89
		c-3.57-2.75-2.84-4.94,0.3-7.36c4.79-3.7,8.43-8.32,11.48-13.6c4.49-7.77,3.56-15.7,1.42-23.67c-0.67-2.5-0.26-3.59,1.93-4.67
		c3.87-1.91,7.62-4.06,11.43-6.11c5.45,1.45,10.86,3.04,16.36,4.29c2.89,0.65,3.83,1.65,2.94,4.75
		c-10.58,36.66-21.09,73.35-31.45,110.07c-1.12,3.97-2.47,4.16-5.7,2.16c-5.64-3.5-11.54-6.58-17.29-9.92
		C491.87,195.58,489.92,195.42,490.37,193.26z"/>
	<path class="st15" d="M177.98,131.04c-2.33,3.63-4.66,7.26-6.99,10.89c-0.7,1.1-1.21,2.59-2.96,2c-4.26-1.43-8.52-2.84-12.71-4.47
		c-2.52-0.98-0.63-2.43,0.01-3.51c3.43-5.85,3.71-12.25,3.32-18.94c-1.81,8.24-5.67,15.2-11.97,20.72
		c-1.57,1.38-0.77,2.28,0.65,2.96c1.95,0.93,3.85,2.18,5.91,2.6c3.97,0.8,4.85,2.19,1.75,5.2c-0.95,0.92-1.56,2.26-2.61,2.99
		c-3.44,2.41-3.84,4.98-0.99,8.12c2.16,2.38,1.47,4.09-1,6.07c-7.1,5.69-7,5.81-14.1-0.32c-2.13-1.84-4.25-3.67-6.46-5.59
		c1.47-1.94,4.49-1.84,5.1-4.57c-3.4-1.55-7.46-2.14-9.54-5.82c-1.41-2.49-2.75-4.51,1.89-5.57c6.07-1.39,10.6-5.38,13.42-11.08
		c0.62-1.26,1.16-2.6-0.5-3.39c-1.37-0.65-2.01,0.39-2.67,1.47c-1.88,3.09-4.76,5.08-7.95,6.62c-1.2,0.58-2.66,1.1-3.77,0.13
		c-1.11-0.97,0-2.18,0.33-3.19c1.98-5.93,1.99-5.81-4.23-6.99c-1.52-0.29-4.16,0.43-4.12-2.44c0.03-2.08,1.84-2.49,3.51-2.9
		c5.87-1.45,10.82-4.28,13.95-9.67c1.39-2.39,2.52-2.95,4.75-0.53c2.98,3.24,8.89,3.01,12.11-0.08c1.04-1,2.57-2.24,1.25-3.77
		c-1.1-1.26-2.55-2.7-4.67-1.02c-2.92,2.31-5.55,1.89-7.47-1.43c-0.96-1.65-1.39-3.47-0.53-5.25c1-2.07,2.94-1.1,4.46-0.95
		c9.27,0.9,18.55,1.8,27.79,2.95c4.53,0.56,5.67,4.61,7.22,8.08c-0.65,0.46-1.24,1.17-1.95,1.32c-6.03,1.26-6.82,2.59-4.83,8.52
		C174.63,123.93,175.76,127.72,177.98,131.04z"/>
	<path class="st16" d="M384.34,79.16c-1.54,1.79-3.09,3.57-4.63,5.36c-2.37,0.13-2.84-1.92-3.8-3.35
		c-10.58-15.91-21.2-31.8-31.63-47.81c-1.66-2.54-3.52-3.55-6.43-3.74c-10.46-0.69-20.9-1.57-31.35-2.38
		c-1.49-0.11-3.01-0.04-4.26-1.08c-2.34-1.53-2.57-4.17-3.15-6.49c-0.8-3.22-2.72-4.66-5.86-5.07c-5.23-0.69-10.49-1.23-15.7-2.06
		c-3.24-0.52-5.68,0.58-7.74,3.21c-2.09,2.67-3.56,6.02-7.11,7.29c-3.24,1.48-6.58,0.42-9.83,0.24c-8.64-0.48-17.26-1.27-25.88-2
		c-0.77-0.07-1.5-0.6-2.25-0.91c3.47-3.33,8.26-3.83,12.42-5.66c4.09-1.8,8.31-3.33,12.47-4.98c16.13-5.33,31.92-3.13,47.49,2.29
		c4.97,1.73,10.25,2.48,14.96,4.96c-0.3,0.31-0.52,0.68-0.83,0.99c0.44-0.2,0.43-0.74,0.76-1.01c12.82,3.86,25.69,7.56,38.44,11.64
		c6.29,2.01,12.85,3.26,18.8,6.29c-2.28,2.19-5.03,3.14-8.14,2.87c-2.25-0.19-3.29,0.24-2.06,2.69c4.65,9.22,7.4,19.48,15.47,26.78
		c2.47,2.23,4.13,5.37,5.04,8.5C380.39,78.54,382.05,79,384.34,79.16z"/>
	<path class="st17" d="M249.24,57.41c1.02-0.82,1.94-1.67,3.5-1.43c13.6,2.13,27.2,4.35,40.84,6.21c6.47,0.88,3.56,5.18,3.2,8.18
		c-0.46,3.8-3.82,2.62-6.01,2.17c-11.71-2.39-23.53-3.99-35.34-5.68c-2.49-0.36-5.53,0.06-6.75-3.17
		C247.39,61.47,247.23,59.34,249.24,57.41z"/>
	<path class="st18" d="M262.68,23.05c2.58-3.41,5.28-6.74,7.71-10.26c1.43-2.08,3.29-1.91,5.26-1.67
		c6.39,0.78,12.75,1.89,19.16,2.31c3.35,0.22,4.62,1.68,5.26,4.59c0.6,2.74,1.43,5.43,2.16,8.14c-3.73,1.76-7.45-0.18-11.18-0.17
		c-7.6,0.03-15.21-0.69-22.82-1.13C266.25,24.73,264.29,24.4,262.68,23.05z"/>
	<path class="st19" d="M226.79,101.05c1.14-1.1,1.35-2.5,1.3-3.98c-0.16-1.2-0.22-2.37,0.93-3.19c5.22-0.89,10,1.31,14.89,2.35
		c5.86,1.25,12.05,1.47,17.4,4.67c0.76,3.24-0.22,5.93-2.58,8.18c-10-2.01-20.06-2.35-30.17-0.98c-1.94,0.26-2.71-0.72-3.03-2.38
		C224.36,103.73,226.33,102.6,226.79,101.05z"/>
	<path class="st20" d="M258.73,109.07c0.86-2.72,1.72-5.45,2.58-8.18c10.38-0.04,20.1,3.57,30.09,5.62
		c4.13,0.85,1.21,4.42,1.42,6.71c0.18,1.98-1.23,3.06-3.25,2.68C279.21,113.98,268.73,112.62,258.73,109.07z"/>
	<path class="st21" d="M249.24,57.41c-0.19,2.09-0.37,4.18-0.56,6.28c-0.68,0.64-0.93,1.8-2.26,1.6c-4.9-0.76-9.81-1.52-14.73-2.19
		c-1.59-0.21-1.57-1.44-1.95-2.47c0.5-2.06,1.01-4.13,1.52-6.21c4.75-3.1,9.32,0.49,14,0.41C247.02,54.81,248.97,54.94,249.24,57.41
		z"/>
	<path class="st22" d="M411.61,125.89c1.4,0.43,2.81,0.86,4.21,1.29c-0.93,1.15-1.88,2.28-2.8,3.45c-1.37,1.75-2.79,3.07-4.42,0.3
		c-0.73-1.24-2.46-2.41-1.87-3.81C407.62,124.99,410.08,126.82,411.61,125.89z"/>
	<path d="M226.79,101.05c-0.42,1.55-0.84,3.1-1.26,4.66c-0.82,3.94-3.66,3.33-6.43,2.86C221.66,106.06,224.23,103.56,226.79,101.05z
		"/>
	<path class="st23" d="M419.88,137.89c-0.12,1.9-0.25,3.8-0.37,5.71c-0.6,0.64-1.1,2.01-2.18,0.89c-0.98-1.02-1.93-2.39-1.09-3.93
		C417.01,139.17,417.88,137.7,419.88,137.89z"/>
	<path d="M229.03,93.88c-0.19,1.1,0.08,2.33-0.93,3.19c-2.45-1.38-4.11-3.6-6-5.58C224.62,91.65,226.91,92.53,229.03,93.88z"/>
	<path class="st24" d="M-149.76-46.29c-2.69,16.71-5.4,33.42-8.05,50.14c-1.72,10.83-3.52,21.64-4.94,32.51
		c-0.81,6.17-5.54,3.63-8.5,3.94c-4.12,0.43-1.83-3.12-1.66-4.67c3.01-27.08,6.2-54.14,9.35-81.21c0.63-5.6,1.4-11.19,1.85-16.79
		c0.26-3.18,1.21-4.65,4.8-4.66c10.29-0.03,10.25-0.2,8.61,9.92C-148.89-53.51-149.28-49.89-149.76-46.29z"/>
	<path class="st12" d="M-85.86-41.11c-9.73,17.2-19.47,34.39-29.2,51.59c-0.98,1.74-2.3,3.37-2.88,5.23
		c-2.84,9.02-10.37,11.08-19.07,12.91c12.64-23.33,25-46.15,37.37-68.98c6.59-11.92,13.28-23.79,19.7-35.8
		c1.63-3.05,2.72-3.77,5.79-1.51c6.88,5.07,6.15,3.66,2.59,10.31C-76.27-58.57-81.09-49.85-85.86-41.11z"/>
	<path class="st15" d="M384.34,79.16c-2.85,1.77-4.39,3.81-5.59-2.22c-1.4-7.03-7.21-12.69-12.42-17.67
		c-3.87-3.69-2.72-8.72-5.41-12.48c-1.52-2.13-2.34-4.75-3.78-6.94c-1.54-2.34-0.45-4.24,1.55-3.55c4.01,1.39,7.04-1.22,10.56-1.4
		c12.16,3.73,24.32,7.46,36.49,11.16c0.96,0.29,1.2,1.02,1.56,1.74c-4.7,1.42-9.41,2.84-14.79,4.46c2.65,2.99,4.72,5.53,7.03,7.84
		c1.53,1.54,1.51,2.69,0.01,4.15C394.45,69.19,389.4,74.18,384.34,79.16z"/>
	<path class="st25" d="M110.26,76.81c-8.39,2.87-16.67,6.01-25.25,8.34c-7.03,1.91-13.96,4.21-20.91,6.42
		c-7.68,2.45-15.31,5.03-22.98,7.5c-9.04,2.91-18.09,5.77-27.15,8.63c-7.67,2.42-15.36,4.78-23.02,7.21
		c-7.69,2.44-15.25,5.33-23.05,7.31c-7.68,1.95-14.83,5.39-22.61,7.07c-6.9,1.49-13.57,4.09-20.33,6.24c-8,2.54-16,5.07-23.97,7.68
		c-9.17,3.01-18.33,6.03-27.43,9.24c-2.06,0.73-4.86-0.51-6.19,2.21c-1.3-4.52-2.92-8.96-3.38-13.68c4.18-3.22,9.08-4.47,14.07-5.97
		c12.58-3.77,25.02-8.03,37.42-12.37c11.12-3.89,22.67-6.44,33.6-10.89c2.09-0.19,4.31,0.48,6.23-0.94c0.4-0.26,0.83-0.46,1.28-0.62
		c2.11-0.38,4.24-0.7,5.98-2.12C-24.01,102.6-10.11,98.58,3.6,94c11.17-3.73,22.22-7.94,33.55-11.02
		C54,78.41,70.07,71.42,87.07,67.44c2.02-0.47,3.32-2.23,5.32-2.63c5.35,1.5,10.79,2.74,16.01,4.59
		C112.13,70.73,109.41,74.37,110.26,76.81z"/>
	<path class="st8" d="M92.39,64.81c-0.37,2.59-2.67,3.33-4.5,3.8c-12.53,3.22-24.62,7.74-36.83,11.95
		c-7.34,2.53-14.94,4.31-22.33,6.72c-9.03,2.94-17.85,6.56-26.96,9.21c-8.85,2.58-17.53,5.61-26.3,8.42
		c-4.45,1.43-8.93,2.81-13.39,4.21c-1.66,1.71-4.44,0.02-6.01,1.98l-0.01,0c-1.66,1.72-4.43,0.05-6.02,1.97
		c-4.9,0.47-9,3.35-13.74,4.52c-7.99,1.97-15.73,4.95-23.55,7.56c-8.99,2.99-17.94,6.11-26.95,9.05
		c-7.24,2.36-14.55,4.53-21.82,6.79c-1.12-3.28-2.54-6.5-2.14-10.1c5.52-1.94,10.98-4.13,16.61-5.71c2.3-0.65,4.14-1.84,6.14-2.91
		c7.57-3.54,15.83-5.02,23.6-7.98c2.35-0.89,4.58-1.93,6.79-3.07c0.12-0.06,0.33,0.02,0.48,0.09c0.22,0.11,0.21,0.38,0,0.75
		c1.61,1.8,2.69,0.57,3.76-0.67c1.88-1.16,4.01-1.57,6.1-2.12c1.37-0.2,2.74-0.4,4.12-0.61c-0.17-1.74,1.32-1.64,2.29-1.97
		c8.12-2.72,16.57-4.53,24.23-8.56c0.58-0.31-0.16,0.12,0.49,0c0.16-0.03,0.21,0.36,0.09,0.75c4.67,1.47,8.7-1.3,12.69-2.57
		c14.22-4.51,28.4-9.16,42.66-13.56c14.87-4.58,29.62-9.53,44.42-14.32c9.5-3.07,19-6.14,28.5-9.21
		C91.3,57.13,91.62,57.37,92.39,64.81z"/>
	<path d="M242.71,165.09c-1.28,3.04,0.08,6.71-2.24,9.5c-2.79,0.58-5.57,1.17-8.36,1.75c-1.16-1.4-2.34-2.78-3.48-4.19
		c-1.97-2.43-3.5-1.68-4.06,0.89c-0.8,3.67-3.11,4.23-6.28,3.99c-5.22-0.4-9.8,0.21-10.52,6.89c-0.17,1.57-1.4,1.8-3.04,1.55
		c-5.74-0.86-11-1.64-13.25,6.36c-1.27,4.51-6.13,0.88-9.34,1.06c-2.5,0.13-2.1-2.06-2.14-3.66c-0.05-2,0.08-4-0.06-5.99
		c-0.18-2.45-1.08-5.04-3.63-5.4c-4.85-0.68-4.38-3.87-4.35-7.26c0.07-7.71-1.07-8.91-8.66-9.56c-1.49-0.13-3.23,0.13-3.15-2.14
		c0.07-1.91,1.61-1.91,2.93-1.83c4.48,0.28,7.89-0.95,9.03-5.83c0.42-1.77,1.84-2.17,3.47-2.19c7.89-0.1,15.77,0.04,23.62,0.89
		c2.04,0.22,3.92-0.39,5.88-0.67c7.9-1.13,15.85,0.15,23.79-0.18c1.46-0.06,2.82,0.64,2.9,2.17c0.32,5.68,2.35,11.68-1.11,16.87
		c-1.77,2.66,0.34,3.08,1.25,4.3c1.38,1.85,2.46,0.72,3.61-0.42C237.88,169.66,240.31,167.39,242.71,165.09z"/>
	<path class="st26" d="M-254.9,50.94c-2.04-1.52-4.24-2.31-6.79-1.46c-0.97-2.7-3.36-2.23-5.44-2.45c-4.51-1.48-7.6,0.3-9.86,4.2
		c-0.66,1.14-1.68,2.06-2.5,3.11c-2.68,3.42-8.22,6.65,0.33,10.44c-2.99,1.29-4.83-0.03-6.74,0.02c-1.12,0.03-2.09-0.39-3.26,0.41
		c-5.39,3.69-6.51,3.24-8.44-3.04c1.19-0.58,1.58-1.58,1.43-2.82c-0.69-5.67,2.38-10.79,2.34-16.37c-0.02-2.57,2.03-3.07,3.88-3.75
		c5.38,2.2,9.84-0.18,11.47-6c0.49-1.77-0.26-2.43-1.79-2.79c-2.6-0.61-4.85,0.32-7.04,1.53c-0.06,0.03-0.26-0.08-0.31-0.17
		c-0.07-0.14-0.06-0.32-0.08-0.48c-2.22-4.6-0.52-11.27,4.5-16.3c3.5-3.51,7.42-1.67,11.52-0.81c5.23,1.1,9.61,4.05,14.6,5.52
		c3.83,1.12,4.92,2.94,1.86,6.13c-0.43,0.45-0.57,1.18-0.85,1.77c-1.65,3.06-4.08,5.54-6.41,8.03c-2.57,2.76-1.44,3.31,1.47,4.43
		c4.35,1.67,6.87,0.51,8.38-3.66C-252.01,41.5-249.7,46.81-254.9,50.94z"/>
	<path class="st12" d="M-43.45,98.88c-1.23,1.02-2.26,2.09-4,2.59c-7.75,2.23-15.41,4.76-23.11,7.19
		c-2.09-6.17-1.16-8.54,4.49-10.76c4.14-1.63,6.3-5.3,9.01-8.4c0.54-0.62,0.98-1.48,0.27-2.22c-0.83-0.88-1.73-0.63-2.63,0.09
		c-2.2,1.77-4.37,3.6-6.71,5.17c-1.32,0.89-3.1,2.3-4.52,1.24c-1.53-1.15-0.05-3.06,0.18-4.63c0.07-0.46,0.1-0.94,0.2-1.96
		c-2.08,0.56-3.89,1.15-5.74,1.5c-0.99,0.19-2.46,1.1-2.95-0.59c-0.44-1.54,0.63-2.5,2.01-2.96c2.2-0.74,4.53-1.17,6.61-2.14
		c1.64-0.76,3.28-2.23,3.01-4.21c-0.29-2.18-2.05-3.23-4.31-3.4c-1.15-0.09-2.37-0.27-3.38-0.76c-1.16-0.56-1.37-1.81-1.12-3.04
		c0.28-1.39,1.39-1.39,2.31-1.03c3.33,1.32,4.33-0.52,5.75-3.21c3.13-5.95,8.39-8.97,16.16-9.38C-56.23,63.65-60,68.6-63.84,73.65
		c2.82,1.5,4.37,0.31,5.72-1.63c2.34-3.38,4.72-6.75,7.08-10.12c2.68,0.48,1.99,2.52,1.79,4.17c-0.32,2.58-1.4,5.04-1.22,7.77
		c2.26-3.23,1.32-7.61,3.48-10.93c2.2,0.4,0.96,2.42,2,3.14c0.69,2.72,1.33,5.46,2.1,8.16c0.32,1.1,0.89,2.46,2.32,2.12
		c1.84-0.44,0.71-1.95,0.5-2.85c-0.94-4.14-2.05-8.23-3.38-13.4c6.22,3.41,8.26,8.19,9.31,13.66c0.27,1.41-0.33,2.97,0.92,4.23
		c2.29,2.32,2.54,3.45-1.3,4.89c-2.83,1.06-6.02,3.48-6.23,7.54C-40.9,93.45-42.65,96.02-43.45,98.88z"/>
	<path class="st27" d="M-451.99,128.89c-4.61-0.03-8.7,3.63-14.05,1.76c2.55-3.41,6.15-5.32,9.22-7.78
		c4.14-3.33,4.21-4.67,0.18-7.94c-3.63-2.95-7.28-5.87-11.71-9.44c5.3-0.2,8.37,2.93,12.06,4.14c2.87,0.94,5.99,4.23,8.42,2.72
		c2.6-1.61,0.01-5.5,0.07-8.41c0.1-4.84-0.76-9.72,0.27-15.96c3.06,7.79,5.58,14.22,8.29,21.13c3.76-5.68,4.02-12.38,8.48-17.99
		c-0.13,7.71-1.95,14.56-0.86,22.01c6.08-3.37,11.7-6.57,17.4-9.61c1.71-0.91,3.39-2.48,5.05,0.87c1.79,3.62-1.47,3.34-2.61,3.86
		c-4.16,1.9-8.53,3.35-12.86,4.88c-1.27,0.45-2.75,0.66-3.19,2.06c-0.67,2.15,1.7,2.19,2.65,2.97c4.26,3.45,8.77,6.59,13.84,10.32
		c-4.68,1.14-7.55-1.48-10.76-2.53c-1.27-0.41-2.55-1.35-3.73-0.64c-1.52,0.92-0.2,2.44-0.12,3.65c0.3,4.77,2.8,9.15,2.62,14.43
		c-3.93-1.58-5.84-5.1-8.3-7.88c-1.81-2.05-3.38-5.72-5.57-5.64c-2.69,0.1-2.24,4.17-3.28,6.48c-0.69,1.53-1.33,2.98-1.52,4.63
		c-0.5,0.61-0.33,1.79-1.2,1.97c-0.95,0.2-1.44-0.67-1.56-1.5c-0.34-2.44-0.15-4.9-0.16-7.35
		C-444.96,127.41-445.18,127.23-451.99,128.89z"/>
	<path class="st24" d="M-90.87,28.17c-0.72-3.56-1.3-6.64-1.99-9.7c-0.45-1.99,0.69-3.08,2.03-4.16
		c18.74-15.15,37.49-30.28,56.18-45.49c1.63-1.32,2.79-1.58,4.13,0.12c0.21,0.26,0.43,0.51,0.67,0.74c7.87,7.75,7.89,7.78-0.9,14.3
		c-18.54,13.76-37.11,27.5-55.68,41.23C-87.73,26.16-89.13,27.01-90.87,28.17z"/>
	<path class="st28" d="M-84.53,112.05c-1.64,2.83-4.71,2.76-7.33,3.62c-6.92,2.26-13.84,4.52-20.75,6.8
		c-0.98,0.32-1.92,0.57-2.8-0.21c3.79-5.41,7.69-10.76,11.34-16.27c1.72-2.6,3.67-3.43,6.66-2.6c2.38,0.66,4.87,1.21,7.32,1.25
		C-84.82,104.72-83.09,107.11-84.53,112.05z"/>
	<path class="st29" d="M-378.01,112.27c-0.62,2.02,0.55,3.56,1.61,4.94c2.07,2.69,0.37,4.4-1.5,5.72c-2.68,1.89-2.6-1.31-3.56-2.39
		c-0.97-1.08-1.64-2.43-2.43-3.66c-1.3-4.84-4.59-8.74-6.4-13.36c-0.68-1.73-2.34-1.39-3.89-0.94c-3.01,0.87-6.04,1.7-9.11,2.34
		c-2.42,0.51-3.83-1.04-4.32-3.13c-0.66-2.85,1.75-2.47,3.43-2.96c2.37-0.7,4.69-1.61,6.98-2.56c6.16-2.54,7.75-1.74,11.13,3.84
		C-383.57,104.26-382.58,109.49-378.01,112.27z"/>
	<path class="st30" d="M-376.86,129.91c3.41-4.79,6.52-2.14,9.62,0.4c-1.56,2.52,0.99,3.91,1.71,5.75c0.88,2.27,2.64,4.2,3.45,6.48
		c0.45,1.27,3.27,2.88,0.89,3.96c-2.02,0.92-4.96,2.18-6.98-1.1C-371.29,140.36-372.89,134.47-376.86,129.91z"/>
	<path class="st31" d="M-252.65,36.46c-0.03,6.87-0.03,6.87-6.87,5.17c-7.62-1.9-7.66-1.93-2.78-7.77c1.87-2.24,3.22-5.05,6.21-6.19
		C-254.94,30.59-253.8,33.52-252.65,36.46z"/>
	<path class="st32" d="M-287.72,31.34c1.54-2.18,9.67-3.09,11.42-1.33c0.6,0.61,0.52,1.26,0.18,1.78c-2.17,3.33-3.88,7.22-6.79,9.71
		c-1.91,1.63-5.8,1.94-7.06-2.27C-289.21,36.61-288.47,33.98-287.72,31.34z"/>
	<path d="M2.95,139.82c0.25-1.13,0.66-2.88,1.02-4.64c0.3-1.48,0.57-3.38,2.59-2.6c1.57,0.6,3.94,2.22,2.9,3.94
		c-2.48,4.11-0.98,8.39-1.45,12.55c-0.17,1.46,0.06,3.35-1.91,3.46c-2.05,0.11-2.21-1.78-2.05-3.23
		C4.39,146.25,3,143.46,2.95,139.82z"/>
	<path class="st33" d="M-45,66.05c-0.82,0.65-1.02-4.04-2.08-0.29c-0.67,2.37-0.75,4.9-1.25,7.32c-0.33,1.6,0.13,4.33-2.74,3.61
		c-2.66-0.68-1.33-2.93-0.95-4.6c0.54-2.42,1.23-4.8,1.79-7.22c0.26-1.1,0.7-2.32-0.81-2.97c0.15-1.44,1.34-3.11,2.24-2.27
		C-47.04,61.3-43.51,62.35-45,66.05z"/>
	<path class="st34" d="M-451.99,128.89c1.95-1.95,4.48-2.68,6.8-1.53c2.35,1.17,0.99,3.85,1.14,5.86c0.19,2.63-0.2,5.34,0.23,7.92
		c0.35,2.08,1.17-0.23,1.82-0.15c0.53,2.65-0.82,4.33-3.17,6.04c-1.39-4.13-0.93-8.11-0.58-11.87
		C-445.28,130.08-447.07,128.16-451.99,128.89z"/>
	<path class="st35" d="M-74.67,109.27c-1.4,2.53-3.49,3.07-6.1,2.12c0.65-1.66-0.99-4.33,1.6-4.98
		C-77.18,105.91-75.51,107.26-74.67,109.27z"/>
	<path class="st36" d="M223.01,185.04c-3.14,2.43-2.19,5.91-2.33,9.11c-0.04,0.99-0.03,2.13-1.33,2.29
		c-1.14,0.14-1.3-0.71-1.17-1.63c1.51-1.44,1.05-3.33,1.11-5.07C219.35,187.19,220.12,185.31,223.01,185.04z"/>
	<path d="M-398.94,121.19c-0.08,1.12,0.06,2.58-1.23,2.35c-1.94-0.34-2.91-2.07-3.16-3.9c-0.15-1.11,0.44-2.53,1.82-2.37
		C-399.21,117.55-399.27,119.66-398.94,121.19z"/>
	<path d="M-441.95,157.25c-1.84,1.78-2.36,4.14-4.98,3.06c-0.84-0.34-2.03-1.49-1.47-2.24
		C-446.88,156.03-444.72,157.17-441.95,157.25z"/>
	<path class="st37" d="M478.6,67.46c-2.5-2.7-5-5.4-7.5-8.1c6.28-4.27,9.79-11.06,14.89-16.4c1.09-1.14,0.07-2.71-0.98-3.96
		c-6.15-7.36-6.79-12.13-0.29-19.27c9.16-10.06,17.16-21.02,26.08-31.23c0.44-0.5,0.87-1.02,1.35-1.47c1.32-1.25,2.9-3.21,4.63-1.75
		c2.03,1.7-0.49,3.41-1.37,4.51c-7.58,9.37-14,19.52-20.33,29.73c-0.52,0.85-1.29,1.55-0.61,3.09c5.71-5.37,9.96-11.75,14.95-17.49
		c4.01-4.61,7.96-9.28,11.91-13.95c0.92-1.09,1.48-2.98,3.41-1.68c1.84,1.24,0.66,2.47-0.17,3.78
		c-6.79,10.72-11.46,22.56-17.73,33.56c-0.68,1.2-1.12,2.37-0.26,4.23c5.94-8.2,11.73-16.14,17.46-24.13
		c2.41-3.37,4.68-6.85,7.01-10.28c1.09-1.6,2.57-3.28,4.44-2.02c1.98,1.33,0.42,3.22-0.46,4.7c-7.62,12.95-15.29,25.88-22.91,38.83
		c-0.38,0.65-1.15,1.29-0.39,2.56c3.05-1.61,4.16-4.82,5.98-7.33c7.38-10.15,14.65-20.38,21.89-30.63c1.22-1.72,2.2-3.53,4.69-2.01
		c2.64,1.61,0.48,3.29-0.16,4.66c-5.4,11.51-11.76,22.5-18.64,33.17c-3.17,4.92-7.74,8.73-12.92,11.47
		c-3.79,2.01-7.9,1.36-11.41-0.92c-3.62-2.35-5.95-1.2-8.35,1.81C488.26,56.59,483.88,62.41,478.6,67.46z"/>
	<path class="st2" d="M-159.7,135.9c-2.16,4.63-7.2,3.44-10.76,4.82c-13.78,5.32-27.81,10.01-41.79,14.84
		c-9.33,3.22-18.83,6.24-27.78,10.52c-1.39,0.66-1.69-0.33-2.5-0.47c-3.75-2.85-8.39-3.4-12.73-4.51c-3.85-0.99-5.9-2.3-4.76-6.66
		c0.54-2.06,0.73-4.35,0.43-6.45c-1.48-10.52,2.68-19.04,8.91-27.02c2.75-3.53,4.95-7.49,7.45-11.23c0.71-1.06,1.05-2.83,2.57-2.78
		c1.71,0.06,1.43,1.97,1.88,3.1c4.92,12.37,9.76,24.77,14.66,37.14c2.09,5.27,5.2,6.03,9.23,1.96c8.67-8.76,17.23-17.62,25.67-26.6
		c2.3-2.45,4.02-3.7,6.67-0.55c2.35,2.78,3.14,0.57,3.88-1.49c2.89-8.08,7.03-15.34,14.24-21.18c0.79,4.18,1.92,8.01,1.23,12.13
		c-0.74,4.43-1.44,8.87-2.06,13.32c-0.4,2.9-2.16,6.37,3.58,6.24C-158.9,130.96-160.1,134.12-159.7,135.9z"/>
	<path class="st38" d="M-289.5,168.47c1.8-13.49,3.53-26.51,5.27-39.53c1.41-10.55,3.21-21.07,4.11-31.66
		c0.72-8.46-1.37-16.86-2.18-25.29c-0.32-3.31-0.09-4.66,3.73-3.58c3.49,0.99,7.19,1.25,10.78,1.91c2.4,0.44,3.67,1.51,2.02,4.08
		c-12.35,19.26-12.83,41.57-16.13,63.15c-1.56,10.19-2.93,20.4-4.43,30.6c-0.16,1.07-0.08,2.62-1.74,2.52
		C-289.71,170.58-289.42,169.12-289.5,168.47z"/>
	<path class="st39" d="M-153.05,117.13c-0.11-4.09,1.91-6.82,5.49-8.53c0.75-0.36,1.57-0.57,2.27,0.14
		c0.73,0.74,0.36,1.47-0.05,2.21c-1.34,2.45-2.59,4.95-4.02,7.34c-0.6,1-0.8,2.98-2.51,2.36
		C-153.24,120.15-153.03,118.45-153.05,117.13z"/>
	<path class="st40" d="M-187.22,110.01c0.44-4.62,0.8-8.52,1.19-12.41c0.06-0.62,0.08-1.36,0.9-1.57c1.05-0.27,1.41,0.58,1.84,1.23
		C-180.8,101.06-182.26,106.71-187.22,110.01z"/>
	<path class="st41" d="M-267.14,47.04c1.62-0.53,2.79-2.62,4.89-1.47c1.9,1.04,0.65,2.57,0.55,3.92c-1.49,2.62-3.62,4.52-6.45,6.23
		C-268.92,52.32-267.05,49.8-267.14,47.04z"/>
	<path class="st42" d="M-399.96,174.95c1.87,0.27,3.55,1.51,3.83,3.49c0.24,1.68-1.56,2.28-3.09,2.47
		c-2.09,0.26-3.09-1.19-3.33-2.83C-402.76,176.64-402.22,175.1-399.96,174.95z"/>
	<path class="st43" d="M-385.39,181.27c-2.1-0.13-4.23-0.28-4.29-2.97c-0.04-1.61,1.15-3.18,2.69-2.73
		c2.13,0.61,4.26,2.26,4.66,4.44C-382.04,181.58-384.3,180.98-385.39,181.27z"/>
	<path class="st44" d="M-367.81,180.53c-3.3,0.68-5.94,1.88-7.89-0.95c-0.52-0.76-0.61-2.3,0.45-2.66
		C-372.13,175.85-369.99,177.44-367.81,180.53z"/>
	<path class="st45" d="M-78.2,148.52c0.39-1.26,1.55-1.14,2.5-1.4c4.85,1.72,9.62,3.72,14.57,5.08c4.09,1.12,4.53,3.12,2.77,6.47
		c-1.16,2.2-2.11,4.51-3.25,6.72c-3.5,6.85-7.67,8.24-14.69,5.04c-3.18-1.45-4.98-3.73-4.87-7.36
		C-81,158.04-80.16,153.17-78.2,148.52z"/>
	<path class="st46" d="M250.38,174.66c-0.8-2.37,0.8-4.53,0.62-6.85c-0.18-2.26,1.11-2.85,3.1-2.76c2.31,0.11,2.09,1.79,1.99,3.23
		c-0.49,7.28-1.85,14.47-2.68,21.72c-1.05,9.17-3.08,18.23-3.56,27.48c-0.13,2.48-0.59,5.23-3.42,4.8
		c-2.94-0.44-1.66-3.24-1.45-5.36c0.95-9.38,3.05-18.63,3.19-28.09c0.03-2.21,0.55-4.24,1.2-6.29
		C254,180.47,252.39,177.59,250.38,174.66z"/>
	<path class="st47" d="M151.09,185.66c8.58,9.36,5.75,18.95-5.8,22.49c-0.63-0.79-0.17-1.56,0.05-2.33
		C147.19,199.31,149.05,192.81,151.09,185.66z"/>
	<path class="st48" d="M128.35,207.22c1.82-7.63,3.46-14.52,5.11-21.39c0.19-0.77,0.4-1.86,1.42-1.61c0.65,0.16,1.24,0.97,1.67,1.62
		C141.53,193.44,138.04,203.34,128.35,207.22z"/>
	<path class="st49" d="M-54.38,140.87c0.31-0.63-1.24-1.22-0.39-1.49c4.9-1.5,9.87-2.78,14.81-4.14c-1.82,3.81-0.97,7.2,1.05,10.78
		c1.87,3.31,4.25,6.56,4.14,10.94C-40.88,150.96-43.58,140.88-54.38,140.87z"/>
	<path class="st50" d="M239.67,183.7c-0.11,3.61,1.02,7.27-0.51,10.81c0.12-2.81,0.31-5.57-4.02-3.76c-0.99,0.42-2.3,0.16-3.46,0.09
		c-0.86-0.05-1.71-0.48-1.86-1.37c-0.18-1.05,0.71-1.33,1.56-1.49C234.58,187.4,236.97,185.24,239.67,183.7z"/>
	<path class="st51" d="M28.9,153.62c0-3.86-0.07-6.31,0.03-8.76c0.04-1.16-0.55-2.96,1.55-2.91c1.48,0.03,2.42,1.24,2.63,2.57
		C33.63,147.8,32.26,150.39,28.9,153.62z"/>
	<path class="st52" d="M71.99,149.62c-0.9,2.24-1.82,4.72-2.93,7.12c-0.31,0.68-1.21,0.51-1.65-0.08c-1.21-1.61-1.28-3.46-0.46-5.18
		c0.78-1.64,1.93-3.15,3.93-3.45C71.73,147.9,71.88,148.67,71.99,149.62z"/>
	<path class="st53" d="M90.62,267.19c-2.72-8.49-1.64-17.2-0.8-25.84c0.3-3.09,1.38-6.12,2.3-9.12c0.35-1.14,0.86-2.85,2.74-1.77
		c1.34,0.77,1.59,1.96,0.94,3.42c-0.81,1.82-1.46,3.7-2.2,5.54c-0.94,2.38,0.24,3.03,2.33,2.77c4.12-0.51,7.73-1.85,9.61-6.02
		c0.49-1.08,0.61-3.09,2.5-2.27c2.09,0.91,0.68,2.57,0.2,3.81c-2.06,5.34-5.95,8.51-11.73,8.31c-3.96-0.14-4.76,1.49-4.62,4.96
		c0.21,5.38,0.06,10.78,0.06,16.17C91.51,267.18,91.06,267.19,90.62,267.19z"/>
	<path class="st54" d="M268.18,175.69c-1.71,10.33-3.65,21.72-5.46,33.12c-0.49,3.1-0.61,6.27-0.91,9.41
		c-0.22,2.33-0.15,5.05-3.52,4.89c-3.7-0.18-2.42-3.31-2.06-4.93c2.63-11.77,2.71-23.89,5.23-35.68c0.72-3.38,0.43-6.96,0.87-10.41
		c0.24-1.94-0.31-5,2.88-4.81c3.08,0.18,3.13,2.88,2.98,5.32C268.14,173.25,268.18,173.91,268.18,175.69z"/>
	<path class="st15" d="M312.01,16.96c0.69,1.58,1.32,3.2-1.06,3.88c-0.84,0.24-1.63-0.15-1.82-1.14c-0.47-2.45,1.19-2.64,2.94-2.71
		C312.08,16.99,312.01,16.96,312.01,16.96z"/>
	<path class="st55" d="M-43.92,111.09c1.1-3.4,3.92-1.58,6.01-1.98C-39.02,112.46-41.84,110.67-43.92,111.09z"/>
	<path class="st55" d="M-49.95,113.06c1.18-3.18,3.88-1.73,6.02-1.97C-45.08,114.36-47.86,112.67-49.95,113.06z"/>
	<path class="st56" d="M-47.75,97.77c-0.77-3.42,0.48-5.81,1.18-8.21c0.31-1.07,1.35-2.03,2.75-1.38c1.28,0.6,1.4,1.79,1.05,2.99
		C-43.51,93.64-45.06,95.53-47.75,97.77z"/>
</g>
</svg>
