<?xml version="1.0" encoding="utf-8"?>
<!-- Generator: Adobe Illustrator 25.4.1, SVG Export Plug-In . SVG Version: 6.00 Build 0)  -->
<svg version="1.1" id="Layer_1" xmlns="http://www.w3.org/2000/svg" xmlns:xlink="http://www.w3.org/1999/xlink" x="0px" y="0px"
	 viewBox="0 0 140 440" style="enable-background:new 0 0 140 440;" xml:space="preserve">
<style type="text/css">
	.st0{fill:#FDFDFD;}
	.st1{fill:#7900AB;}
	.st2{fill:#E39E06;}
	.st3{fill:#7C02AB;}
	.st4{fill:#E39C00;}
	.st5{fill:#E49E06;}
	.st6{fill:#7C03AB;}
	.st7{fill:#7D02AC;}
	.st8{fill:#7A05A7;}
	.st9{fill:#FEFEFE;}
	.st10{fill:#FCFCFD;}
	.st11{fill:#FCFCFC;}
	.st12{fill:#F6F6F8;}
	.st13{fill:#EEEDF0;}
	.st14{fill:#E9E5EC;}
	.st15{fill:#977547;}
	.st16{fill:#F7F7F7;}
	.st17{fill:#F0F0F0;}
	.st18{fill:#E7E7E7;}
	.st19{fill:#F8F7FB;}
	.st20{fill:#F7F6FB;}
	.st21{fill:#F9F8FB;}
	.st22{fill:#F6F5FA;}
	.st23{fill:#FAFBFB;}
	.st24{fill:#F7F5EE;}
</style>
<g>
	<path class="st0" d="M69.83-172.89c231.77,0,463.55,0.01,695.32-0.11c4.07,0,4.85,0.84,4.85,4.87
		c-0.12,258.39-0.12,516.79-0.01,775.18c0,3.88-0.54,4.95-4.77,4.95c-463.55-0.13-927.09-0.13-1390.64-0.03
		c-3.77,0-4.58-0.88-4.58-4.6c0.1-258.56,0.1-517.12,0.01-775.68c0-3.6,0.57-4.69,4.5-4.68
		C-393.72-172.88-161.94-172.89,69.83-172.89z"/>
	<path d="M-493.35,365.2c13.36-12.98,28.25-23.71,45.8-30.29c3.86-1.45,1.99-3.59,1.21-5.38c-3.57-8.22-6.03-16.72-7.63-25.55
		c-4.05-22.31-1.51-43.85,7.6-64.52c14.24-32.32,38.32-53.58,72.25-63.8c22.53-6.79,44.83-6.11,67.13,0.79
		c0.94,0.29,1.93,0.42,2.89,0.62c1.71,1.42,1.43,3.28,0.92,5.04c-4.05,14.19-7.81,28.52-14.46,41.75
		c-6.85,13.62-14.1,27.06-24.65,38.36c-3.16,3.39-5.51,7.45-8.53,11c-2.31,2.71-1.81,5.63,0.02,8.74c1.61,2.75,5.04,5.5,1.79,9.31
		c-11.98,13.58-25.07,26.12-36.97,39.79c-2,2.3-2.49,3.44,0.75,5.02c6.81,3.32,11.91,8.78,16.71,15.26
		c4.31-9.85,7.05-19.59,10.62-29.02c4.24-11.18,7.5-22.72,12.12-33.77c10.36-10.11,18.9-21.89,29.16-32.11
		c15.16-10.23,30.32-20.47,45.44-30.76c4.35-2.96,4.32-2.96,1.08-7.2c-5.32-6.98-12.95-11.41-19.23-17.34
		c-1.38-2.65-0.46-13.08,1.37-15.16c0.47-0.53,1.16-0.45,1.8-0.24c23.08,13.01,39.47,31.86,49.38,56.39
		c6.36,15.74,9.48,32.18,8.13,49.04c-1.97,24.65-10.35,46.87-26.59,66.07c-13.55,16.02-30.1,27.49-49.69,34.3
		c-15.66,5.44-31.97,7.71-49.11,5.69c1.96,8.43,3.89,16.75,5.81,25.06c0.45,1.94,1.25,3.9,1.21,5.83c-0.2,9.27,4.62,14.7,12.9,17.8
		c1.84,0.69,3.54,1.87,5.17,3.01c7,4.87,14.35,4.97,21.73,1.28c12.95-6.49,25.7-13.38,38.67-19.81
		c11.11-5.51,22.83-8.91,35.26-10.38c25.04-2.96,44.24,6.23,58.45,26.64c3.71,5.33,7.72,10.53,10.67,16.27
		c3.31,6.43,7.94,10.7,14.53,13.49c6.58,2.79,12.91,6.19,19.29,9.44c1.77,0.9,3.07,1.03,5.02,0.03
		c20.11-10.31,40.93-18.09,63.72-20.59c21.69-2.38,39.14,5,54.14,19.89c4.26,4.23,8.47,8.5,12.6,12.85
		c14.69,15.47,32.54,19.73,52.96,15.12c14.44-3.26,28.69-7.23,43.35-9.64c26.72-4.4,50.05,2.9,71.17,18.96
		c9.18,6.98,17.42,14.97,25.13,23.52c0.81,0.9,2.37,1.8,1.53,3.34c-0.65,1.19-2.13,0.66-3.21,0.76c-2.15,0.2-4.32,0.2-6.48,0.18
		c-250.94-3.08-501.87-6.17-752.81-9.27c-2.14-0.03-3.88,0.75-4.26-3.26c-0.84-8.95,0.78-17.54,2.14-26.16
		c6.25-39.54,23.19-74.77,44.22-108.3c3.72-5.92,7.63-11.73,11.45-17.59c2.3-2.35,5.1-1.86,7.84-1.26c1.33,0.29,2.74,0.89,3.71-0.3
		c2.6-3.2,4.76-6.74,7.65-9.73c1.06-1.1-0.09-1.95-0.9-2.87C-492.95,369.79-494.98,368.02-493.35,365.2z"/>
	<path d="M725.06,269.97c-1.88,2.52-1.47,5.91-3.36,8.62c-11.7,16.72-25.49,31.5-40.85,44.91c-9.54,8.33-18.29,17.51-26.58,27.08
		c-8.2,9.48-17.13,18.14-26.83,26.05c-10,8.15-18.8,17.38-25.82,28.27c-3.7,5.74-4.84,5.99-8.27,0.42
		c-8.36-13.56-21.64-17.75-36.06-20.35c-9.04-1.63-18.14-2.43-27.29-2.88c-14.73-0.72-29.38-0.51-44.19-2.89
		c-19.32-3.1-34.34-12.35-46.15-26.43c-11.87-14.15-18.7-31.37-22.05-49.7c-2.58-14.11-5.87-28.26-11.4-41.27
		c-4.27-10.04-12.08-19.09-23.37-23.31c-6.08-2.27-12.2-4.46-18.39-6.41c-3.07-0.96-4.69-2.94-5.6-5.76
		c-1.02-3.17,1.92-3.99,3.52-5.33c49.85-41.52,99.79-82.93,149.61-124.48c4.83-4.03,10.16-2.47,14.72-1.33
		c12.83,3.19,24.79,9.27,32.58,20.03c6.92,9.56,13.84,19.37,17.87,30.93c4.65,13.33,10.5,26.26,15.96,39.31
		c4.38,10.48,12.04,17.72,22.38,22.35c12.02,5.39,24.2,10.01,37.26,12.51c14.7,2.82,29.17,6.89,42.43,14.13
		c13.77,7.52,23.58,18.68,29.07,33.49C724.49,268.54,724.74,269.15,725.06,269.97z"/>
	<path class="st1" d="M12.68,125.27c-1.86,5.62-3.21,11.43-6.77,16.36c-4.8,6.66-10.63,11.24-19.46,10.4
		c-1.59-0.15-3.32-0.39-4.81,0.64c-2.17,1.73-4.18-0.04-5.93-0.68c-3.85-1.41-6.81-0.29-9.67,2.05
		c-8.29,6.76-17.58,11.15-28.31,12.49c-3.59,0.45-6.96,2.34-10.74,1.88c-9.88-0.02-19.75,0.16-29.61,0
		c-3.56,0.15-6.88-0.58-9.99-2.48c-1.8-1.11-4.36-2.65-5.88-0.7c-1.54,1.97,0.72,4.15,2.13,5.54c4.73,4.65,7.53,10.05,7.71,16.73
		c0.37,5.37-0.62,10.83,1.2,16.08c0.35,16.12-4.38,31.31-9.42,46.25c-3.66,10.84-3.44,20.52,3.39,29.76
		c3.42,4.63,3.94,9.37,1.35,14.49c-1.51,6.98-3.03,8.33-10,8.43c-6.96,0.1-14.05,0.83-20.87-0.16c-10.21-1.49-20.39-1.89-30.64-1.94
		c-1.37-0.01-2.56-0.61-3.72-1.28c-3.3-0.31-6.6-0.65-9.9-0.91c-1.51-0.12-3.1-0.06-3.88-1.67c-0.92-1.91-3.11-3.77-2.41-5.76
		c0.68-1.95,3.47-1.28,5.32-1.64c11.36-2.21,22.95-3.1,34.18-6.08c6.07-2.97,6.31-3.6,4.04-10.78c-1.79-5.66-4.12-11.14-5.4-16.96
		c-5.95-19.15-11.77-38.35-17.88-57.45c-0.71-2.21-1.57-4.37-1.94-6.68c-1.87-6.32-4.01-12.56-5.35-19.03
		c-1.15-7.74-2.18-15.49-1.8-23.36c0.14-2.84,0.47-5.62,1.11-8.39c1.8-7.8,6-12.34,14.53-13.28c22.17-2.44,44.16-6.27,66.26-9.3
		c1.44-0.2,2.96-0.23,4.62-1.17c-3.89-3.99-7.79-7.62-9.54-12.84c-0.63-1.87-2.33-1.38-3.85-0.99c-20.23,5.2-33.25-2.49-38.32-22.58
		c-1.39-5.53-1.33-5.42-6.39-2.57c-14.81,8.34-30.99,10.82-47.67,10.45c-3.74-0.08-6.33,0.41-8.35,3.75
		c-4.86,8.03-12.29,12.9-20.82,16.38c-8.5,3.46-17.39,5.57-26.12,8.21c-9.17,2.77-18.37,2.29-27.51,3.62
		c-4.41,0.37-8.83,1-13.16-0.49c-4.28-4.91-6.28-11.17-9.67-16.62c-2.56-4.11-2.79-4.3-5.56-0.38c-3.05,4.32-5.93,8.77-8.81,13.21
		c-3.06,4.67-3.68,4.73-10.24,1.06c-0.21-0.25-0.43-0.51-0.64-0.76c-1.56-1.9-5.85-0.3-5.72-3.54c0.08-1.91,2.51-3.74,3.94-5.56
		c9.24-11.77,18.55-23.49,27.69-35.34c2.02-2.62,3.22-3.01,5.55-0.28c5.5,6.45,11.41,12.56,16.97,18.96
		c2.04,2.35,2.91,2.56,5.89,0.48c7.34-5.11,15.43-9.15,23.23-13.6c18.06-10.31,36.15-20.55,54.16-30.95
		c4.56-2.63,8.84-5.73,13.78-8.96c-6.51-1.48-12.34-2.58-18.04-4.14c-13.36-3.65-25.48-9.62-34.96-20.04
		c-1.46-1.61-3.09-1.68-4.94-1.66c-18.12,0.25-33.31-6.76-46.11-19.16c-3.25-3.14-7.02-3.46-10.6-2.73
		c-4.55,0.92-8.17,0.41-11.33-2.96c-0.86-0.91-1.59-1.11-2.13,0.29c-1.96,0-1.95-1.63-1.98-2.8c-0.12-4.32-1.47-8.42-2.14-12.63
		c-0.38-2.38-0.33-5.85-3.25-5.93c-3.16-0.09-7.04-0.39-9.29,3.08c-0.36,0.55-0.65,1.14-1.16,1.58c-2.71-2.74-5.96-3.93-9.84-4.42
		c-5.16-0.65-7.39-4.56-8.26-9.36c-0.2-6.27,1-7.62,7.1-7.83c2.95-0.1,5.9-0.08,8.85-0.33c5.48,0.66,11.03-0.17,16.5,0.81
		c8.82,1.89,16.89,5.9,25.14,9.27C-246.94-22.61-198.7-8.67-151.1,7.12c1.16,0.39,2.5,1.37,3.37-0.49c2.67,0.57,5.19,0.86,7.95-0.27
		c3.09-1.26,6.6-1.1,9.83-0.44c15.39,3.18,30.95,5.37,46.4,8.15c0.49,0.09,0.91,0.39,1.31,0.67c0.19,1.91,1.33,2.98,3,3.9
		c5.08,2.78,9.58,6.48,14.44,9.62c1.74,1.12,3.82,2.13,4.32,4.54c0.1,3.1-1.22,5.87-2.23,8.66c-3.22,8.84-3.34,18.28-5.53,27.3
		c-1.29,5.3-1.85,5.59-7.34,4.25c-18.59-4.52-37.16-9.09-55.78-13.47c-3.69-0.87-6.17-0.27-7.65,3.33c-0.19,0.46-0.49,0.87-0.74,1.3
		c-5.18,8.9-5.19,8.97,5.06,11.22c20.3,4.47,40.59,8.96,60.99,12.95c4.58,0.89,7.42,3.04,10.09,7.03
		c14.16,21.15,33.9,32.21,59.74,31.43c4.68-0.14,9.29-0.68,13.81-1.93C10.89,124.61,11.9,124.27,12.68,125.27z"/>
	<path d="M12.68,125.27c-16.88,5.45-33.32,4.03-49.05-3.85c-12.59-6.31-23.56-14.64-29.68-27.94c-1.17-2.55-3.58-2.82-5.78-3.29
		c-18.14-3.85-36.3-7.59-54.45-11.41c-5.8-1.22-11.55-2.66-17.36-3.83c-2.78-0.56-2.73-2.26-1.74-4.01
		c2.42-4.31,5.1-8.49,7.67-12.72c0.86-1.41,2.12-1.34,3.48-1c12.03,3.04,24.05,6.12,36.1,9.08c8.37,2.06,16.81,3.84,25.15,5.98
		c2.65,0.68,2.97-0.32,3.38-2.55c1.71-9.42,2.33-19.06,5.48-28.22c1.08-3.12,1.93-6.32,2.89-9.49c-0.44-2.73,1.2-4.78,2.42-6.9
		c1.41-2.45,0.87-3.52-1.9-4.04c-5.39-1.03-10.83-1.81-16.19-3.02c-1.85-0.42-4.08-0.27-5.19-2.39
		c-13.16-2.22-26.33-4.44-39.49-6.68c-3.58-0.61-7.13-1.33-10.71-1.93c-3.53-0.59-6.97-0.39-10.01,1.79
		c-3.07,2.21-4.62,0.88-5.44-2.25c-0.27-4.55,4.54-3.51,6.36-5.77c5.16-4.99,10.89-7.58,18.38-5.83c5.77,1.34,11.84,0.74,17.73,1.61
		c2.19,0.32,4.22,0.64,5.87,2.21c17.37,1.95,34.75,3.87,52.11,5.91c2.61,0.31,4.38-0.23,5.9-2.51c3.05-4.58,6.76-8.62,10.66-12.52
		c1.79-1.78,3.12-2.22,5.57-0.97c6.04,3.09,11.9,8.75,18.24,8.44c6.31-0.3,12.42-5.11,18.6-8c15.53-7.27,31.07-14.52,46.53-21.92
		c2.75-1.31,4.59-1.26,6.97,0.92c9.44,8.66,19.04,17.16,28.76,25.52c2.9,2.5,3.38,3.58-0.46,5.73
		C78.95,7.55,64.63,16.03,50.23,24.38c-0.69,0.4-1.34,0.84-2.78,1.74c9.21,4.77,17.82,9.25,26.45,13.69
		c29.16,15,58.29,30.05,87.52,44.9c4.29,2.18,5.63,5.47,4.27,9.38c-12,34.65-42.15,55.51-71.26,57.59
		c-16.74,1.19-30.3-4.82-39.37-19.58c-3.75-6.1-7.75-12.05-10.22-18.82c-1.2-3.27-2.75-3.86-5.87-1.95
		C30.5,116.51,21.99,121.66,12.68,125.27z"/>
	<path d="M636.16-16.6c-77.97-0.4-155.95-0.8-233.92-1.19c-23.66-0.12-47.32-0.17-70.98-0.32c-2.29-0.01-5.14,1.02-6.16-2.58
		c-0.9-3.2-2.02-5.77,1.22-8.9c19.32-18.69,40.36-34.79,65.58-44.73c17-6.7,34.06-4.47,50.89,0.87c3.96,1.26,6.99,4.47,10.2,7.11
		c2.24,1.85,3.91,2.06,6.54,0.4c10.23-6.47,20.28-13.03,29.41-21.15c16.78-14.94,37.16-18.96,58.77-15.88
		c12.05,1.72,23.85,4.03,36.35,1.28c-6.91,9.68-13.83,19.37-20.74,29.05c-4.16,5.82-8.41,11.59-12.41,17.51
		c-0.9,1.32-4.11,3.04-1.29,4.65c2.18,1.24,5.29,3.24,8.05-0.16c6.39-7.89,12.96-15.63,19.47-23.42
		c11.52-13.79,23.24-27.42,34.46-41.44c4.31-5.39,9.94-7.7,16.08-9.23c23.94-6,47.11-4.76,69.32,7.16
		c10.56,5.67,21.4,10.78,31.38,17.52c3.64,2.45,5.22,5.26,5.1,9.87c-0.62,22.98-0.94,45.97-1.16,68.96
		c-0.04,3.92-0.86,5.48-5.24,5.37c-17.65-0.42-35.31-0.42-52.97-0.58c-4.93-0.07-11.27-6.95-11.98-13.02
		c-0.54-4.58,4.46-11.6,9.88-12.26c6.15-0.74,12.89-2.83,17.65,4.25c2.03,3.02,5.47,0.96,8.25-0.07c2.38-0.88,3.19-2.44,2.89-5.04
		c-0.74-6.59-4.72-10.69-11.41-10.96c-6.32-0.26-12.59-0.41-18.58,2.56c-3.52,1.74-5.25,0.23-4.21-3.57
		c1.88-6.91,5.57-12.79,11.49-17.03c5.69-4.07,11.22-1.65,16.42,1c3.2,1.63,4,1.14,4.12-2.29c0.25-6.94-1.03-8.75-7.95-10.32
		c-11.02-2.5-24.44,3.67-29.73,13.68c-2.53,4.79-3.56,4.94-7.61,0.85c-6.94-7-14.67-11.69-25.14-11.04
		c-9.69,0.6-12.3,2.25-15.25,12.52c6.73-3.35,13.27-5.76,20.6-5.14c6.51,0.55,11.85,2.97,15.91,8.15c1.57,2,2.26,4.24,1,6.49
		c-1.43,2.55-3.67,1.37-5.76,0.8c-12.32-3.38-26.95,5.6-29.48,18.18c-0.45,2.24-1.86,5.08,1.89,6.19c4.04,1.19,7.51-0.03,8.52-3.61
		c1.15-4.05,3.38-7.17,6.47-9.84c5.29-4.56,14.46-3.88,19,1.33c2.15,2.46,2.6,5.11,0.83,7.77c-3.6,5.39-6.15,11.43-10.25,16.5
		C640.2-18.53,638.99-16.36,636.16-16.6z"/>
	<path class="st1" d="M-99.39-1.15c-9.99-1.1-19.95-2.58-29.97-3.13c-4.38-0.24-7.81,3.82-12.01,5.15c0-1.16,0.02-2.31,0-3.47
		c-0.13-6.26-0.06-5.85-6.3-4.66c-11.29,2.14-25.52-4.69-25.64-18.19c-0.01-1.16-0.14-2.32-0.2-3.48c-0.43-7.78-0.42-7.66-8.6-7.05
		c-2.57,0.19-6.48,1.83-7.43-1.45c-0.98-3.36-1.46-7.57,2.3-10.49c3.84-2.98,6.59-7,9.46-10.86c2.24-3,2.22-5.78-1.73-7.5
		c0.23-2.44,2.51-2.46,4-2.99c17.14-6.1,33.84-13.33,50.96-19.49c4.22-1.52,7.96-4.07,12.05-5.86c2.38-1.04,4.87-2.45,7.4-0.22
		c4.91,8.5,14.08,9.21,22.08,12.05c2.17,0.77,2.8-0.8,3.54-2.42c1.11-2.44,2.99-3.97,5.83-3.93c2.77,0.04,4.28,1.71,4.94,4.15
		c0.91,3.34,3.02,2.9,5.44,2.01c6.79-2.52,12.75-6.34,18.34-10.94c9.24-7.59,18.22-15.57,29.64-20.02
		c9.42-3.67,18.96-4.55,27.1,1.89c17.59,13.93,34.54,10.66,49.97-2.28c22.08-18.53,61.62-14.09,79.18-0.2
		c15.81,12.5,31.61,12.15,49.02,4.2c11.23-5.13,21.29-12.36,32.78-16.95c14.79-5.91,46.03-2.84,59.01,12.49
		c5.99,7.08,7.93,14.34,6.08,23.03c-3.82,17.99-23.15,36.72-41.15,39.33c-10.69,1.55-21.39,0.41-31.55-3.14
		c-14.52-5.07-27.8-2.99-40.43,5.33c-15.29,10.08-31.35,9.49-47.79,3.34c-11.05-4.14-21.69-9.69-33.55-11.17
		C70.9-60.88,49.25-59.9,30.14-45.16C4.68-25.53-24.92-31.67-48.33-50.44c-3.8-3.05-7.82-5.64-12.4-7.32
		c-3.79-1.39-7.38-3.03-10.25,1.97c-1.48,2.58-4.83,2.4-6.49,0.26c-3.02-3.88-5.03-1.52-7.21,0.5C-91.16-49-94.81-41.07-98.93-33.47
		c-1.41,2.6-2.51,5.29-4.76,7.47c-5.8,5.62-0.78,11.16,1.03,16.31C-101.67-6.89-100.44-4.02-99.39-1.15z"/>
	<path d="M55.79,417.44c-6.36,1.94-12.93,1.17-19.31,0.75c-15.26-1-29.94-4.95-43.5-12.03c-30.19-15.77-49.76-40.3-58.73-73.17
		c-1.21-4.42-1.71-9.03-2.55-13.55c1.9-2.63,4.77-1.95,7.32-1.96c20.59-0.08,41.2,0.52,61.76-0.21c17.53-0.62,35.11-0.39,53.06-2.29
		c-0.87-2.73-3.69-3.97-4.35-6.49c-0.33-2.59,1.83-2.83,3.43-3.51c5.07-2.14,10.42-3.48,15.7-4.92
		c20.71-5.62,41.21-11.99,61.92-17.59c5.34-1.45,6.08-2.72,4.07-7.8c-2.19-5.56-4.65-11.01-7.64-16.24
		c-2.05-3.59-3.8-3.72-6.99-1.42c-17.13,12.37-34.4,24.53-51.55,36.88c-5.78,4.16-11.21,8.9-17.81,11.84
		c-2.86,1.45-4.72-0.13-6.43-2.14c-7.99-9.37-16.68-18.08-25.16-27.01c-12.93-13.62-25.78-27.32-38.54-41.1
		c-4.42-4.77-9.37-9.29-12.47-15.23c5.46-2.8,9.55-7.44,14.75-10.68c15.08-9.41,31.25-15.07,48.95-17.19
		c22.36-2.68,43.56,1.13,63.44,11.05c25.84,12.91,44.3,33.06,55,60.07c6.18,15.61,8.97,31.91,7.69,48.57
		c-1.89,24.64-10.38,46.78-26.55,65.92c-10.35,12.25-22.78,21.52-36.81,28.92c-3.6,4.39-9.09,5.31-13.96,6.86
		C72.58,416.3,64.37,418.49,55.79,417.44z"/>
	<path d="M-318.58-50.9c-5.37,1.38-10.76,1.4-16.16,0.16c-2.44-4.01-2.14-8.58-2.4-12.96c-0.78-12.93-1.98-25.82-3.15-39.77
		c-8.18,9.17-16.26,17.21-23.95,25.6c-3.15,3.44-6.34,6.83-9.61,10.15c-4.24,4.33-4.18,4.84,0.52,8.89
		c7.31,6.3,14.79,12.42,21.84,19.01c5.14,5.03,10.86,9.38,16.31,14.14c1.72-1.38,0.74-3.61,2.02-4.93
		c-0.05-2.91,0.96-4.61,4.29-4.24c1.08,0.12,2.26-0.38,3.36-0.69c5.48-1.54,6.63-0.74,7.54,5.08c0.91,5.8,1.9,11.58,2.86,17.37
		c0.59,5.62,1.12,11.25,1.8,16.87c0.37,3.04-0.83,3.96-3.84,4.18c-57.93,4.4-115.86,8.9-173.78,13.39
		c-6.31,0.49-12.62,0.88-18.91,1.54c-2.78,0.3-3.87-0.38-3.94-3.35c-1.03-42.11-2.12-84.22-3.35-126.33c-0.11-3.94,2.29-3.73,4.74-4
		c20.17-2.26,40.35-4.51,60.53-6.76c40.19-4.48,80.39-8.89,120.56-13.54c4.13-0.48,5.41,0.42,5.77,4.6
		C-323.37-101.27-320.93-76.09-318.58-50.9z"/>
	<path class="st2" d="M-31.95,220.25c22.89,24.36,45.78,48.72,68.65,73.09c3.05,3.25,6.11,6.5,9,9.9c1.14,1.34,2.27,2.33,4.07,2.36
		c0.9,0.26,0.74,0.72,0.25,1.25c1.5,3.91,5.66,5.76,8.38,10.99c-8.64,0-16.34-0.07-24.04,0.01c-33.07,0.37-66.13,0.79-99.2,1.22
		c-1.15,0.01-2.3,0.24-3.44,0.37c-0.5-0.07-0.99-0.18-1.49-0.17c-3.15,0.06-7.29-1.05-9.23,0.52c-2.77,2.25,1.45,4.95,2.2,7.6
		c3.96,13.93-6.45,30.33-20.57,34.11c-18.05,4.83-36.86-9.97-35.76-28.85c0.34-5.76,1.67-11.47,5.89-15.96
		c0.79-0.84,1.97-1.65,1.57-2.91c-0.51-1.63-2.23-1.17-3.44-1.32c-12.86-1.64-25.69-3.7-38.61-4.59c-6.33-0.44-8.8-3.22-9.64-8.75
		c14.39-1.24,28.6,1.91,42.95,1.8c4.48-0.03,8.98-0.09,13.44,0.31c4.5,0.4,6.84-1.19,7.06-5.78c0.04-0.93,0.06-2.05,1.31-2.41
		c4.4,0.78,6.91,4.31,10.06,6.91c3.84,3.18,4.6,3.02,5.84-1.71c6.97-26.7,14.36-53.29,21.49-79.94c1.72-6.43,1.63-6.57-4.87-7.84
		c-7.5-1.48-15.02-2.91-22.52-4.38c-2.02-0.4-4.42-0.19-5.66-2.47c-2.8-5.28-1.23-10.95-1.45-16.46c2.56-1.66,5.21-0.55,7.7,0
		c9.11,1.99,18.25,3.87,27.38,5.73c5.26,1.07,5.87,0.68,7.39-4.54c0.93-3.2,1.55-6.49,2.6-9.64c1.05-3.13-0.21-4.31-3.09-4.69
		c-4.62-0.61-9.2-1.5-13.88-1.68c-1.87-0.07-4.21,0.28-4.75-2.51c0.88-2.34,2.95-1.6,4.65-1.78c3.24-0.35,6.61,0.76,9.74-0.83
		c14.13-2.15,27.92-5.21,38.77-15.52c5.35-5.08,9.95-0.18,14.84,1c3.25,4.92,5.12,10.35,6.24,16.11c0.6,3.08-0.37,4.18-3.57,4.07
		c-8.46-0.27-16.94-0.19-25.4-0.44c-3.02-0.09-4.81,0.39-5.57,3.9c-1.33,6.14-3.29,12.15-5.12,18.18c-0.74,2.44-0.58,4.37,1.33,6.32
		C-44.2,207.22-38.1,213.76-31.95,220.25z"/>
	<path class="st3" d="M336.09,344.87c13.06,0.04,25.31-1,37.36,1.82c21.85,5.12,41.72,14.67,59.69,27.99
		c8.11,6.01,8.61,9.71,4.13,18.91c-4.15,8.53-8.54,16.94-12.69,25.47c-5.25,10.79-3.19,18.25,6.96,24.69
		c8.48,5.38,18,8.58,27.29,12.22c7.59,2.98,15.19,5.92,21.93,10.66c10.51,7.39,11.51,15.58,2.96,25.05
		c-7.08,7.84-15.95,13.57-23.91,20.39c-3.54,3.03-7.19,6-9.71,9.97c-3.9,6.14-2.06,11.33,4.76,13.82
		c6.68,2.44,13.69,2.66,20.67,2.88c21.08,0.68,41.83-2.69,62.69-4.9c37.59-3.97,74.88-10.32,112.44-14.44
		c12.7-1.39,25.55-2.22,38.33,0.39c4.11,0.84,5.41,2.65,4.85,6.83c-1.32,9.96-1.15,10.58-11.24,10.59
		c-31.77,0.05-62.8,7.17-94.36,9.36c-31.37,2.17-62.66,5.54-93.98,8.41c-8.45,0.77-16.88,2.03-25.34,2.36
		c-15.7,0.62-30.37-3.76-43.79-11.53c-7.08-4.1-8.57-12.27-4.97-19.85c4.57-9.64,12.37-16.44,20.75-22.55
		c6.04-4.41,12.5-8.23,18.75-12.37c2.22-1.47,4.48-2.93,6.48-4.67c5.03-4.38,4.77-7.88-1.39-10.44c-9.83-4.07-19.95-7.42-29.9-11.2
		c-12.98-4.93-22.21-15.03-32.28-23.9c-2.96-2.61-3.4-6.55-2.77-10.24c2.85-16.71,5.26-33.59,14.82-48.25
		c2.27-3.47,1.15-5.06-2.52-6.49c-23.58-9.17-47.08-18.54-70.6-27.85C339.88,347.37,338.03,347.12,336.09,344.87z"/>
	<path class="st4" d="M-331.87,116.87c1.99,0.53,4.09-0.05,6.1,0.89c2.67,1.25,1.38-3.32,3.75-2.8c8.36-3.13,16.16-1.07,23.8,2.54
		c1.9,2.91,4.8,1.17,7.23,1.48c2.13,0.27,4.32,0.05,6.48,0.05c3.33,1.38,4.52,4.17,4.85,7.47c0.22,2.15,0.1,4.32,0.1,6.48
		c0.01,11.25,6.24,18.88,17.51,21.09c25.76,5.06,51.36,10.91,77.14,15.9c1.84,0.36,4.09,0.26,4.97,2.59
		c3.27,2.82,1.67,7.27,3.59,10.75c1.15,2.08,2.92,4.79,2.13,7.77c-1.4,1.33-3.05,1.05-4.7,0.71c-17.23-3.59-34.53-6.85-51.89-9.76
		c-1.79-0.3-3.53-0.87-5.93-1.3c12.76,11.36,25.08,22.32,37.42,33.25c13.42,11.89,26.86,23.78,40.26,35.69
		c1.86,1.66,3.48,3.56,4.97,5.57c2.12,7.71,4.85,15.23,7.05,22.92c1.19,4.16,0.68,4.9-3.05,4.9c-1.32,0-2.64,0.03-3.96,0.04
		c-38.83-37.89-79.91-73.33-119.87-109.99c-2.57-2.36-5.17-4.68-7.73-7.05c-1.26-1.16-2.23-1.51-2.72,0.62
		c-1.44,6.29-2.84,12.58-1.78,19.11c-0.29,0.16-0.82,0.31-0.83,0.49c-0.31,4.83-3.37,9.36-1.62,14.41
		c-3.44,12.34-8.93,23.82-15.05,35c-4.03,7.36-7.79,14.89-12.52,21.85c-8.45,8.09-14.72,18.15-23.51,25.93
		c-1.91,1.69-3.6,3.64-5.39,5.47c-1.56,0.45-2.06,3.89-4.58,1.63c2.25-2.38,0.11-4.21-0.97-5.92c-4.58-7.28-4.43-9.36,1.41-15.75
		c12.38-13.54,22.39-28.71,30.23-45.24c5.83-12.29,10.31-25.11,13.31-38.43c0.61-2.7,1.96-5.23,1.59-8.12
		c2.25-11.42,4.18-22.88,4.24-34.57c0.01-2.14,0.23-4.33,0.74-6.4c1.25-5.09,0.9-5.74-4.13-5.26c-12.84,1.22-24.97,5.51-37.44,8.75
		c6.38,2.14,12.76,3.42,19.39,3.4c5.89-0.02,5.93,0.12,4.63,5.92c-2.24,10.03-2.24,9.92-12.7,9.38c-5.86-0.3-11.54-1.25-17.05-3.25
		c-10.76-3.91-14.39-16.39-7.22-25.25C-347.99,122.82-340.72,118.47-331.87,116.87z"/>
	<path class="st5" d="M218.5,89.46c16.57,0.93,33.27,1.24,48.47,9.49c5.24,2.85,9.67,6.44,13.19,11.15c1.86,2.49,3.17,3.3,6.22,1.2
		c6.22-4.28,13.39-6.57,20.77-8.11c19.07-4,32.69,5.19,44.5,18.55c4.58,5.19,7.43,11.38,9.61,17.91c1,2.99,1.07,5.27-2.93,5.58
		c-0.81,0.06-1.58,0.51-2.39,0.7c-13.98,3.42-9.28,4.6-17.65-6.64c-1.38-1.85-2.35-4.01-3.56-6c-8.13-13.4-25.25-16.19-37.13-6.08
		c-1.39,1.19-2.69,2.55-4.24,3.47c-2.73,1.62-2.96,3.7-2.68,6.72c2.06,22.36-4.71,41.92-19.4,58.79c-2.11,2.42-4.91,3.98-7.86,5.18
		c-8.72,3.53-16.31-0.36-19.15-9.31c-3.67-11.56-2.34-22.48,2.62-33.42c5.22-11.49,12.49-21.5,20.82-30.79
		c2.32-2.59,2.08-4.29,0.37-6.88c-3.84-5.81-9.26-8.83-15.9-10.21c-18.12-3.76-36.28-6.85-54.88-4.3c-2.07,0.28-2.41-0.49-1.76-2.2
		c1.78-4.68,4.04-9.12,6.51-13.46c0.82-1.44,2.15-1.35,3.49-1.35C209.85,89.46,214.17,89.46,218.5,89.46z"/>
	<path d="M131.91,45.4c1.81-18.37,3.67-36.73,6.14-55.03c0.45-3.34,1.27-4.54,4.86-4.23c31.33,2.65,62.67,5.17,94.01,7.6
		c2.87,0.22,4.16,0.72,3.64,4.04c-3.04,19.72-5.96,39.45-8.69,59.21c-0.29,2.13-4.19,3.3-1.53,6.38c0.32,0.37-3.18,0.62-4.79,0.48
		c-13.74-1.2-27.46-2.58-41.19-3.9c-15.73-1.51-31.44-3.32-47.2-4.38c-5.53-0.37-6.89-2.29-5.58-7.19
		C131.85,47.43,131.82,46.4,131.91,45.4z"/>
	<path class="st6" d="M55.79,417.44c13.6-0.98,26.31-5.2,38.72-10.53c2,1.82,4.18,0.33,6.18,0.14
		c67.61-6.53,135.22-13.15,202.82-19.75c17.23-1.68,34.47-3.29,51.69-5.05c2.78-0.29,3.99,0.3,3.9,3.31
		c-0.35,11.83,2.51,10.2-10.23,11.38c-51.56,4.77-103.12,9.6-154.68,14.42c-39.45,3.68-78.91,7.37-118.36,11.08
		c-2.06,0.19-3.86-0.14-5.75-1.07C65.59,419.17,60.87,417.6,55.79,417.44z"/>
	<path class="st5" d="M-493.35,365.2c1.23,2.15,0.58,5.34,4.2,6.21c1.69,0.41,1.13,2.16-0.02,3.52c-2.42,2.86-4.52,6-6.97,8.82
		c-1.52,1.75-2.72,4.63-6.07,1.47c-1.89-1.78-4.85,1.22-7.47,0.51c-1.09-1.66-2-3.47-3.29-4.95c-4.09-4.69-10.15-3.92-13.1,1.59
		c-0.55,1.02-1.02,2.1-1.44,3.18c-0.55,1.41-0.93,3.12-3.01,2.33c-1.58-0.6-2.67-1.54-2.8-3.63c-0.59-9.16,4.49-16.75,13.48-19.75
		c-7.75-4.04-23.65-1.72-29.88,4.25c-2.83,2.71-3.57,5.83-2.76,9.53c0.94,4.27,3.16,8.01,4.79,12c0.83,2.02,1.28,3.82-1.23,5.03
		c-2.31,1.12-4.23,3.12-7.11,0.59c-7.79-6.82-12.7-23.15-9.63-33.07c1.86-6.01,6.88-9.98,13.32-10.22
		c4.59-0.17,9.19-0.03,14.08-0.03c-0.83-2.09-2.71-2.58-4.23-3.27c-8.82-4.01-16.75-9.51-24.95-14.56c-3.4-2.09-3.81-4.22-1.83-7.73
		c2.1-3.71,4.09-2.52,6.85-1.12c9.82,4.99,20.25,8.81,29.78,15.02c-4.21-8.01-8.41-16.02-12.62-24.03c-1.08-2.06-2.2-4.1-3.27-6.17
		c-3.48-6.68-2.42-8.93,4.84-10.71c2.25-0.55,2.85,0.89,3.75,2.33c4.16,6.66,7.41,13.7,9.7,21.24c1.72,5.64,3.77,11.21,8.9,15.99
		c1.12-4.83,0.9-9.13,2.78-13.06c4.22-8.86,10.36-12.7,20.27-12.06c10.92,0.71,19.65,6.62,22.29,14.82c0.98,3.03-0.3,4.36-2.89,5.17
		c-2.48,0.78-4.61,1.51-5.79-2.18c-1.56-4.85-4.08-9.37-9.93-9.98c-8.15-0.84-13.85,5.79-11.99,14.11
		C-504.25,346.91-499.31,356.31-493.35,365.2z"/>
	<path class="st4" d="M636.16-16.6c4.88-2.65,6.24-8.08,9.41-12.08c1.9-2.4,2.96-5.46,4.57-8.12c2.59-4.27,1.32-8.14-3.41-9.93
		c-8.39-3.19-16.37,0.76-18.98,9.39c-1.69,5.59-7.58,8.44-12.94,6.25c-1.67-0.68-2.05-2.08-1.86-3.67
		c1.25-10.26,6.4-17.8,15.87-22.1c5.87-2.67,11.89-3.68,17.98-0.39c0.8,0.43,2.1,0.92,2.74-0.06c1.01-1.52,0.62-3.41-0.29-4.72
		c-3.21-4.61-7.47-7.89-13.24-8.52c-8.17-0.89-16.01-0.06-22.87,5.13c-0.56,0.42-1.53,0.29-2.67,0.48c0.89-2.66,2-4.89,2.35-7.23
		c0.98-6.59,6.14-7.66,11.16-8.45c12.12-1.91,22.32,1.66,30.22,11.35c3.23,3.96,3.76,3.8,5.63-0.82c2.44-6.01,7.34-9.85,12.86-12.16
		c7.33-3.07,15.11-4.8,22.94-0.57c3.53,1.91,6.39,12.41,3.59,15.18c-1.66,1.65-2.86-0.15-4.2-1.03c-5.17-3.41-11.04-5.51-16.5-1.91
		c-6.16,4.07-9.48,10.63-11.17,17.84c-0.45,1.92,0.85,1.98,1.99,1.26c6.22-3.94,13.19-3.94,20.13-3.77
		c7.73,0.19,14.34,8.39,13.32,15.99c-0.42,3.14-3.31,2.73-4.96,3.22c-3.65,1.09-8.28,5.17-10.53-2.4
		c-0.87-2.93-12.47-4.05-16.28-1.79c-6.75,3.99-11.1,8.13-4.79,17.01c2.02,2.85,2.87,7.33,7.87,6.8c-1.83,0.38-3.8,0.52-1.97,3.24
		c2.02,3.02,3.79,6.2,5.7,9.29c1.45,2.35,0.74,3.3-1.91,3.2c-14.4-0.55-28.81-1.09-43.22-1.59c-2.77-0.1-3.14-1.11-1.66-3.34
		c1.74-2.61,3.26-5.35,4.97-7.98C636.72-14.64,637.08-15.55,636.16-16.6z"/>
	<path d="M-105.1-94.84c-4.72-0.3-8.34,2.42-12.37,4.24c-7.07,3.2-14.4,5.83-21.63,8.65c-13.46,5.24-26.94,10.45-40.41,15.67
		c-13.15,5.13-26.36,10.15-39.44,15.46c-2.85,1.16-3.63,0.28-4.7-2.14c-4.94-11.13-5.02-11.13,6.49-15.2
		c8.77-3.1,17.54-6.23,26.38-9.13c3.09-1.01,4.55-2.6,4.79-5.94c1.49-20.81,27.12-39.28,42.64-41.76c8.27-1.32,16.2-0.85,24.13,1.15
		c2.58,0.65,6.32,0.65,6.08,5.03c-1.35,2.12-3.57,2.79-5.78,3.58c-2.65,0.95-5.45,1.51-7.93,2.89c-1.7,0.94-2.95,2.46-2.66,4.42
		c0.35,2.4,2.55,1.48,4.05,1.71c6.58,1.01,12.72-1.64,19.11-2.26c1.18-0.59,2.02-0.65,2.54,0.95
		C-102.36-103.07-102.38-98.84-105.1-94.84z"/>
	<path class="st7" d="M101.65,425.35c10.27,0,20.55-0.23,30.82,0.04c61.26,1.58,122.52,3.26,183.79,4.92
		c8.99,0.24,17.98,0.64,26.97,0.73c3.05,0.03,3.63,0.8,2.79,3.77c-3.95,13.84-3.87,13.94-18.03,13.15
		c-65.83-3.66-131.66-7.39-197.5-10.97c-4.05-0.22-7.16-2.41-10.69-3.71c-6.19-2.26-12.27-4.82-18.39-7.25
		C101.49,425.81,101.57,425.58,101.65,425.35z"/>
	<path class="st8" d="M-106.36-108.47c-6.21,3.56-12.99,4.26-19.94,3.73c-1.78-0.13-4.74,0.77-5.01-1.64
		c-0.3-2.61,0.25-5.77,3.43-7.06c2.58-1.04,5.26-1.86,7.88-2.82c2.29-0.83,4.57-1.71,6.85-2.56
		C-110.28-115.76-110.35-110.78-106.36-108.47z"/>
	<path class="st9" d="M-359.66,281.09c0.47,1.73-0.64,2.18-1.28,2.86c-13.33,13.99-26.73,27.91-39.98,41.98
		c-2.13,2.26-4.16,3.12-7.32,2.89c-5.81-0.42-11.66,0.05-17.42,1.07c-2.9,0.51-4.21-0.75-5.25-3.23
		c-3.59-8.56-6.97-17.13-8.54-26.39c-0.55-3.23,0-3.87,3.01-4.43c22.41-4.19,44.79-8.59,67.17-12.92
		C-366.05,282.3-362.84,281.69-359.66,281.09z"/>
	<path class="st9" d="M-334.65,286.64c1.21,6.96,2.47,13.9,3.62,20.87c3.59,21.84,7.01,43.7,10.82,65.5c0.77,4.43-0.54,5.7-4.65,6.4
		c-10.37,1.77-20.69,2.12-31.13,0.77c-3.5-0.45-1.85-2.37-1.48-3.89c5.17-21.19,10.38-42.36,15.58-63.54
		c2.13-8.68,4.24-17.36,6.36-26.04C-335.24,286.7-334.95,286.67-334.65,286.64z"/>
	<path class="st9" d="M-314.88,274.75c7.29,1.94,14.13,3.72,20.94,5.58c14.89,4.08,29.74,8.32,44.68,12.22
		c3.86,1.01,4.41,2.59,3.69,6.33c-2.55,13.3-6.96,25.79-14.39,37.18c-1.28,1.96-1.81,3.44-4.05,0.73
		c-16.62-20.08-33.37-40.05-50.06-60.07C-314.35,276.35-314.44,275.83-314.88,274.75z"/>
	<path class="st9" d="M-265.55,341.89c-3.5,6.94-8.87,12.14-14.77,16.89c-7.01,5.64-14.48,10.47-22.81,14
		c-2.72,1.15-3.32,0.5-3.86-2.1c-5.86-28.27-11.83-56.53-17.77-84.79c1.45-0.48,1.88,0.66,2.4,1.32
		c15.38,19.38,30.81,38.72,45.98,58.26c2.48,3.19,3.97,3.16,6.38,0.37C-268.73,344.33-267.05,343.19-265.55,341.89z"/>
	<path class="st0" d="M-305.28,263c16.78-8.01,32.65-15.57,48.49-23.18c1.83-0.88,2.62-0.23,3.37,1.43
		c3.96,8.78,6.52,17.98,8.21,27.43c0.46,2.56,0.23,4.32-3.62,3.69c-18.03-2.98-36.12-5.59-54.19-8.34
		C-303.45,263.95-303.84,263.66-305.28,263z"/>
	<path class="st0" d="M-349.65,290.53c1.93,0.6,2.99-1.26,4.58-1.63c-7.5,21.62-15,43.24-22.74,65.58c-2.29-3.04-4.08-5.5-5.96-7.9
		c-3.68-4.69-8.54-7.91-13.87-10.33c-2.64-1.2-3.44-1.89-1.08-4.36C-375.63,318.19-362.66,304.34-349.65,290.53z"/>
	<path class="st10" d="M-316.17,257.5c-1.38-2.14,0.69-3.27,1.49-4.66c7.92-13.86,15.64-27.82,21.74-42.61
		c1.34-3.24,0.96-7.27,4.35-9.58c7.76,5.7,15.25,11.62,21.46,19.16c2.51,3.05,1.41,3.82-0.97,5.41
		C-284.15,235.94-300.15,246.73-316.17,257.5z"/>
	<path class="st9" d="M422.45,242.99c7.32,1.04,13.66,1.94,19.99,2.86c20.59,2.97,41.18,6,61.78,8.84c3.07,0.42,4.21,1.39,4.01,4.65
		c-0.63,9.97-0.83,19.96-1.43,29.94c-0.2,3.37,0.35,4.68,4.23,4.29c12.09-1.22,24.23-1.9,36.33-3.03c3.16-0.3,4.47,0.2,4.61,3.71
		c0.83,20.8,1.78,41.59,2.91,62.37c0.2,3.68-1.06,4.37-4.43,4.45c-21.5,0.49-43.01-0.12-64.4-1.71c-12.1-0.9-20.4-9.79-26.6-19.88
		c-7.58-12.32-11.9-26.08-15.59-39.87C438.7,280.29,433.28,261.17,422.45,242.99z"/>
	<path class="st9" d="M706.48,279.08c-24.85,25.52-48.99,50.31-73.12,75.11c-8.12,8.35-16.31,16.63-24.26,25.15
		c-2.05,2.19-3.41,2.26-5.82,0.72c-7.85-4.99-15.83-9.78-23.83-14.53c-1.76-1.05-2.52-2.26-2.7-4.33
		c-1.99-23.03-4.04-46.06-6.2-69.08c-0.26-2.76,0.76-3.3,3.23-3.49c38.16-2.84,76.31-5.79,114.47-8.66
		C693.98,279.54,699.68,278.45,706.48,279.08z"/>
	<path class="st9" d="M505.94,227.67c-32.8-2.55-65.15-5.12-97.5-7.54c-4.44-0.33-5.54-3.92-7.19-6.73c-1.29-2.19,0.8-3.9,2.5-5.36
		c35.33-30.14,68.48-62.65,102.65-94.06c1.09-1,2.13-2.27,3.44-2.78c5.04-1.95,7.82,0.3,7.46,5.61
		c-2.43,35.36-4.85,70.71-7.18,106.07C509.91,226.03,509.89,228.82,505.94,227.67z"/>
	<path class="st9" d="M-179.93,172.54c-27.83-5.79-55.64-11.65-83.49-17.33c-9.93-2.03-17.18-10.24-17.29-20.12
		c-0.06-5.63,1.06-11.56-3.8-16.07c1.3-0.22,2.59-0.57,3.89-0.63c18.24-0.74,35.55-5.33,52.2-12.62
		c7.84-3.44,14.05-8.76,18.37-16.23c1.05-1.81,2.01-3.37,4.9-3.24c24.34,1.09,35.18-1.6,58.11-14.12c0.02,6.44,1.7,12.16,4.51,17.64
		c6.41,12.46,20.3,17.61,32.98,11.6c3.88-1.84,5.2-1.49,6.01,2.89c0.77,4.16,3.53,6.78,11.52,13.59
		c-8.96,1.35-17.37,2.66-25.79,3.88c-17.77,2.57-35.54,5.18-53.34,7.58c-3.08,0.42-4.77,2.05-6.08,4.47
		c-5.02,9.27-4.44,19.2-3.55,29.21C-180.48,166.19-178.34,169.21-179.93,172.54z"/>
	<path class="st9" d="M-108.27,203.6c10.91,2.14,21.81,4.41,32.76,6.35c3.27,0.58,3.52,1.74,2.73,4.65
		c-7.83,28.67-15.52,57.38-23.25,86.08c-1.42,5.29-1.43,5.3-5.61,1.75c-3.66-3.11-7.3-6.26-10.95-9.38
		c3.22-6.98-1.27-12.14-4.58-17.22c-4.52-6.92-4.69-13.97-2.47-21.46c4.87-16.38,10.8-32.53,10.82-49.96
		C-108.83,204.14-108.46,203.87-108.27,203.6z"/>
	<path class="st0" d="M-154.09,255.21c-8-5.64-14.83-12.65-22.15-19.08c-20.68-18.16-41.21-36.5-61.82-54.75
		c-0.49-0.43-1.18-0.63-1.77-0.94c0.23-0.45,0.45-0.9,0.68-1.35c21.65,3.98,43.29,7.97,64.94,11.95
		c5.36,16.94,10.74,33.88,16.09,50.83C-156.73,246.31-155.43,250.77-154.09,255.21z"/>
	<path class="st0" d="M-351.94-38.93c-8.56-7.35-17.09-14.73-25.69-22.04c-1.69-1.44-2.21-2.46-0.39-4.36
		c12.55-13.07,24.99-26.25,37.49-39.38c0.19-0.2,0.59-0.22,1.5-0.53c1.43,18.28,2.85,36.39,4.27,54.5
		c-2.49,2.04-5.44,0.95-8.15,1.03c-6.57,0.19-6.58,0.07-6.96,6.65C-349.82-41.32-347.84-38.6-351.94-38.93z"/>
	<path class="st11" d="M-86.42,170.1c6.85,0.85,13.69,1.84,20.55,2.5c3.21,0.31,4.45,1.05,3.18,4.57c-1.51,4.2-2.7,8.57-3.46,12.97
		c-0.82,4.79-3.02,5.57-7.52,4.53c-11.96-2.77-24.03-5.05-36.06-7.53c-0.18-7.52-5.34-12.43-9.3-18.01
		c-1.15-1.61-3.31-3.57-1.44-5.67c1.67-1.88,4.14-0.67,6.04,0.1c3.47,1.4,6.49,3.99,10.55,3.72c4.11,1.05,8.35,0.89,12.53,1.35
		C-89.62,168.82-87.74,168.5-86.42,170.1z"/>
	<path class="st12" d="M-298.21,117.49c-7.9-1.18-15.68-3.46-23.8-2.54c2.8-6.01,7.08-11.06,10.73-16.52
		c1.69-2.53,2.52-0.98,3.38,0.64C-304.68,105.21-301.45,111.35-298.21,117.49z"/>
	<path class="st13" d="M-82.08,15.69c7.84,1.45,15.65,3.03,23.52,4.29c2.98,0.48,3.88,1.18,1.99,3.97
		c-1.73,2.57-3.12,5.38-4.66,8.09c-6.88-4.57-13.77-9.12-20.63-13.73C-82.88,17.63-85.24,16.83-82.08,15.69z"/>
	<path class="st14" d="M-351.94-38.93c2.7-0.37,1.54-2.68,2.07-4.14c1.71,6.14,4.21,8.2,11.58,8.29c3.29,0.04,4.83,1.05,5.11,4.19
		c0.14,2.44,0.27,4.89,0.5,9.01C-339.76-27.96-345.85-33.44-351.94-38.93z"/>
	<path class="st15" d="M-86.42,170.1c-5.95-0.19-11.99,0.23-17.47-2.82c10.64-0.03,21.28-0.05,31.92-0.08
		c-0.75,2.52-2.91,1.42-4.5,1.72C-79.76,169.52-83.28,168.17-86.42,170.1z"/>
	<path class="st16" d="M55.61-4.37c-0.98,0.02-2.07-0.35-0.88-2.26c2.54-4.07,4.97-8.2,7.7-12.14c1.62-2.34,3.6-3.04,6.15-0.62
		c3.23,3.07,6.84,5.73,10.24,8.61c1.07,0.9,3.07,2.32,0.01,2.88C71.35-6.56,63.8-5.59,55.61-4.37z"/>
	<path class="st17" d="M14.92,9.98c7.16-0.89,12.99-1.62,19.81-2.47c-2.1,4.29-3.78,7.66-5.41,11.05c-0.72,1.49-1.6,1.35-2.73,0.46
		C23.08,16.28,19.56,13.57,14.92,9.98z"/>
	<path class="st18" d="M43.06-10.61c-1.55,6.36-4.43,9.93-10.94,10.06C28.3-0.47,24.5,0.86,20.7,1.69c-0.97,0.21-1.7-0.07-2.07-0.85
		c-0.49-1.03,0.52-1.26,1.16-1.54C27.36-3.93,34.94-7.15,43.06-10.61z"/>
	<path class="st19" d="M60.7-88.63c-5.21,13.28-24.26,22.69-36.84,18.19c-2.7-0.97-3.45-0.1-4.59,1.83
		c-1.35,2.27-2.73,4.67-4.61,6.47C4.15-52.09-3.73-52.86-15.08-58.92c-2.76-1.47-5.11-3.69-7.67-5.55
		c-6.86-4.98-7.57-6.69-5.43-15.11c1.84-7.24,5.33-13.14,13.04-15.7c2.88-0.96,5.03-0.4,6.53,1.83c1.42,2.11-0.6,3.79-1.83,5.06
		c-3.57,3.7-6.43,7.6-6.33,13.06c0.09,5.21,4.86,11.67,10.25,13.55c5.18,1.8,8.51-1.16,11.64-4.63c2.6-2.89,4.36-6.25,5.87-9.79
		c1.37-3.21,3.17-4.68,7.29-4.12c5.89,0.79,11.91,0.85,17.85,1.7c3.21,0.46,6.26-0.04,8.76-2.52C50.01-86.26,52.86-87.59,60.7-88.63
		z"/>
	<path class="st20" d="M93.12-99.04c0.45-1.46-0.77-4.82,2.61-3.68c2.72,0.91,7.9-0.95,7.72,3.96c-0.19,5.35,3.24,6.05,6.7,6.85
		c3.69,0.85,7.23-0.47,10.64-1.91c7.37-3.11,11.58-1.82,15.56,4.77c4.47,7.39,11.32,8.85,17.89,3.1c3.6-3.15,6.78-1.54,10.16-0.68
		c2.17,0.55,1.26,2.23,0.77,3.67c-2.52,7.35-11.1,12.22-19.35,10.64c-8.89-1.7-16.23-5.89-20.51-14.25c-1.19-2.32-2.12-2-4.16-0.88
		c-8.36,4.61-18.85,2.89-25.21-3.81C93.29-94.06,92.97-94.92,93.12-99.04z"/>
	<path class="st21" d="M-140.66-23.56c-11.43-0.32-21.48-8.84-22.51-18.39c-0.54-5.02,2.44-8.02,5.09-11.36
		c1.37-1.73,2.37-0.32,3.12,0.7c6.3,8.54,12.54,17.12,18.8,25.68c0.5,0.68,1.12,1.43,0.43,2.19
		C-137.12-23.19-139.09-23.71-140.66-23.56z"/>
	<path class="st22" d="M248.79-104.51c-3.44,1.4-4.17-1.69-5.14-3.74c-1.19-2.5,1.46-3,2.84-3.86c6.31-3.93,15.14-1.39,18.76,5.27
		c3.01,5.54-0.46,14.94-6.63,17.93c-1.67,0.81-3.23,0.93-4.39-0.83c-1.29-1.97-2.51-3.81-0.4-6.22c1.5-1.71,2.86-3.94,1.37-6.38
		C253.78-104.66,251.34-104.64,248.79-104.51z"/>
	<path class="st9" d="M48.14,293.02c4.2-9.92,8.41-19.83,12.6-29.75c6.02-14.26,12.13-28.49,17.98-42.82
		c1.18-2.88,2.3-3.34,5.1-2.13c12.43,5.34,22.88,13.4,32.31,22.93c1.82,1.84,2.37,3.64-0.44,5.12c-0.44,0.23-0.8,0.59-1.21,0.88
		c-21.83,15.48-43.66,30.97-65.48,46.45C48.71,293.47,48.43,293.24,48.14,293.02z"/>
	<path class="st0" d="M50.01,306.86c-0.08-0.42-0.16-0.84-0.24-1.26c23.69-16.91,47.45-33.75,71.02-50.83
		c3.48-2.52,4.67-1.7,6.6,1.58c3.73,6.34,6.62,13.01,9.15,19.88c1.33,3.6,1.13,5.64-3.5,6.92
		C105.3,290.83,77.68,298.91,50.01,306.86z"/>
	<path class="st0" d="M60.8,316.07c12.61-3.56,25.22-7.11,37.82-10.67c12.5-3.52,25.05-6.88,37.46-10.66
		c3.65-1.11,4.7,0.09,4.93,3.27c0.6,8.3,0.33,16.52-1.2,24.75c-0.56,3.05-1.78,3.27-4.32,2.97c-20.34-2.41-40.69-4.71-61.04-7.06
		c-4.45-0.51-8.9-1.08-13.35-1.62C61.01,316.73,60.91,316.4,60.8,316.07z"/>
	<path class="st0" d="M56.8,338.82c6.45,4.78,12.91,9.56,19.36,14.35c10.13,7.52,20.23,15.09,30.41,22.54
		c1.9,1.39,3.04,2.05,0.52,4.19c-8.44,7.16-17.74,12.73-28.12,16.55c-1.38,0.51-2.52,1-3.18-0.85
		c-6.6-18.73-13.21-37.45-19.82-56.18C56.25,339.23,56.52,339.03,56.8,338.82z"/>
	<path class="st0" d="M56.78,327.05c25.48,4.03,50.6,8.02,75.72,11.97c2.3,0.36,2.72,1.43,1.89,3.45
		c-2.71,6.64-6.19,12.84-10.12,18.84c-1.94,2.97-3.24,2.32-6.22,1.09c-21.03-8.65-39.16-22.42-59.12-32.92
		C58.11,329.03,57.05,328.69,56.78,327.05z"/>
	<path class="st9" d="M-344.62-9.08C-391.8-5.5-438.15-1.98-484.5,1.54c-0.14-0.33-0.28-0.66-0.42-1
		c6.58-5.17,13.16-10.33,19.73-15.51c9.66-7.62,19.38-15.16,28.9-22.94c2.32-1.89,3.8-1.8,5.93,0.07c3.25,2.84,6.94,5.2,10.09,8.13
		c3.36,3.13,5.73,3.75,9.12-0.35c5.18-6.28,11.16-11.89,16.69-17.89c1.66-1.8,2.75-2.15,4.85-0.34
		c14.46,12.52,29.06,24.89,43.61,37.32C-345.66-10.69-345.45-10.24-344.62-9.08z"/>
	<path class="st9" d="M-504.86-96.22c8.44,6.62,15.83,12.42,23.22,18.22c10.72,8.4,21.42,16.83,32.19,25.16
		c2.32,1.79,2.92,2.9,0.16,5.07c-14.99,11.83-29.87,23.82-44.69,35.87c-2.58,2.1-3.39,1.9-3.67-1.47
		C-499.96-40.53-502.36-67.67-504.86-96.22z"/>
	<path d="M-41.73,231.46c6.99,5.17,11.91,12.35,17.88,18.51C-9.27,264.99,5,280.31,19.51,295.39c2.78,2.89,2.53,6.27,2.59,9.69
		c0.04,2.34-1.83,1.97-3.24,1.93c-12.79-0.31-25.61-0.23-38.36-1.15c-14.78-1.06-29.57-0.48-44.34-1.06
		c-1.8-0.07-3.68,0.4-5.36-0.66c-2.76-5.54-0.59-11.16,0.19-16.57c2.78-19.24,10.41-36.6,21.88-52.27
		C-45.79,233.48-44.51,231.36-41.73,231.46z"/>
	<path class="st23" d="M-41.73,231.46c-10.92,11.48-17.85,25.29-22.46,40.2c-3.25,10.5-5.23,21.36-5.01,32.48
		c-12.91,1.75-13.46,1.19-10.07-10.99c6.9-24.77,13.92-49.51,20.71-74.31c1.1-4.03,2.2-4.29,4.75-1.14
		C-49.97,222.45-44.95,226.17-41.73,231.46z"/>
	<path class="st24" d="M273.81,152.6c-0.76,10.7-3.77,20.75-7.8,30.55c-0.55,1.34-1.58,2.22-3.05,2.12
		c-1.85-0.12-2.38-1.7-2.68-3.14c-0.85-4.18-0.2-8.23,1.34-12.18C264.24,163.25,268.64,157.78,273.81,152.6z"/>
	<path class="st9" d="M219.37,47.34c-9.16-11.56-17.41-21.75-25.36-32.17c-2.2-2.88-3.67-3.22-6.75-1.16
		c-13.84,9.26-27.86,18.23-41.84,27.28c-1.22,0.79-2.27,1.99-4.57,2.01c1.49-8.38,2.96-16.62,4.42-24.85
		c1.19-6.72,2.51-13.42,3.48-20.17c0.38-2.63,1.38-3.23,3.9-2.99c22.55,2.15,45.1,4.19,67.66,6.24c2.04,0.19,4.09,0.07,3.74,3.2
		C222.5,18.41,221.04,32.1,219.37,47.34z"/>
</g>
</svg>
