<?xml version="1.0" encoding="utf-8"?>
<!-- Generator: Adobe Illustrator 25.4.1, SVG Export Plug-In . SVG Version: 6.00 Build 0)  -->
<svg version="1.1" id="Layer_1" xmlns="http://www.w3.org/2000/svg" xmlns:xlink="http://www.w3.org/1999/xlink" x="0px" y="0px"
	 viewBox="0 0 140 440" style="enable-background:new 0 0 140 440;" xml:space="preserve">
<style type="text/css">
	.st0{fill:#FEFEFE;}
	.st1{fill:#3C00AB;}
	.st2{fill:#E48624;}
	.st3{fill:#3C00AC;}
	.st4{fill:#3E03AA;}
	.st5{fill:#3E03AB;}
	.st6{fill:#3F04AB;}
	.st7{fill:#E3AA65;}
	.st8{fill:#3E02AB;}
	.st9{fill:#FCFCFD;}
	.st10{fill:#030202;}
	.st11{fill:#F9FAFA;}
	.st12{fill:#F9FAF9;}
	.st13{fill:#FAFAF8;}
	.st14{fill:#440AA7;}
	.st15{fill:#4006A7;}
	.st16{fill:#F3F2F3;}
	.st17{fill:#E4AE6A;}
	.st18{fill:#65423B;}
	.st19{fill:#F5F4F8;}
	.st20{fill:#FBFBFB;}
	.st21{fill:#F7F7F8;}
	.st22{fill:#FCFCFC;}
	.st23{fill:#FDFDFD;}
	.st24{fill:#F7F7F7;}
	.st25{fill:#F1F1F0;}
	.st26{fill:#460CAA;}
	.st27{fill:#490EAA;}
	.st28{fill:#F9F7F1;}
	.st29{fill:#F7F2EC;}
	.st30{fill:#F5F5F5;}
	.st31{fill:#FCFCFA;}
	.st32{fill:#FAFAFA;}
	.st33{fill:#F7F9F7;}
</style>
<path class="st0" d="M70-4.74c132.46,0,264.92,0.01,397.38-0.05c2.14,0,2.62,0.48,2.62,2.62c-0.06,147.78-0.06,295.55,0,443.33
	c0,2.14-0.48,2.62-2.62,2.62c-264.92-0.06-529.84-0.06-794.75,0c-2.14,0-2.62-0.48-2.62-2.62c0.06-147.78,0.06-295.55,0-443.33
	c0-2.14,0.48-2.62,2.62-2.62C-194.91-4.73-62.46-4.74,70-4.74z"/>
<path class="st1" d="M-237.76,227.04c-0.02-24.37-0.05-48.73-0.06-73.1c0-9.13,0.07-18.27,0.11-27.4c0.62-2.6,2.67-4.33,4.21-6.26
	c2-2.51,3.27-5.32,4.78-8.05c0.71-1.3,0.44-2.3-0.58-3.3c-2.03-2-4.05-4.02-6.06-6.05c-1.06-1.07-1.94-2.22-0.97-3.76
	c1-1.57,2.52-1.99,4.24-1.41c1.26,0.42,2.42,1.08,3.5,1.88c3.26,2.4,3.74,2.2,4.22-1.65c0.07-0.57,0.11-1.14,0.58-1.56
	c24.01,0,48.02-0.01,72.03-0.01c0.45,1.65-0.8,2.65-1.55,3.78c-3.64,5.46-5.22,11.56-5.58,18.01c-0.15,2.75-0.13,5.52-0.01,8.27
	c0.3,6.93,2.67,12.96,7.9,17.73c0.95,0.86,2.61,1.44,2.02,3.3c-1.05,0.67-2.17,0.55-3.31,0.29c-8.87-2.01-17.76-3.87-26.69-5.63
	c-8.54-1.69-17.13-3.17-25.61-5.23c-3.85-0.94-7.81-1.51-11.69-2.39c-3.61-0.82-5.13,0.97-4.25,4.62c0.21,0.85,0.59,1.37,1.47,1.5
	c6.28,0.91,12.33,2.91,18.66,3.68c5.53,0.67,10.93,2.32,16.38,3.61c5.16,1.22,10.42,1.89,15.61,3.01c6.3,1.37,12.62,2.62,18.94,3.88
	c5.01,1,10.01,2.08,15.01,3.1c6.67,1.37,13.41,2.43,20.06,3.97c4.5,1.03,9.08,1.91,13.63,2.81c4.93,0.97,9.82,2.12,14.78,2.92
	c4.87,0.79,9.54,2.43,14.49,2.95c4.13,0.43,8.1,1.95,12.22,2.65c1.39,0.23,2.78,0.55,4.19,0.75c3.49,0.47,4.43,1.7,4.8,5.18
	c0.47,4.47,1.56,8.82,4.26,12.53c1.52,2.09,2.49,4.49,3.97,6.59c1.29,1.83,0.3,3.31-1.35,4.27c-4.17,2.41-7.5,5.77-10.98,9.02
	c-8.31,7.78-11,17.53-9.38,28.28c0.75,5,2.79,10.07,6.63,13.97c2.3,2.33,2.17,2.67,0.03,5.15c-3.34,3.88-5.49,8.15-5.94,13.51
	c-0.43,5.24-1.09,10.57-2.45,15.68c-1.55,5.81-8.32,10.65-14.41,10.73c-2.86,0.04-5.71-0.01-8.57,0.02
	c-0.95,0.01-1.94-0.06-2.7,0.66c-0.79,0.75-1.31,1.68-1.11,2.8c0.23,1.26,1.26,1.59,2.35,1.67c2.47,0.17,4.95,0.05,7.42,0.08
	c2.09,0.03,4.26,0.62,6.19,0.47c4.63-0.37,9.69,0.1,12.87-4.87c2.7-4.22,3.9-8.74,4.71-13.57c0.83-4.94,1.02-10,2.49-14.83
	c1.02-3.37,3.48-5.63,6.17-7.63c1.25-0.93,2.77-0.74,4,0.22c1.9,1.49,4.12,2.37,6.23,3.45c5.67,2.91,11.57,3.12,17.73,1.75
	c3.51-0.78,7.05-1.46,10.54-2.35c0.57-0.14,1.13-0.02,1.64,0.3c2.7,5.7,2.24,11.45,0.01,17.11c-2.41,6.1-4.31,12.38-6.51,18.55
	c-0.43,1.21-0.64,2.31,1.07,2.54c2.59,0.34,2.97,2.15,2.62,4.18c-0.83,4.86-1.78,9.7-2.73,14.54c-1.06,5.39-1.96,10.81-2.93,16.22
	c-0.99,5.5-2.13,10.98-2.94,16.51c-0.07,0.51-0.08,1.46-1.14,1.03c0.05-1.44-0.35-2.15-2.09-2.15c-14.47,0.07-28.94,0.05-43.42,0.05
	c-0.75,0-1.54-0.13-2.1,0.58c-2.74-0.89-4.27-3.33-6.32-5.06c-6.05-5.09-12.62-8.37-20.78-7.78c-3.13,0.22-6.28,0.14-9.41,0.01
	c-3.08-0.13-6.02,0.53-9.01,1.08c-3.28,0.61-3.98-0.13-4.84-3.23c-2.5-9.02-0.97-7.57-9.37-7.47c-8.45,0.1-16.9,0.7-25.37,0.5
	c-1.6-0.04-2.74,0.59-3.47,2.01c-0.31,0.59-0.67,1.15-0.97,1.75c-2.85,5.68-2.84,5.17-8.42,2.35c-4.53-2.29-8.98-4.41-14.03-5.34
	c-10.68-1.97-20.66-1.08-29.92,5.33c-7.35,5.08-15.28,9.27-22.89,13.95c-0.86,0.53-1.78,1.18-2.91,0.62
	c0.01-26.55,0.02-53.1,0.02-79.65c-0.22-1.41,0.9-1.77,1.81-2.22c10.49-5.14,19.36-12.41,26.97-21.15
	c6.05-6.94,11.78-14.15,15.49-22.75c1.77-4.1,3.49-4.7,7.66-3.33c2.9,0.95,5.97,0.89,8.94,1.55c3.79,0.86,7.62,1.59,11.29,2.88
	c6.11,2.16,12.51,2.97,18.83,4.17c1.51,0.29,2.93,0.79,4.4,1.17c10.62,2.69,21.47,2.62,32.26,2.11c5.27-0.25,10.46-1.99,15-4.97
	c2.19-1.43,3.36-3.89,4.79-5.95c4.92-7.06,8.84-14.63,9.98-23.35c0.19-1.42,1.07-2.65,1.02-4.13c-0.05-1.56-0.41-2.85-2.18-3.19
	c-1.76-0.34-2.83,0.24-3.42,2.07c-1.23,3.79-1.63,7.82-3.11,11.53c-2.8,7-6.99,12.63-14.83,14.5c-0.37,0.09,0.1,0.02-0.27,0.07
	c-1.77,0.23-4.17,1.01-4.98-0.73c-0.85-1.83,1.82-2.26,2.96-3.16c6.12-4.85,9.36-11.37,10.89-18.77c0.46-2.2,1.44-4.33,1.27-6.69
	c-0.11-1.51-0.38-2.74-1.86-3.57c-2.95-1.65-4.46-0.87-4.58,2.55c-0.21,5.81-1.75,11.29-4.62,16.29c-2.62,4.57-6.94,7.08-11.9,8.64
	c-3.33,1.05-6.7,1.29-10.13,1.1c-1.09-0.06-2.62,0.21-2.83-1.25c-0.21-1.45,1.1-2.08,2.36-2.4c10.71-2.74,16.11-10.35,18.69-20.48
	c0.39-1.55,1.21-3.02,1.11-4.7c-0.07-1.29,0.29-2.9-1.67-3.05c-1.78-0.14-3.83-0.49-4.58,1.81c-1.03,3.17-2.54,6.18-3.47,9.35
	c-1.51,5.18-5.22,8.26-9.73,10.15c-6.05,2.53-12.37,3.98-19.12,3.85c-7.33-0.15-14.52-0.69-21.71-2.13
	c-2.75-0.55-5.57-1.07-8.38-1.42c-1.01-0.13-2.29,0.09-2.66-1.18c-0.31-1.04,0.7-1.67,1.28-2.39c4.78-5.99,10.41-11.38,13.26-18.73
	c0.41-1.04,1.79-2.15,0.25-3.25c-1.43-1.01-2.75-0.34-3.81,0.79c-3.98,4.33-8.64,7.98-12.06,12.9c-2.33,3.34-5.7,5.85-8.53,8.8
	c-1.58,1.65-3.38,3.09-4.53,5.11c-0.29,0.51-0.7,0.91-1.27,1.1c-4.97,1.57-9.7,3.86-14.87,4.83c-8.33,1.57-16.45,3.82-23.97,7.9
	C-234.02,226.51-235.77,227.25-237.76,227.04z"/>
<path class="st2" d="M-10.01,267.13c-4.58,1.1-9.11,2.58-13.75,3.22c-6.7,0.93-13.35,0.46-19.16-3.62
	c-1.27-0.89-2.75-1.35-3.93-2.45c-0.79-0.74-2.08-0.68-3.13,0.05c-3.05,2.11-5,4.9-5.71,8.59c-1.01,5.24-1.6,10.54-2.46,15.8
	c-0.8,4.9-2.65,9.55-5.93,13.5c-1.38,1.66-3.47,2.25-5.16,2.43c-2.9,0.32-5.67,1.34-8.85,0.67c-3.85-0.81-7.96-0.42-11.95-0.49
	c-1.87-0.03-3.4-0.38-3.38-2.73c0.02-2.39,1.37-3.85,3.66-3.87c3.33-0.04,6.67-0.18,9.99-0.08c6.39,0.2,13.03-6.66,13.95-12.76
	c0.83-5.55,1.33-11.18,2.41-16.66c0.76-3.86,2.57-7.74,5.84-10.34c1.97-1.57,1.59-2.32,0.09-3.97c-6.84-7.5-8.94-16.7-7.04-26.27
	c2.35-11.89,10.39-19.98,20.52-26.07c2.63-1.58,2.64-1.83,0.91-4.27c-4.18-5.9-8.04-12.02-8.02-19.63c0.01-3.02-2.29-3.07-4.19-3.45
	c-4.99-0.99-9.95-2.3-14.94-3.1c-4.81-0.77-9.53-1.94-14.29-2.84c-4.69-0.89-9.41-1.83-14.07-2.91c-3.78-0.87-7.59-1.89-11.44-2.44
	c-5.53-0.81-10.92-2.16-16.37-3.34c-2.63-0.57-5.35-0.72-8.01-1.38c-6.65-1.66-13.51-2.34-20.11-4.3c-2.3-0.69-4.77-0.78-7.15-1.3
	c-8.45-1.83-17.01-3.12-25.46-4.96c-5.45-1.18-10.86-2.45-16.37-3.37c-5.67-0.95-11.19-2.75-16.95-3.33
	c-0.93-0.1-1.03-0.73-1.01-1.41c0.03-1.71,0.11-3.42,0.19-5.13c0.07-1.49,1.12-1.51,2.23-1.51c3.42,0,6.69,1.09,9.97,1.74
	c2.51,0.5,5.11,1.06,7.63,1.65c7.31,1.69,14.71,3.05,22.09,4.46c4.74,0.9,9.46,2,14.26,2.73c4.38,0.66,8.65,2.01,12.99,2.95
	c1.1,0.24,2.27,0.12,3.41,0.17c2.22-0.81,4.33,0.29,6.37,0.7c6.58,1.36,13.18,2.7,19.78,3.96c8.09,1.54,16.13,3.3,24.21,4.87
	c7.15,1.38,14.33,2.71,21.43,4.35c0.94,0.22,1.88,0.24,2.82,0.32c4.34,0.87,8.61,2.03,12.96,2.9c2.49,0.5,5.01,0.85,7.49,1.49
	c2.95,0.77,3.56-1.73,4.26-3.82c1.19-1.88,2.22-3.87,3.6-5.64c1.35-2.62,3.51-4.55,5.57-6.57c0.96-0.89,1.85-1.86,2.73-2.83
	c6.71-5.35,13.51-10.58,20.91-14.97c7.83-4.46,16.29-7.26,25.07-9.05c3.7-0.75,7.55-0.63,11.33-0.77c2.78-0.1,3.02-0.15,3.12-2.99
	c0.06-1.73-0.27-3.4-0.52-5.09c0.14-5.78-0.94-11.4-2.22-16.99c-1.89-8.22-4.47-16.14-9.97-22.77c-0.47-0.57-1.15-1.02-1.05-1.9
	c-2.42-4.38-6.65-6.46-10.88-8.53c-1.41-0.69-2.93-1.18-4.32-1.96c6.55,0.09,12.34,2.41,17.73,5.97c1.39,0.92,2.45,2.39,4.25,2.67
	c4.03,2.93,6.49,7.15,8.94,11.29c3.02,5.1,4.58,10.82,6.07,16.54c1.53,4.65,2.43,9.39,2.16,14.3c0.47,2.9,1.26,5.75,1.1,8.73
	c-0.07,1.32,0.47,2.06,1.89,2.33c10.51,1.94,20.05,6.26,28.91,12.15c1.53,1.02,2.97,1.38,4.71,0.22c4.76-3.16,10.33-4.18,15.74-5.49
	c3.12-0.75,6.27-1.51,9.54-1.47c1.98,0.49,3.13-0.45,3.61-2.26c1.02-3.85,3.2-7.07,5.34-10.32c1.8-2.73,4.65-4.29,7.43-5.59
	c8.05-3.78,16.49-6.42,25.53-5.46c4.67,0.5,9.46,1.15,13.64,3.58c2.45,1.42,4.45,1.23,6.89-0.05c7.73-4.06,15.13-8.71,22.92-12.64
	c9.54-5.89,19.57-10.93,29.19-16.69c5.19-3.11,10.59-5.98,16.03-8.71c2.68-1.35,3.2-0.97,5.41,2.63c1.27,2.06,0.22,3.03-1.41,4.11
	c-8.53,5.69-17.28,11.05-25.83,16.71c-0.8,0.53-1.5,1.16-2.25,1.74c-6.22,3.47-12.17,7.37-18.01,11.42
	c-4.84,3.36-10.1,6.05-14.86,9.53c-0.77,0.56-1.53,1.14-2.33,1.63c-1.37,0.83-1.51,1.59-0.51,2.94c1.6,2.14,2.52,4.69,3.72,7.06
	c0.58,1.15,0.77,2.35,0.14,3.57c-1.39,1.41-3.2,0.97-4.83,0.94c-2.78-0.04-2.55,1.78-2.63,3.64c-0.09,2.12,0.81,2.91,2.86,2.75
	c1.46-0.11,3.02-0.66,4.34,0.54c0.65,3.95-2.18,6.42-3.99,9.31c-0.15,0.24-0.39,0.42-0.59,0.62c-4.62,4.83-4.63,4.83-0.46,9.88
	c3.89,4.7,7.53,9.54,9.37,15.49c0.44,1.43,1.48,2.02,2.89,1.51c4.05-1.46,8.34-1.67,12.5-2.57c2.18-0.47,4.38,0.45,6.35,1.19
	c4.27,1.61,8.33,3.81,11.8,6.82c2.9,2.52,6.33,3.86,9.9,4.84c2.03,0.56,3.92-0.61,5.7-1.39c2.77-1.22,5.46-2.62,8.02-4.33
	c5.06-3.39,10.71-4.84,16.82-4.07c2.58,0.33,4.73,1.92,7.21,2.65c5.44,1.58,10.26,0.94,13.87-4.49c1.89-2.83,3.53-5.86,5.88-8.38
	c2.26-2.42,4.95-3.78,8.35-3.58c1.71,0.1,3.43-0.02,5.14,0.02c2.43,0.06,4.45-0.89,6.2-2.47c1.27-1.15,2.62-2.27,3.63-3.63
	c3.11-4.21,7.96-5.36,12.38-7.23c2.01-0.85,3.5,0.1,4.18,2.21c0.71,2.18-0.73,2.93-2.38,3.43c-2.67,0.8-5.07,2.17-7.5,3.49
	c-2.57,1.39-3.3,4.16-4.07,6.64c-1.27,4.06-3.45,6.9-7.79,7.81c-1.15,0.24-2.21,0.33-3.35,0.01c-6.73-1.93-8.46-0.29-11.76,4.45
	c-2.23,3.21-4.47,6.35-7.31,9.08c-3.85,3.71-8.43,6.19-13.27,8.18c-3.81,1.57-6.98-0.73-10.14-2.47c-0.5-0.27-0.89-0.72-1.37-1.03
	c-6.21-4.08-5.97-4.18-12.66,0.78c-3.97,2.94-7.66,6.44-12.43,7.91c-7.37,2.26-9.18,4.2-15.74-2.8c-0.39-0.42-0.82-0.79-1.21-1.21
	c-0.92-1.01-2.01-1.74-3.32-2.13c-1.62-1-2.47-2.57-3.13-4.28c-3.26-8.55-13.11-11.65-20.51-9.97c-2.66,0.61-5.33,1.47-7.57,3.19
	c-1.49,1.14-3.29,1.35-4.89,0.71c-4.54-1.8-8.86-0.55-13.07,0.83c-3.77,1.23-7.46,2.83-10.26,5.93c-0.9,0.99-1.18,1.83-0.41,2.94
	c-1.66,0.97-3.26,2-4.09,3.86c-3.17,2.47-3.73,6.29-4.85,9.76c-0.46,1.41-0.81,2.93-1.02,4.42c-0.97,6.63-7.24,10.77-13.57,11.39
	c-0.47,0.05-0.95,0.03-1.42,0.1c-1.52,0.23-2.52,1.1-2.39,2.66c0.13,1.62,1.59,1.46,2.66,1.39c6.62-0.4,6.25,2.21,4.5,6.83
	c-0.54,1.43-1.03,2.88-2.57,3.61c-3.68,0.89-7.42,2.25-11.18,1.37c-3.55-0.82-7.12-0.88-10.67-1.26c-0.9-0.21-1.58-1.09-2.58-0.97
	c-0.98,0.11-2.19-0.87-2.87,0.09c-0.64,0.91,0.24,1.93,0.7,2.85c0.95,2.9,1.75,5.81,1.49,8.92c-0.15,1.85,0.54,2.33,2.58,2
	c3.73-0.59,7.38-1.78,11.19-1.67c1.01,0.03,2.33-0.12,2.63,1.15c0.29,1.18-1.01,1.46-1.73,1.98c-3.93,2.83-7.99,5.48-12.06,8.1
	c-2.53,1.63-4.54,3.74-6.62,5.81c-6.53,6.53-13.96,11.72-22.75,14.66c-6.68,2.23-13.58,3.79-20.69,2.91
	c-6.29-0.78-12.13-3.04-17.55-6.31c-0.9-0.54-1.61-1.35-1.78-2.47c1.15-4.01,4.77-6.33,6.73-9.79c1.63-2.88,3.33-5.75,5.44-8.35
	c1.43-1.75,1.85-3.97,2.3-6.09c0.79-3.71,1.67-7.41,2.51-11.1c0.26-1.14,0.86-2.59-0.49-3.39c-1.35-0.8-2.49,0.15-3.59,0.98
	c-1.92,1.44-2.41,3.63-2.97,5.71c-0.51,1.92-1.02,3.85-1.44,5.8c-0.65,2.98-3.03,5.14-6.05,5.49c-1.47,0.17-2.14-0.49-2.32-1.83
	c-0.18-1.33-0.29-2.69-0.05-3.98c1.12-5.87,1.78-11.81,2.69-17.7c0.66-4.31,1.58-8.59,1.83-12.95c0.07-1.26,0.46-2.42,0.78-3.62
	c0.42-1.61,0.03-2.88-1.71-3.34c-1.66-0.44-2.14,0.82-2.58,2.01c-0.83,2.25-1,4.65-1.45,6.96c-1.13,5.78-2.9,11.41-3.85,17.22
	c-0.18,1.12-0.65,2.13-1.9,2.14c-1.34,0.02-1.61-1.12-1.78-2.19c-0.09-0.57-0.11-1.14-0.05-1.71c0.13-1.39-0.54-2.13-1.84-2.43
	c-1.33-0.32-2.47-0.17-3.23,1.09c-0.39,0.65-0.59,1.41-0.97,2.07c-0.42,0.74-0.81,1.62-1.82,1.59c-1.07-0.03-1.65-0.85-2.08-1.73
	c-0.26-0.51-0.31-1.1-0.57-1.61c-1.03-2.11-3.43-2.29-4.79-0.35c-0.38,0.55-0.55,1.21-0.87,1.79c-0.45,0.83-0.81,1.9-1.93,1.86
	c-1.19-0.04-1.35-1.23-1.62-2.09c-0.65-2.05-1.63-3.37-4.11-2.8c-3.06,0.7-3.63,1.37-3.77,4.34c-0.38,8.76,0.85,17.48,0.57,26.23
	C-9.24,264.65-8.91,266.05-10.01,267.13z"/>
<path class="st1" d="M199.99,194.09c2.47-0.47,3.64,1.49,5.13,2.8c1.45,1.28,2.66,2.87,4.22,3.98c3.45,2.45,6.95,0.52,10.17-0.57
	c5.87-1.98,10.31-6.43,15.42-9.75c5.08-3.29,6.11-2.93,11.21,0.84c2.63,1.95,5.43,3.95,9.05,3.71c2.58-0.18,4.76-1.47,6.91-2.68
	c6.35-3.58,11.43-8.43,14.97-14.94c2.5-4.61,6.26-6.09,11.28-4.9c7.38,1.74,9.88-1.68,11.14-6.24c1.81-6.53,6.39-9.43,12.26-11.08
	c1.11-0.31,2.18-0.83,2.33-1.65c0.15-0.81-0.46-2.05-1.13-2.64c-0.76-0.67-1.94-0.56-2.9,0.12c-1.74,1.23-3.82,1.63-5.78,2.33
	c-2.87,1.02-4.86,3.37-6.7,5.57c-3.32,3.97-7.25,5.87-12.41,5.19c-4.95-0.65-8.64,1.61-11.55,5.31c-1.63,2.08-2.99,4.38-4.47,6.58
	c-3.4,5.03-7.08,6.62-12.85,5.27c-2.02-0.47-3.96-1.37-5.9-2.17c-5.87-2.43-11.38-1.05-16.69,1.66c-2.9,1.48-5.59,3.37-8.43,4.98
	c-6.05,3.41-11.62,2.37-16.98-1.75c-3.9-2.99-7.99-5.67-12.62-7.59c-4.68-1.95-9.26-1.2-13.78-0.11c-1.91,0.46-3.98,0.42-5.85,1.61
	c-1.25,0.8-2.77-0.23-3.14-1.83c-1.25-5.43-4.45-9.78-7.74-14.06c-1.51-1.97-2.83-4.1-4.79-5.71c-1.3-1.07-1.09-2.09,0.16-3.11
	c4.19-3.46,7.29-7.67,8.69-13.01c0.58-1.38,1.85-1.19,2.94-1.19c8.76-0.06,17.51-0.04,26.27-0.02c0.47,0,0.95,0.01,1.42,0.11
	c0.74,0.16,1.59,0.26,1.68,1.23c0.07,0.78-0.57,1.14-1.15,1.47c-0.67,0.38-1.4,0.61-2.14,0.8c-7.83,2.02-15.37,5.03-23.3,6.7
	c-0.56,0.12-1.09,0.33-1.64,0.49c-1.71,0.49-2.98,1.09-2.22,3.37c0.93,2.78,1.43,3.37,3.98,2.6c8.66-2.59,17.39-4.91,26.07-7.41
	c1.6-0.46,3.69-1.63,4.65,0.17c0.82,1.52-1.37,2.4-2.45,3.38c-4.07,3.73-8.52,7.02-12.57,10.77c-1.19,1.1-1.9,2.23-1.22,4.01
	c1.34,3.52,2.13,3.9,5.34,1.83c9.68-6.24,19.48-12.3,28.9-18.93c3.15-2.21,6.53-2.91,10.17-3.17c7.3-0.51,14.57-1.21,21.84-2.03
	c5.46-0.61,11-0.74,16.47-1.44c7.25-0.93,14.56-1.15,21.83-1.94c5.45-0.59,10.93-1.27,16.45-1.54c6.54-0.31,13.06-1.1,19.6-1.63
	c1.99-0.17,2.87-1.22,2.95-3.13c0.14-3.33-0.11-6.66,0.26-9.99c0.16-1.42-0.84-1.74-1.94-1.96c-3.45-0.7-6.86-1.57-10.31-2.22
	c-0.37-0.07-0.75-0.1-1.13-0.2c-0.93-0.26-1.57-0.85-1.51-1.81c0.06-0.97,0.99-1.14,1.72-1.15c2.86-0.06,5.66-0.78,8.53-0.7
	c0.86,0.02,1.71,0.01,2.57,0c7.89-0.01,9.88-2.55,8.02-10.29c-0.21-0.85-0.53-1.85,0.02-2.49c1.97-2.26,1.57-4.91,1.53-7.53
	c5.35,0,10.7-0.01,16.05-0.01c1.06,1.71,0.75,3.49,0.12,5.19c-0.51,1.38-0.51,2.79-0.72,4.19c-0.21,1.47,0.27,1.89,1.71,1.57
	c5.29-1.16,5.39-1.18,7.63,3.33c1.04,2.1,1.79,2.02,3.01,0.23c0.64-0.93,1.53-1.69,2.43-2.39c0.8-0.63,1.72-0.95,2.63-0.33
	c0.97,0.66,0.81,1.66,0.41,2.57c-0.95,2.18-2.06,4.28-3.14,6.4c-0.95,1.86-1.1,3.58,0.33,5.29c1.26,1.49,1.49,3.47,2.22,5.21
	c1.19,2.82,2.34,5.58,4.79,7.59c0.43,0.35,0.66,0.93,0.81,1.49c0.26,2.59,0.47,5.19-0.15,7.76c-1.42,1.75-3.26,1.3-4.95,0.73
	c-6.57-2.19-13.39-3.33-20.06-5.13c-0.46-0.13-0.97-0.22-1.42-0.09c-3.42,0.99-6.8,1.54-10.29,0.12c-1.13-0.46-1.85,0.65-2.47,1.53
	c-3.67,5.19-7.2,10.5-10.64,15.84c-4.42,6.86-9.33,13.38-13.85,20.17c-3.37,5.05-6.45,10.33-10.18,15.1
	c-4.39,5.62-7.81,11.86-11.89,17.67c-4.18,5.95-8.38,11.94-12.26,18.13c-2.62,4.18-5.37,8.29-8.23,12.31
	c-1.3,1.82-1.91,3.54-1.02,5.81c1.02,2.58,2.18,5.03,3.71,7.35c0.83,1.26,2.57,2.55,0.97,4.45c-1.37,0.55-2.81,0.41-4.23,0.41
	c-13.88,0.01-27.77,0-41.65,0.02c-1.18,0-2.47-0.35-3.54,0.57c0.33,0.27-0.08-0.07-0.02,0.31c0.02,0.13,0.09,0.19,0.15,0.25
	c0.21,0.2,0.46,0.31,0.74,0.38c0.37,0.09,0.75,0.13,1.13,0.15c27.79,1.37,55.55,3.08,82.94,4.49c-4.85-1.86-10.15-3.71-15.31-5.93
	c-0.95-0.87-0.28-1.34,0.49-1.61c1.17-0.41,2.31-0.89,3.49-1.25c9.34-2.81,18.61-5.86,27.9-8.83c2.96-0.94,5.97-1.84,8.99-2.67
	c2.03-0.55,3.47-0.05,4.66,1.68c4.16,6.11,8.26,12.25,12.34,18.41c3.75,5.68,7.58,11.35,11.54,16.91c1.31,1.84,2.51,1.87,3.87,0.34
	c1.67-1.88,3.79-3.15,5.83-4.53c1.21-0.81,2.46-1.15,3.37,0.5c0.26,0.73,0.33,1.49,0.33,2.25c0.01,12.73,0.11,25.47-0.05,38.2
	c0.15,11.14,0.09,22.27,0.03,33.41c-0.02,3.32-0.75,4.04-4.07,4.07c-5.98,0.07-11.96,0.1-17.94,0.04c-0.82-0.7-1.81-0.48-2.74-0.49
	c-11.42-0.01-22.83,0.06-34.25-0.06c-2.46-0.03-2.98,0.83-2.97,3.11c0.09,16.46-0.03,32.91,0.12,49.37
	c0.03,2.85-0.83,3.59-3.51,3.38c-2.93-0.23-5.9-0.18-8.84,0c-2.19,0.14-2.71-0.65-2.7-2.75c0.08-16.46,0.05-32.91,0.05-49.37
	c0-3.67-0.01-3.68-3.73-3.68c-13.22,0-26.45,0.01-39.67,0c-1.33,0-2.65-0.11-3.98-0.18c-0.81-2.09,0.42-7.96,1.94-9.27
	c1.28-1.1,2.71-0.55,4.1-0.36c3.45,0.46,3.74,0.25,3.07-3.21c-0.78-4.02-0.71-8.15-1.77-12.14c-0.39-1.49-0.14-3.02,0.37-4.5
	c2.19-6.38,4.13-12.86,6.33-19.24c0.06-0.18,0.14-0.35,0.18-0.54c0.15-0.81,0.67-1.82-0.45-2.22c-0.9-0.33-1.3,0.58-1.65,1.25
	c-0.89,1.69-1.63,3.45-2.42,5.17c-0.72,1.56-1.5,3.09-2.41,4.54c-0.66,1.07-1.61,1.65-2.9,1.26c-1.3-0.39-1.65-1.47-1.69-2.69
	c-0.03-0.67,0.07-1.34,0.31-1.97c1.02-2.77,1.85-5.6,2.91-8.35c0.38-0.99,1.81-2.38-0.19-3.02c-1.53-0.49-3.57-1.1-4.43,1.14
	c-0.91,2.4-2.02,4.72-2.87,7.15c-0.25,0.72-0.42,1.47-0.75,2.15c-0.54,1.11-0.53,3.02-2.43,2.52c-1.51-0.39-1.37-2.03-1.14-3.18
	c0.7-3.58,0.19-7.23,0.73-10.81c0.14-0.92,0.47-2.07-0.89-2.32c-1.39-0.25-2.32,0.66-2.26,1.94c0.14,3.2-1.13,6.17-1.29,9.3
	c-0.01,0.19,0,0.38-0.03,0.57c-0.21,1.38-0.12,3.28-1.99,3.23c-1.61-0.05-1.7-1.84-1.75-3.15c-0.09-2.1-0.16-4.18-0.59-6.25
	c-0.26-1.19-0.55-2.3-2.14-2.04c-1.49,0.25-2.17,1.21-1.92,2.65c0.87,5.09-0.02,10.29,1.06,15.36c0.21,0.99,0.49,2.18-0.57,2.9
	c-1.19,0.8-2.17-0.1-3.13-0.66c-1.4-0.81-2.68-1.81-4.08-2.63c-1.29-0.76-2.36-0.49-3.23,0.69c-0.89,1.2-0.35,2.13,0.58,2.98
	c1.69,1.54,3.54,2.89,5.27,4.38c2.59,2.23,2.66,3.17,0.36,5.59c-2.04,2.14-3.45,4.77-5.43,6.97c-0.89,0.98-1.44,2.16,0.49,2.82
	c1.55,0.53,1.57,1.79,1.18,3.06c-0.64,2.1-1.6,4.07-2.48,6.07c-0.4,0.91-1.05,1.64-2.18,1.53c-1.05-0.11-1.25-1.03-1.56-1.82
	c-2.33-5.85-3.74-11.99-5.61-17.98c-3.06-9.81-6.03-19.65-9.1-29.45c-0.33-1.03-0.87-1.65-1.93-1.83
	c-5.05-0.84-10.05-2.1-15.23-1.96c-2.98-0.11-5.96-0.1-8.88,0.66c-3.14-1.24-4.63-3.25-5.3-6.87c-1.34-7.27-2.74-14.55-4.46-21.76
	c-0.77-3.23-0.13-4.02,3.07-3.85c10.37,0.53,18.09-9.73,14.67-19.46c-0.94-2.67-0.66-2.96,1.91-4.35
	c6.71-3.65,11.09-9.17,12.46-16.77c0.72-4-1.63-8.56-5.14-10.63c-0.98-0.58-2.06-0.98-3.06-1.51c-1.74-0.91-2.15-2.31-0.89-3.71
	c3.34-3.71,3.85-8.09,3.56-12.78C199.45,196.69,199.27,195.32,199.99,194.09z"/>
<path d="M-10.01,267.13c-0.19-10.46-0.23-20.93-0.63-31.38c-0.14-3.82,2.87-3.1,4.71-3.82c1.71-0.67,3.85-0.96,4.25,2.01
	c0.15,1.08,0.81,2.09,1.33,3.38c0.82-0.89,1.55-1.7,1.79-2.82c0.49-2.3,2.05-2.98,4.17-2.89c1.99,0.08,2.43,1.49,2.68,3.08
	c0.18,1.16,0.71,2.08,1.8,2.83c0.52-0.89,1.07-1.64,1.43-2.47c1.65-3.76,2.03-3.78,5.9-2.45c1.65,0.57,1.36,1.45,1.3,2.56
	c-0.05,0.76-0.08,1.52-0.06,2.28c0.02,0.63-0.1,1.49,0.87,1.46c0.74-0.02,1.13-0.62,1.19-1.37c0.34-3.69,1.58-7.18,2.37-10.78
	c1.07-4.95,2.26-9.89,3.26-14.85c0.31-1.54,0.78-2.57,2.51-2.13c1.91,0.48,3.86,1.27,3.21,3.74c-0.63,2.42-0.7,4.86-1.07,7.29
	c-1.33,8.78-2.81,17.54-4.19,26.32c-0.22,1.41-0.23,2.84-0.3,4.27c-0.15,2.71,0.25,2.79,2.89,2.01c4.75-1.41,4.12-5.73,5.15-9.07
	c0.93-3.03,1.51-6.13,4.19-8.25c0.51-0.41,0.86-0.87,1.62-0.95c3.01-0.29,4.1,0.6,3.37,3.54c-1.57,6.34-1.64,13.22-5.26,18.84
	c-3.96,6.15-7.49,12.68-12.9,17.79c-3.91,3.29-2.25,7.32-1.39,11.17c1.18,5.29,2.59,10.51,3.68,15.82c0.65,3.15,0.27,3.98-2.82,3.97
	c-5.85-0.04-5.31,0.46-5.82,5.71c-0.66,6.78-1.34,13.58-2.27,20.33c-1.05,7.63-1.5,15.33-2.85,22.91c-1.04,3.3,0.05,6.95-1.79,10.73
	c3.47-3.93,7.27-6.74,10.51-10.17c7.6-7.3,15.05-14.75,22.69-22.02c11.63-11.07,23.11-22.3,34.49-33.63
	c1.16-1.15,2.46-1.63,4.07-1.69c9.41-0.37,18.79,0.85,28.2,0.62c1.28-0.03,2.52,0.18,2.71,1.85c1.57,24.41,3.14,48.82,4.7,73.24
	c0.97,15.3,1.87,30.59,2.92,45.89c0.15,2.14-0.28,2.75-2.5,2.76c-14.28,0.07-28.57,0.25-42.85,0.52c-2.34,0.05-3.05-0.35-2.77-2.92
	c2.21-20.05,4.24-40.12,6.33-60.19c0.04-0.37,0.01-0.75,0.01-1.16c-1.01-0.39-1.3,0.55-1.77,0.99
	c-13.71,13.21-27.43,26.42-41.07,39.7c-1.36,1.32-2.68,1.78-4.54,1.7c-20.35-0.91-40.71-1.78-61.07-2.57
	c-1.94-0.07-2.66-0.39-2.25-2.54c2.39-12.51,4.98-24.98,6.92-37.58c0.06-0.35,0.31-0.68,0.48-1.02c0.74-4.17,1.45-8.34,2.23-12.5
	c1.02-5.45,2.1-10.9,3.13-16.35c1.26-6.7,2.48-13.41,3.74-20.1c0.38-1.99-0.02-3.17-2.41-2.79c-2.38,0.38-2.5-0.94-1.88-2.71
	c2.72-7.74,5.36-15.51,8.18-23.21c1.26-3.45,0.22-6.75-0.05-10.13C-9.63,268.99-9.86,268.07-10.01,267.13z"/>
<path d="M-237.81,354.92c9.73-5.77,19.59-11.33,29.15-17.37c8.27-5.22,17.03-4.57,26.04-3.49c6.59,0.79,12.09,4.21,17.8,7.06
	c1.85,0.93,2.67,0.53,3.16-1.08c1.75-5.74,5.62-7.02,11.33-6.75c8.52,0.39,17.09-0.21,25.64-0.49c2.07-0.07,3.16,0.57,3.5,2.71
	c0.26,1.57,1.03,3.05,1.39,4.61c0.99,4.27,1.27,4.4,5.45,3.43c7.88-1.83,15.9-1.5,23.79-0.52c8.51,1.06,14.5,6.77,20.03,12.86
	c0.12,0.13,0.29,0.21,0.44,0.31c7.5,7.1,11.5,15.78,12.68,26.07c1.25,10.95,2.64,21.9,3.83,32.86c0.22,1.98-0.14,2.63-2.27,2.62
	c-57.31-0.08-114.63-0.11-171.94-0.06c-2.47,0-2.54-0.89-2.19-2.84c1.86-10.78,3.63-21.57,5.43-32.36c0.17-1.01,0.29-2.03,0.5-3.51
	c-5.11,2.43-9.8,4.66-14.49,6.91c-12.17,5.85-24.36,11.67-36.5,17.58c-1.96,0.95-3.63,1.13-5.62,0.08
	c-2.94-1.54-6.01-2.85-9.07-4.16c-1.72-0.74-2.51-1.99-2.51-3.77c0.06-11.7,1.98-23.09,5.82-34.16c0.42-1.21,1.15-1.26,2.19-1.2
	c5.98,0.37,11.97,0.73,17.96,1c1.59,0.07,1.97,0.63,1.52,2.1c-0.66,2.18-1.22,4.39-1.81,6.6c-0.14,0.53-0.63,1.12-0.15,1.6
	c0.69,0.69,1.22-0.15,1.71-0.43c6.41-3.75,12.78-7.54,19.15-11.34C-243.15,358.22-240.49,356.56-237.81,354.92z"/>
<path d="M199.99,194.09c0.69,6.22,0.97,12.36-3.64,17.49c-0.93,1.03-0.42,1.63,0.7,2.1c1.19,0.5,2.32,1.18,3.5,1.73
	c5.18,2.41,6.92,10.41,3.49,17.15c-2.73,5.35-6.32,9.89-12.32,11.89c-1.4,0.46-0.99,1.45-0.58,2.31c1.91,3.94,1.94,8.02-0.05,11.76
	c-2.74,5.14-8.52,10.59-15.09,9.5c-2.91-0.48-2.94-0.21-2.33,2.69c1.73,8.26,3.38,16.53,4.94,24.82c0.22,1.14,0.74,1.69,1.66,2.03
	c1.11,0.42,2.08,0.93,2.44,2.17c0.02,0.11-0.02,0.2-0.11,0.27c-0.73,3.84-0.15,7.72-0.33,11.58c-0.11,2.37,0.16,4.74-0.14,7.1
	c-0.38,33.69-0.78,67.38-1.11,101.06c-0.02,1.93-0.67,2.34-2.47,2.35c-14.66,0.11-29.31,0.29-43.97,0.51
	c-1.73,0.03-2.45-0.27-2.56-2.25c-1.57-27.36-3.25-54.71-4.87-82.07c-0.63-10.54-1.22-21.09-1.82-31.63
	c-0.34-1.02-0.09-2.07-0.17-3.11c-0.17-2.23-0.34-4.37,2.78-4.83c1.05-0.15,1.58-1.29,1.95-2.3c3.15-8.66,6.74-17.15,9.94-25.79
	c0.21-0.58,0.79-1.28,0.06-1.79c-0.62-0.45-1.27,0.11-1.85,0.39c-4.33,2.1-8.78,3.53-13.69,3.36c-8.65-0.3-14.25-6.74-13.29-15.32
	c0.45-4.02,1.73-7.78,3.03-11.55c0.5-1.46,1.42-2.46,3.05-2.61c6.29,0.35,10.74-3.82,15.86-6.41c-4.54,0.69-8.95,1.93-13.5,2.53
	c-0.88-0.16-2.01-0.09-1.48-1.57c1.17-2.25,1.99-4.63,2.67-7.07c0.39-1.41-0.17-1.97-1.5-2.02c-1.33-0.05-2.66-0.02-3.99-0.09
	c-1.47-0.07-3.32,0.22-3.21-2.1c0.1-2.09,1.01-3.67,3.43-3.63c2.91,0.05,5.51-0.89,8.06-2.22c3.37-1.76,5.26-4.44,6.07-8.15
	c0.99-4.55,2.03-9.12,4.27-13.31c0.57-1.05,1.26-1.59,2.35-1.77c2.47-1.04,5.05-0.47,7.59-0.46c0.66,0.01,1.31,0.22,1.98,0.21
	c0.55-0.01,1.29,0.09,1.39-0.65c0.12-0.81-0.67-0.8-1.18-0.87c-1.6-0.22-3.19-0.45-4.77-0.78c-0.54-0.11-1.14-0.22-1.3-0.91
	c-1.46-0.25-1.93-0.76-0.86-2.15c2.66-3.48,6.42-5.26,10.34-6.75c4.91-1.87,9.9-3.11,15.19-1.35c1.41,0.47,2.75,0.03,4.21-0.82
	c7.73-4.5,15.59-5.01,23.41-0.07c2.65,1.67,4.35,4.18,5.57,6.93C198.4,191.15,199.27,192.58,199.99,194.09z"/>
<path class="st2" d="M378.24,277.45c-2.66,0.5-4.44,2.46-6.41,4.02c-5.54,4.43-4.29,3.86-7.83-1.11
	c-5.41-7.59-10.35-15.52-15.5-23.3c-2.22-3.35-4.48-6.66-6.7-10.01c-0.99-1.5-2.06-2.28-4.07-1.61c-7.95,2.68-15.95,5.25-23.96,7.77
	c-5.73,1.8-11.51,3.45-17.27,5.16c-0.33,1.09-1.33,1.26-2.2,1.54c-2.86,0.95-5.7,1.98-8.61,2.8c-4.93,1.39-7.19,0.17-9.02-4.89
	c-1.85-4.02-4.71-7.47-6.06-11.84c-0.65-2.09,0.05-3.41,0.86-4.64c6.02-9.03,12.35-17.85,18.28-26.93
	c3.79-5.81,7.63-11.62,11.45-17.41c3.41-5.15,7.03-10.21,10.52-15.34c7.86-11.55,15.66-23.15,23.49-34.74
	c1.53-2.27,3.01-4.59,4.59-6.82c1.11-1.56,2.85-1.05,4.11-0.56c2.33,0.89,4.4,0.86,6.75,0.02c3.47-1.23,6.93,0.37,10.16,1.25
	c3.81,1.03,7.7,1.7,11.47,2.92c1.91,0.62,3.85,1.48,5.98,1.16c1.05-0.18,2.07-0.02,3.1,0.25c3.26,0.84,3.69,1.49,2.98,4.83
	c-1.38,6.5-2.38,13.08-3.71,19.59c-0.15,0.73-0.54,1.62,0.05,2.19c0.77,0.76,1.59-0.07,2.34-0.33c3.35-1.11,6.37-2.96,9.65-4.24
	c1.17-0.13,2.37-0.93,3.51,0.09c4.78,4.22,8.69,9.26,13.17,13.76c0.57,0.57,0.97,1.74,1.87,1.51c1.05-0.25,0.93-1.52,1.16-2.39
	c1.91-7.34,3.81-14.68,5.65-22.03c0.51-2.05,1.18-2.93,3.66-2.2c6.09,1.8,12.27,3.38,18.49,4.66c3.7,0.75,7.39,1.51,11.07,2.37
	c2.81,0.65,3.58,1.78,3.39,4.61c-1.06,15.74-1.94,31.5-2.86,47.26c-0.33,5.5-0.63,11.01-0.95,16.51c0.87,5.27,1.03,10.55-0.12,15.79
	c-0.35,1.6-0.52,3.19-0.45,4.79c0.5,10.62-1.37,21.14-1.45,31.76c-0.03,4.62-0.66,9.39-0.9,14.11c-0.13,2.67-4.34,6.46-7.46,6.77
	c-1.7,0.17-3.41,0.11-5.11,0.02c-2.44-0.37-4.85-0.93-7.27-1.43c-3.28-0.69-5.5-2.39-6.79-5.74c-4.61-11.97-9.34-23.89-14.12-35.79
	c-1.61-4.01-1.53-3.91-5.19-1.3c-7.73,5.54-15.37,11.18-22.94,16.91C378.82,277.42,378.53,277.46,378.24,277.45z"/>
<path class="st2" d="M-237.76,227.04c4.3-1.72,8.42-3.83,12.7-5.61c6.18-2.57,12.74-3.59,19.1-5.38c3.47-0.97,6.78-2.29,10.21-3.31
	c3.57-1.07,5.13-4.3,7.45-6.63c7-7.08,13.71-14.44,20.56-21.67c0.66-0.7,1.09-1.68,2.32-1.77c1.63-0.12,2.93,0.72,4.16,1.5
	c0.2,0.13-0.44,1.78-0.87,2.65c-3.58,7.33-8.47,13.73-14.07,19.6c-0.58,0.61-1.13,1.17-1.6,2.14c2.3,0.66,4.65,0.87,6.85,1.25
	c10.41,1.76,20.92,3.79,31.5,2.39c7.37-0.98,14.9-2.44,19.99-8.9c2.27-2.89,2.97-6.51,4.26-9.85c0.56-1.44,1.06-2.97,1.55-4.45
	c1.11-3.33,4.14-1.62,6.34-1.72c2.38-0.11,1.34,1.99,1.25,2.99c-0.99,11.95-6.5,20.97-17.51,26.27c-1.66,0.8-4.02,0.01-5.21,2.18
	c10.27,2.09,21.77-2.01,25.87-12.31c1.66-4.17,2.73-8.73,2.73-13.38c0-1.62,0.06-3.37,2.29-3.51c2.35-0.15,5.65,2.14,5.54,3.95
	c-0.49,8.17-2.26,15.84-7.51,22.53c-2.36,3.01-4.95,5.47-8.51,7.26c4.32,1.26,9.66-0.3,13.54-4.23c3.81-3.86,6.18-8.59,7.27-13.96
	c0.61-2.99,1.27-5.99,2.24-8.89c0.67-2.01,2.61-0.86,3.96-0.86c1.43,0.01,2.73,0.5,2.83,2.41c0.19,3.27-0.79,6.38-1.57,9.42
	c-1.41,5.47-3.65,10.74-6.56,15.61c-4.37,7.32-9.42,13.37-18.85,15.05c-8.48,1.51-16.83,1.16-25.16,0.51
	c-6.99-0.55-13.93-2.33-20.82-3.96c-4.05-0.96-8.25-1.34-12.27-2.55c-3.34-1.01-6.7-1.96-10.02-3.05c-2.05-0.67-4.2-0.45-6.33-1.18
	c-2.38-0.81-5.13-0.66-7.67-1.43c-4.63-1.42-4.75,2.94-5.97,5.28c-2.95,5.62-6.3,10.9-10.39,15.78c-4.19,5.01-8.45,9.94-13.26,14.36
	c-5.63,5.17-12.26,8.88-18.93,12.49c-0.62,0.34-0.92,0.87-1.45,1.22c-4.51,1.41-8.7,3.63-13.28,4.89
	c-11.81,3.23-23.73,5.39-36.05,4.19c-2-0.19-3.97-0.19-5.91,0.49c-1.29,0.45-2.64,0.32-3.9-0.25c-7.45-3.37-12.94-8.73-16.39-16.16
	c-0.75-1.62-0.83-3.3-0.42-5.02c5.82-24.78,11.65-49.55,17.45-74.33c3.23-13.77,6.41-27.55,9.61-41.33
	c0.69-2.97,2.66-4.53,5.54-4.93c15.66-2.18,28.59,7.78,34.14,21.06c0.78,1.86,1.02,3.85,1.13,5.85c0.94,17.3-2.17,33.7-9.19,49.67
	c-4.24,9.66-9.94,18.33-15.03,27.42c-0.55,0.98-1.14,1.94-1.45,3.22C-260.43,242.09-250.23,232.88-237.76,227.04z"/>
<path d="M340.89,96.41c1.41,2.55,1.82,5-0.69,7.18c-0.9,0.79-0.62,1.67-0.22,2.59c3.13,7.26-1.03,11.67-7.66,11.43
	c-3.98-0.14-7.98,0.29-11.97,0.48c-0.5,0.02-1.29-0.22-1.33,0.61c-0.03,0.66,0.58,0.84,1.19,0.96c3.99,0.79,7.96,1.71,11.97,2.37
	c1.82,0.3,2.34,0.96,2.15,2.81c-0.34,3.4-0.43,6.83-0.49,10.26c-0.04,2.25-0.7,3.35-3.28,3.54c-12.02,0.87-24.04,1.86-36.03,3.04
	c-12.66,1.24-25.34,2.34-38.01,3.53c-8.78,0.83-17.58,1.63-26.37,2.46c-2.95,0.28-4.89,2.05-7.05,3.42
	c-9.97,6.31-19.84,12.81-29.67,19.34c-1.59,1.06-2.36,1.05-3.29-0.7c-2.74-5.15-2.69-5.66,1.93-9.47
	c4.07-3.37,8.13-6.74,12.22-10.09c0.5-0.41,1.14-0.65,2.07-1.17c-1.88-0.87-2.83-0.57-3.82-0.29c-6.37,1.82-12.74,3.6-19.11,5.41
	c-3.17,0.9-6.36,1.71-9.45,2.82c-1.91,0.69-2.6-0.16-3.11-1.68c-0.34-0.98-0.53-2.03-0.98-2.95c-0.76-1.54-0.19-2.33,1.28-2.75
	c8.16-2.32,16.34-4.59,24.47-7c1.86-0.55,3.9-0.72,5.51-1.91c-0.18-0.98-0.87-0.75-1.37-0.75c-9.52-0.02-19.05-0.02-28.57,0.01
	c-0.65,0-1.3,0.2-1.95,0.31c-1.97-0.02-3.94-0.13-5.9-0.03c-1.53,0.07-2.02-0.58-1.97-1.99c0.25-6.95-1.05-5.73,5.49-5.94
	c0.92-0.03,1.91,0.21,2.72-0.5c2.11-0.95,4.34-1.46,6.63-1.35c9.91,0.47,19.74-1.05,29.63-1.16c1.91-0.02,2.82-0.77,2.73-2.73
	c-0.14-2.73-1.18-5.18-2.44-7.53c-0.64-1.19-1.93-1.47-3.18-1.65c-1.23-0.18-2.49-0.26-3.7-0.11c-5.44,0.65-8.18-2.82-10.4-6.89
	c-1.31-2.39-0.26-4.26,2.43-4.87c0.65-0.15,1.33-0.24,1.98-0.14c5.59,0.84,11.21,0.3,16.82,0.53c5.32,0.21,9.55,2.09,11.65,7.51
	c1.17,3.01,2.44,5.99,3.82,8.91c0.83,1.75,1.95,2.58,3.99,2.47c12.62-0.7,25.26-0.93,37.85-2.21c0.19-0.02,0.38-0.07,0.57-0.06
	c9.63,0.52,19.15-1.42,28.77-1.23c2.18,0.05,4.36-0.03,6.77-0.85c-4.01-0.98-6.55-3.08-6.86-7.13c-0.25-3.22,1.2-5.19,4.38-5.57
	c6.79-0.79,13.5-2.32,20.38-2.5c1.62-0.04,3.19-0.41,4.86-1.26c-1.09-0.63-2.11-0.42-3.07-0.42c-7.04-0.02-14.09,0.02-21.13-0.03
	c-4.15-0.03-5.36-2.14-3.54-5.92c1.25-2.58,3.05-4.53,5.74-5.67c5.25-2.25,10.27-4.98,15.42-7.43c0.73-0.35,2.21-0.62,1.6-1.87
	c-0.52-1.06-1.78-0.91-2.81-0.48c-1.4,0.59-2.82,1.17-4.13,1.95c-5.39,3.26-11.17,5.7-16.93,8.2c-1.06,0.46-2.01,1.1-2.92,1.78
	c-3.2,2.4-6.86,3.16-10.75,3.17c-17.51,0.02-35.03,0.33-52.53-0.13c-8.94-0.23-17.87-0.29-26.81-0.45
	c-1.12-0.02-2.31,0.11-3.19-0.86c2.3-3.07,5.92-4.35,8.93-6.44c6.42-4.45,13.02-8.63,19.65-12.78c1.65-1.03,1.53-1.64,0.43-2.99
	c-2.54-3.14-2.47-3.21-5.83-1.31c-14.47,8.15-28.93,16.31-43.39,24.46c-1.43-0.18-2.82,0.27-4.23,0.34
	c-1.43,0.07-2.89,0.15-3.83-1.27c-0.49-0.85-0.78-1.74-0.65-2.73c0.74-5.92,1.51-11.85,2.41-17.73c0.73-4.82,3.99-8.33,8.91-9.86
	c6.86-2.14,13.95-2.95,21.08-3.26c6.77-0.29,13.35,0.47,19.98,2.44c5.91,1.76,12.26,2.1,18.11,4.51c0.1-0.22,0.19-0.44,0.29-0.66
	c-1.05-2-2.1-3.99-3.13-6c-4.54-8.86-4.73-18.09-2.09-27.47c0.58-2.08,0.28-2.69-1.9-2.61c-3.23,0.11-6.47-0.11-9.7-0.05
	c-1.84,0.03-1.86-0.53-1.5-2.18c0.66-3.06,2.04-4.35,5.27-3.67c1.83,0.39,3.79,0.2,5.69,0.29c6.31,0.3,6.31,0.3,10.27-5.47
	c-6.87-0.45-13.52-0.89-20.48-1.34c1.21-2.22,2.39-3.5,4.97-3.67c8.25-0.55,16.5-1.41,24.74-1.87c5.79-0.33,11.83-0.06,17.46,1.99
	c7.69,2.8,10.49,10.51,7.47,20.1c0.59,0.57,1.03-0.02,1.51-0.22c3.57-1.47,7.16-0.41,8.64,2.59c1.38,2.8-0.09,6.72-3.33,8.45
	c-1.14,0.61-2.13,1.25-2.73,2.38c-3.18,5.89-8.29,9.81-13.64,13.51c-1.41,0.97-3.9,1.45-2.61,4.17c0.93,1.94,3.91,3.19,6.18,2.22
	c8.29-3.55,17.22-4.77,25.84-7.03c6.95-1.83,14.28-1.79,21.24-0.3c10.7,2.29,13.67,7.34,15.72,19.05c0.3,1.69,0.39,3.3,1.38,4.82
	c1.06,1.63,1.78,3.7,0.86,5.43C337.88,94.12,339.19,95.22,340.89,96.41z"/>
<path d="M-37.47,147.52c-0.22,1.34-1.51,1.74-2.29,2.59c-2.93,1.41-6.06,1.36-9.2,1.37c-3.7,0.02-7.4-0.23-11.75,0.3
	c4.74,1.03,8.74,2.26,12.74,3.49c0.87,0.27,1.92,0.3,2.43,1.29c-0.84,1.85-1.4,3.87-3.22,5.1c-1.66,1.05-3.48,0.78-5.26,0.54
	c-6.32-0.86-12.7,0.06-19.02-0.61c-0.37-0.04-0.73,0.19-1.06,0.37c-5.05-0.13-9.82-1.83-14.75-2.61c-5.03-0.8-10.02-1.91-14.99-3.02
	c-4.69-1.05-9.41-1.94-14.1-2.95c-4.41-0.95-8.89-1.68-13.33-2.6c-5.82-1.21-11.73-2.04-17.46-3.67
	c-8.24-5.99-11.19-14.3-11.14-24.22c0.04-6.82,1-13.37,3.79-19.56c1.11-2.46,2.86-4.64,4.33-6.95c1.19-1.34,2.39-2.69,3.57-4.04
	c14.99-17.19,34.13-22.99,56.39-21.3c9.16,0.7,18.02,2.91,27.09,3.89c4.18,0.45,8.37,0.46,12.53-0.23c3.42-0.56,4.03-2.05,2.06-4.71
	c-1.94-2.62-3.29-5.55-4.57-8.54c-0.65-1.5-0.28-2.02,1.33-2.17c4.07-0.38,8.13-1.03,12.2-1.3c2.35-0.15,2.72-1.1,2.5-3.21
	c-0.71-6.91-1.14-13.85-1.87-20.75c-0.24-2.26,0.52-2.74,2.58-2.78c4.62-0.09,9.25-0.41,14.05-0.65c-0.57-1.81-1.32-2.62-3.14-2.41
	c-4.73,0.53-9.47,0.99-14.22,1.25c-1.89,0.1-2.12,0.91-2.06,2.49c0.26,6.28,0.34,12.57,0.66,18.83c0.1,2.05-0.27,2.83-2.55,2.79
	c-9.6-0.18-19.21-0.49-28.79,0.43c-1.57,0.15-2.15-0.09-1.27-1.8c6.18-12.01,12.31-24.05,18.42-36.1c0.66-1.3,1.57-1.67,2.95-1.69
	c10.57-0.18,21.13-0.39,31.7-0.67c1.44-0.03,2.18,0.39,2.77,1.77c4.93,11.55,9.9,23.08,14.96,34.57c0.89,2.01,0.43,2.43-1.6,2.38
	c-3.52-0.09-7.05,0.05-10.57,0.05c-1.85,0-2.96,0.66-3.03,2.71c-0.09,2.63-1.15,3.78-4.11,3.13c-3.19-0.71-6.52-0.81-10.01-0.7
	c3.25,1.89,6.44,3.89,9.76,5.64c1.73,0.91,2.51,1.89,1.67,3.79c-0.19,0.42-0.2,0.93-0.31,1.39c-1.42,5.97-1.44,6.15,4.78,6.95
	c8.24,1.06,16.31-0.26,24.27-2.41c0.92-0.25,1.85-0.45,2.77-0.68c3.51,2.57,5.37,6.37,7.09,10.13c1.99,4.38,3.75,8.88,4.56,13.67
	c-1.03,1.66-2.71,1.07-4.12,1.07C0.41,97.22-15.87,97.2-32.15,97.2c-19.42,0-38.83,0.04-58.25-0.05c-3.01-0.01-5.42,0.75-7.82,2.66
	c-7.06,5.63-14.14,11.24-21.6,16.36c-2.83,1.95-6.06,3.19-8.9,5.11c-0.86,0.58-1.91,0.9-2.49,1.86c0.22,1.07,1.12,0.9,1.81,0.92
	c8.47,0.28,16.92-0.15,25.35-0.95c2.25-0.21,4.16-1.13,6.01-2.4c7.93-5.43,15.99-10.66,23.94-16.06c2.1-1.43,4.24-2.49,6.91-1.26
	c3.12,1.43,3.46,2.7,0.85,4.88c-3.36,2.81-6.71,5.63-10.17,8.31c-1.5,1.16-2.94,2.36-4.35,3.82c10.79-0.02,20.6-3.86,30.67-6.39
	c2.03-0.51,4.09-0.91,6.11-1.42c1.87-0.47,3.35,0.28,3.74,2.14c0.99,4.84,0.72,6.15-3.19,7.73c-6.58,2.65-13.39,4.74-19.8,8.02
	c8.46-0.38,16.93,0.43,25.37-0.5c2.66-0.29,3.43,0.48,3.62,3.13c0.47,6.51,0.09,6.91-6.55,6.94c-6.37,0.02-12.74,0.03-19.1-0.53
	c-1.3-0.11-3.46-0.57-3.62,1.2c-0.16,1.75,2.04,1.24,3.18,1.42c6.47,1.02,12.99,1.78,19.49,2.57
	C-39.18,144.92-37.39,145.05-37.47,147.52z"/>
<path class="st2" d="M378.54,136.13c-4.31-2.46-4.43-7.59-7.03-11.03c-4.25-5.63-0.55-9.69,1.86-14.09
	c0.52-0.95,0.94-1.86,0.22-2.49c-1.02-0.88-1.8,0.11-2.49,0.9c-0.77,0.9-1.85,1.62-2.34,2.65c-1.39,2.88-2.25,2.55-3.48-0.14
	c-0.38-0.83-0.4-1.73-0.91-2.55c-1.53-2.46-2.65-2.98-5.32-1.63c-0.81,0.41-1.58,0.6-2.41,0.68c-1.38,0.14-1.67,0.03-1.41-1.79
	c0.5-3.42,2.02-6.69,1.69-10.23c1.46-1.83,1.35-3.87,0.65-5.91c-0.77-2.24-1.63-4.45-2.55-6.64c-3.54-8.47-4.23-17.25-1.58-25.93
	c2.39-7.81,7.71-13.81,15.56-16.27c3.65-1.14,6.58-2.61,9.31-5.09c1.6-1.45,3.65-2.37,5.82-2.88c3.9-0.92,6.99,0.39,8.58,4.06
	c0.94,2.17,1.89,0.8,2.83,0.31c8.94-4.66,18.17-1.31,21.45,7.82c2.31,6.42,1.77,12.64-1.73,18.75c2.03,0.12,3.95,0.1,5.88,0.55
	c8.72,2.07,11.49,8.94,13.38,16.44c1.38,5.46,1.38,10.8-3.13,15.11c-1.05,1.01-0.07,1.45,0.55,1.98c2.29,1.99,4.65,3.91,6.62,6.24
	c4.69,5.55,5.14,13.96,0.99,18.97c-2.13,2.57-3,4.9-3.17,8.45c-0.22,4.61-3.92,8.65-8.65,9.14c-2.83,0.3-5.71,0.41-8.55,0.26
	c-1.81-0.1-2.38,0.51-2.47,2.15c-0.11,1.9-0.59,3.79-0.51,5.68c0.11,2.69-1.31,4.16-3.36,5.45c-5.54,3.48-11.03,7.02-16.55,10.54
	c-1.21,0.79-2.45,2.09-3.51-0.18c-3.82-10.01-5.4-20.23-2.4-30.92c-1.81,0.79-2.86,2.05-4.29,2.78
	C383.06,138.83,380.36,138.44,378.54,136.13z"/>
<path d="M191.58,299.05c0.69-1.7,2.13-0.98,3.2-0.83c4.33,0.6,8.62,1.39,12.94,2.05c0.96,0.15,1.4,0.47,1.7,1.49
	c2.74,9.23,5.57,18.43,8.4,27.63c2.13,6.94,3.92,13.98,6.45,20.8c0.22,0.59-0.01,1.42,0.97,1.47c0.9,0.05,0.99-0.67,1.25-1.29
	c0.81-2.01,1.66-4,2.51-5.99c0.53-1.23,0.75-2.19-1.13-2.29c-2.27-0.11-2.46-1.27-1.22-2.89c2.13-2.77,4.18-5.59,6.48-8.22
	c1.39-1.59,1.72-2.65-0.19-4.05c-2.13-1.56-4.04-3.42-6.11-5.07c-1.22-0.97-1.92-1.9-0.57-3.25c1.15-1.15,1.83-3.41,4.19-1.59
	c1.57,1.21,3.32,2.18,4.96,3.3c0.63,0.43,1.27,1.05,2.01,0.63c0.7-0.41,0.2-1.2,0.15-1.84c-0.43-5.49-0.76-10.99-1.31-16.47
	c-0.3-2.94,1.82-2.93,3.59-3.3c2.11-0.44,1.94,1.31,2.1,2.55c0.3,2.45,0.44,4.91,0.72,7.37c0.1,0.87-0.1,2.24,1.11,2.25
	c0.98,0.01,0.99-1.27,0.99-2.07c-0.03-3.73,1.51-7.25,1.37-10.98c-0.1-2.49,1.62-2.71,3.46-2.61c2.54,0.14,1.39,1.97,1.31,3.19
	c-0.26,3.98-0.63,7.95-0.92,11.93c-0.05,0.69-0.32,1.7,0.8,1.8c0.91,0.08,0.83-0.83,1.05-1.43c1.22-3.38,2.43-6.75,3.67-10.13
	c0.77-2.1,5.39-3.22,7.07-1.7c0.8,0.73,0.26,1.55-0.04,2.35c-1.26,3.35-2.58,6.69-3.71,10.09c-0.35,1.06-1.14,2.5,0.26,3.36
	c1.14,0.7,2.26,0.65,2.95-0.97c1.42-3.28,3.07-6.45,4.53-9.71c0.61-1.37,1.32-2.39,2.97-1.79c1.65,0.59,1.24,1.8,0.82,3.05
	c-2.29,6.79-4.5,13.59-6.82,20.37c-0.55,1.62-0.4,3.18-0.15,4.78c0.66,4.31,1.4,8.6,2.02,12.91c0.44,3.06,0.11,3.32-2.87,2.76
	c-0.37-0.07-0.75-0.11-1.13-0.16c-4.29-0.59-4.3-0.59-5.11,3.63c-0.33,1.75-1.53,3.31-1.11,5.22c-1.89,2.89-1.9,6.34-2.72,9.53
	c-4.05,15.66-8.04,31.33-11.93,47.03c-0.45,1.83-1.25,2.23-2.93,2.13c-2.47-0.14-4.96-0.23-7.42-0.05c-2.1,0.15-2.98-0.74-3.71-2.59
	c-3.82-9.64-7.78-19.22-11.7-28.82c-0.24-0.59-0.56-1.14-0.86-1.74c-1.11,0.54-0.61,1.39-0.58,2.04c0.41,12.37,0.81,24.74,1.33,37.1
	c0.07,1.6-0.54,1.66-1.77,1.67c-5.52,0.01-11.05-0.05-16.57,0.23c-2.59,0.13-2.86-0.92-2.89-3.11
	c-0.46-35.22-0.99-70.45-1.53-105.67C191.83,308.47,191.69,303.76,191.58,299.05z"/>
<path class="st3" d="M118,237.64c-0.17,1.36,0.89,0.93,1.55,1.06c0.22,2.1-1.18,3.5-2.18,5.07c-1.13,0.06-2.01,0.46-2.41,1.62
	c-1.52,4.48-2.9,8.95-3.3,13.75c-0.63,7.38,6.28,12.15,11.62,12.54c5.47,0.41,10.49-1.06,15.27-3.57c0.79-0.42,1.67-1.41,2.54-0.65
	c0.88,0.76,0.03,1.78-0.29,2.62c-3.45,9.11-6.92,18.21-10.41,27.3c-0.55,1.43-1.87,2.65-3.14,2.59c-2.48-0.1-1.99,1.31-1.97,2.71
	c0.03,1.32,0,2.64,0,3.95c-0.13-0.82-0.18-1.66-0.39-2.45c-0.39-1.47,0.66-4.09-0.89-4.26c-2.96-0.34-6.26-1.25-9.05,0.97
	c-0.57-1.05-1.5-1.17-2.59-1.18c-9.03-0.09-18.06-0.14-27.07-0.42c-2.4-0.07-4.05,0.73-5.68,2.33
	c-13.82,13.47-27.7,26.89-41.54,40.33c-4.9,4.75-9.76,9.55-14.64,14.33c-2.3,0.33-4.61,0.46-6.94,0.33
	c-1.09-0.06-2.27,0.07-3.01-1.05c0.78-7.25,1.54-14.5,2.35-21.75c0.46-4.13,1.32-8.23,1.43-12.37c0.13-4.66,1.62-9.15,1.38-13.82
	c-0.07-1.53,0.86-2.01,2.13-2.06c1.71-0.06,3.42-0.09,5.13-0.03c1.7,0.06,1.85-0.76,1.51-2.15c-1.8-7.39-3.53-14.79-5.34-22.18
	c-0.78-3.17,1.02-4.71,3.47-5.91c4.74,3.42,9.98,5.54,15.67,6.99c3.97,1.02,7.89,1.18,11.76,0.78c7.58-0.79,14.75-3.11,21.49-6.83
	c6.99-3.85,12.21-9.78,18.26-14.74c4.96-4.07,10.55-7.35,15.9-11.01c-0.33-0.81-1.1-0.47-1.68-0.47c-4.31,0.04-8.47,1.07-12.63,2.08
	c-1.63,0.39-2.91,0.25-2.63-1.94c0.44-3.55-0.85-6.9-1.19-10.36c-0.98-2.02-0.13-2.85,1.9-2.87c0.95-0.01,1.91-0.1,2.76,0.48
	C102.8,237.69,110.39,239.33,118,237.64z"/>
<path class="st2" d="M-223.79,96.37c-0.02,0.47-0.01,0.95-0.07,1.42c-0.21,1.5,0.77,3.59-1.09,4.3c-1.44,0.54-2.69-1.11-4.01-1.79
	c-0.97-0.49-1.78-1.26-2.71-1.83c-1.58-0.99-2.71-0.23-3.89,0.91c-1.51,1.46-0.02,2.22,0.66,2.94c2.18,2.33,4.48,4.55,6.8,6.75
	c1.02,0.97,1.09,1.62,0.42,3.02c-2.57,5.38-5.91,10.17-10.02,14.46c-1.65-0.39-2.82,0.83-4.17,1.33
	c-7.45,2.77-14.43,0.33-21.43-1.78c-9.77-2.93-17.83-12.86-18.67-23.11c-0.48-5.79-0.23-11.59,0.49-17.37
	c0.84-6.73,1.97-13.35,5.01-19.5c0.94-1.89-0.04-2.1-1.58-2.02c-2.66,0.13-5.33,0.13-7.99,0.31c-1.78,0.12-2.32-0.56-2.26-2.3
	c0.21-6.1,0.15-6.1,6.36-6.75c2.74-0.29,5.48-0.73,8.23-0.83c2.18-0.08,3.36-1.12,4.41-2.91c4.8-8.23,11.37-14.66,19.91-18.99
	c0.59-0.3,1.21-0.55,1.82-0.79c0.41-0.16,0.85-0.27,1.59-0.49c-0.56,1.8-1.64,2.86-2.54,4.01c-4.35,5.64-8.67,11.3-13.09,16.89
	c-1.27,1.61-0.83,1.88,0.97,2.09c2.2,0.26,3.68-0.22,5.02-2.17c4.5-6.58,9.19-13.02,13.84-19.5c0.63-0.88,1.03-2.03,2.59-2.51
	c-0.16,3.55-1.4,6.68-2.11,9.9c-0.82,3.71-1.9,7.35-2.74,11.06c-0.21,0.9-1.18,2.28,0.85,2.64c1.69,0.3,2.9,0.21,3.32-1.89
	c1.18-5.97,2.48-11.9,3.76-17.85c0.21-0.99,0.18-2.08,1.28-3.34c0.61,4.23,1.17,8.09,1.7,11.96c0.5,3.67,1.13,7.34,1.38,11.04
	c0.25,3.49,2.82,2.19,4.44,2.22c2.32,0.03,0.97-1.74,0.79-2.69c-1.15-6.35-2.4-12.7-3.61-19.05c-0.14-0.72-0.69-1.58-0.04-2.15
	c0.75-0.65,1.68-0.1,2.37,0.3c6.1,3.57,10.23,8.88,10.66,15.87c0.3,4.95,1.93,7.89,6.41,9.71c2.53,1.03,4.72,2.89,7.25,3.94
	c2.96,1.23,1.85,3.33,1.49,5.25c-0.39,2.13-2.13,1.09-3.26,1.03c-3.33-0.16-6.65-0.47-9.96-0.81c-1.59-0.16-2.61,0.15-3.22,1.9
	c-1.29,3.65-3.63,6.7-6.43,9.3c-2.05,1.9-1.24,2.57,0.79,3.36c2.83,1.1,5.58,2.43,8.41,3.52c2.23,0.85,1.78,2.71,1.77,4.33
	c-0.01,1.05-1.07,0.87-1.8,0.85c-2.19-0.06-4.39-0.05-6.56-0.27c-2.16-0.23-2.75,0.73-2.35,2.62
	C-224.38,94.03-224.75,95.36-223.79,96.37z"/>
<path class="st2" d="M357.4,356.11c0.9-0.88,2.04-0.77,3.17-0.77c4.94,0.01,9.87-0.12,14.81,0.03c2.4,0.07,3.21-0.5,3.18-3.11
	c-0.15-11.19-0.02-22.39,0.01-33.59c3.49-1.8,7.38-1.59,11.1-1.95c6.52-0.61,13.03-1.28,19.54-1.95c8.3-0.85,16.65-1.3,24.91-2.5
	c3.95-0.19,4.82,0.37,4.58,3.8c-0.75,11.18-4.13,21.31-12.25,29.47c-0.89,0.89-1.87,1.59-2.99,2.13c-4.44,3.75-9.87,5.53-15.16,7.58
	c-0.97,0.38-1.94,0.73-2.91,1.09c-3.23,0.97-6.49,1.61-9.88,1.14c-2.47-0.06-4.94-0.09-7.41-0.19c-1.55-0.07-1.43,0.58-1,1.73
	c0.76,2.04,1.44,4.13,1.99,6.23c1.19,4.53,1.17,9.13-0.67,13.43c-3.7,8.7-3.78,17.5-1.62,26.53c1.08,4.52,1.77,9.14,2.78,13.68
	c0.46,2.08-0.07,2.94-2.25,3.14c-6.3,0.6-6.25,0.66-7.05-5.61c-0.31-2.39-0.21-4.88-1.43-7.9c-1.16,5.46-4.41,8.71-7.82,11.9
	c-3,2.81-6.49,4.23-10.54,4.31c-9.89,0.19-19.78,0.3-29.67,0.56c-2.11,0.06-2.5-0.83-2.07-2.57c0.45-1.85,0.95-3.67,1.41-5.51
	c0.34-1.37,1.22-2.17,2.57-2.29c7.43-0.65,12.28-5.38,17.45-10.14c4.57-4.2,6.41-8.53,6.41-14.77
	C356.57,378.73,356.56,367.4,357.4,356.11z"/>
<path d="M95.2,129.12c-2.51,1.62-5.51,1.14-8.25,1.84c-5.87,1.49-11.9,2.51-17.03,5.91c-2.22,1.47-3.79,0.66-5.49-0.48
	c-9.04-6.07-18.77-10.45-29.6-12.09c-1.52-0.23-1.54-1.18-1.51-2.23c0.09-3.05-0.35-6.04-0.78-9.03c0.49-0.89,1.32-0.97,2.21-0.94
	c6.36,0.19,12.72,0.01,19.09,0.1c1.62,0.02,3.22,0.23,4.29,0.86c-9.11-2.56-17.26-7.98-25.59-13c-0.89-0.54-1.71-1.19-2.27-2.1
	c-2.67-9.88-6.39-19.21-14.03-26.47c-0.22-0.21-0.19-0.69-0.27-1.05c4.25-1.5,8.7-1.97,13.13-2.37c10.45-0.95,20.99-1.5,31.07,1.94
	c12.96,4.42,23.46,12.25,30.51,24.27c0.46,0.78,0.58,1.85,1.61,2.24c2.3,2.94,3.63,6.37,4.38,9.94c1.37,6.43,1.79,12.93,0.05,19.39
	C96.4,127.01,96.29,128.29,95.2,129.12z"/>
<path class="st4" d="M423.46,347.68c5.17-4.86,8.95-10.73,11.74-17.15c0.95-2.19,2.01-4.68,1.68-7.29c-0.3-2.41,0.77-4.61,0.94-6.97
	c0.21-2.69-0.7-3.69-3.27-3.38c-1.49-2.98-1.26-5.99-0.18-9.03c1.05-0.03,2.15-0.29,3.12-0.04c4.05,1.03,6.3-1.99,9.03-3.89
	c0.77-0.53,0.54-1.57,0.55-2.4c0.04-9.85,1.05-19.65,1.58-29.47c0.34-6.4,0.02-12.9,1.03-19.21c0.94-5.85,0.37-11.7,1.15-17.51
	c4.19,2.22,8.35,4.51,12.59,6.63c1.5,0.75,2,1.43,1.6,3.26c-5.94,27.22-11.74,54.47-17.68,81.69c-0.49,2.23-0.11,4.34-0.13,6.5
	c-0.11,24.75-0.25,49.51-0.27,74.26c0,2.25-0.7,2.66-2.78,2.54c-4.8-0.28-4.73-0.17-5.15-5.06c-1.47-16.97-3.03-33.94-4.47-50.91
	c-0.17-1.97-0.89-2.61-2.81-2.52C428.99,347.86,426.22,347.71,423.46,347.68z"/>
<path d="M-308.47,331.47c0.93-2.51,0.56-4.59,0.74-6.59c0.22-2.46,0.24-4.94,0.35-7.41c0.07-1.63,0.33-2.54,2.31-1.37
	c2.39,1.42,3.94,3.11,4.02,6.04c0.07,2.85,0.67,5.7,0.54,8.54c-0.13,3.07,1.2,4.77,3.86,5.84c0.95,0.38,1.82,0.95,3.46,1.84
	c-2.49-5.17-2.87-10.02-2.79-14.93c0.03-2.1,0.31-4.17,0.83-6.2c0.3-1.17,0.74-1.47,2.02-1.03c2.91,0.99,5.97,4.19,5.45,7.49
	c-0.14,0.93-0.02,1.9,0.01,2.85c0.2,5.71,1.19,7.07,6.5,8.83c4.42,1.47,8.86,2.91,13.29,4.35c3.75,1.22,6.39,0.27,8.38-3.13
	c0.91-1.55,1.71-3.18,2.48-4.82c0.7-1.48,1.63-2.79,2.78-3.93c0.93-0.93,1.91-2.29,3.33-1.66c1.19,0.53,0.54,2.05,0.51,3.1
	c-0.09,3.79-0.1,7.61-1.49,11.25c-1.25,3.27-2.73,6.26-6.41,7.46c-2.62,0.86-3.2,3.16-3.85,5.53c-1.23,4.53-0.44,3.71-4.89,3.15
	c-4.9-0.63-9.78-1.47-14.67-2.15c-1.69-0.24-2.78-0.71-1.84-2.69c0.93-1.94-0.63-2.25-1.85-2.73c-8.39-3.31-16.78-6.66-25.21-9.88
	c-1.69-0.64-2.65-1.47-3-3.3c-1.09-5.7-2.34-11.36-3.49-17.05c-0.14-0.67-0.69-1.51,0.26-2.03c0.77-0.42,1.62-0.54,2.46-0.13
	c2.79,1.38,4.26,3.66,4.63,6.73C-309.42,325.92-309.42,328.47-308.47,331.47z"/>
<path class="st5" d="M95.2,129.12c1.78-6.62,2.39-13.29,1.2-20.12c-0.38-2.15-0.86-4.27-1.71-6.21c-0.91-2.06-1.81-4.1-2.4-6.26
	c2.25-0.53,4.54-0.22,6.8-0.22c23.73-0.03,47.46,0,71.19-0.02c0.89,0,1.91,0.42,2.65-0.5c1.69,0.61,3.4,0.73,5.15,0.31
	c1.06-0.25,2,0.1,2.91,0.61c-6.55,3.67-13.1,7.34-19.65,11.01c-1.74,0.98-3.54,1.85-5.22,2.93c-2.95,1.89-5.08-0.62-7.24-1.57
	c-6.69-2.93-13.69-3.43-20.65-2.69c-5.89,0.63-11.63,2.55-16.93,5.41c-6.02,3.25-9.96,8.21-11.69,14.85
	C98.76,130,97.63,130.65,95.2,129.12z"/>
<path class="st6" d="M395.51,357.5c3.23-0.89,6.52-1.35,9.88-1.14c-0.95,13.56-1.89,27.11-2.85,40.67c-0.22,3.13-0.6,6.26-0.63,9.39
	c-0.04,3.78-2.77,2.1-4.5,2.39c-2,0.34-2.31-0.81-2.29-2.54C395.3,390.01,395.39,373.75,395.51,357.5z"/>
<path class="st1" d="M182.13,318.66c-0.05-6.23-0.56-12.47,0.47-18.68C182.46,306.21,182.71,312.44,182.13,318.66z"/>
<path class="st7" d="M393.48,165.48c0.9,1.71,1.91-0.37,2.85,0.09c-0.46,0.54-0.17,1.14-0.14,1.71c-1.11,0.18-2.22,0.35-3.33,0.54
	C392.37,166.86,392.68,166.11,393.48,165.48z"/>
<path d="M-148.73,328.36c-0.98,0-1.17-0.01-1.36,0c-5.06,0.14-5.1,0.11-2.72-4.26c0.81-1.5,0.89-2.33-0.9-3.27
	c-6.1-3.19-10.62-7.95-14.19-13.92c-2.63-4.39-6.19-8.23-8.76-12.72c-1.61-2.82-2.38-5.82-1.37-9.03c0.85-2.74,2.2-3.38,4.82-2.21
	c2.75,1.22,2.57-1.3,2.97-2.49c1.57-4.74,3.83-8.99,7.32-12.61c9.02-9.34,19.83-12.71,32.57-10.06c12.7,2.65,23.37,13.52,25.6,26.23
	c0.18,1.02,0.08,2.23,1.79,1.73c3.32-0.98,5.27,1.1,6.69,3.5c1.5,2.54,0.9,5.31-0.85,7.48c-2.73,3.39-5.87,6.44-9.27,9.16
	c-1.14,0.91-2.23,1.8-2.94,3.01c-3.35,5.65-8.16,9.62-13.96,12.51c-1.43,0.71-2.64,1.17-1.34,3.3c1.27,2.09,0.49,3.01-2.05,3.06
	C-134.3,327.93-141.93,327.67-148.73,328.36z"/>
<path class="st1" d="M201.21,95.77c5.81,0.02,11.62-0.13,17.42,0.08c21.98,0.78,43.97,0.35,65.95,0.42
	c4.1,0.01,7.37-1.55,10.74-3.74c3.43-2.22,7.35-3.74,11.16-5.31c3.95-1.63,7.55-3.89,11.27-5.9c2.38-1.29,3.86-0.06,5.32,1.08
	c1.11,0.86-0.31,1.45-0.91,1.75c-4.72,2.38-9.47,4.69-14.22,7.01c-1.78,0.87-3.61,1.63-5.37,2.55c-2.56,1.34-3.35,3.93-4.06,6.41
	c-0.52,1.82,0.34,2.73,2.42,2.7c7.9-0.09,15.81-0.03,23.71-0.03c0.67,0,1.33,0,2,0.01c0.79,0.01,1.57,0.03,1.63,1.11
	c0.06,1.15-0.78,1.09-1.53,1.19c-8.09,1.06-16.18,2.21-24.28,3.17c-3.55,0.42-4.91,1.27-4.97,3.8c-0.1,3.88,1.91,6.76,5.02,7.15
	c0.66,0.09,1.33,0.09,1.99,0.17c0.53,0.06,0.85,0.4,0.88,0.94c0.05,0.67-0.26,1.1-0.94,1.18c-1.42,0.16-2.84,0.45-4.26,0.42
	c-8.77-0.17-17.46,1.02-26.2,1.37c-15.2,0.61-30.39,1.51-45.57,2.46c-1.75,0.11-2.37-0.43-2.96-1.79
	c-1.54-3.55-3.39-6.98-4.66-10.62c-1.7-4.83-5.55-6.33-9.92-6.62c-6.16-0.41-12.36-0.06-18.54-0.39c-3.57-0.19-4.22,1.17-2.42,4.31
	c2.14,3.75,4.87,6.5,9.7,5.79c0.74-0.11,1.52,0.01,2.28,0.04c4.33,0.17,4.99,0.68,6.29,4.7c0.73,2.24,1.51,4.43,1.38,6.86
	c-0.08,1.37-0.39,2.04-1.95,2.06c-10.65,0.09-21.26,1.5-31.91,1.24c-2.08-0.05-4.01,1.37-6.11,0.44c-0.86-3.94-2.68-7.47-5.07-10.65
	c-0.95-1.27-0.9-1.71,0.36-2.53c11.5-7.43,22.96-14.91,34.46-22.34C199.84,95.92,200.58,95.92,201.21,95.77z"/>
<path class="st8" d="M-37.47,147.52c-0.74-1.13-1.55-1.89-3.12-2.05c-7.65-0.81-15.27-1.82-22.91-2.72
	c-0.95-0.11-1.81-0.29-1.65-1.43c0.17-1.17,0.16-2.62,1.95-2.62c2.1,0,4.2-0.13,6.28,0.06c6.46,0.59,12.94,0.23,19.4,0.46
	c1.91,0.07,2.4-0.67,2.43-2.47c0.11-5.9,0.18-5.82-5.65-5.69c-7.62,0.17-15.23,0.2-22.85,0.27c-0.81,0.01-1.63-0.13-2.57-0.69
	c3.95-1.65,7.88-3.33,11.85-4.92c4.2-1.67,8.43-3.25,12.66-4.86c0.95-0.36,1.27-1.09,1.18-2.02c-0.07-0.75-0.25-1.5-0.34-2.25
	c-0.44-3.71-0.69-3.83-4.23-2.9c-8.89,2.35-17.76,4.83-26.73,6.85c-3.55,0.8-7.37,0.2-11.1,1.2c5.42-6.01,12.14-10.46,17.98-15.94
	c-4.67-3.18-4.99-3.12-11.13,1.06c-7.75,5.27-15.52,10.5-23.28,15.75c-2.07,1.41-4.53,1.42-6.85,1.61
	c-7.87,0.65-15.77,0.79-23.67,0.72c-1.18-0.01-2.23-0.39-3.69-0.9c2.3-2.99,5.62-4.24,8.54-5.86c5.14-2.85,9.86-6.19,14.41-9.89
	c4.73-3.85,9.66-7.45,14.46-11.21c1.18-0.93,2.47-0.83,3.79-0.83c36.85,0,73.69,0.01,110.54,0c0.85,0,1.71-0.1,2.56-0.15
	c1.5,5.89,2.69,11.82,2.35,17.95c-2.07,1.31-4.17,0.91-6.24,0.07c-2.99-1.23-5.82-2.81-8.85-3.94c-1.58-0.59-2.3-1.93-2.89-3.35
	c-0.66-1.6-1.68-2.56-3.5-2.11c-1.85,0.46-2.17,1.83-2.07,3.53c0.21,3.47-0.13,3.73-3.66,3.29c-1.13-0.14-2.35,0.07-3.39-0.38
	c-4.34-1.88-7.69-0.18-10.78,2.75c-3.03,2.87-6.69,4.99-9.63,7.98c-0.84,0.85-2.66,1.23-1.46,3.06c1.21,1.84,2.61,2.14,4.58,0.8
	c3.77-2.57,7.66-4.95,11.51-7.37c2.99-1.88,9.19-1.73,12.05,0.33c1.42,1.03,1.29,2.11-0.5,2.93c-2.07,0.95-4.33,1.42-6.49,2.14
	c-1.64,0.55-3.11,1.4-4.65,2.11c-2.89,1.33-3.09,4.09-3.86,6.58c-2.02,2.14-4.81,3.15-7.14,4.83c-4.33,3.11-8.83,6.02-12.62,9.82
	C-36.67,147.37-37.11,147.39-37.47,147.52z"/>
<path class="st9" d="M29.06,191.24c-20.24,11.41-40.89,15.73-63.18,7.94C-24.96,188.27,12.92,182.05,29.06,191.24z"/>
<path class="st10" d="M-16.67,132.47c-0.2-4.86,2.02-7.57,7.6-9.26c2.35-0.71,4.71-1.43,7.07-2.13c0.62-0.18,1.46-0.17,1.43-1.05
	c-0.02-0.63-0.68-0.86-1.25-1.01c-2.29-0.59-4.59-1.13-6.87-1.75c-1.06-0.29-1.86,0.21-2.65,0.72c-4.45,2.87-8.89,5.75-13.31,8.65
	c-2.07,1.35-5.43,0.09-6.19-2.31c-0.31-1,0.37-1.43,0.91-1.87c5.13-4.16,10.3-8.27,15.43-12.43c1.21-0.98,2.55-0.71,3.8-0.39
	c2.31,0.58,4.65,0.91,7.01,1.26c3.15,0.46,3.15,0.51,2.58-2.51c-0.62-3.24,0.95-4.9,4.19-4.64c1.71,0.14,2.29,1.36,2.67,2.55
	c0.63,2.02,1.89,3.05,3.83,3.77c2.81,1.05,5.46,2.51,8.23,3.67c1.71,0.71,3.55,0.52,5.35,0.34c0.16,0.83,0.47,1.67,0.45,2.5
	c-0.06,1.87,0.65,3.9-0.34,5.59c-1.23,2.13-3.28,0.42-4.91,0.51c-11.86,0.67-23.08,3.42-33.37,9.54
	C-15.46,132.47-16.11,132.39-16.67,132.47z"/>
<path class="st11" d="M76.73,231.43c-13.79,2.07-37.22-18.01-36.53-31.31C42.78,201.63,75.43,229.6,76.73,231.43z"/>
<path class="st12" d="M61.33,145.55c-7.93,14.01-15.86,28.03-23.79,42.04c-1.19-6.67,0.42-12.82,2.45-18.99
	C43.6,157.69,51.05,150.39,61.33,145.55z"/>
<path class="st13" d="M118.01,132.29c13.03,1.73,23.75,7.56,31.93,17.96c-14.15-4.94-27.86-10.93-41.63-16.75
	c-0.34-0.3-1.09-0.2-1.09-0.75c0.01-0.9,0.82-0.87,1.45-0.9C111.79,131.71,114.91,131.81,118.01,132.29z"/>
<path class="st4" d="M30.26,97.96c7.26,3.94,14.02,8.78,21.63,12.09c2.98,1.3,6.06,2.34,9.39,3.61c-2.37,0.81-4.11-0.63-6.04-0.65
	c-7.3-0.06-14.59-0.18-21.9-0.26c-0.26,0-0.53,0.19-0.79,0.29C32.43,107.92,31.41,102.93,30.26,97.96z"/>
<path class="st14" d="M-74.1,161.96c0.52-1.77,2-1.14,3.1-1.13c7.42,0.1,14.84,0.14,22.23,0.83c-0.22,4.62-2.58,6.26-6.65,4.44
	c-2.25-1.01-4.71-0.93-7.03-1.46C-66.33,163.76-70.26,163.05-74.1,161.96z"/>
<path class="st15" d="M-45.54,156.55c-5.71-1.5-11.43-3.01-17.14-4.51c0.02-0.25,0.03-0.49,0.05-0.73
	c7.57-1.14,15.28-0.37,22.87-1.21C-41.68,152.25-43.62,154.4-45.54,156.55z"/>
<path class="st16" d="M139.87,193.81c2.35,0.29,4.7,0.55,7.05,0.89c0.83,0.12,2.17-0.18,1.8,1.42c-0.23,1.03-0.61,1.91-2.06,1.79
	c-3.49-0.29-6.99-0.43-10.5-0.64C136.46,195.12,137.57,193.83,139.87,193.81z"/>
<path class="st17" d="M118.01,132.29c-3.16,0-6.32-0.02-9.49,0.01c-1.91,0.02-0.35,0.76-0.22,1.21c-1.45-0.08-2.83-0.34-4.43-1.62
	C108.97,131.21,113.51,130.66,118.01,132.29z"/>
<path class="st18" d="M95.19,237.43c-0.76,0.03-1.53,0.18-2.27,0.06c-1.91-0.3-2.62,0.49-2.39,2.33c-2.07-1.05-0.93-2.69-0.89-4.75
	C91.19,237.43,93.92,235.18,95.19,237.43z"/>
<path class="st0" d="M434.38,303.86c0.06,3.01,0.12,6.02,0.18,9.03c-5.35,1.41-10.89,1.34-16.34,1.94
	c-13.21,1.43-26.43,2.58-39.66,3.85c-0.07-5.11-0.17-10.23-0.2-15.34c-0.06-8.63-0.08-17.25-0.11-25.88c2.5-3.32,6.25-5.1,9.43-7.57
	c5.22-4.07,10.74-7.77,15.98-11.82c1.98-1.53,2.57-0.85,3.32,1.05c4.95,12.61,10.1,25.14,14.88,37.81c1.29,3.41,3.48,4.94,6.72,5.64
	C430.5,302.98,432.44,303.43,434.38,303.86z"/>
<path class="st19" d="M276.67,257.83c0.07,0.07,0.14,0.13,0.21,0.2c4.69,5.4,4.68,5.38,11.51,2.98c2.68-0.94,5.41-1.77,8.11-2.64
	c6.26,2.31,12.51,4.62,18.76,6.93c-0.06,0.26-0.13,0.52-0.19,0.78c-5.54-0.28-11.08-0.54-16.62-0.85
	c-23.07-1.25-46.14-2.52-69.21-3.78c-0.86-0.05-1.71-0.08-2.57-0.14c-1.22-0.09-1.17-1.01-1.21-1.88c-0.05-0.93,0.34-1.44,1.3-1.45
	c0.76-0.01,1.52-0.02,2.28-0.02C244.91,257.92,260.79,257.88,276.67,257.83z"/>
<path class="st20" d="M393.48,165.48c-0.19,0.78-0.01,1.66-0.62,2.34c-3.89,1.78-7.79,3.53-11.65,5.36
	c-1.81,0.86-2.18,0.37-1.82-1.47c1.43-7.08,2.75-14.18,4.19-21.26c0.75-3.69,0.82-3.66-2.95-4.63c-0.82-0.21-1.71-0.26-2.37-0.91
	c0.09-2.93,0.18-5.85,0.27-8.78c4.41,2.59,5.83,2.16,12.33-3.82c0.6,1.86,0.34,3.63-0.13,5.24
	C387.92,147.24,390.74,156.35,393.48,165.48z"/>
<path class="st21" d="M13.51,355.57c2.46,0.01,4.91-0.01,7.37,0.02c0.9,0.01,1.93-0.32,2.58,0.69c-3.55,3.38-7.1,6.77-11.27,10.74
	C12.84,362.76,12.39,359.11,13.51,355.57z"/>
<path class="st22" d="M-189.89,405.22c-1.31-0.26-1.65-1.39-2.27-2.16c-0.9-1.1,0.22-1.68,0.89-2.29
	c8.73-7.92,17.47-15.82,26.21-23.74c5.57-5.04,11.16-10.05,16.67-15.16c1.45-1.34,2.03-1.23,2.62,0.67
	c0.67,2.17,1.56,4.29,2.51,6.37c0.69,1.5,0.35,2.28-1.01,3.25c-13.74,9.87-27.42,19.82-41.11,29.75
	C-186.91,403.02-188.42,404.14-189.89,405.22z"/>
<path class="st20" d="M-109.3,373.05c-5.25,3.39-9.91,6.41-14.59,9.43c-1.35,0.87-2.87,1.57-4.05,2.63
	c-4.25,3.87-9.01,4.13-14.28,2.17c0.43-1.17,1.65-1.66,2.53-2.42c5.2-4.43,10.47-8.77,15.65-13.22c1.12-0.97,2.15-1.27,3.6-0.93
	C-116.98,371.53-113.47,372.19-109.3,373.05z"/>
<path class="st23" d="M156.35,241.66c2.45-7.47,4.85-14.97,7.38-22.42c1.06-3.1,3.82-4.71,6.63-4.22c2.64,0.46,4.42,2.85,4.57,6.06
	c0.26,5.18-2.3,8.83-6.22,11.81C164.72,235.92,159.72,237.57,156.35,241.66z"/>
<path class="st24" d="M140.31,244.27c-1.14,0.05-1.62-0.6-1.22-1.78c0.43-1.25,0.9-2.51,1.52-3.67c1.93-3.58,2-7.05-0.38-10.46
	c-1.25-1.8-1.81-3.82-1.14-5.94c0.35-1.13,0.86-2.37,2.55-2.11c1.48,0.22,1.74,1.12,1.74,2.41c0.01,1.91,1.06,3.46,2.2,4.84
	c1.73,2.08,1.91,4.13,0.74,6.55c-1.33,2.73-2.39,5.58-3.59,8.37C142.32,243.47,141.73,244.3,140.31,244.27z"/>
<path class="st25" d="M117.39,243.77c0.09-1.97,1.28-3.46,2.18-5.07c5.14-1.15,10.28-2.3,15.66-3.5c-0.21,0.62-0.22,0.99-0.39,1.11
	c-4.55,3.1-9.26,5.93-14.63,7.39C119.32,243.93,118.32,243.76,117.39,243.77z"/>
<path class="st0" d="M366.12,215.65c1.93-2.57,4.97-3.62,7.48-5.39c3.56-2.51,7.29-4.78,10.99-7.1c1.35-0.85,1.98-1.56,1.14-3.37
	c-2.37-5.11-2.22-5.13-7.16-2.46c-5.81,3.15-11.44,6.65-17.49,9.34c-1.17-0.47-1.35-1.56-1.47-2.58
	c-0.83-7.02,0.69-13.42,5.22-18.98c0.51-0.62,1.18-0.94,1.86-1.28c8.13,2.29,16.26,4.55,24.38,6.86c10.14,2.89,20.25,5.86,30.4,8.67
	c1.79,0.5,2.42,1.4,2.62,3.14c2.28,20.61,4.61,41.21,6.92,61.81c0.02,0.18-0.06,0.37-0.19,1.19c-2.3-3.3-4.36-6.23-6.38-9.18
	c-3.49-5.09-7.11-10.09-10.36-15.33c-3.7-5.97-6.24-12.56-9.36-18.84c-3.55-7.15-6.77-14.46-9.56-21.93
	c-1.23-3.29-2.99-1.5-4.69-1.06c-1.87,0.48-2.75,1.14-1.81,3.51c2.27,5.73,3.91,11.71,6.17,17.45c1.27,3.24,0.68,6.13,0.16,9.36
	c-0.84,5.29-3.47,8.71-8.11,11.09c-2.94,1.5-5.61,3.52-8.4,5.31c-0.92-1.04-0.71-2.32-0.72-3.53c-0.03-4.18-0.11-8.36,0.02-12.53
	c0.09-2.55-0.66-4.25-3.06-5.49c-2.95-1.53-5.5-3.71-7.51-6.43C366.69,217.22,366.04,216.61,366.12,215.65z"/>
<path class="st1" d="M366.69,183.83c-5.43,6.74-8.12,14.15-5.61,22.85c-5.63,3.02-11.3,5.97-16.88,9.09
	c-6.34,3.55-13.12,5.64-20.21,7.05c-3.49,0.69-6.84,2.03-10.27,3.03c-1.09,0.31-2.23,0.4-3.62-0.06c3.31-3.84,6.58-7.55,9.75-11.34
	c7.11-8.49,14.17-17.01,21.26-25.51c2.35-2.81,4.81-5.53,7.1-8.38c1.21-1.51,2.73-1.73,4.25-1.11
	C357.09,181.31,362.07,182.01,366.69,183.83z"/>
<path class="st8" d="M366.12,215.65c3.12,3.59,6.3,7.13,10.86,8.95c1.42,0.57,1.35,1.62,1.36,2.78c0.03,6.17,0.07,12.33,0.11,18.49
	c-1.73,1.13-3.58,2.11-5.15,3.43c-2.25,1.88-3.03,0.39-3.85-1.37c-2.87-6.21-5.6-12.49-8.65-18.6
	C358.11,223.9,360.74,216.74,366.12,215.65z"/>
<path class="st26" d="M378.42,270.82c-2.47,2.55-5.69,4.14-8.42,6.37c-0.95,0.78-2.06,0.63-3-0.81
	c-5.23-8.02-10.62-15.94-15.99-23.87c-0.37-0.54-0.99-0.93-0.94-1.66c0.07-1.05-0.66-2.46,0.66-3.01c1.45-0.61,1.86,1.03,2.4,1.81
	c4.38,6.38,8.66,12.84,12.91,19.3c0.41,0.62,0.93,0.57,1.45,0.63c0.46,0.06,1.25-0.24,1.36-0.06c3.14,5.21,5.14-0.32,7.65-0.79
	c0.55-0.1,1.07-0.33,1.61-0.49C379.44,268.95,379.24,269.85,378.42,270.82z"/>
<path class="st27" d="M378.54,257.91c-2.75,1.79-5.48,3.62-8.26,5.37c-1.23,0.78-2.27,0.93-3.25-0.7
	c-4.63-7.68-9.37-15.3-14.15-22.89c-0.59-0.93-0.61-1.81-0.34-2.67c0.21-0.66,0.71-1.51,1.27-1.7c0.9-0.31,1.15,0.93,1.42,1.41
	c3.63,6.34,7.21,12.71,10.59,19.18c0.74,1.41,1.56,1.5,2.26,0.65c0.86-1.05,1.25-0.49,1.66,0.13c1.4,2.15,2.75,1.02,4.12,0.01
	c1.32-0.98,2.51-2.21,4.37-2.08C379.78,255.57,379.16,256.74,378.54,257.91z"/>
<path class="st28" d="M378.54,257.91c-0.1-1.1-0.2-2.21-0.3-3.3c0.45-1.61,2.02-1.85,3.18-2.55c4.58-2.83,9.17-5.63,13.81-8.37
	c0.77-0.45,1.85-1.82,2.55-0.67c0.65,1.06,0.77,2.71-0.89,3.69c-2.69,1.58-5.3,3.28-7.95,4.91
	C385.47,253.71,382,255.8,378.54,257.91z"/>
<path class="st29" d="M378.42,270.82c-0.1-0.86-0.2-1.73-0.3-2.59c2.18-2.58,5.24-3.95,7.95-5.81c4.35-2.98,8.78-5.86,13.22-8.82
	c0.66,1.34,0.38,2.18-0.5,2.8C391.98,261.17,385.47,266.38,378.42,270.82z"/>
<path class="st30" d="M265.44,50.75c-2.95,5.83-8.91,9.38-13.97,8.55c-1.26-0.21-2.34-0.67-3.27-1.57
	c-1.35-1.31-1.13-3.05-0.94-4.55c0.19-1.49,1.85-0.97,2.86-1.07C255.17,51.6,260.22,51.2,265.44,50.75z"/>
<path class="st31" d="M407.42,83.88c-0.03,6.11-3.09,11.56-5.56,17.17c-0.45,1.02-1.23,1.26-1.62-0.19
	c-1.83-6.87-3.74-13.73-5.47-20.62c-0.55-2.18,3.22-6.27,6.21-6.95c2.8-0.63,4.14,1.08,5.18,3.35
	C407.18,78.87,407.23,81.22,407.42,83.88z"/>
<path class="st32" d="M366.42,58.58c0.01-3.71,0.29-3.92,3.82-2.71c8.8,3.02,17.59,6.07,26.41,9.06c1.65,0.56,2.18,0.98,0.51,2.29
	c-1.94,1.53-3.61,3.38-5.94,4.36c-3.37,1.41-6.26,0.3-7.79-2.99c-2.21-4.74-2.97-5.09-8.39-3.88
	C369.92,65.84,366.41,63.34,366.42,58.58z"/>
<path class="st33" d="M389.98,112.59c-5.41-3.37-10.18-7.21-14.1-12.01c-2.21-2.69-2.98-5.66-2-9.02c0.37-1.25,1.13-2.21,2.55-2.36
	c1.41-0.15,1.63,1.07,2.1,1.94C382.35,98.3,386.16,105.44,389.98,112.59z"/>
<path class="st20" d="M-251.91,77.33c-0.55,5.09-1.11,10.17-1.67,15.26c-0.09,0.8-0.27,1.61-1.23,1.62
	c-1.49,0.02-3.33,0.46-4.22-1.01c-3.74-6.22-6.39-12.77-4.63-20.24c0.51-2.18,1.73-4.07,4.2-4.54c2.56-0.49,4.4,0.8,5.85,2.72
	C-252.23,72.97-251.71,75.05-251.91,77.33z"/>
</svg>
