<?xml version="1.0" encoding="utf-8"?>
<!-- Generator: Adobe Illustrator 25.4.1, SVG Export Plug-In . SVG Version: 6.00 Build 0)  -->
<svg version="1.1" id="Layer_1" xmlns="http://www.w3.org/2000/svg" xmlns:xlink="http://www.w3.org/1999/xlink" x="0px" y="0px"
	 viewBox="0 0 140 440" style="enable-background:new 0 0 140 440;" xml:space="preserve">
<style type="text/css">
	.st0{fill:#FDFDFD;}
	.st1{fill:#E49300;}
	.st2{fill:#6100AB;}
	.st3{fill:#FEFEFE;}
	.st4{fill:#020202;}
	.st5{fill:#6301AC;}
	.st6{fill:#6503AC;}
	.st7{fill:#6402AC;}
	.st8{fill:#6302AB;}
	.st9{fill:#030303;}
	.st10{fill:#6403AB;}
	.st11{fill:#6303AB;}
	.st12{fill:#6405AA;}
	.st13{fill:#6505AB;}
	.st14{fill:#6404AB;}
	.st15{fill:#030204;}
	.st16{fill:#6506AB;}
	.st17{fill:#6505AC;}
	.st18{fill:#060606;}
	.st19{fill:#040505;}
	.st20{fill:#6709AC;}
	.st21{fill:#6708AC;}
	.st22{fill:#6709AB;}
	.st23{fill:#6F17AF;}
	.st24{fill:#6506AA;}
	.st25{fill:#670AAA;}
	.st26{fill:#6A10AC;}
	.st27{fill:#6A0EAD;}
	.st28{fill:#701AAF;}
	.st29{fill:#660AAB;}
	.st30{fill:#6B0BAF;}
	.st31{fill:#670CA9;}
	.st32{fill:#690AAD;}
	.st33{fill:#690CAC;}
	.st34{fill:#670CAA;}
	.st35{fill:#6A0EAC;}
	.st36{fill:#6C13AC;}
	.st37{fill:#6D13AD;}
	.st38{fill:#6C0EAE;}
	.st39{fill:#670FA8;}
	.st40{fill:#680CAA;}
	.st41{fill:#6A12AA;}
	.st42{fill:#6C0FAD;}
	.st43{fill:#6E10AF;}
	.st44{fill:#F6D89C;}
	.st45{fill:#FDFDFE;}
	.st46{fill:#FCFCFC;}
	.st47{fill:#F9F9FB;}
	.st48{fill:#FBFCFD;}
	.st49{fill:#FBF9FC;}
	.st50{fill:#0A0A0B;}
	.st51{fill:#EFEFF0;}
	.st52{fill:#F3F3F3;}
	.st53{fill:#E3E3E3;}
	.st54{fill:#EEEDEF;}
	.st55{fill:#040506;}
	.st56{fill:#ECEAED;}
	.st57{fill:#05070B;}
	.st58{fill:#F6F6F6;}
	.st59{fill:#E8E8E8;}
	.st60{fill:#F1F1F1;}
	.st61{fill:#F2F2F2;}
	.st62{fill:#ECECEC;}
	.st63{fill:#EFEFEF;}
	.st64{fill:#F8F8F8;}
	.st65{fill:#F7F7F7;}
	.st66{fill:#F0F0F0;}
	.st67{fill:#D9D9D9;}
	.st68{fill:#D4D4D4;}
	.st69{fill:#E4E4E4;}
	.st70{fill:#F5F5F5;}
	.st71{fill:#F4F4F4;}
	.st72{fill:#E6E6E6;}
	.st73{fill:#D0D0D0;}
	.st74{fill:#DADADA;}
	.st75{fill:#E0E0E0;}
	.st76{fill:#F9FAFB;}
	.st77{fill:#F6F4FA;}
	.st78{fill:#FAFAFD;}
	.st79{fill:#F6F5FB;}
	.st80{fill:#FBFBFD;}
	.st81{fill:#F6F5FA;}
	.st82{fill:#F5F6F6;}
	.st83{fill:#F2EEF8;}
	.st84{fill:#FAFAFB;}
	.st85{fill:#E5E1E7;}
	.st86{fill:#F3F0F8;}
	.st87{fill:#DEDEDE;}
	.st88{fill:#040404;}
	.st89{fill:#070707;}
</style>
<g>
	<path class="st0" d="M-462.93,611.91c-54.32,0-108.63-0.04-162.95,0.09c-3.38,0.01-4.12-0.61-4.12-4.07
		c0.11-258.9,0.1-517.81,0.02-776.71c0-3.18,0.31-4.22,3.96-4.22c464.03,0.11,928.05,0.11,1392.08,0.03c3.06,0,3.86,0.6,3.86,3.79
		c-0.09,259.07-0.1,518.14,0.08,777.21c0,4.66-2.16,3.87-4.79,3.87c-364.06,0-728.11,0-1092.17,0c-2.23-5.5-1.95-11.38-2.31-17.11
		c-1.2-19.08-2.49-38.16-3.67-57.24c-0.74-11.95-1.91-23.87-2.46-35.84c-0.61-13.29-1.41-26.58-2.57-39.82
		c-0.87-9.93,0.15-11.34,10.24-12.35c19.33-1.94,36.49-8.93,50.01-23.36c6.92-7.39,10.85-16.76,15.73-25.44
		c15.6-27.72,31.02-55.54,46.57-83.3c12.78-22.81,25.41-45.71,38.14-68.55c3.09-5.55,1.87-7.62-4.6-8.39
		c-3.7-0.44-7.29,0.18-10.88,1.05c-2.22,0.54-4.58,1.35-6.52-0.8c0.21-4.61,1.12-9.16,1.45-13.77c0.22-3.09,2.79-4.73,5.3-6.2
		c12.77-7.53,25.89-14.44,38.78-21.77c31.85-18.1,63.98-35.73,95.87-53.77c10.43-5.9,20.9-11.72,31.25-17.9
		c-2.2-0.01-4.11,0.92-5.99,1.91c-42.98,22.75-85.93,45.55-129.05,68.03c-11.81,6.16-23.26,12.98-35.51,18.3
		c-3.87,1.68-7.42,2.1-10.74-0.71c-2.85-2.41-7.21-1.46-9.65-4.6c-0.25-2.18,0.9-3.87,2.03-5.5c3.94-5.68,4.36-12.07,4.09-18.67
		c-0.14-3.45-1.88-4.32-4.91-3.6c-5.34,1.28-10.64,2.75-15.98,4.06c-23.77,5.86-47.38,12.32-71.13,18.24
		c-7.91,1.97-15.16,5.99-22.82,8.8c-3.91,1.43-7.79,2.99-11.82,4.01c-5.45,1.38-7.2-0.25-6.39-5.73
		c3.91-26.68,8.38-53.27,12.37-79.93c1.89-12.63,1.81-11.01-8.75-13.79c-7.41-1.95-7.33-1.91-9.9,5.27
		c-11.53,32.3-23.37,64.49-34.94,96.78c-0.7,1.94-1.28,5.09-3.76,4.44c-2.62-0.69-1.94-3.91-1.62-6.11
		c1.43-10.05,2.91-20.1,4.29-30.16c2.97-21.6,6.03-43.18,8.77-64.81c0.67-5.28,0.22-5.84-5.08-7.19c-4.52-1.15-9.01-2.39-13.51-3.62
		c-4.57-1.25-5.11-1.03-5.87,3.77c-1.44,9.05-3.55,17.97-5.28,26.96c-7.87,40.87-15.92,81.71-24.16,122.5
		c-5.23,25.86-7.91,51.95-10.73,78.09c-2.96,27.47-3.53,55.09-6,82.57c-2.33,25.85-3.37,51.77-5.51,77.64
		c-1.5,18.05-2.68,36.15-3.41,54.27c-0.61,15.12-2.53,30.16-3.13,45.29C-460.84,606.6-461.04,609.54-462.93,611.91z"/>
	<path class="st1" d="M-199.16,240.59c2.36,1.12,4.55-0.16,6.8-0.5c4.92-0.75,9.79-1.66,14.76,0.06c4.09,1.41,5.02,3.24,2.72,7.24
		c-7.21,12.52-14.08,25.23-21.12,37.85c-23.96,42.92-48.25,85.66-71.78,128.82c-10.46,19.19-26.89,29.12-46.97,34.7
		c-5.96,1.66-12.05,2.56-18.21,2.76c-3.27,0.11-4.31,1.26-4.08,4.52c2.22,31.71,4.38,63.42,6.43,95.13
		c1.31,20.24,2.43,40.5,3.64,60.75c-45.33,0-90.65,0-135.98,0c2.63-38.37,5.27-76.75,7.87-115.12c2-29.41,3.98-58.82,5.92-88.23
		c2.6-39.54,5.17-79.09,11.22-118.28c2.84-18.39,6.97-36.58,10.57-54.85c6.59-33.44,13.22-66.88,19.81-100.32
		c1.41-7.17,2.74-14.36,4.08-21.54c0.57-3.02,1.17-4.58,5.15-2.97c5.65,2.29,11.77,3.52,17.77,4.86c3.75,0.84,5.15,2.26,4.54,6.45
		c-4.7,32.27-9.14,64.57-13.62,96.87c-0.24,1.72-0.93,3.51,0.16,5.49c1.81-1.16,1.9-3.09,2.49-4.71
		c12.07-33.46,24.21-66.89,36.08-100.41c1.43-4.05,3.38-4.71,6.92-3.45c1.56,0.55,3.16,1.02,4.78,1.4
		c10.75,2.54,10.54,2.5,8.81,13.45c-4.08,25.79-7.94,51.61-11.88,77.42c-0.03,0.16-0.04,0.33-0.06,0.5
		c-1.39,9.71-1.1,10.38,7.74,6.54c32.56-14.14,67.4-20.34,101.33-29.69c5.92-1.63,11.99-2.8,17.84-4.66
		c4.45-1.42,4.89,0.51,5.32,4.23c1.13,9.85-1.93,18.31-7.5,26.15c-5.41,3.05-9.23,7.72-12.83,12.62
		c-17.32,6.4-34.68,12.61-52.99,15.74c-5.32,0.91-10.55,1.25-15.86,0.62c-4.58-0.54-4.73-0.53-3.11,3.81
		c7.2,19.3,5.62,38.54-0.35,57.71c-1.58,5.06-3.64,9.99-5.9,14.81c-1.13,2.09-2.51,4.07-3.18,6.94c1.67-1.04,2.39-2.43,3.34-3.59
		c8.69-7.65,18.01-14.24,29.56-16.8c8.37-1.86,16.82-2.32,25.05,0.64c3.9,1.4,4.32-0.2,4.66-3.57c1.54-15.29,5.41-29.71,16.65-41.12
		c5.07-5.14,11.15-8.86,17.33-12.45c5.31-0.89,10.29-2.59,14.56-6.01C-200.17,239.98-199.53,239.65-199.16,240.59z"/>
	<path class="st2" d="M543.41,189.45c-81.9,0.25-150.81-66.92-149.35-152.23c1.35-78.76,66.53-149.15,155.53-146.15
		c76,2.56,146.18,65.32,143.4,155.02C690.6,123.31,626.68,189.53,543.41,189.45z"/>
	<path class="st2" d="M-441-25.35c0.45-67.62,52.71-116.71,113.53-118.91c72.79-2.63,122.21,53.21,124.3,113.48
		c2.51,72.15-52.93,121.14-112.37,123.9C-388.23,96.49-441.03,39.22-441-25.35z"/>
	<path class="st3" d="M123.64,313.84c3.33,1.4,6.84,1.18,10.33,1.14c2.61-0.03,4.47,0.95,3.78,3.81c-1.3,5.36,0.13,10.79-0.77,16.14
		c-0.53,3.16,0.8,4.66,4.18,5.39c4.12,0.89,7.99-0.06,11.64-1.06c3.25-0.89,3.63-4.59,2.82-7.59c-0.73-2.71-0.82-5.18,0.21-7.77
		c1.13-2.84,1.24-5.62,0.45-8.73c-1.61-6.3,2.41-10.28,8.82-8.9c1.97,0.42,4.03,0.29,5.86,0.94c3.99,1.42,5.66-0.18,6-3.98
		c0.09-1.03,0.29-1.96,1.18-2.63c1.4-1.05,13.22-0.83,14.59,0.28c2.73,2.22,2.41,11.62-1.45,13.41c-6.18,2.89-3.53,7.96-4.05,12.01
		c-0.36,2.85,0.96,6.07,3.73,8.29c2.63,2.1,2.42,3.92-1.33,4.37c-0.33,0.04-0.8-0.1-0.98,0.08c-3.58,3.63-8.06,6.8-10.36,11.13
		c-1.65,3.09-2.67,5.03-6.2,4.8c-2.4-0.16-4.16,0.1-4.27,3.28c-0.08,2.49-1.97,3.67-4.48,3.72c-4.32,0.09-6.77,2.39-9.62,5.74
		c-3.99,4.71-8.3,8.67-8.43,15.4c-0.03,1.58-1.67,2.73-3.07,3.76c-5.04,3.71-5.5,5.66-2.22,10.58c1.44,2.15-0.06,3.06-1.19,4.13
		c-2.65,2.51-2.21,4.94,0.66,6.47c3.82,2.03,5.16,5.32,6.11,9.12c0.61,2.45,0.13,5.07,2.63,7.2c1.45,1.23-4.83,10.48-7.25,10.48
		c-3.54,0-6.68,3.15-10.42,1.19c-0.22-0.12-0.78,0.01-0.94,0.21c-4.42,5.55-10.93,1.13-16.05,3.36c-1.43,0.62-2.58-0.11-3.53-1.17
		c-0.33-0.37-0.64-0.77-0.9-1.2c-2.09-3.52-5.78-2.06-8.62-3.06c-2.81-0.99-1.35-7.16-5.11-7.71c-6.51-0.95-13.24-1.62-19.63,1.14
		c-0.44,0.19-1.13,0.52-1.17,0.85c-1.18,9-11.1,7.11-15.48,12.4c-3.01,3.62-8.44,2.15-12.74,2.87c-2.94,0.49-4.61,1.05-4.87,4.12
		c-0.28,3.36-1.66,4.04-5.2,3.33c-4.35-0.87-8.9,0.55-13.54-0.76c-2.14-0.61-3.37-0.38-3.88-2.86c-0.54-2.61-1.28-5.34-5.25-4.13
		c-2,0.61-1.64-1.66-2.16-2.68c-0.94-1.86-0.64-4.2,1.22-4.77c5.11-1.56,4.46-5.95,5.25-9.58c0.7-3.22,1.63-5.88,5.2-7.14
		c4.62-1.62,3.18-6.34,3.59-9.52c0.84-6.54,0.48-13.25-0.76-19.83c-0.23-1.25-0.66-2.67-1.84-2.66c-4.2,0.04-3.87-4.08-5.57-5.56
		c-5.8-5.07-6.58-13.11-12.08-17.95c-3.56-3.14-5.78-6.51-5.61-11.54c0.12-3.62,1.4-5.3,4.94-5.24c3.22,0.05,4.58-1.2,3.89-4.6
		c-0.68-3.35,1.3-6.31,2.11-9.42c0.42-1.64,2.34-2.27,4.2-1.82c4.7,1.14,8.74-0.38,12.45-3.12c1.33-0.98,2.76-1.55,4.08-0.4
		c1.89,1.65,4.26,1.66,6.45,2.31c3.52,1.05,6.58,2.51,8.56,5.98c2.28,4,6.47,5.58,10.59,7.05c2.8,1.72,2.37,4.59,2.34,7.16
		c-0.13,10.8,1.6,21.53,1.13,32.35c-0.07,1.66,0.18,3.33,0.61,4.93c0.37,1.37,0.4,3.42,2.41,3.16c1.91-0.25,1.69-2.26,1.72-3.68
		c0.17-7.31,0.06-14.62,0.07-21.93c0.02-9.64-0.02-19.27,0.02-28.91c0.01-2.31-0.22-4.68,1.15-6.77
		c12.88-4.22,25.59-9.08,39.1-11.16c3.64,1.67,2.88,5.07,2.64,7.85c-0.95,11.26-1.61,22.53-2.45,33.79
		c-0.19,2.51-1.52,6.92,0.91,7.03c3.31,0.14,2.39-4.28,2.69-6.93c1.47-13.04,2.27-26.15,3.84-39.19c0.28-2.3,0.46-4.7,2.78-6.1
		C119.21,313.66,121.28,312.44,123.64,313.84z"/>
	<path class="st4" d="M-41.21,346.74c1.04-10.77,4.16-20.83,10.13-29.93c2.28,2.57,1.17,5.7,1.35,8.59c0.31,4.8,1.13,5.38,5.98,5.97
		c6.08,0.74,12.64-0.64,17.84,4.43c2.15,2.1,3.4-0.53,4.43-2.2c2.9-4.73,7.08-6.56,12.51-5.61c-14.34,14.18-15.58,33.22-3.07,49.19
		c3.27,4.18,6.91,8.07,10.34,12.12c6.3,7.44,7.32,14.55,2.65,22.92c-2.89,5.18-6.55,9.94-9.86,14.88
		c-2.56-4.21-1.71-10.19,1.98-13.45c1.35-1.19,3.08-2,3.62-4.49c-4.5,2.21-9.54,1.46-14.07,3.21c-3.35,1.3-6.8,1.72-10.29,1.55
		c-2-0.1-3.59-0.01-4.65,1.93c-0.48,0.88-1.33,1.82-2.26,1.85c-6.12,0.25-6.11,4.5-6.44,9.01c-0.35,4.82-1.37,9.39-5.5,12.92
		c-3.26,2.78-3.36,7.21-2.89,11.17c0.36,2.98,1.02,5.96,0.67,8.92c-1.15,9.85,5.32,15.24,11.94,20.35c3.84,2.97,8.22,4.8,13.51,3.65
		c3.15-0.68,4.94-2.02,4.88-5.17c-0.08-4.04,1.01-7.24,4.05-10.22c3.57-3.5,3.86-10.24,0.5-14.2c-5.68-6.68-4.96-14.06-3.39-21.66
		c0.92-4.43,3.29-5.81,8.39-5.46c-3.19,5.16-4.08,10.79-3.39,16.72c1.04,8.88,10.89,15.62,19.47,13
		c11.57-3.53,23.72-5.34,34.34-11.76c2.36-1.43,5.29-2.4,8.03-2.6c4.98-0.36,7.42-2.57,7.99-7.51c0.24-2.08,0.36-5.25,3.82-4.69
		c3.1,0.51,0.72,3.46,1.81,5.04c0.19,0,0.57,0.12,0.72-0.02c1.53-1.45,1.03-5.2,3.5-4.88c2.73,0.35,0.46,4.68,2.96,6.1
		c0.24-0.26,0.49-0.44,0.61-0.68c0.97-1.86-1.02-5.73,2.29-5.58c2.55,0.12,1.93,3.82,2.2,5.97c0.42,3.35,1.8,4.75,5.28,5.79
		c13.24,3.93,26.59,1.87,39.62,0.2c7.27-0.93,12.57-7.64,16.38-14.31c0.98-1.71,0.3-3.6-0.73-5.21c-1.79-2.8-3.58-5.61-5.48-8.34
		c-6.18-8.91-6.43-18.13-2.03-27.9c5.91-13.12,17.06-20.49,28.89-27.24c4.79-2.73,9.29-5.86,13.08-9.91
		c3.85-4.12,5.83-8.81,4.86-14.57c-0.38-2.29-0.26-4.66-0.6-6.96c-1.23-8.26,1.7-15.03,7.33-20.85c2.57-2.66,4.72-5.61,6.23-8.99
		c2.48-5.55,0.08-9.85-6.05-9.91c-4.31-0.04-6.67,0.14-6.7-5.78c-0.03-5.97-2.57-11.97-4.29-17.87c-0.92-3.15,0.21-4.62,3.04-5.5
		c4.05-1.26,7.95-0.84,11.57,1.24c9.22,5.31,16.66,12.26,19.37,22.99c3.6,14.23,9.42,27.69,14,41.58c1.38,4.18,0.9,7.09-2.63,9.95
		c-8.73,7.08-12.24,15.7-7.82,26.91c3.29,8.35,0.63,15.52-5.82,21.63c-7.51,7.13-16.06,12.94-24.08,19.41
		c-3.39,2.73-6.51,5.71-9.09,9.21c-4.81,6.51-4.8,10.78,0.26,17.13c3.81,4.78,6.58,9.92,7.61,16.03c0.86,5.11-0.25,9.54-3.44,13.55
		c-4.28,5.39-9.22,10.27-14.91,13.95c-12.71,8.23-21.86,19.67-30.98,31.41c-8.94,11.52-16.45,24.13-27.55,34.06
		c-15.91,14.23-39.56,18.23-58.54,8.39c-6.2-3.21-11.4-8.07-16.05-13.34C33.59,518.64,19,506.42,5.5,493.08
		c-1.41-1.39-3.12-1.7-5.02-1.8c-3.83-0.19-7.66-0.54-11.33-1.73c-18.15-5.9-26.3-20.78-22.67-41.08c1.56-8.73,4.7-16.99,7.32-25.41
		c1.95-6.26,2.03-11.66-2.41-17.68c-8.71-11.83-10.96-26.22-12.88-40.46c-0.82-6.07-1.68-12.2,0.3-18.25
		c1.98,3.35,2.89,7.2,2.97,10.87c0.1,4.77,0.9,9.27,2.5,13.67c2.89,7.97,4.4,16.35,7.45,24.29c2.65,6.92,8.71,9.26,15.1,5.36
		c1.42-0.87,2.8-1.87,3.86-3.16c1.95-2.37,4.1-3.01,7.04-1.73c4.39,1.91,8.24-0.62,11.8-2.46c2.94-1.52,0.06-3.57-1.18-3.73
		c-7.72-1.01-7.73-6.51-7.7-12.25c0.02-4.38-1.99-8.41-3.09-12.5c-1.09-4.06-0.18-7.52,0.22-11.17c0.45-4.09-0.56-6.57-4.99-6.85
		c-0.73-6.32-0.86-6.53-7-7.54c-4.77-0.78-9.47-1.88-14.23-2.71c-1.69-0.29-3.68-0.46-4.12,1.66c-0.5,2.44,1.83,2.47,3.32,2.71
		c5.75,0.94,11.56,1.58,17.21,3.03c1.56,0.4,4.33,0.03,3.79,3.19c-4.11,1.72-8.43,0.43-12.65,0.85c-6.03,0.6-12.12-0.73-18.21-0.4
		C-39.94,347.89-40.68,347.44-41.21,346.74z"/>
	<path class="st5" d="M479.73,337.44c-0.24,31.37-25.35,57.48-58.78,56.34c-28.98-0.98-55.29-24.15-54.28-58.67
		c0.86-29.57,25.27-55.39,58.87-54.12C455.3,282.11,479.4,305.86,479.73,337.44z"/>
	<path class="st2" d="M-522.19,187.64c31.82-0.07,56.3,25.51,57.45,54.69c1.36,34.66-26.04,59.62-56.03,60.15
		c-33.73,0.59-57.84-25.75-58.93-55.22C-580.95,213.41-553.29,187.34-522.19,187.64z"/>
	<path class="st2" d="M-95.05-93.2c23.17-0.29,41.88,19.79,42.57,43.32c0.8,27.09-19.97,46.62-42.05,46.96
		c-24.08,0.37-42.62-20.08-43.53-43.44C-139.08-72.37-118.29-94.13-95.05-93.2z"/>
	<path class="st6" d="M617.89,536.47c0.81-6.61,1.54-12.35,2.21-18.09c0.24-2.05,1.89-2.56,3.33-3.33
		c9.69-5.13,17.55-12.58,25.22-20.21c3.24-3.23,5.36-7.31,5.78-11.92c1.06-11.8-0.4-23.17-5.6-34.03
		c-3.24-6.76-8.85-10.67-15.05-13.99c-2.34-1.25-3-2.65-2.58-5.15c0.77-4.59,1.45-9.21,1.84-13.85c0.21-2.53,1.5-3.36,3.66-3.88
		c20.15-4.86,28.06-22.52,27.05-39.54c-0.33-5.6-3.03-10.11-7.02-13.91c-3.15-3-6.9-5.19-10.4-7.73c-1.5-1.09-4.55-0.47-4.46-3.2
		c0.1-3.31,0.63-6.63,1.32-9.87c0.28-1.31,1.96-0.84,3.08-0.94c12.52-1.15,21.55,5.32,25.93,15.71c7.66,18.16,8.02,36.91-1.97,54.83
		c-3.98,7.14-10.45,11.56-17.67,14.81c-3.92,1.76-4.45,3.06-1,6.02c22.13,19.02,24.41,50.41,14.92,72.81
		c-3.67,8.67-10.41,14.5-17.8,19.73C639.41,527.29,629.09,531.76,617.89,536.47z"/>
	<path d="M11.03,327.99c-4.85,1.62-10.47,1.67-12.43,8.23c-0.69,2.31-3.33,3.98-6.02,0.36c-2.07-2.78-5.34-3.78-9.29-3.41
		c-3.83,0.36-7.82-0.65-11.71-1.23c-2.33-0.34-2.6-2.19-2.59-4.17c0.02-3.66-0.03-7.32-0.06-10.98
		c8.25-12.39,17.22-23.54,33.96-24.47c7.3-0.41,14.59-1.06,21.9-0.84c4.72,0.14,7.75-1.7,10-5.85c4.39-8.1,10.65-14.35,19.4-17.79
		c2.48-0.66,2.69,1.25,3.06,2.81c0.38,1.62,0.31,3.3,0.27,4.96c-0.3,12.46,0.37,24.87,1.64,37.26c0.28,2.74,0.25,5.4-2.89,6.69
		c-4.22,5.67-10.38,5.3-15.85,3.75C29.68,320.31,20.23,322.73,11.03,327.99z"/>
	<path class="st2" d="M624.99,288.8c-18.05-0.01-33.59-15.38-33.24-34.19c0.32-17.2,15.28-32.28,32.27-32.75
		c19.06-0.52,34.97,15.51,34.76,33.76C658.57,273.85,643.56,288.8,624.99,288.8z"/>
	<path class="st7" d="M-533.16,64.46c0.75-8.38,2.09-16.77,5.53-24.6c2.76-6.27,7.22-11.13,13.78-13.76
		c1.57-0.63,4.28-1.28,1.32-3.44c-8.63-6.3-12.88-14.46-11.74-25.29c1.2-11.37,7.62-19.27,16.68-25.34
		c8.87-5.94,19.02-8.59,29.31-10.76c2.06-0.44,3.35-0.15,2.72,2.42c-0.2,0.8-0.37,1.66-0.31,2.47c0.45,6.14-2.59,8.46-8.48,9.6
		c-10.76,2.09-19.63,7.14-23.05,18.72c-1.72,5.82-0.63,10.75,3.38,15.24c4.43,4.95,9.92,8.27,15.88,10.99
		c1.12,0.51,2.94,0.73,2.79,2.41c-0.17,1.79-2.04,1.42-3.22,1.62c-12.39,2.14-19.25,9.95-21.68,21.76
		c-2.2,10.73-2.54,21.29,6.8,29.51c1.77,1.56,3.6,3.22,5.82,3.75c4.34,1.05,4.9,3.55,4.02,7.41c-0.78,3.39-1.17,6.9-1.37,10.38
		c-0.24,4.24-2.4,5.38-6.19,4.54c-10.65-2.35-19.65-7.4-25.55-16.8C-530.64,79.04-532.97,72.1-533.16,64.46z"/>
	<path class="st8" d="M-89.8,370.26c1.1-34.55,10.17-66.22,33.69-92.64c7.85-8.82,17-15.82,27.94-20.45
		c3.13-1.32,4.18-1.11,4.51,2.7c0.5,5.75-0.99,9.3-5.94,13.2c-19.15,15.09-33.86,33.74-40.74,57.6c-5.35,18.59-3.11,36.93,3.08,54.9
		c1.52,4.4,0.47,6.27-3.81,8c-10.6,4.28-10.27,4.4-15.3-5.94C-89.07,382.04-90.11,376.35-89.8,370.26z"/>
	<path class="st7" d="M195.98,520.61c-0.5,0-1,0.04-1.5-0.01c-4.21-0.38-10.35,0.89-11.85-2.69c-1.29-3.09,3.17-7.51,5.13-11.31
		c1.09-2.11,3.38-2,5.25-2.37c6.54-1.28,12.95-3.05,19.17-5.43c8.81-3.36,11.79-9.1,9.9-18.01c-0.86-4.05-3.51-6.23-6.99-7.82
		c-1.3-0.59-3.1-0.98-2.11-3.13c2.83-6.13,3.98-12.79,11.6-16.3c10.17-4.68,12.28-10.9,9.3-20.18c-0.4-1.23-0.87-2.78-1.82-3.43
		c-4.34-2.98-0.37-5.26,0.67-7.48c1.42-3.05,3.47-0.55,4.95,0.22c8.65,4.56,13.14,18.46,9.37,28.58c-1.77,4.74-4.16,9.08-8.14,12.34
		c-1.51,1.24-2.5,2.19-1.24,4.49c7.39,13.51,5.92,23.8-4.79,35.56C222.97,514.52,210.92,520.7,195.98,520.61z"/>
	<path class="st9" d="M-230.05,222.61c2.01-6.17,6.15-10.05,12.46-11.59c4.33-0.25,8.27,0.84,11.6,3.68
		c2.42,2.06,4.65,1.63,7.31,0.29c54.73-27.55,108.45-57.01,162.79-85.3c3.98-2.07,7.78-5.06,13.13-4.43
		c-1.04,2.99-3.59,3.77-5.65,4.92c-52.43,29.41-104.89,58.76-157.35,88.13c-1.89,1.06-3.68,2.32-5.66,3.16
		c-4.02,1.73-5.71,4.6-5.68,8.98c0.03,3.45,0.04,7.04-2.06,10.12c-4.28,4.07-9.18,6.63-15.26,6.37c-2.15,0.91-4.21,0.42-6.21-0.45
		C-228.76,242.96-233.51,230.87-230.05,222.61z"/>
	<path class="st10" d="M469.37,218.99c-15.37-1.36-29.52,0.53-43.03-4c-26.1-8.76-45.44-24.67-53.35-52.02
		c-2.48-8.59-1.95-17.44-0.45-26.22c0.46-2.68,1.23-3.16,3.39-1.28c5.9,5.11,11.68,9.88,12.58,18.74
		c1.01,9.93,5.89,18.61,11.86,26.53c7.23,9.59,18.01,13.24,28.82,16.7c2.36,0.76,4.88,1.45,7.32,1.44
		c9.54-0.04,16.63,4.52,22.86,11.2C462.08,212.96,465.27,215.36,469.37,218.99z"/>
	<path class="st11" d="M338.77-24.82c-1.25-21.42,8.29-38.87,20.55-55.31c10.37-13.9,22.39-25.89,38.3-33.43
		c6.41-3.04,6.01-2.87,8.09,3.74c1.82,5.79-0.1,8.7-4.86,11.95c-18.37,12.54-32.98,28.4-40.34,49.89c-2.8,8.18-4.77,16.6-5.56,25.26
		c-0.46,5.04-8.07,14.41-12.66,15.88c-2.21,0.71-2.1-1.01-2.38-2.16c-0.48-1.93-0.99-3.89-1.09-5.86
		C338.64-18.16,338.77-21.49,338.77-24.82z"/>
	<path class="st11" d="M56.25,319.59c1.52-1.78,1.65-3.87,1.4-6.06c-1.52-13.59-1.65-27.24-1.95-40.88
		c-0.04-1.68,0.82-3.78-1.53-4.78c1.42-1.94,0.93-4.15,0.85-6.27c-0.48-12.65-1.01-25.3-1.5-37.95c-0.11-2.85,5.02-11.15,7.51-12.24
		c3.1-1.37,5.51,0.46,5.55,4.42c0.16,14.49,0.38,28.99,0.26,43.48c-0.03,3.41,0.87,5.13,4.27,5.33c-4.59,6.47-2.59,13.71-2.19,20.67
		c0.34,5.95,1.1,11.86-0.45,17.75c-1.28,3.44-1.61,6.87,0.06,10.29c1.2,5.13,1.43,10.25-0.09,15.36c-0.98,2.05-0.67,4.24-0.65,6.39
		c0.15,17.65,0.33,35.3,0.49,52.96c0.02,2.47,0.59,4.9-3.48,5.02c-3.9,0.12-4.22-1.72-4.33-4.76c-0.51-13.48-1.17-26.95-1.81-40.42
		c-0.08-1.65-0.36-3.29-0.54-4.93c-0.15-7.02-0.32-14.04-0.44-21.07C57.66,320.78,57.21,320.06,56.25,319.59z"/>
	<path class="st5" d="M-503.02,434.09c0.15,11.98-10,22.55-21.79,22.69c-13.01,0.15-23.36-9.81-23.46-22.58
		c-0.1-12.12,9.91-22.47,21.82-22.58C-513.18,411.5-503.18,421.09-503.02,434.09z"/>
	<path class="st12" d="M117.68,315.18c-1.74,0.9-1.83,2.51-1.98,4.21c-1.28,14.73-2.61,29.46-3.95,44.19
		c-0.12,1.32-0.17,2.69-0.58,3.94c-0.78,2.36-3.16,2.54-4.97,2.49c-2.37-0.06-1.29-2.32-1.21-3.55c0.89-14.44,1.91-28.87,2.85-43.31
		c0.11-1.71,0.9-3.73-1.4-4.78c-0.04-3.97,1.33-7.81,1.04-11.8c1.45-4.23,1.68-8.47,0.11-12.73c1.33-3.57,0.55-7.47,1.74-11.07
		c1.81-1.19,1.66-3.1,1.78-4.9c1.66-24.4,3.29-48.79,5.08-73.18c0.14-1.85-1.4-5.23,2.52-5.23c5.27,0,7.59,2.1,7.23,6.23
		c-2.01,22.53-4.12,45.05-6.02,67.59c-0.17,1.96-1.87,4.7,1.37,6.06c1.2,1.79-0.78,2.81-1.09,4.24c-0.6,2.76-1.2,5.37,1.01,7.7
		c-2.41,4.22-2.59,8.88-2.68,13.56C117.53,308.24,116.85,311.65,117.68,315.18z"/>
	<path class="st8" d="M-163.73,501.72c0.68,11.25-10.31,22.1-22.29,21.85c-12.12-0.25-22.04-10.1-21.95-22.25
		c0.1-12.18,9.99-22.08,22.08-22.09C-173.32,479.21-163.69,489-163.73,501.72z"/>
	<path class="st8" d="M407.46,443.83c-6.69-0.39-13.01-0.71-18.95-3.19c-2.45-1.02-5.04-1.95-6.89-3.91
		c-2.04-2.15-4.61-4.8-3.77-7.64c0.63-2.16,4.16-1.09,6.37-1.33c22.16-2.36,44.32-4.6,66.49-6.8c1.77-0.17,4.1-1.37,5.06,1.53
		c0.9,2.71-0.83,3.86-2.78,5.09C438.92,436.49,424.2,443.51,407.46,443.83z"/>
	<path class="st13" d="M153.7,304.31c-2.09,1.02-1.72,2.98-1.81,4.76c-0.32,6.3-0.68,12.6-0.96,18.9c-0.09,2.07-0.16,3.87-2.8,4.52
		c-2.58,0.63-4.1,0.65-4-2.71c0.17-5.81,0.11-11.62,0.03-17.43c-0.02-1.69,0.78-3.79-1.6-4.73c-0.64-2.73,0.57-5.51-0.25-8.24
		c0.21-4.36,1.22-8.81-1.62-12.78c1.3-2.69,2.09-5.48,1.9-8.52c-0.11-1.81,0.03-3.63,1.3-5.13c0.09-17.58,0.18-35.17,0.26-52.75
		c0.03-5.58-0.18-5.12,4.75-3.03c5.93,2.53,7.76,6.22,7.13,12.63c-1.16,11.88-1.38,23.84-2.01,35.77c-0.1,1.82-0.55,3.83,2.37,3.68
		c0.02,2.83-1.2,5.43-1.4,8.28c-0.2,2.87,0.93,4.21,3.09,5.34c-2.37,2.99-4.88,5.93-3.59,10.21
		C152.94,296.74,153.17,300.52,153.7,304.31z"/>
	<path class="st4" d="M153.7,304.31c-3.11-3.76-1.88-7.5,0.04-11.24c2.4-3.71,6.17-3.44,9.78-3.12c8.15,0.71,11.47-1.21,14.98-9.41
		c-3.84-0.48-7.13,1.28-10.59,1.79c-3.52,0.52-6.93,2.58-10.62,0.83c-2.88,0.22-4.88-0.29-3.75-3.96c1.01-3.3-1.5-7.6,2.85-9.95
		c9.07-2.63,18.17-5.18,27.21-7.94c2.88-0.88,4-0.43,4.68,2.77c1.78,8.42,4.01,16.75,6.16,25.1c0.63,2.44-0.49,3.17-2.59,3.78
		C179.11,296.69,166.41,300.52,153.7,304.31z"/>
	<path class="st4" d="M109.33,282.78c1.18,3.79,1.89,7.55-0.97,10.98c-0.6,1.4-1.95,1.68-3.18,2.17c-4.37,1.73-4.91,4.97-1.46,8.14
		c1.33,1.23,3.47,1.34,4.3,3.22c0.99,3.92,1.18,7.72-1.59,11.09c-11.83,4.46-24.33,6.84-36.1,11.51c-0.77,0.3-1.57-0.28-1.89-1.18
		c-0.91-5.13-1.12-10.26,0.09-15.37c1.89-2.72,4.13-5.28,5.61-8.21c2.39-4.73,6.04-4.85,11.08-3.74c-3.9,5.86-7.53,11.33-11.43,17.2
		c3.45,0.33,5.95-0.57,7.87-3.08c2.93-3.83,5.71-7.79,8.86-11.43c2.49-2.88,0.22-5.03-0.68-7.29c-3.04-7.59-3.13-7.56,4.6-9.78
		C99.41,285.6,104.37,284.19,109.33,282.78z"/>
	<path class="st14" d="M405.85,490.06c-8.37-0.2-14.85-0.91-19.46-6.96c-1.64-2.16-2.31-3.03,0.95-3.89
		c19.31-5.07,38.59-10.26,57.88-15.42c1.32-0.35,2.8-0.87,3.42,0.8c0.62,1.67,1.36,3.71-0.38,5.11
		C435.29,480.14,421.79,489.45,405.85,490.06z"/>
	<path class="st13" d="M43.12,128.52c-0.58,0.78-1.2,1.78-1.98,2.62c-6.67,7.21-13.47,14.31-20.03,21.62
		c-2.12,2.36-3.28,2.24-5.38-0.07c-9.09-10-9.16-9.93,0.45-19.33c0.95-0.93,1.9-1.87,2.85-2.8c9.63-9.49,9.63-9.49,22.08-4.03
		C41.99,126.93,43.17,126.9,43.12,128.52z"/>
	<path class="st15" d="M68.48,303.06c-1.76-6.98-0.35-14.15-1.24-21.2c-0.52-4.08-0.03-8.28-0.24-12.41
		c-0.16-3.1,0.98-4.73,4.13-4.8c5.74,9.61,8.25,20.56,12.78,30.68c1.2,2.68-0.48,3.1-2.67,3.03
		C76.35,298.18,72.22,300.12,68.48,303.06z"/>
	<path class="st16" d="M62.23,147.82c-0.63,1.92-1.18,3.66-1.77,5.37c-1.83,5.32-3.96,10.56-5.42,15.98
		c-1.01,3.75-2.69,3.68-5.72,2.53c-10.02-3.79-10.06-3.7-5.18-12.95c2.4-4.54,4.8-9.07,7.17-13.62c0.84-1.61,1.84-2.96,3.84-1.8
		C57.56,144.73,61.06,144.53,62.23,147.82z"/>
	<path class="st17" d="M13.49,107.05c0.49,1.97-0.92,2.64-2.3,3.28c-6.02,2.79-12.09,5.49-18.08,8.35
		c-2.23,1.07-3.07,0.53-3.82-1.83c-3.83-11.95-3.9-11.92,8.09-15.05c3.05-0.8,6.21-1.32,9.11-2.49c4.14-1.67,5.79-0.16,6.22,3.85
		C12.85,104.46,13.22,105.75,13.49,107.05z"/>
	<path class="st18" d="M143.88,272.94c0.07,3.16-0.03,6.33,0.27,9.46c0.21,2.23-0.84,3.34-2.54,4.23c-0.5,1.19-1.56,1.79-2.66,1.96
		c-6.21,0.91-12.08,4.21-18.64,2.7c-3.02-2.31-2.53-8.07,1.01-11.94C128.82,277.22,136.35,275.08,143.88,272.94z"/>
	<path class="st19" d="M143.46,299.8c0.72,2.72,1.61,5.47-0.91,7.81c-6.3,2.07-12.61,4.15-18.91,6.22
		c-1.99,0.45-3.97,0.89-5.96,1.34c-3.1-3.42-1.55-6.71,0.27-10c2.86-6,9.36-9.52,15.44-7.82
		C136.73,298.29,140.37,297.96,143.46,299.8z"/>
	<path class="st20" d="M5.28,67.75c0.16,0.02,1.14-0.18,1.41,0.18c2.5,3.24,0.99,7.26,1.98,10.84c0.57,2.07-0.93,2.92-2.73,3.37
		c-4.49,1.13-8.98,2.3-13.46,3.46c-0.32,0.08-0.65,0.29-0.96,0.25c-3.8-0.42-3.06-3.9-3.01-5.81c0.09-3.23-4.28-7.65,0.66-9.55
		C-5.99,68.63-0.45,68.64,5.28,67.75z"/>
	<path class="st21" d="M180.92-34.15c0.12,1.7-0.68,2.3-1.52,2.86c-5.65,3.79-11.34,7.52-16.94,11.38c-1.82,1.25-3.23,1.04-3.98-0.9
		c-0.91-2.34-4.89-4.3-1.89-7.24c4.86-4.75,10.13-9.07,15.24-13.56c0.76-0.66,1.86-1.57,2.6-0.72
		C176.82-39.6,178.96-36.66,180.92-34.15z"/>
	<path class="st22" d="M200.76,114.4c-1.9,3.31-2.39,7.15-5.14,9.78c-1.76,1.68-3.63,2.17-5.7,0.31c-1.47-1.32-3.16-2.41-4.69-3.67
		c-2.62-2.16-7.98-4.1-7.28-6.51c1.21-4.19,6.3-6.42,9.68-9.57c0.36-0.34,1.43-0.45,1.8-0.18c3.59,2.66,7.13,5.39,10.62,8.19
		C200.47,113.08,200.55,113.87,200.76,114.4z"/>
	<path class="st23" d="M5.08,52.19c0.46,3.26-0.69,4.59-4.15,4.09c-7.05-1.02-14.13-1.86-21.21-2.57c-3.21-0.32-4.6-1.37-3.24-4.7
		c0.56-1.37,0.88-2.85,1.16-4.31c0.45-2.27,1.45-2.88,3.85-2.24c6.56,1.73,13.19,3.22,19.83,4.65C4.24,47.74,5.8,49.08,5.08,52.19z"
		/>
	<path class="st24" d="M188.5,9.2c-1.83-0.04-8.65-6.75-8.72-8.11c-0.06-1.32,0.98-1.57,1.88-1.95c5.65-2.4,11.32-4.75,16.94-7.22
		c1.6-0.7,2.51-0.22,3.22,1.17c0.08,0.15,0.13,0.31,0.21,0.45c4.78,8.34,4.77,8.32-4.29,11.84C194.5,6.64,191.32,8.03,188.5,9.2z"/>
	<path class="st25" d="M47.72-26.03c-2.01,2.94-4.99,4.9-7.97,6.33c-2.24,1.07-2.52-2.05-3.29-3.48c-2.14-3.93-4.04-8-6-12.02
		c-1.69-3.45,0.57-7.17,5.87-9.33c3.46-1.42,3.16,2.02,4.02,3.58c2.16,3.92,4.02,8.01,5.99,12.03
		C46.76-28.04,47.18-27.14,47.72-26.03z"/>
	<path class="st26" d="M218.19,51.53c-0.02,6.35-0.02,6.33-6.1,5.85c-2.32-0.18-4.64-0.28-6.96-0.4c-6.33-0.32-8.88-4.38-6.7-10.48
		c0.59-1.64,1.78-1.73,3.12-1.85c2.81-0.25,5.62-0.5,8.43-0.77C218.06,43.08,218.22,43.22,218.19,51.53z"/>
	<path class="st27" d="M212.94,70.61c-0.37,3.39-0.86,6.51-1,9.65c-0.14,3.17-1.65,3.16-3.89,2.06c-1.64-0.81-3.24-1.67-4.9-2.43
		c-5.64-2.6-7.73-6.43-6.99-12.38c0.27-2.21,1.59-2.18,3.16-2.06c3.3,0.26,6.61,0.73,9.91,0.77
		C212.61,66.25,213.74,67.69,212.94,70.61z"/>
	<path class="st28" d="M95.13-47c0-1.04-0.02-1.54,0-2.04c0.36-8.12,3.86-10.95,11.77-9.71c1.9,0.3,2.02,1.38,1.83,2.81
		c-0.57,4.44-1.2,8.88-1.74,13.33c-0.25,2.02-1.28,2.92-3.31,2.8c-1.82-0.11-3.65-0.08-5.47-0.19C92.04-40.36,96.15-45.04,95.13-47z
		"/>
	<path class="st29" d="M148.81,137.57c0.87,0.72,1.57,1.15,2.08,1.74c3.34,3.93,6.6,7.93,9.99,11.82c1.36,1.57,1.55,2.78-0.22,4.14
		c-1.45,1.11-2.84,2.32-4.13,3.61c-1.94,1.95-3.34,1.51-4.76-0.65c-2.47-3.75-5.13-7.36-7.6-11.11c-0.82-1.25-3.03-2.39-1.41-4.2
		C144.49,140.99,146.67,139.44,148.81,137.57z"/>
	<path class="st30" d="M104.01,165.4c0,2.82-0.17,5.66,0.04,8.47c0.26,3.46-0.94,4.39-4.52,4.44c-4.87,0.06-6-1.74-5.27-6.19
		c0.8-4.9,1.39-9.88,1.54-14.84c0.14-4.63,3.4-4.3,6.24-4.47c3.8-0.24,2.35,2.8,2.41,4.63c0.08,2.65-0.2,5.31-0.32,7.96
		C104.09,165.39,104.05,165.39,104.01,165.4z"/>
	<path class="st31" d="M13.83,9.11c-0.41,1.6-0.89,3.18-1.24,4.8c-0.53,2.45-1.66,3.04-3.8,1.53C3.65,11.8-1.52,8.21-6.68,4.62
		C-7.37,4.14-8.13,3.67-8.1,2.74c0.05-1.81,9.09-6.69,10.45-5.53C5.89,0.2,9.29,3.36,12.74,6.47C13.51,7.17,13.95,8.03,13.83,9.11z"
		/>
	<path class="st32" d="M193.66,90.46c4.96,1.99,9.86,3.65,14.46,5.91c2.27,1.12,0.34,3.32-0.12,4.89c-2.2,7.49-2.26,7.47-9.07,3.65
		c-1.74-0.98-3.48-1.94-5.21-2.92c-4.01-2.27-4.8-7.38-1.62-10.58C192.51,90.98,193.14,90.76,193.66,90.46z"/>
	<path class="st33" d="M130.65-54c6.07-0.18,6.1-0.15,4.16,5.02c-1.69,4.5-3.48,8.97-5.08,13.5c-0.83,2.36-2.04,3.29-4.45,2.07
		c-2.09-1.06-5.2-1.18-3.96-4.97c1.14-3.46,2.43-6.93,3.05-10.5C125.08-53.03,127.14-54.67,130.65-54z"/>
	<path class="st34" d="M182.87-23c1.23-0.19,1.77,0.57,2.21,1.55c0.89,1.96,1.82,3.91,2.73,5.86c0.14,0.3,0.41,0.71,0.31,0.92
		c-2.26,4.92-7.8,5.58-11.44,8.73c-1.77,1.53-2.95,0.12-4.2-1.06c-5.25-4.96-5.27-4.95,0.6-9.22c2.95-2.15,5.91-4.29,8.87-6.41
		C182.22-22.82,182.56-22.88,182.87-23z"/>
	<path class="st35" d="M123.14,149.93c4.54-0.78,6.92,1.77,7.65,6.46c0.23,1.47,0.8,2.88,1.2,4.32c0.99,3.56-3.75,9.52-7.39,9.27
		c-1.61-0.11-1.61-1.39-1.81-2.52c-0.9-5.07-1.81-10.14-2.7-15.22C119.72,150.15,120.16,148.87,123.14,149.93z"/>
	<path class="st36" d="M81.75,158.11c0,1.16,0.03,2.32-0.01,3.47c-0.22,6.98-0.2,6.73-7,6.07c-3.77-0.37-4.39-1.7-3.41-5.07
		c0.87-3,0.87-6.25,1.76-9.23c0.56-1.89-0.94-5.67,3.53-4.97c3.61,0.57,6.48,1.64,5.43,6.26c-0.25,1.11-0.15,2.31-0.21,3.46
		C81.82,158.11,81.78,158.11,81.75,158.11z"/>
	<path class="st37" d="M84.12-47.03c0,1.5-0.22,3.03,0.04,4.48c0.67,3.74-1.24,4.88-4.53,5.47c-3.85,0.69-3.48-2.1-3.94-4.21
		c-0.73-3.41-1.15-6.89-2.04-10.26c-0.85-3.22,0.01-4.42,3.41-4.78C83.86-57.06,83.84-57.26,84.12-47.03z"/>
	<path class="st38" d="M177.35,133.98c-2.92,2.79-5.35,5.54-8.21,7.71c-2.02,1.53-3.16-1.03-4.46-2.05
		c-7.51-5.9-7.23-7.8,1.36-12.49c2-1.09,3.04-0.05,4.38,0.93C172.76,129.82,175.29,131.33,177.35,133.98z"/>
	<path class="st39" d="M-5.64,18.3c4.32,3.32,8.75,6.29,12.57,9.9c1.28,1.21-1.1,3.17-1.99,4.69c-0.99,1.7-2.36,1.38-3.86,0.64
		c-1.94-0.95-3.95-1.76-5.94-2.6c-4.93-2.07-6.13-7.51-2.49-11.56C-6.96,18.94-6.32,18.72-5.64,18.3z"/>
	<path class="st40" d="M21.55-20.59c0.45,0.51,1.07,1.04,1.49,1.7c1.07,1.67,2.06,3.39,3.09,5.09c2.73,4.5,1.73,7.3-3.17,9.25
		c-1.34,0.53-2.21,0.05-3.05-0.85c-0.91-0.96-1.9-1.86-2.69-2.92c-1.32-1.77-4.67-3.12-3.47-5.39c1.39-2.62,4.33-4.43,6.62-6.56
		C20.58-20.46,20.99-20.45,21.55-20.59z"/>
	<path class="st41" d="M142.62-29.94c-2.72-0.2-4.75-3.43-3.7-6.03c1.49-3.67,3.15-7.27,4.62-10.94c0.97-2.43,2.04-2.46,3.95-0.79
		c5.01,4.37,5.09,4.49,1.47,9.98c-1.27,1.93-2.49,3.89-3.74,5.83C144.6-30.91,144.02-29.88,142.62-29.94z"/>
	<path class="st42" d="M56.96-31.34c-0.97-0.01-1.51-0.64-1.81-1.44c-1.31-3.41-3-6.75-3.74-10.28c-0.87-4.15,3.55-3.52,5.6-4.98
		c2.17-1.54,2.83,0.46,3.44,2.01c0.86,2.16,1.65,4.35,2.45,6.53C64.29-35.68,60.95-31.11,56.96-31.34z"/>
	<path class="st43" d="M197.05,31.26c-2.58,0-6.19-6.11-4.85-8.12c2.12-3.17,5.99-3.87,9.47-4.41c2.13-0.33,5.92,5.62,5.59,7.89
		c-0.16,1.12-0.68,1.9-1.69,2.21C202.59,29.73,199.57,30.54,197.05,31.26z"/>
	<path class="st3" d="M-230.05,222.61c-1.47,12.59,3.72,20.67,15.63,24.34c-3.39,2.32-6.78,4.64-10.18,6.95
		c-12.12,8.21-18.35,20.11-21.48,34.01c-1.17,5.2-2.13,10.4-2.16,15.74c-0.01,2.32-0.41,3.41-3.18,2.27
		c-15.27-6.28-29.63-3.4-43.17,5.01c-4.75,2.95-9.09,6.58-13.61,9.9c-0.68,0.65-1.39,1.51-2.42,1.1c-1.27-0.5-0.74-1.54-0.33-2.36
		c0.43-0.86,0.42-1.85,0.9-2.68c5.39-12.93,10-26.01,10.75-40.25c0.71-13.53-1.15-26.45-7.26-38.84
		c26.27,3.52,49.39-5.96,72.68-14.6C-232.61,222.73-231.41,222.31-230.05,222.61z"/>
	<path class="st44" d="M-310.05,316.9c-0.05,0.77,0.12,1.64-0.18,2.3c-1.54,3.35,0.74,1.85,2.02,1.64c-1.09,2.2-2.47,4.06-5.58,5
		C-313.02,322.24-312.07,319.37-310.05,316.9z"/>
	<path d="M487.15,103.78c-0.07,0.82-0.43,1.76-0.17,2.46c2.23,5.99-1.64,6.94-6.06,7.51c-4.78,0.62-9.56,1.22-14.34,1.88
		c-3.1,0.43-4.45-0.6-4.68-3.98c-1.53-22.37-3.23-44.74-4.93-67.1c-0.32-4.16,0.99-7.64,3.18-11.16
		c8.86-14.24,17.48-28.63,26.18-42.97c2.47-4.06,5.24-7.98,7.27-12.26c1.6-3.37,3.98-4.52,7.38-4.88
		c26.09-2.72,51.82-7.8,77.74-11.58c17-2.48,33.83-6.43,51.12-6.86c3.22-0.08,4.63,0.47,5.15,4.07c3.5,23.98,7.24,47.93,11.02,71.87
		c2.4,15.21,5,30.39,7.5,45.58c0.03,0.16,0.04,0.33,0.07,0.5c1.62,10.18,1.26,10.73-8.65,13.28c-13.05,3.35-26.45,4.73-39.7,6.96
		c-13.4,2.25-26.81,4.45-40.21,6.68c-4.09,0.68-8.2,1.23-12.26,2.07c-3.83,0.79-3.68-2.26-4.6-4.36c-2.21-1.54-2.1-4.05-2.48-6.27
		c-3-17.55-6.16-35.07-8.96-52.65c-0.45-2.84-1.16-5.54-2.81-7.92c-10.81-15.59-21.04-31.57-31.9-47.13
		c-3.19-4.57-3.47-4.48-6.06,0.35c-9.06,16.85-18.3,33.6-27.26,50.51c-0.6,1.14-1.64,2.15-1.35,3.91c2.67,0.84,5.52,0.57,8.23,0.26
		c15.53-1.75,31.17-2.02,46.7-3.74c1.16-0.13,2.33-0.13,3.49-0.11c5.5,0.11,6.75,1.02,7.61,6.42c2.51,15.77,4.63,31.6,6.84,47.42
		c0.55,3.92,1.84,7.81,0.87,11.85c-0.05,2.74-2.23,3.05-4.13,3.37c-6.58,1.12-13.25,1.06-19.88,1.59c-4.34,0.35-2.65-3.25-3.9-4.89
		c-2.45-1.32-2.44-3.77-2.73-6.05c-0.85-6.76-1.96-13.49-2.84-20.25c-0.47-3.63-2.22-4.9-5.75-4.15c-3.11,0.66-6.29,0.44-9.45,0.47
		c-6.06,0.06-6.58,0.48-5.95,6.64c0.49,4.79,0.81,9.6,1.48,14.38C488.36,98.33,488.75,101.16,487.15,103.78z"/>
	<path class="st3" d="M541.11,104.41c-2.72-10.48-3.27-21.3-5.07-31.92c-1.59-9.34-2.99-18.73-3.94-28.15
		c-0.39-3.91-1.87-4.6-5.34-4.33c-19.24,1.5-38.49,2.85-57.75,4.2c-1.41,0.1-3.24,1.12-4.19-0.31c-0.98-1.47,0.78-2.71,1.45-3.94
		c9.93-18.45,20-36.84,29.87-55.32c1.81-3.39,2.75-4.5,5.39-0.5c10.72,16.23,21.51,32.42,32.7,48.33c3.61,5.13,4,10.81,4.99,16.46
		c3.08,17.51,5.99,35.05,8.97,52.58C546.98,105.27,543.44,103.37,541.11,104.41z"/>
	<path class="st45" d="M423.46,49.93c-6.98-25.12-7.27-48.26,5.9-70.14c3.87-6.44,9.03-11.58,16.79-13.16
		c2.23-0.45,2.67-1.48,1.87-3.52c-2.73-6.98-2.46-13.79,2.13-19.91c6.5-8.68,14.13-15.97,25.26-18.33c0.8-0.17,1.66-0.13,2.49-0.08
		c5.05,0.31,5.51,0.99,3.27,5.63C465.06-36.16,448.9-2.76,432.76,30.65C429.88,36.62,427,42.59,423.46,49.93z"/>
	<path class="st46" d="M487.15,103.78c-0.83-8.78-1.54-17.57-2.53-26.33c-0.34-2.99,0.41-4.15,3.54-4.22
		c5.49-0.12,10.98-0.48,16.44-1.04c3.14-0.32,3.94,0.95,4.23,3.83c0.83,8.09,2.84,16.03,3.1,24.22c0.05,1.42,0.82,2.82,1.26,4.24
		c-0.07,2.22-1.24,3.04-3.42,3.23c-6.28,0.55-12.54,1.29-18.8,1.96C485.8,110.23,488.82,105.49,487.15,103.78z"/>
	<path class="st47" d="M645.06,114.55c-18.27,24.61-63.94,41.25-86.18,31.92C587.96,135.7,616.51,125.12,645.06,114.55z"/>
	<path d="M-285.82,7.3c-0.17,5.93-5.53,8.11-9,11.06c-8.57,7.27-16.81,14.91-25.36,22.2c-2.8,2.39-5.25,2.73-8.59,1.56
		c-3.43-1.2-3.11-3.73-3.26-6.4c-1.29-22.57-2.63-45.14-3.96-67.72c-0.09-1.49-0.15-2.99-1.51-4.42c-3.92,3.17-7.4,6.89-12.6,8.38
		c-5.36,1.54-10.43,1.66-15.62-0.1c-5.04-1.71-5.47-1.32-6.22,3.79c-1.1,7.57-6.4,12.09-12.98,14.25c-7.51,2.46-15.43,2.8-22.1-2.96
		c-3.86-3.34-4.16-6.52-0.71-10.32c6.43-7.07,13.34-13.73,19.61-20.94c5.73-6.58,10.87-13.67,16.32-20.5
		c1.73-2.17,0.38-4.2-0.28-6.12c-2.12-6.25-4.48-12.41-6.71-18.62c-0.31-0.87-1.24-1.9-0.3-2.72c0.96-0.84,1.97-0.31,3.13,0.26
		c6.2,3.03,10.26,7.83,11.77,14.47c0.67,2.94,2.18,2.85,4.29,2.42c0.48-0.1,0.95-0.27,1.41-0.46c7.46-2.98,7.52-3.02,2.62-10.02
		c-2.74-3.92-5.67-7.71-8.61-11.49c-0.74-0.95-1.72-1.83-1.06-3.04c0.66-1.2,2.07-0.87,3.17-0.78c13.78,1.03,23.78,9.71,26.07,22.93
		c0.47,2.72,2.01,3.02,4.11,3.26c2.95,0.33,5.97,0.7,6.85,4.35c2.81,3.75,2.9,8.32,3.67,12.64c2.35,13.25,4.78,26.49,6.52,39.84
		c0.12,0.96,0.25,2,1.59,2.87c1.59-2.06,0.8-4.27,0.45-6.36c-2.37-13.92-4.79-27.84-6.75-41.83c-0.3-2.12-0.91-4.27,0.44-6.28
		c1.25-4.52,3.66-1.71,5.32-0.58c1.01,0.69,1.32,2.4,1.94,3.65c2.2,1.01,2.25,3.09,2.54,5.06c2.25,15.65,5.07,31.22,7.35,46.87
		c0.23,1.59,0.38,3.28,2,4.74c2.08-1.93,1.08-4.12,0.78-6.03c-1.94-12.33-3.83-24.67-5.48-37.05c-0.35-2.64-0.88-5.3,0.72-7.76
		c0.11-1.14,0.21-2.27,0.34-3.7c3.05,1.07,5.33,2.69,6.92,5.26c2.88,5.05,3.14,10.8,4.08,16.3c2.3,13.58,4.54,27.17,6.83,40.76
		C-285.53,1.06-284.45,4.17-285.82,7.3z"/>
	<path class="st48" d="M-242.04-51.71c-9.77-6.56-19.54-13.1-29.3-19.67c-18.73-12.62-37.46-25.25-56.16-37.92
		c-1.18-0.8-3.2-1.28-3.07-2.93c0.13-1.66,2.19-1.8,3.49-2.35c18.22-7.76,35.95,0.28,41.67,18.92c0.54,1.77,0.8,2.94,3.19,2.63
		c16.37-2.07,26.68,6.8,34.43,19.71c3.85,6.42,5.93,13.56,7.06,20.9C-241.17-52.18-241.61-51.95-242.04-51.71z"/>
	<path class="st49" d="M-349.38,60.11c25.92-1.68,50.64-3.28,75.37-4.88c-13.26,8.69-27.45,14.23-43.27,14.52
		c-7.83,0.14-15.61-0.53-23.2-2.81C-344.04,65.87-346.24,63.47-349.38,60.11z"/>
	<path class="st50" d="M-289.27-54.48c5.15-1.67,7.1,3.23,10.51,5.13c2.67,4.11,2.4,8.91,2.9,13.44c1.03,9.36,2.03,18.73,3.08,28.09
		c0.2,1.81,0.36,3.66-1.07,5.15c-0.08,0.81,0.02,1.68-0.26,2.41c-0.77,1.94-2.68,3.3-4.32,3.56c-2.22,0.35-0.85-2.73-2.17-3.69
		c-2.26-1.46-2.27-3.94-2.63-6.16c-2.29-14.05-4.44-28.13-6.7-42.19C-290.25-50.71-290.58-52.7-289.27-54.48z"/>
	<path class="st51" d="M-289.27-54.48c2.89,18.03,5.78,36.05,8.67,54.08c0.45,4.05-0.94,6.85-5.21,7.7
		c-2.76-16.29-5.54-32.59-8.29-48.89c-0.98-5.81-1.89-11.64-2.84-17.46C-293.37-59.23-291.32-56.87-289.27-54.48z"/>
	<path class="st52" d="M-304.21-60.62c2.14,15.63,4.28,31.26,6.43,46.89c0.11,0.82,0.29,1.63,0.43,2.45
		c0.46,2.79-1.72,3.52-3.56,3.92c-2.42,0.53-1.87-1.76-2.07-3.04c-2.78-17.38-5.51-34.77-8.27-52.16c-0.21-1.3-0.57-2.58-0.86-3.88
		c3.28-3.46,4.69,0.23,6.34,1.88C-304.85-63.65-304.7-61.96-304.21-60.62z"/>
	<path class="st53" d="M-319.37-69.51c2.59,16.07,5.19,32.13,7.76,48.2c0.31,1.96,0.62,3.94,0.67,5.92
		c0.06,2.26-1.74,3.35-3.52,3.51c-2.05,0.19-1.33-1.93-1.52-3.04c-2.42-14.41-4.74-28.83-7.12-43.24
		c-0.67-4.08-1.46-8.14-2.19-12.22c0.48-1.11,0.28-2.66,2.3-2.59C-320.63-72.88-320.2-71.06-319.37-69.51z"/>
	<path class="st54" d="M-273.86-2.67c-1.63-15.56-3.27-31.12-4.9-46.68c2.97,0.31,4.65,2.65,6.74,4.33
		c2.41,3.65,1.92,7.96,2.65,11.97c1.36,7.49,1.61,15.13,2.44,22.69c0.14,1.33,0.1,2.66-0.92,3.72
		C-269.55-4.86-270.75-2.32-273.86-2.67z"/>
	<path class="st55" d="M-267.85-6.64c-1.39-12.8-2.78-25.59-4.17-38.39c3.85-0.4,6.34,1.57,8.2,4.67c2.16,8.57,4.72,17.1,3.07,26.12
		C-261.26-9.97-263.13-6.98-267.85-6.64z"/>
	<path class="st56" d="M-260.75-14.24c-0.42-8.77-3.6-17.22-3.07-26.11c3.43,0.32,5.74,2.3,7.55,5.05
		c3.22,5.28,3.45,10.99,2.46,16.89C-255.77-16.45-255.94-11.49-260.75-14.24z"/>
	<path class="st57" d="M-253.81-18.42c-0.82-5.63-1.64-11.25-2.46-16.88c0.74-1.97,2.02-1.86,3.49-0.87
		c1.36,0.91,2.62,1.99,4.05,2.77c10.16,5.61,10.25,5.71,0.61,12.32C-249.72-19.99-250.51-16.14-253.81-18.42z"/>
	<path class="st0" d="M85.48,453.73c28.05,0.34,42.8,15.43,43.38,39.75c0.5,21.19-14.72,45.73-42.14,44.66
		c-26.54-1.04-42.47-16.96-43.54-39.74C41.71,466.95,64.55,453,85.48,453.73z"/>
	<path d="M11.12,427.03c-7.53,2.67-6.59,3.92-7.89,11.28c-1.37,7.78,2.33,12.23,5.95,17.52c2.01,2.94,0.25,11.79-3.04,14.2
		c-2.26,1.66-3.24,3.31-3.22,6.12c0.03,8.08-6.3,11.94-13.86,8.86c-7.08-2.89-12.19-8.19-17-13.74c-1.92-2.22-1.96-5.49-2.11-8.51
		c-0.21-4.25,0-8.43-1.04-12.78c-0.81-3.39-0.27-8.71,2.95-10.89c5.91-4.01,5.6-9.8,6.01-15.4c0.28-3.9-0.19-7.57,5.57-6.53
		c0.71,0.13,1.67-0.31,2.32-0.76c5.17-3.65,5.37-2.72,11.44-4.11c6.16-1.42,12.71-1.64,18.49-4.6c0.82-0.42,1.41-1.68,2.5-0.73
		c1,0.87,1.01,2.18,0.5,3.23c-0.49,1.01-1.25,2.13-2.19,2.64c-6.04,3.22-6.39,8.49-5.43,14.3
		C11.08,427.11,11.12,427.03,11.12,427.03z"/>
	<path d="M-7.37,346.82c6.35-0.65,6.37-0.65,6.32,6.44c-0.02,2.28,0.52,4.69-1.26,6.68c-0.28,0.31-0.45,1.02-0.29,1.37
		c3.2,7.07,4.64,14.47,4.78,22.24c0.05,2.49,1.46,4.85,4.9,4.28c3.54-0.59,4.09,3.19,6.27,4.64c0.98,0.65-0.73,1.42-1.62,1.68
		c-5.4,1.56-10.29,6.61-16.59,2.13c-1.42-1.01-2.27,0.93-2.96,1.96c-3.54,5.26-9.35,5.66-14.63,5.85c-1.99,0.07-5.53-2.32-6.45-5.22
		c-2.96-9.35-5.53-18.83-8.36-28.23c-1.33-4.41-2.27-8.67-2.14-13.46c0.09-3.28-1.9-6.83-1.78-10.5c0,0-0.03,0.07-0.03,0.07
		c11.17,0.03,22.34,0.06,33.51,0.08L-7.37,346.82z"/>
	<path d="M161.75,389.25c0.21-2.45-1.21-3.66-3.34-4.22c-3.37-0.89-3.15-2.5-0.83-4.35c1.78-1.42,2.83-3.21,3.42-5.35
		c0.36-1.29,0.76-2.9,2.05-3.26c5.61-1.56,9.96-5.82,15.65-7.1c3.15-0.71,5.61-1.58,6.78-5.4c0.89-2.92,1.85-7.5,5.12-7.91
		c3.53-0.44,2.7,4.55,4.48,6.77c1.05,1.31,1.79,2.86,3.52,3.28c3.04,0.73,4.57,2.48,4.39,5.66c-0.11,1.93,0.98,2.61,2.79,2.61
		c1.81,0.01,3.62-0.12,5.41,0.57c3.34,1.28,7.53,1.52,8.6,5.79c1.1,4.36-2.75,6.92-5.21,8.92c-3.95,3.21-7.42,7.64-13.39,7.96
		c-2.47,0.13-3.1,3.2-4.36,5.07c-4.52,6.7-13.17,5.96-18.95,0.35c-4.29-4.16-7.6-11.9-16.15-9.42L161.75,389.25z"/>
	<path d="M155.87,452.15c1.2-0.82,2.68-1.42,3.51-2.51c0.84-1.11,1.42-2.65,0.73-4.2c-0.37-0.83-0.98-1.44-1.93-1.02
		c-2.39,1.04-4.05-0.06-4.81-2.09c-0.96-2.54,0.13-5.04,1.86-6.82c7.13-7.32,7.79-10.28,2.42-18.86c-1.75-2.8-0.62-6.79-4.31-8.85
		c-0.97-0.54,0.5-2.99,2.01-3.96c1.38-0.88,3.05-1.37,3.98,0.23c3.32,5.73,9.67,5.84,14.83,8.53c-0.91,1.84-1.96,3.86-2.88,5.93
		c-0.41,0.92-0.6,2.17,0.3,2.76c1.09,0.71,1.67-0.39,2.3-1.18c2.58-3.21,6.71-2.65,7.91,1.31c0.63,2.09,1.47,3.62,3.34,4.61
		c0.15,0.08,0.36,0.14,0.41,0.27c3.58,8.58,10.27,16.74,6.94,26.6c-1.84,5.43-6.37,10.25-11.78,12.98c-4.42,2.23-7.62,5.1-9.4,9.61
		c-0.57,1.45-1.03,3.14-3.05,1.88c-1.61-1-1.51-2.52-0.33-3.83c3-3.32,2.58-6.87,0.94-10.59c-0.57-1.29-1.4-2.59-2.69-2.72
		c-2.92-0.3-3.79-2.14-4.42-4.56c-0.74-2.85-2.56-3.14-4.89-1.7C155.45,453.93,155.36,453.2,155.87,452.15z"/>
	<path d="M155.08,464.79c-3.12,4.91,0.63,9.13,1.46,13.62c0.15,0.8,1.24,1.27,0.79,2.54c-1.44,4.04-1.37,4.06,0.98,7.7
		c-3.37,0.37-6.07,1.65-7.26,5.04c-1.21,3.45-4.82,1.38-7.08,3.09c2.69-4.41-2.24-6.93-2.6-10.75c-0.14-1.45-1.61-3.84-1.37-6.06
		c0.32-3.02-1.78-3.99-3.9-5.04c-1.75-1.2-2.43-2.68-1.28-4.67c0.45-1.25,0.87-2.5,1.34-3.74c1.88-4.88,1.19-6.34-3.9-6.5
		c-3.74-0.12-3.29-2.43-3.28-4.74c0.01-2.39,0.39-4.9-3.55-3.98c-1.21,0.28-2.81-0.61-3.04-2.08c-0.27-1.72,1.47-1.78,2.58-2.46
		c4.25-2.6,8.28-4.94,12.74-0.2c1.02,1.08,2.86,0.3,4.02-0.89c0.85-0.88,1.71-1.56,3.03-0.75c1.48,0.91,0.61,1.98,0.35,3.05
		c-0.34,1.38-0.04,2.78,0.83,3.78c2.25,2.56,2.87,4.91,1.34,8.36c-1.07,2.42,0.38,4.93,3.84,4.82c1.33-0.04,2.66-0.07,4-0.1
		L155.08,464.79z"/>
	<path d="M212.85,355.11c-1.15-3.18,0.27-8.12-5.58-8.15c-0.11,0-0.38-1.53-0.3-2.32c0.28-2.86-1.01-3.67-3.77-3.75
		c-3.47-0.11-4.86-2.83-3.38-6.16c0.47-1.06,1.58-2.11,0.76-3.16c-5.72-7.32,1.69-13,2.47-19.49c0.16-1.33,1.94-2.64,3.25-3.59
		c1.07-0.78,3.04-0.98,3.33,0.66c0.99,5.64,5.35,5.33,9.36,5.8l-0.02-0.03c-2.32,14.05-1.84,15.05,11.3,22.09
		c-7.26,0.76-5.17,8.9-10.56,11c-0.83,0.33-0.45,1.48,0.66,1.65c2.82,0.43,1.53,2.56,1.35,3.83c-0.25,1.81-1.79,1.97-3.48,1.73
		c-1.79-0.25-3.63-0.12-5.45-0.16C212.8,355.08,212.85,355.11,212.85,355.11z"/>
	<path d="M30.79,508.37c-3.9-2.58-7.22-4.08-10.73-5.35c-2.99-1.08-5-4.38-3.51-8.28c0.61-1.61,0.91-3.48,0.17-4.88
		c-3.8-7.24,1.16-13,3-19.28c0.31-1.06,1.28-1.36,2.23-1.77c2.08-0.91,3.44-1.99,1.17-4.35c-1.64-1.71-1.16-2.99,1.49-2.74
		c0.33,0.03,0.66,0.12,0.98,0.12c2.31-0.04,4.83-3.18,6.77-0.57c2.63,3.55,4.58,7.76,2.47,12.37c-1.39,3.02-2.69,6.03-2.86,9.38
		c-0.11,2.27-2.81,2.1-3.39,4.94C27.16,494.81,30.03,500.75,30.79,508.37z"/>
	<path d="M218.53,294.05c-3.83,0.69-6.51-1.06-6.63-6.09c-0.06-2.55-2.14-3.67-4.01-3.71c-4.58-0.11-6.58-2.47-7.94-6.55
		c-0.95-2.86-1.26-6-3.62-8.49c-1.47-1.55,1.68-4.33-0.38-6.43c2.34,0.33,5.26-1.33,6.7,2.15c0.48,1.16,2,0.96,3.13,1.2
		c0.64,0.14,1.3,0.35,1.87,0.67c4.53,2.52,8.73,6.78,10.55,10.53c2.01,4.14,1.62,9.32,5.24,13.81
		C226.23,294.58,221.48,293.8,218.53,294.05z"/>
	<path class="st58" d="M212.8,355.08c3.08,2.74,5.95,5.78,9.3,8.14c3.43,2.42,1.47,4.72,0.28,6.81c-1.8,3.16-3.4,0.14-4.66-0.75
		c-6.11-4.3-12.09-8.79-18.08-13.26c-2.11-1.58-1.92-8.4,0.23-9.92c1.45-1.03,2.07,0.46,2.87,1.08c3.38,2.64,6.34,5.81,10.12,7.93
		L212.8,355.08z"/>
	<path class="st59" d="M14.01,401.76c0.28,2.55-0.71,3.79-3.48,4.25c-8.67,1.43-17.29,3.2-25.94,4.78
		c-1.29,0.24-3.18,1.49-3.48-1.04c-0.2-1.72-0.43-3.8,2.11-4.38c3.56-0.81,7.11-1.65,10.66-2.47c5.49-1.27,10.99-2.51,16.48-3.81
		C12.63,398.57,14.46,398.52,14.01,401.76z"/>
	<path class="st60" d="M161.72,389.22c5.18,5.87,11.36,10.68,17,16.06c1.08,1.03,2.28,1.98,3.21,3.14c1.52,1.89,0.11,3.6-0.94,4.93
		c-1.36,1.73-2.3-0.2-3.16-0.94c-6.67-5.77-13.21-11.68-19.96-17.36c-2-1.69-1.27-2.84-0.35-4.62c1.12-2.15,2.32-2.54,4.22-1.18
		c0,0,0.17-0.2,0.17-0.2L161.72,389.22z"/>
	<path class="st61" d="M-7.37,346.82l-0.32,0.01c-7.68-2.72-15.86-2.94-23.73-4.76c-1.66-0.38-4.1,0.13-3.36-2.85
		c0.59-2.38,1.05-4.96,4.75-4.14c6.45,1.42,12.96,2.58,19.44,3.88C-4.8,340.12-4.37,341.21-7.37,346.82z"/>
	<path class="st62" d="M219,314.95c-1.01-2.45-1.96-4.91-3.03-7.33c-2.3-5.21-2.33-5.2,1.86-10.6c3.74,8.62,7.35,16.94,10.96,25.26
		c0.46,1.07,0.84,2.18,1.4,3.19c1.11,2.02,0.61,3.46-1.35,4.53c-2.54,1.39-2.66-0.94-3.37-2.23c-2.32-4.2-3.64-8.91-6.48-12.85
		C218.98,314.92,219,314.95,219,314.95z"/>
	<path class="st63" d="M155.87,452.15c-0.05,0.81,0.25,1.43,0.96,1.83c2.6,5.35,5.22,10.69,7.79,16.05c0.8,1.67,2.44,3.33-0.63,4.76
		c-2.86,1.34-3.38-0.69-4.43-2.34c-1.59-2.5-2.31-5.51-4.48-7.66c0,0,0.03,0.05,0.03,0.05c-1.89-3.79-3.86-7.55-5.64-11.4
		c-0.63-1.36-2.99-2.88-0.19-4.41c2.29-1.26,4.35-1.51,5.44,1.6C154.92,451.2,155.47,451.65,155.87,452.15z"/>
	<path class="st59" d="M18.03,465.07c-0.81,2.05-1.74,4.35-2.64,6.67c-1.68,4.34-3.35,8.68-5.02,13.03
		c-0.66,1.72-1.66,2.28-3.47,1.43c-1.63-0.77-1.55-1.65-0.98-3.16c2.41-6.36,4.65-12.79,6.94-19.2c0.47-1.32,0.91-2.64,2.75-1.81
		C16.82,462.58,18.14,463.05,18.03,465.07z"/>
	<path class="st64" d="M39.68,490.97c-0.73,2.06,0.81,4.9-1.58,6.31c-1.67,0.99-4.02,0.86-5.74,0.04c-2.03-0.97-0.52-2.9-0.33-4.41
		c0.18-1.46,0.3-2.96,0.73-4.36c0.51-1.67-1.21-4.94,2.71-4.37c2.89,0.42,5.03,1.72,4.23,5.26
		C39.59,489.9,39.68,490.42,39.68,490.97z"/>
	<path class="st65" d="M92.69,451.04c-2.13-0.19-4.26-0.58-6.39-0.53c-3.17,0.07-3.34-1.8-3.25-4.18c0.12-3.1,2.03-2.17,3.82-1.92
		c2.12,0.29,4.28,0.27,6.38,0.6c1.99,0.31,4.99-0.74,4.51,3.33C97.33,451.98,94.98,451.26,92.69,451.04z"/>
	<path class="st66" d="M58.99,456.7c-0.15,1.66-8.35,8.52-9.7,8.04c-2.11-0.76-5.15-0.91-2.63-4.87c2.1-3.29,5.14-4.6,8.27-5.95
		C57.57,452.77,58.25,455.06,58.99,456.7z"/>
	<path class="st67" d="M75.97,444.98c0.89-0.13,1.82,0.14,1.88,1.43c0.07,1.59,0.75,3.64-1.19,4.42c-3.06,1.22-6.25,2.19-9.45,2.97
		c-2.44,0.6-2.31-1.79-2.98-3.14c-0.77-1.57-0.17-2.47,1.47-2.89C69.05,446.89,72.39,445.96,75.97,444.98z"/>
	<path class="st68" d="M134.8,470.27c0.43,1.56,0.85,3.11,1.28,4.67c0.1,1.55,0.18,3.01-2.02,3.16c-1.53,0.1-2.53-0.44-3.16-1.82
		c-0.97-2.1-1.87-4.25-2.99-6.27c-1.46-2.63-2.18-4.56,1.66-5.99c4.08-1.52,3.37,1.65,4.15,3.5
		C134.1,468.43,134.44,469.35,134.8,470.27z"/>
	<path class="st69" d="M119.19,534.39c-1.87,2.94-4.84,4.79-7.44,6.99c-2.01,1.7-3.75-0.11-5.45-0.85
		c-1.81-0.78-1.53-1.86,0.03-2.81c3.11-1.88,6.17-3.84,9.31-5.66C118.04,530.67,118.28,532.92,119.19,534.39z"/>
	<path class="st70" d="M132.58,489.1c0-0.99-0.02-1.99,0.01-2.98c0.04-1.49-0.1-3.07,2.11-3.2c2.06-0.12,3.02,0.69,3.15,2.81
		c0.16,2.64,0.65,5.26,0.82,7.9c0.08,1.27,1.12,3.44-1.41,3.31c-1.8-0.09-4.25-0.17-4.55-2.88c-0.18-1.64-0.03-3.31-0.03-4.97
		C132.64,489.1,132.61,489.1,132.58,489.1z"/>
	<path class="st71" d="M92.75,542.49c1.33,0.71,4.13-1.99,4.6,1.14c0.4,2.62-0.71,4.74-4.27,5.3c-6.64,1.04-8.14,0.49-7.21-4.07
		C86.25,543.03,86.25,543.03,92.75,542.49z"/>
	<path class="st60" d="M46.3,469.47c-1.13,2.54-2.17,5.33-3.59,7.9c-0.99,1.79-2.68,0.6-3.97,0.14c-1.76-0.63-1.31-1.9-0.69-3.22
		c0.99-2.08,1.82-4.23,2.8-6.31c0.51-1.09,0.72-3.05,2.47-2.33C44.73,466.22,46.18,467.34,46.3,469.47z"/>
	<path class="st58" d="M105.44,445.54c2.79,1.97,6.63,2.01,7.8,5.13c0.36,0.96-1.05,4.99-3.66,4.19c-2.5-0.77-6.32-0.98-6.81-4.51
		C102.56,448.9,103.34,446.54,105.44,445.54z"/>
	<path class="st72" d="M74.09,548.26c-2.06-1.87-6.35-0.75-6.89-4.48c-0.21-1.5,0.89-4.67,3.34-3.88c2.67,0.87,6.88,0.1,7.51,3.98
		C78.28,545.28,77.1,548.15,74.09,548.26z"/>
	<path class="st71" d="M38.41,513.07c-3.08-1.9-2.53-5.64-3.46-8.54c-0.92-2.87,2.4-3.69,3.7-3.24c4.01,1.39,1.94,5.67,3.09,8.54
		C42.53,511.83,40.46,512.53,38.41,513.07z"/>
	<path class="st53" d="M123.28,529.96c-1.53-0.98-2.39-2.26-1.32-4.06c1.43-2.41,2.98-4.75,4.51-7.1c0.59-0.9,1.41-1.53,2.44-0.72
		c1.01,0.79,2.73,1.84,1.96,3.06c-1.93,3.04-4.35,5.76-6.61,8.59C124.12,529.91,123.67,529.87,123.28,529.96z"/>
	<path class="st72" d="M48.03,528.93c-1.19,0.04-6.42-6.09-6.26-7.32c0.25-2,2.43-3.15,3.47-2.76c3.01,1.11,4.83,3.96,5.8,6.84
		C51.49,527.04,49.34,528.21,48.03,528.93z"/>
	<path class="st73" d="M134.76,502.75c1.48,0.6,3.32,0.85,3.24,2.31c-0.19,3.45-1.11,6.91-3.02,9.74c-0.92,1.37-3.23,0.32-3.15-1.41
		c0.15-3.26,0.94-6.49,1.6-9.7C133.51,503.27,134.38,503.01,134.76,502.75z"/>
	<path class="st74" d="M63.02,536.96c-0.38,0.69-0.47,1.04-0.7,1.23c-1.28,1.1-2.55,3.44-4.4,1.38c-1.76-1.96-6.4-1.77-5.1-5.99
		c0.7-2.28,2.34-3.64,4.76-1.3C59.32,533.97,61.25,535.46,63.02,536.96z"/>
	<path class="st75" d="M120.02,461.32c-1.62-1.28-4.69-1.39-4.71-4.13c-0.01-1.53,1.16-3.47,3.07-4.08
		c1.12-0.36,6.07,3.75,5.68,4.66C123.37,459.46,122.13,460.76,120.02,461.32z"/>
	<path d="M147.11,399.09c-0.02-1.93,0.81-2.83,2.31-3.01c1.92-0.23,3.26,0.53,3.44,2.58c0.15,1.68-0.52,3.07-2.34,3.13
		C148.61,401.84,147.78,400.29,147.11,399.09z"/>
	<path d="M39.6,460.17c-0.27,1.13-1.04,1.64-2.14,1.61c-0.79-0.02-1.24-0.56-1.03-1.29c0.24-0.84,0.94-1.36,1.85-1.38
		C38.94,459.09,39.6,459.26,39.6,460.17z"/>
	<path class="st76" d="M457.23,345.4c0.79,14.67-12.25,26.43-26.61,23.89c-2.04-0.36-2.94,0.27-4.11,1.71
		c-3.97,4.91-13.14,5.78-18.03,1.96c-1.7-1.33-2.35-2.26,0.11-3.5c15.91-7.99,31.78-16.04,47.68-24.05
		C456.53,345.29,456.91,345.4,457.23,345.4z"/>
	<path class="st77" d="M386.35,332.38c0.98-13.61,11.36-26.53,23.64-29.62c1.69-0.43,4.26-1.57,5.11,0.01
		c1.06,1.96-1.1,3.35-2.8,4.58c-8.71,6.33-15.62,13.92-17.21,25.16c-0.62,4.39-4.53,2.41-6.85,2.99
		C385.5,336.18,386.71,333.38,386.35,332.38z"/>
	<path class="st78" d="M-489.96,265.59c0.7,8.8-3.76,14.55-11.11,18.37c-7.63,3.97-15.98,5.45-24.43,6.36
		c-1.41,0.15-3.34,0.34-4.16-0.91c-1.05-1.6,0.83-2.63,1.7-3.7c15.48-19.08,31.03-38.1,46.46-57.21c2.56-3.17,3.65-2.8,4.97,0.91
		c3.12,8.75,3.35,17.26-1.61,25.38c-2.09,3.42-4.99,5.93-9.49,4.47c-1.91-0.62-2.38,0.16-2.34,1.86
		C-489.93,262.63-489.96,264.12-489.96,265.59z"/>
	<path class="st79" d="M-536.42,273.72c-13.44-1.68-22.27-7.96-27.18-19.45c-3.55-8.3-2.1-20.62,3.12-27.17
		c2.5,4.16,4.79,7.77,3.73,13.23c-1.89,9.76,2.2,16.25,11.29,20.2C-539.88,262.95-539.77,268.84-536.42,273.72z"/>
	<path class="st80" d="M-100.95-24.12c-8.68-0.03-12.67-3-15.35-11.65c-0.39-1.26-0.96-2-2.15-2.44c-4.56-1.68-5.67-5.38-5.19-9.65
		c0.84-7.47,3.38-14.11,9.92-18.65c2.19-1.52,3.37-1.19,4.62,1.14c6.42,11.99,12.89,23.95,19.51,35.84c1.6,2.86,0.86,3.37-2.07,3.93
		C-94.75-25-97.78-24.19-100.95-24.12z"/>
	<path class="st69" d="M46.99,314.37c0.3,1.49-0.43,1.9-1.2,2.23c-1.21,0.51-2.38,0.32-3.12-0.76c-3.92-5.77-7.77-11.59-11.65-17.38
		c-0.55-0.82-0.45-1.64,0.24-2.23c0.74-0.64,2.06-1.54,2.64-0.72C38.43,301.82,42.8,308.28,46.99,314.37z"/>
	<path class="st81" d="M619.89,277.47c2.7-4.53,4.52-8.59,9.59-10.77c6.2-2.67,8.61-8.59,8.3-15.22c-0.19-4.09,1.17-7.4,3.32-10.66
		c1.37-2.08,2.37-1.93,3.56,0.02c0.84,1.39,2.04,2.47,2.23,4.32C648.73,263.87,637.48,278.15,619.89,277.47z"/>
	<path class="st82" d="M-213.94,238.95c-5.55-0.19-10.42-3.77-11.34-8.61c-0.48-2.52-0.58-4.91,3.42-3.36
		c4.77,1.84,9.6,3.59,14.52,4.95c4.41,1.22,2.91,3.03,0.83,4.95C-208.58,238.78-211.23,239.07-213.94,238.95z"/>
	<path class="st83" d="M-520.35,446.98c-6.08,0.9-10.74,0.61-15.15-1.47c-2.28-1.08-4.29-2.79-4.64-5.45c-0.22-1.66-1-3.92,0.8-5.01
		c1.45-0.88,2.65,0.9,3.83,1.69C-530.76,439.88-526.06,443.11-520.35,446.98z"/>
	<path class="st84" d="M143.46,299.8c-2.45,0.44-5.11,0.86-7.29-0.22c-6.25-3.08-11.04-0.84-15.51,3.48
		c-0.82,0.79-1.81,1.41-2.72,2.11c-0.6-4.86-1.98-9.86,2.35-13.89c7.09-1.55,14.19-3.1,21.29-4.66c1.29,0.16,2.72,0.11,2.57,2.07
		C143.87,292.4,144.92,296.18,143.46,299.8z"/>
	<path class="st85" d="M108.03,307.29c-3.58-0.51-6.74-1.51-7.57-5.72c-1.02-5.2-0.88-5.37,7.9-7.81
		C111.26,298.35,110.16,302.83,108.03,307.29z"/>
	<path class="st86" d="M-170.5,498.82c-2.41,15.35-13.89,21.72-25.55,14.11C-187.52,508.22-179.34,503.7-170.5,498.82z"/>
	<path class="st64" d="M157.28,283.16c6.81-1.43,13.61-2.88,20.42-4.29c1.04-0.22,2.29-1.32,3.12,0c0.71,1.13-0.44,2.18-0.94,3.16
		c-4.29,8.34-7.21,9.94-16.55,9.24c-3.35-0.25-6.64-0.07-9.6,1.8C151.66,287.24,152.52,284.86,157.28,283.16z"/>
	<path class="st3" d="M622.59,65.13c0.49,2.22-1.24,2.41-2.65,2.67c-13.4,2.46-26.82,4.85-40.21,7.33c-2.16,0.4-3.3,0.2-3.73-2.4
		c-1.46-8.84-3.06-17.67-4.9-26.44c-0.62-2.98,0.33-3.74,3.03-4.21c13.09-2.28,26.15-4.73,39.22-7.15c1.6-0.3,3.44-1.29,3.92,1.29
		C619.09,45.84,620.82,55.49,622.59,65.13z"/>
	<path class="st87" d="M-351.11-59.72c1.61,0.08,2.99-0.77,3.8,0.25c0.98,1.25-0.11,2.58-0.73,3.65c-1.8,3.09-4.31,5.13-8.16,4.03
		c-2.36-0.68-4.33-2.22-4.38-4.83c-0.05-3.18,2.91-1.93,4.55-2.43C-354.31-59.57-352.43-59.56-351.11-59.72z"/>
	<path class="st9" d="M47.97,501.11c0-0.66-0.08-1.34,0.01-1.99c0.38-2.62,0.43-6.02,2.7-7.13c2.1-1.03,3.82,2.08,5.56,3.45
		c13.02,10.3,25.9,20.78,38.85,31.17c3.87,3.11,3.74,6.06-0.52,8.74c-3.87,2.45-8.3,1.76-12.07-2.26c-1.98-2.11-3.78-3.08-6.91-2.53
		c-7.12,1.24-12.57-2.79-14.11-10c-0.4-1.88-0.71-3.44-2.83-4.19C50.3,513.41,47.87,509.89,47.97,501.11z"/>
	<path class="st88" d="M82.23,505.38c-3.31-5.06-4.96-10.47-7.35-15.5c-2-4.2-3.78-8.49-5.63-12.76c-0.82-1.9-2.51-4.3,1.16-4.86
		c2.73-0.41,6.28-4.16,8.12,1.36c1.47,4.41,3.08,8.77,4.46,13.2c0.85,2.75,1.88,3.1,4.1,1.13c4.47-3.95,9.24-7.58,13.65-11.6
		c1.98-1.8,3.39-1.52,5.09,0.04c2.11,1.93,0.03,2.86-0.96,3.96C97.45,488.6,89.99,496.82,82.23,505.38z"/>
	<path class="st89" d="M109.48,495.29c5.56-3.05,10.23-5.6,15.66-8.57c-0.72,4.73-1.28,8.46-1.86,12.2
		c-0.21,1.37-0.47,2.9-2.41,1.99C117.32,499.25,113.85,497.46,109.48,495.29z"/>
</g>
</svg>
