<?xml version="1.0" encoding="utf-8"?>
<!-- Generator: Adobe Illustrator 25.4.1, SVG Export Plug-In . SVG Version: 6.00 Build 0)  -->
<svg version="1.1" id="Layer_1" xmlns="http://www.w3.org/2000/svg" xmlns:xlink="http://www.w3.org/1999/xlink" x="0px" y="0px"
	 viewBox="0 0 512 512" style="enable-background:new 0 0 512 512;" xml:space="preserve">
<style type="text/css">
	.st0{fill:none;stroke:#000000;stroke-miterlimit:10;}
</style>
<g>
	<g>
		<path d="M213.06,55.27h1.16v2.63h2.64v-2.63h1.16v6.54h-1.16v-2.9h-2.64v2.9h-1.16V55.27z"/>
		<path d="M219.27,59.35c0-1.6,1.11-2.58,2.26-2.58c1.33,0,2.03,0.96,2.03,2.33c0,0.22-0.02,0.44-0.05,0.56h-3.12
			c0.1,0.87,0.66,1.37,1.45,1.37c0.42,0,0.78-0.13,1.14-0.36l0.39,0.72c-0.47,0.32-1.06,0.53-1.68,0.53
			C220.33,61.92,219.27,60.97,219.27,59.35z M222.56,58.88c0-0.76-0.34-1.22-1.01-1.22c-0.57,0-1.08,0.43-1.18,1.22H222.56z"/>
		<path d="M224.66,56.89h0.94l0.09,0.88h0.03c0.35-0.64,0.87-1,1.4-1c0.25,0,0.41,0.03,0.56,0.1l-0.2,1
			c-0.17-0.05-0.3-0.08-0.5-0.08c-0.39,0-0.86,0.27-1.16,1.02v2.99h-1.15V56.89z"/>
		<path d="M227.93,56.95l0.72-0.05h2.05v0.92h-2.77V56.95z M228.59,56.39c0-1.02,0.47-1.76,1.63-1.76c0.36,0,0.68,0.08,0.9,0.17
			l-0.22,0.86c-0.18-0.08-0.36-0.12-0.53-0.12c-0.41,0-0.62,0.26-0.62,0.83v5.44h-1.15V56.39z"/>
		<path d="M231.43,55.38c0-0.39,0.3-0.65,0.71-0.65c0.41,0,0.71,0.26,0.71,0.65c0,0.38-0.3,0.65-0.71,0.65
			C231.74,56.03,231.43,55.76,231.43,55.38z M231.56,56.89h1.15v4.91h-1.15V56.89z"/>
		<path d="M234.18,56.89h0.94l0.09,0.66h0.03c0.44-0.43,0.94-0.78,1.61-0.78c1.05,0,1.51,0.71,1.51,1.95v3.08h-1.15v-2.93
			c0-0.81-0.23-1.11-0.76-1.11c-0.43,0-0.72,0.21-1.12,0.61v3.43h-1.15V56.89z"/>
		<path d="M239.48,59.35c0-1.6,1-2.58,2.08-2.58c0.56,0,0.91,0.21,1.29,0.54l-0.04-0.79v-1.78h1.15v7.06h-0.94l-0.09-0.53h-0.03
			c-0.36,0.36-0.87,0.65-1.4,0.65C240.27,61.92,239.48,60.97,239.48,59.35z M242.81,60.42v-2.29c-0.34-0.3-0.67-0.41-1-0.41
			c-0.62,0-1.14,0.59-1.14,1.61c0,1.07,0.41,1.63,1.12,1.63C242.16,60.97,242.48,60.8,242.81,60.42z"/>
		<path d="M245.16,60.48c0-1.05,0.87-1.6,2.89-1.81c-0.02-0.53-0.23-0.97-0.89-0.97c-0.49,0-0.95,0.22-1.38,0.48l-0.42-0.77
			c0.54-0.34,1.24-0.64,2.01-0.64c1.23,0,1.83,0.76,1.83,2.12v2.91h-0.94l-0.09-0.54h-0.03c-0.44,0.38-0.94,0.66-1.52,0.66
			C245.75,61.92,245.16,61.34,245.16,60.48z M248.05,60.49v-1.1c-1.33,0.17-1.77,0.52-1.77,1.01c0,0.43,0.3,0.62,0.71,0.62
			C247.38,61.02,247.68,60.82,248.05,60.49z"/>
		<path d="M250.58,54.74h1.15v1.83l-0.05,0.95c0.41-0.39,0.9-0.74,1.57-0.74c1.05,0,1.51,0.71,1.51,1.95v3.08h-1.15v-2.93
			c0-0.81-0.23-1.11-0.76-1.11c-0.43,0-0.72,0.21-1.12,0.61v3.43h-1.15V54.74z"/>
		<path d="M256.16,60.54v-5.8h1.15v5.86c0,0.28,0.13,0.38,0.25,0.38c0.05,0,0.09,0,0.18-0.02l0.14,0.86
			c-0.14,0.06-0.33,0.1-0.61,0.1C256.46,61.92,256.16,61.4,256.16,60.54z"/>
		<path d="M258.57,58.86h2.38v0.84h-2.38V58.86z"/>
		<path d="M262.19,55.27h1.16v2.63H266v-2.63h1.16v6.54H266v-2.9h-2.64v2.9h-1.16V55.27z"/>
		<path d="M268.59,55.38c0-0.39,0.3-0.65,0.71-0.65c0.41,0,0.71,0.26,0.71,0.65c0,0.38-0.3,0.65-0.71,0.65
			C268.89,56.03,268.59,55.76,268.59,55.38z M268.72,56.89h1.15v4.91h-1.15V56.89z"/>
		<path d="M271.34,56.89h0.94l0.09,0.88h0.03c0.35-0.64,0.87-1,1.4-1c0.25,0,0.41,0.03,0.56,0.1l-0.2,1
			c-0.17-0.05-0.3-0.08-0.5-0.08c-0.39,0-0.86,0.27-1.16,1.02v2.99h-1.15V56.89z"/>
		<path d="M274.59,61.24l0.54-0.73c0.44,0.34,0.86,0.55,1.36,0.55c0.54,0,0.79-0.25,0.79-0.59c0-0.41-0.53-0.6-1.06-0.8
			c-0.64-0.24-1.38-0.61-1.38-1.43c0-0.85,0.69-1.47,1.79-1.47c0.68,0,1.23,0.28,1.63,0.59l-0.53,0.71
			c-0.34-0.25-0.69-0.43-1.08-0.43c-0.49,0-0.73,0.24-0.73,0.54c0,0.39,0.5,0.54,1.03,0.73c0.66,0.25,1.41,0.57,1.41,1.48
			c0,0.84-0.67,1.52-1.91,1.52C275.77,61.92,275.07,61.64,274.59,61.24z"/>
		<path d="M279.06,59.35c0-1.64,1.16-2.58,2.46-2.58c0.62,0,1.08,0.24,1.44,0.55l-0.56,0.75c-0.26-0.23-0.51-0.36-0.82-0.36
			c-0.79,0-1.34,0.66-1.34,1.64s0.54,1.63,1.3,1.63c0.38,0,0.74-0.19,1.02-0.42l0.47,0.76c-0.46,0.41-1.04,0.6-1.6,0.6
			C280.09,61.92,279.06,60.98,279.06,59.35z"/>
		<path d="M284,54.74h1.15v1.83l-0.05,0.95c0.41-0.39,0.9-0.74,1.57-0.74c1.05,0,1.51,0.71,1.51,1.95v3.08h-1.15v-2.93
			c0-0.81-0.23-1.11-0.76-1.11c-0.43,0-0.71,0.21-1.12,0.61v3.43H284V54.74z"/>
		<path d="M289.58,56.89h0.94l0.09,0.67h0.03c0.42-0.43,0.89-0.79,1.51-0.79c0.72,0,1.13,0.33,1.36,0.88
			c0.47-0.5,0.96-0.88,1.58-0.88c1.04,0,1.52,0.71,1.52,1.95v3.08h-1.15v-2.93c0-0.81-0.24-1.11-0.76-1.11
			c-0.31,0-0.65,0.2-1.03,0.61v3.43h-1.15v-2.93c0-0.81-0.24-1.11-0.76-1.11c-0.3,0-0.65,0.2-1.03,0.61v3.43h-1.15V56.89z"/>
		<path d="M297.75,60.48c0-1.05,0.87-1.6,2.89-1.81c-0.02-0.53-0.23-0.97-0.89-0.97c-0.49,0-0.95,0.22-1.38,0.48l-0.42-0.77
			c0.54-0.34,1.24-0.64,2.02-0.64c1.23,0,1.83,0.76,1.83,2.12v2.91h-0.94l-0.09-0.54h-0.03c-0.44,0.38-0.94,0.66-1.52,0.66
			C298.34,61.92,297.75,61.34,297.75,60.48z M300.64,60.49v-1.1c-1.33,0.17-1.78,0.52-1.78,1.01c0,0.43,0.3,0.62,0.71,0.62
			C299.97,61.02,300.27,60.82,300.64,60.49z"/>
		<path d="M303.17,56.89h0.94l0.09,0.66h0.03c0.44-0.43,0.94-0.78,1.61-0.78c1.05,0,1.51,0.71,1.51,1.95v3.08h-1.15v-2.93
			c0-0.81-0.23-1.11-0.76-1.11c-0.43,0-0.71,0.21-1.12,0.61v3.43h-1.15V56.89z"/>
		<path d="M213.06,66.27h1.16v6.54h-1.16V66.27z"/>
		<path d="M215.78,67.89h0.94l0.09,0.66h0.03c0.44-0.43,0.94-0.78,1.61-0.78c1.05,0,1.51,0.71,1.51,1.95v3.08h-1.15v-2.93
			c0-0.81-0.23-1.11-0.76-1.11c-0.43,0-0.72,0.21-1.12,0.61v3.43h-1.15V67.89z"/>
		<path d="M221.08,70.35c0-1.6,1-2.58,2.08-2.58c0.56,0,0.91,0.21,1.29,0.54l-0.04-0.79v-1.78h1.15v7.06h-0.94l-0.09-0.53h-0.03
			c-0.36,0.36-0.87,0.65-1.4,0.65C221.88,72.92,221.08,71.97,221.08,70.35z M224.41,71.42v-2.29c-0.34-0.3-0.67-0.41-1-0.41
			c-0.62,0-1.14,0.59-1.14,1.61c0,1.07,0.41,1.63,1.12,1.63C223.76,71.97,224.08,71.8,224.41,71.42z"/>
		<path d="M226.7,70.35c0-1.6,1.11-2.58,2.26-2.58c1.33,0,2.03,0.96,2.03,2.33c0,0.22-0.02,0.44-0.05,0.56h-3.12
			c0.1,0.87,0.66,1.37,1.45,1.37c0.42,0,0.78-0.13,1.14-0.36l0.39,0.72c-0.47,0.32-1.06,0.53-1.68,0.53
			C227.76,72.92,226.7,71.97,226.7,70.35z M229.99,69.88c0-0.76-0.34-1.22-1.01-1.22c-0.57,0-1.08,0.43-1.18,1.22H229.99z"/>
		<path d="M233.06,70.24l-1.45-2.35h1.24l0.54,0.93c0.14,0.27,0.3,0.56,0.45,0.83h0.04c0.13-0.27,0.26-0.56,0.39-0.83l0.46-0.93h1.2
			l-1.45,2.48l1.56,2.43h-1.24l-0.6-0.97c-0.16-0.29-0.33-0.59-0.5-0.87h-0.04c-0.15,0.28-0.29,0.57-0.44,0.87l-0.52,0.97h-1.2
			L233.06,70.24z"/>
		<path d="M238.58,70.35c0-1.64,1.11-2.58,2.33-2.58c1.22,0,2.33,0.94,2.33,2.58c0,1.63-1.11,2.57-2.33,2.57
			C239.69,72.92,238.58,71.98,238.58,70.35z M242.07,70.35c0-0.98-0.43-1.64-1.15-1.64c-0.72,0-1.15,0.66-1.15,1.64
			s0.43,1.63,1.15,1.63C241.63,71.98,242.07,71.34,242.07,70.35z"/>
		<path d="M244.06,73.69c0-0.41,0.26-0.78,0.71-1.05v-0.04c-0.25-0.16-0.44-0.42-0.44-0.82c0-0.38,0.26-0.72,0.54-0.92v-0.04
			c-0.34-0.25-0.65-0.72-0.65-1.3c0-1.13,0.91-1.76,1.94-1.76c0.27,0,0.53,0.05,0.73,0.12h1.75v0.86h-0.9
			c0.16,0.18,0.28,0.49,0.28,0.82c0,1.09-0.83,1.68-1.87,1.68c-0.21,0-0.44-0.04-0.66-0.13c-0.15,0.13-0.24,0.25-0.24,0.47
			c0,0.28,0.2,0.44,0.8,0.44h0.87c1.17,0,1.8,0.36,1.8,1.21c0,0.97-1.02,1.73-2.62,1.73C244.93,74.97,244.06,74.55,244.06,73.69z
			 M247.61,73.43c0-0.38-0.3-0.49-0.87-0.49h-0.67c-0.26,0-0.48-0.02-0.66-0.07c-0.26,0.2-0.38,0.42-0.38,0.65
			c0,0.45,0.48,0.71,1.25,0.71C247.07,74.23,247.61,73.85,247.61,73.43z M247.01,69.54c0-0.62-0.37-0.97-0.85-0.97
			s-0.85,0.35-0.85,0.97c0,0.62,0.38,0.99,0.85,0.99S247.01,70.16,247.01,69.54z"/>
		<path d="M251.59,67.89h0.94l0.09,0.67h0.03c0.42-0.43,0.89-0.79,1.51-0.79c0.72,0,1.13,0.33,1.36,0.88
			c0.47-0.5,0.96-0.88,1.58-0.88c1.04,0,1.51,0.71,1.51,1.95v3.08h-1.15v-2.93c0-0.81-0.24-1.11-0.75-1.11
			c-0.31,0-0.65,0.2-1.03,0.61v3.43h-1.15v-2.93c0-0.81-0.24-1.11-0.75-1.11c-0.3,0-0.65,0.2-1.03,0.61v3.43h-1.15V67.89z"/>
		<path d="M259.76,71.48c0-1.05,0.87-1.6,2.89-1.81c-0.02-0.53-0.23-0.97-0.89-0.97c-0.49,0-0.95,0.22-1.38,0.48l-0.42-0.77
			c0.54-0.34,1.24-0.64,2.02-0.64c1.23,0,1.83,0.76,1.83,2.12v2.91h-0.94l-0.09-0.54h-0.03c-0.44,0.38-0.94,0.66-1.52,0.66
			C260.35,72.92,259.76,72.34,259.76,71.48z M262.65,71.49v-1.1c-1.33,0.17-1.78,0.52-1.78,1.01c0,0.43,0.3,0.62,0.71,0.62
			C261.98,72.02,262.28,71.82,262.65,71.49z"/>
		<path d="M265.18,67.89h0.94l0.09,0.88h0.03c0.35-0.64,0.87-1,1.4-1c0.25,0,0.41,0.03,0.56,0.1l-0.2,1
			c-0.17-0.05-0.3-0.08-0.5-0.08c-0.39,0-0.86,0.27-1.16,1.02v2.99h-1.15V67.89z"/>
		<path d="M268.91,65.74h1.13v4.41h0.03l1.82-2.26h1.26l-1.68,2l1.86,2.91h-1.25l-1.26-2.13l-0.77,0.88v1.25h-1.13V65.74z"/>
		<path d="M273.81,70.35c0-1.6,1.11-2.58,2.26-2.58c1.33,0,2.03,0.96,2.03,2.33c0,0.22-0.02,0.44-0.05,0.56h-3.12
			c0.1,0.87,0.66,1.37,1.45,1.37c0.42,0,0.78-0.13,1.14-0.36l0.39,0.72c-0.47,0.32-1.06,0.53-1.68,0.53
			C274.87,72.92,273.81,71.97,273.81,70.35z M277.1,69.88c0-0.76-0.34-1.22-1.01-1.22c-0.57,0-1.08,0.43-1.17,1.22H277.1z"/>
		<path d="M279.38,71.15v-2.34h-0.7v-0.86l0.76-0.05l0.14-1.34h0.96v1.34h1.25v0.92h-1.25v2.34c0,0.58,0.22,0.86,0.7,0.86
			c0.17,0,0.37-0.06,0.51-0.11l0.2,0.85c-0.27,0.09-0.61,0.18-1,0.18C279.79,72.92,279.38,72.21,279.38,71.15z"/>
		<path d="M212.64,81.35c0-1.64,1.16-2.58,2.46-2.58c0.62,0,1.08,0.24,1.44,0.55l-0.56,0.75c-0.26-0.23-0.51-0.36-0.82-0.36
			c-0.79,0-1.34,0.66-1.34,1.64s0.54,1.63,1.3,1.63c0.38,0,0.74-0.19,1.02-0.42l0.47,0.76c-0.46,0.41-1.04,0.6-1.6,0.6
			C213.67,83.92,212.64,82.98,212.64,81.35z"/>
		<path d="M217.26,81.35c0-1.64,1.11-2.58,2.33-2.58c1.22,0,2.33,0.94,2.33,2.58c0,1.63-1.11,2.57-2.33,2.57
			C218.37,83.92,217.26,82.98,217.26,81.35z M220.75,81.35c0-0.98-0.43-1.64-1.15-1.64c-0.72,0-1.15,0.66-1.15,1.64
			s0.43,1.63,1.15,1.63C220.31,82.98,220.75,82.34,220.75,81.35z"/>
		<path d="M223.07,78.89h0.94l0.09,0.66h0.03c0.44-0.43,0.94-0.78,1.61-0.78c1.05,0,1.51,0.71,1.51,1.95v3.08h-1.15v-2.93
			c0-0.81-0.23-1.11-0.76-1.11c-0.43,0-0.72,0.21-1.12,0.61v3.43h-1.15V78.89z"/>
		<path d="M228.35,81.35c0-1.64,1.16-2.58,2.46-2.58c0.62,0,1.08,0.24,1.44,0.55l-0.56,0.75c-0.26-0.23-0.51-0.36-0.82-0.36
			c-0.79,0-1.34,0.66-1.34,1.64s0.54,1.63,1.3,1.63c0.38,0,0.74-0.19,1.02-0.42l0.47,0.76c-0.46,0.41-1.04,0.6-1.6,0.6
			C229.38,83.92,228.35,82.98,228.35,81.35z"/>
		<path d="M232.97,81.35c0-1.6,1.11-2.58,2.26-2.58c1.33,0,2.03,0.96,2.03,2.33c0,0.22-0.02,0.44-0.05,0.56h-3.12
			c0.1,0.87,0.66,1.37,1.45,1.37c0.42,0,0.78-0.13,1.14-0.36l0.39,0.72c-0.47,0.32-1.06,0.53-1.68,0.53
			C234.03,83.92,232.97,82.97,232.97,81.35z M236.26,80.88c0-0.76-0.34-1.22-1.01-1.22c-0.57,0-1.08,0.43-1.18,1.22H236.26z"/>
		<path d="M238.36,78.89h0.94l0.09,0.66h0.03c0.44-0.43,0.94-0.78,1.61-0.78c1.05,0,1.51,0.71,1.51,1.95v3.08h-1.15v-2.93
			c0-0.81-0.23-1.11-0.76-1.11c-0.43,0-0.72,0.21-1.12,0.61v3.43h-1.15V78.89z"/>
		<path d="M244.14,82.15v-2.34h-0.7v-0.86l0.76-0.05l0.14-1.34h0.96v1.34h1.25v0.92h-1.25v2.34c0,0.58,0.22,0.86,0.7,0.86
			c0.17,0,0.37-0.06,0.51-0.11l0.2,0.85c-0.27,0.09-0.61,0.18-1,0.18C244.56,83.92,244.14,83.21,244.14,82.15z"/>
		<path d="M247.57,78.89h0.94l0.09,0.88h0.03c0.35-0.64,0.87-1,1.4-1c0.25,0,0.41,0.03,0.56,0.1l-0.2,1
			c-0.17-0.05-0.3-0.08-0.5-0.08c-0.39,0-0.86,0.27-1.16,1.02v2.99h-1.15V78.89z"/>
		<path d="M251.04,82.48c0-1.05,0.87-1.6,2.89-1.81c-0.02-0.53-0.23-0.97-0.89-0.97c-0.49,0-0.95,0.22-1.38,0.48l-0.42-0.77
			c0.54-0.34,1.24-0.64,2.01-0.64c1.23,0,1.83,0.76,1.83,2.12v2.91h-0.94l-0.09-0.54h-0.03c-0.44,0.38-0.94,0.66-1.52,0.66
			C251.63,83.92,251.04,83.34,251.04,82.48z M253.93,82.49v-1.1c-1.33,0.17-1.77,0.52-1.77,1.01c0,0.43,0.3,0.62,0.71,0.62
			C253.26,83.02,253.56,82.82,253.93,82.49z"/>
		<path d="M256.63,82.15v-2.34h-0.7v-0.86l0.76-0.05l0.14-1.34h0.96v1.34h1.25v0.92h-1.25v2.34c0,0.58,0.22,0.86,0.7,0.86
			c0.17,0,0.37-0.06,0.51-0.11l0.2,0.85c-0.27,0.09-0.61,0.18-1,0.18C257.05,83.92,256.63,83.21,256.63,82.15z"/>
		<path d="M259.94,77.38c0-0.39,0.3-0.65,0.71-0.65c0.41,0,0.71,0.26,0.71,0.65c0,0.38-0.3,0.65-0.71,0.65
			C260.25,78.03,259.94,77.76,259.94,77.38z M260.07,78.89h1.15v4.91h-1.15V78.89z"/>
		<path d="M262.37,81.35c0-1.64,1.11-2.58,2.33-2.58c1.22,0,2.33,0.94,2.33,2.58c0,1.63-1.11,2.57-2.33,2.57
			C263.48,83.92,262.37,82.98,262.37,81.35z M265.86,81.35c0-0.98-0.43-1.64-1.15-1.64s-1.15,0.66-1.15,1.64s0.43,1.63,1.15,1.63
			S265.86,82.34,265.86,81.35z"/>
		<path d="M268.18,78.89h0.94l0.09,0.66h0.03c0.44-0.43,0.94-0.78,1.61-0.78c1.05,0,1.51,0.71,1.51,1.95v3.08h-1.15v-2.93
			c0-0.81-0.23-1.11-0.76-1.11c-0.43,0-0.71,0.21-1.12,0.61v3.43h-1.15V78.89z"/>
		<path d="M214,94.29h-0.03l-0.1,0.52h-0.91v-7.06h1.15v1.83l-0.03,0.82c0.41-0.36,0.91-0.61,1.42-0.61c1.23,0,1.94,0.98,1.94,2.49
			c0,1.69-1,2.66-2.09,2.66C214.9,94.92,214.42,94.7,214,94.29z M216.25,92.28c0-0.98-0.32-1.56-1.07-1.56
			c-0.36,0-0.7,0.18-1.07,0.55v2.29c0.34,0.3,0.7,0.41,0.98,0.41C215.75,93.97,216.25,93.4,216.25,92.28z"/>
		<path d="M218.28,96.72l0.21-0.89c0.09,0.03,0.24,0.07,0.35,0.07c0.52,0,0.82-0.35,0.98-0.84l0.09-0.31l-1.93-4.85h1.17L220,92.3
			c0.15,0.44,0.29,0.92,0.43,1.39h0.04c0.12-0.46,0.25-0.94,0.38-1.39l0.73-2.41h1.11l-1.77,5.13c-0.41,1.11-0.92,1.79-1.99,1.79
			C218.65,96.82,218.46,96.78,218.28,96.72z"/>
		<path d="M225.41,88.38c0-0.39,0.3-0.65,0.71-0.65c0.41,0,0.71,0.26,0.71,0.65c0,0.38-0.3,0.65-0.71,0.65
			C225.72,89.03,225.41,88.76,225.41,88.38z M225.54,89.89h1.15v4.91h-1.15V89.89z"/>
		<path d="M228.16,89.89h0.94l0.09,0.66h0.03c0.44-0.43,0.94-0.78,1.61-0.78c1.05,0,1.51,0.71,1.51,1.95v3.08h-1.15v-2.93
			c0-0.81-0.23-1.11-0.76-1.11c-0.43,0-0.72,0.21-1.12,0.61v3.43h-1.15V89.89z"/>
		<path d="M233.46,92.35c0-1.6,1-2.58,2.08-2.58c0.56,0,0.91,0.21,1.29,0.54l-0.04-0.79v-1.78h1.15v7.06h-0.94l-0.09-0.53h-0.03
			c-0.36,0.36-0.87,0.65-1.4,0.65C234.26,94.92,233.46,93.97,233.46,92.35z M236.79,93.42v-2.29c-0.34-0.3-0.67-0.41-1-0.41
			c-0.62,0-1.14,0.59-1.14,1.61c0,1.07,0.41,1.63,1.12,1.63C236.14,93.97,236.46,93.8,236.79,93.42z"/>
		<path d="M239.35,92.97v-3.08h1.15v2.93c0,0.81,0.23,1.11,0.76,1.11c0.43,0,0.72-0.2,1.09-0.68v-3.36h1.15v4.91h-0.94l-0.09-0.72
			h-0.03c-0.43,0.51-0.91,0.84-1.58,0.84C239.81,94.92,239.35,94.21,239.35,92.97z"/>
		<path d="M244.48,94.24l0.54-0.73c0.44,0.34,0.86,0.55,1.35,0.55c0.54,0,0.79-0.25,0.79-0.59c0-0.41-0.53-0.6-1.06-0.8
			c-0.64-0.24-1.38-0.61-1.38-1.43c0-0.85,0.69-1.47,1.79-1.47c0.68,0,1.23,0.28,1.63,0.59l-0.53,0.71
			c-0.34-0.25-0.69-0.43-1.08-0.43c-0.49,0-0.73,0.24-0.73,0.54c0,0.39,0.5,0.54,1.03,0.73c0.66,0.25,1.41,0.57,1.41,1.48
			c0,0.84-0.67,1.52-1.91,1.52C245.66,94.92,244.96,94.64,244.48,94.24z"/>
		<path d="M249.45,93.15v-2.34h-0.7v-0.86l0.76-0.05l0.14-1.34h0.96v1.34h1.25v0.92h-1.25v2.34c0,0.58,0.22,0.86,0.7,0.86
			c0.17,0,0.37-0.06,0.51-0.11l0.2,0.85c-0.27,0.09-0.61,0.18-1,0.18C249.87,94.92,249.45,94.21,249.45,93.15z"/>
		<path d="M252.88,89.89h0.94l0.09,0.88h0.03c0.35-0.64,0.87-1,1.39-1c0.25,0,0.41,0.03,0.56,0.1l-0.2,1
			c-0.17-0.05-0.3-0.08-0.5-0.08c-0.39,0-0.86,0.27-1.16,1.02v2.99h-1.15V89.89z"/>
		<path d="M256.3,96.72l0.21-0.89c0.09,0.03,0.24,0.07,0.35,0.07c0.52,0,0.82-0.35,0.98-0.84l0.09-0.31L256,89.89h1.17l0.85,2.41
			c0.15,0.44,0.29,0.92,0.43,1.39h0.04c0.12-0.46,0.25-0.94,0.38-1.39l0.73-2.41h1.11l-1.77,5.13c-0.41,1.11-0.92,1.79-2,1.79
			C256.67,96.82,256.48,96.78,256.3,96.72z"/>
		<path d="M261.76,90.6l0.58-0.99l-1.02-0.45l0.19-0.59l1.09,0.25l0.11-1.13h0.63l0.11,1.13l1.09-0.25l0.19,0.59l-1.03,0.45
			l0.58,0.99l-0.51,0.37l-0.75-0.87l-0.76,0.87L261.76,90.6z"/>
	</g>
</g>
<g>
	<g>
		<path d="M212.72,105.94h1.31l1.16,3.19c0.14,0.42,0.28,0.86,0.42,1.28h0.04c0.14-0.43,0.27-0.87,0.41-1.28l1.13-3.19h1.31v6.54
			h-1.06v-2.99c0-0.6,0.09-1.47,0.15-2.08h-0.04l-0.53,1.52l-1.08,2.94h-0.69l-1.08-2.94l-0.52-1.52h-0.04
			c0.06,0.61,0.15,1.48,0.15,2.08v2.99h-1.04V105.94z"/>
		<path d="M219.81,111.16c0-1.05,0.87-1.6,2.89-1.81c-0.02-0.53-0.23-0.97-0.89-0.97c-0.49,0-0.95,0.22-1.38,0.48l-0.42-0.77
			c0.54-0.34,1.24-0.64,2.01-0.64c1.23,0,1.83,0.76,1.83,2.12v2.91h-0.94l-0.09-0.54h-0.03c-0.44,0.38-0.94,0.66-1.52,0.66
			C220.4,112.6,219.81,112.01,219.81,111.16z M222.69,111.16v-1.1c-1.33,0.17-1.77,0.52-1.77,1.01c0,0.43,0.3,0.62,0.71,0.62
			C222.02,111.69,222.33,111.5,222.69,111.16z"/>
		<path d="M225.23,107.57h0.94l0.09,0.66h0.03c0.44-0.43,0.94-0.78,1.61-0.78c1.05,0,1.51,0.71,1.51,1.95v3.08h-1.15v-2.93
			c0-0.81-0.23-1.11-0.76-1.11c-0.43,0-0.72,0.21-1.12,0.61v3.43h-1.15V107.57z"/>
		<path d="M230.77,110.65v-3.08h1.15v2.93c0,0.81,0.23,1.11,0.76,1.11c0.43,0,0.72-0.2,1.09-0.68v-3.36h1.15v4.91h-0.94l-0.09-0.72
			h-0.03c-0.43,0.51-0.91,0.84-1.58,0.84C231.23,112.6,230.77,111.89,230.77,110.65z"/>
		<path d="M235.93,107.62l0.72-0.05h2.05v0.92h-2.77V107.62z M236.59,107.06c0-1.02,0.47-1.76,1.63-1.76c0.36,0,0.68,0.08,0.9,0.17
			l-0.22,0.86c-0.18-0.08-0.36-0.12-0.53-0.12c-0.41,0-0.62,0.26-0.62,0.83v5.44h-1.15V107.06z"/>
		<path d="M239.3,111.16c0-1.05,0.87-1.6,2.89-1.81c-0.02-0.53-0.23-0.97-0.89-0.97c-0.49,0-0.95,0.22-1.38,0.48l-0.42-0.77
			c0.54-0.34,1.24-0.64,2.01-0.64c1.23,0,1.83,0.76,1.83,2.12v2.91h-0.94l-0.09-0.54h-0.03c-0.44,0.38-0.94,0.66-1.52,0.66
			C239.89,112.6,239.3,112.01,239.3,111.16z M242.18,111.16v-1.1c-1.33,0.17-1.77,0.52-1.77,1.01c0,0.43,0.3,0.62,0.71,0.62
			C241.51,111.69,241.82,111.5,242.18,111.16z"/>
		<path d="M244.4,110.03c0-1.64,1.16-2.58,2.46-2.58c0.62,0,1.08,0.24,1.44,0.55l-0.56,0.75c-0.26-0.23-0.51-0.36-0.82-0.36
			c-0.79,0-1.34,0.66-1.34,1.64s0.54,1.63,1.3,1.63c0.38,0,0.74-0.19,1.02-0.42l0.47,0.76c-0.46,0.41-1.04,0.6-1.6,0.6
			C245.42,112.6,244.4,111.65,244.4,110.03z"/>
		<path d="M249.51,110.82v-2.34h-0.7v-0.86l0.76-0.05l0.14-1.34h0.96v1.34h1.25v0.92h-1.25v2.34c0,0.58,0.22,0.86,0.7,0.86
			c0.17,0,0.37-0.06,0.51-0.11l0.2,0.85c-0.27,0.09-0.61,0.18-1,0.18C249.93,112.6,249.51,111.88,249.51,110.82z"/>
		<path d="M252.89,110.65v-3.08h1.15v2.93c0,0.81,0.23,1.11,0.76,1.11c0.43,0,0.72-0.2,1.09-0.68v-3.36h1.15v4.91h-0.94l-0.09-0.72
			h-0.03c-0.43,0.51-0.91,0.84-1.58,0.84C253.35,112.6,252.89,111.89,252.89,110.65z"/>
		<path d="M258.51,107.57h0.94l0.09,0.88h0.03c0.35-0.64,0.87-1,1.4-1c0.25,0,0.41,0.03,0.56,0.1l-0.2,1
			c-0.17-0.05-0.3-0.08-0.5-0.08c-0.39,0-0.86,0.27-1.16,1.02v2.99h-1.15V107.57z"/>
		<path d="M262.11,106.06c0-0.39,0.3-0.65,0.71-0.65c0.41,0,0.71,0.26,0.71,0.65c0,0.38-0.3,0.65-0.71,0.65
			C262.41,106.71,262.11,106.44,262.11,106.06z M262.24,107.57h1.15v4.91h-1.15V107.57z"/>
		<path d="M264.86,107.57h0.94l0.09,0.66h0.03c0.44-0.43,0.94-0.78,1.61-0.78c1.05,0,1.51,0.71,1.51,1.95v3.08h-1.15v-2.93
			c0-0.81-0.23-1.11-0.76-1.11c-0.43,0-0.71,0.21-1.12,0.61v3.43h-1.15V107.57z"/>
		<path d="M270.12,113.37c0-0.41,0.26-0.78,0.71-1.05v-0.04c-0.25-0.16-0.44-0.42-0.44-0.82c0-0.38,0.26-0.72,0.54-0.92v-0.04
			c-0.34-0.25-0.65-0.72-0.65-1.3c0-1.13,0.91-1.76,1.94-1.76c0.27,0,0.53,0.05,0.73,0.12h1.75v0.86h-0.9
			c0.16,0.18,0.28,0.49,0.28,0.82c0,1.09-0.83,1.68-1.87,1.68c-0.21,0-0.44-0.04-0.66-0.13c-0.15,0.13-0.24,0.25-0.24,0.47
			c0,0.28,0.2,0.44,0.8,0.44h0.87c1.17,0,1.8,0.36,1.8,1.21c0,0.97-1.02,1.73-2.62,1.73C271,114.65,270.12,114.23,270.12,113.37z
			 M273.67,113.11c0-0.38-0.3-0.49-0.87-0.49h-0.67c-0.26,0-0.48-0.02-0.66-0.07c-0.26,0.2-0.38,0.42-0.38,0.65
			c0,0.45,0.48,0.71,1.25,0.71C273.13,113.9,273.67,113.53,273.67,113.11z M273.07,109.21c0-0.62-0.37-0.97-0.85-0.97
			c-0.48,0-0.85,0.35-0.85,0.97c0,0.62,0.38,0.99,0.85,0.99C272.69,110.2,273.07,109.84,273.07,109.21z"/>
	</g>
</g>
<g>
	<g>
		<path d="M212.31,151.92h3.95v0.98h-2.79v1.85h2.38v0.98h-2.38v2.73h-1.16V151.92z"/>
		<path d="M217.18,152.03c0-0.39,0.3-0.65,0.71-0.65c0.41,0,0.71,0.26,0.71,0.65c0,0.38-0.3,0.65-0.71,0.65
			C217.49,152.68,217.18,152.41,217.18,152.03z M217.31,153.54h1.15v4.91h-1.15V153.54z"/>
		<path d="M219.93,153.54h0.94l0.09,0.66H221c0.44-0.43,0.94-0.78,1.61-0.78c1.05,0,1.51,0.71,1.51,1.95v3.08h-1.15v-2.93
			c0-0.81-0.23-1.11-0.76-1.11c-0.43,0-0.72,0.21-1.12,0.61v3.43h-1.15V153.54z"/>
		<path d="M225.27,157.13c0-1.05,0.87-1.6,2.89-1.81c-0.02-0.53-0.23-0.97-0.89-0.97c-0.49,0-0.95,0.22-1.38,0.48l-0.42-0.77
			c0.54-0.34,1.24-0.64,2.01-0.64c1.23,0,1.83,0.76,1.83,2.12v2.91h-0.94l-0.09-0.54h-0.03c-0.44,0.38-0.94,0.66-1.52,0.66
			C225.86,158.57,225.27,157.99,225.27,157.13z M228.16,157.14v-1.1c-1.33,0.17-1.77,0.52-1.77,1.01c0,0.43,0.3,0.62,0.71,0.62
			C227.49,157.67,227.79,157.47,228.16,157.14z"/>
		<path d="M230.69,153.54h0.94l0.09,0.66h0.03c0.44-0.43,0.94-0.78,1.61-0.78c1.05,0,1.51,0.71,1.51,1.95v3.08h-1.15v-2.93
			c0-0.81-0.23-1.11-0.76-1.11c-0.43,0-0.72,0.21-1.12,0.61v3.43h-1.15V153.54z"/>
		<path d="M235.97,156c0-1.64,1.16-2.58,2.46-2.58c0.62,0,1.08,0.24,1.44,0.55l-0.56,0.75c-0.26-0.23-0.51-0.36-0.82-0.36
			c-0.79,0-1.34,0.66-1.34,1.64s0.54,1.63,1.3,1.63c0.38,0,0.74-0.19,1.02-0.42l0.47,0.76c-0.46,0.41-1.04,0.6-1.6,0.6
			C237,158.57,235.97,157.63,235.97,156z"/>
		<path d="M240.59,156c0-1.6,1.11-2.58,2.26-2.58c1.33,0,2.03,0.96,2.03,2.33c0,0.22-0.02,0.44-0.05,0.56h-3.12
			c0.1,0.87,0.66,1.37,1.45,1.37c0.42,0,0.78-0.13,1.14-0.36l0.39,0.72c-0.47,0.32-1.06,0.53-1.68,0.53
			C241.65,158.57,240.59,157.62,240.59,156z M243.88,155.53c0-0.76-0.34-1.22-1.01-1.22c-0.57,0-1.08,0.43-1.18,1.22H243.88z"/>
	</g>
</g>
<g>
	<g>
		<path d="M212.31,167.97h2.2c1.36,0,2.41,0.48,2.41,1.94c0,1.41-1.05,2.04-2.41,2.04h-1.04v2.55h-1.16V167.97z M214.4,171.02
			c0.9,0,1.38-0.37,1.38-1.12c0-0.75-0.49-1.01-1.38-1.01h-0.92v2.13H214.4z M214.3,171.64l0.84-0.69l2.04,3.56h-1.3L214.3,171.64z"
			/>
		<path d="M217.81,172.05c0-1.6,1.11-2.58,2.26-2.58c1.33,0,2.03,0.96,2.03,2.33c0,0.22-0.02,0.44-0.05,0.56h-3.12
			c0.1,0.87,0.66,1.37,1.45,1.37c0.42,0,0.78-0.13,1.14-0.36l0.39,0.72c-0.47,0.32-1.06,0.53-1.68,0.53
			C218.87,174.62,217.81,173.67,217.81,172.05z M221.1,171.58c0-0.76-0.34-1.22-1.01-1.22c-0.57,0-1.08,0.43-1.18,1.22H221.1z"/>
		<path d="M223.38,172.85v-2.34h-0.7v-0.86l0.76-0.05l0.14-1.34h0.96v1.34h1.25v0.92h-1.25v2.34c0,0.58,0.22,0.86,0.7,0.86
			c0.17,0,0.37-0.06,0.51-0.11l0.2,0.85c-0.27,0.09-0.61,0.18-1,0.18C223.8,174.62,223.38,173.91,223.38,172.85z"/>
		<path d="M226.55,173.18c0-1.05,0.87-1.6,2.89-1.81c-0.02-0.53-0.23-0.97-0.89-0.97c-0.49,0-0.95,0.22-1.38,0.48l-0.42-0.77
			c0.54-0.34,1.24-0.64,2.01-0.64c1.23,0,1.83,0.76,1.83,2.12v2.91h-0.94l-0.09-0.54h-0.03c-0.44,0.38-0.94,0.66-1.52,0.66
			C227.14,174.62,226.55,174.04,226.55,173.18z M229.44,173.19v-1.1c-1.33,0.17-1.77,0.52-1.77,1.01c0,0.43,0.3,0.62,0.71,0.62
			C228.77,173.72,229.07,173.52,229.44,173.19z"/>
		<path d="M231.84,168.08c0-0.39,0.3-0.65,0.71-0.65c0.41,0,0.71,0.26,0.71,0.65c0,0.38-0.3,0.65-0.71,0.65
			C232.15,168.73,231.84,168.46,231.84,168.08z M231.97,169.59h1.15v4.91h-1.15V169.59z"/>
		<path d="M234.59,173.24v-5.8h1.15v5.86c0,0.28,0.13,0.38,0.25,0.38c0.05,0,0.09,0,0.18-0.02l0.14,0.86
			c-0.14,0.06-0.33,0.1-0.61,0.1C234.89,174.62,234.59,174.1,234.59,173.24z"/>
		<path d="M239.48,172.85v-2.34h-0.7v-0.86l0.76-0.05l0.14-1.34h0.96v1.34h1.25v0.92h-1.25v2.34c0,0.58,0.22,0.86,0.7,0.86
			c0.17,0,0.37-0.06,0.51-0.11l0.2,0.85c-0.27,0.09-0.61,0.18-1,0.18C239.9,174.62,239.48,173.91,239.48,172.85z"/>
		<path d="M242.91,169.59h0.94l0.09,0.88h0.03c0.35-0.64,0.87-1,1.4-1c0.25,0,0.41,0.03,0.56,0.1l-0.2,1
			c-0.17-0.05-0.3-0.08-0.5-0.08c-0.39,0-0.86,0.27-1.16,1.02v2.99h-1.15V169.59z"/>
		<path d="M246.38,173.18c0-1.05,0.87-1.6,2.89-1.81c-0.02-0.53-0.23-0.97-0.89-0.97c-0.49,0-0.95,0.22-1.38,0.48l-0.42-0.77
			c0.54-0.34,1.24-0.64,2.01-0.64c1.23,0,1.83,0.76,1.83,2.12v2.91h-0.94l-0.09-0.54h-0.03c-0.44,0.38-0.94,0.66-1.52,0.66
			C246.97,174.62,246.38,174.04,246.38,173.18z M249.27,173.19v-1.1c-1.33,0.17-1.77,0.52-1.77,1.01c0,0.43,0.3,0.62,0.71,0.62
			C248.6,173.72,248.9,173.52,249.27,173.19z"/>
		<path d="M251.5,172.05c0-1.6,1-2.58,2.08-2.58c0.56,0,0.91,0.21,1.29,0.54l-0.04-0.79v-1.78h1.15v7.06h-0.94l-0.09-0.53h-0.03
			c-0.36,0.36-0.87,0.65-1.4,0.65C252.3,174.62,251.5,173.67,251.5,172.05z M254.83,173.12v-2.29c-0.34-0.3-0.67-0.41-1-0.41
			c-0.62,0-1.14,0.59-1.14,1.61c0,1.07,0.41,1.63,1.12,1.63C254.18,173.67,254.5,173.5,254.83,173.12z"/>
		<path d="M257.12,172.05c0-1.6,1.11-2.58,2.26-2.58c1.33,0,2.03,0.96,2.03,2.33c0,0.22-0.02,0.44-0.05,0.56h-3.12
			c0.1,0.87,0.66,1.37,1.45,1.37c0.42,0,0.78-0.13,1.14-0.36l0.39,0.72c-0.47,0.32-1.06,0.53-1.68,0.53
			C258.18,174.62,257.12,173.67,257.12,172.05z M260.41,171.58c0-0.76-0.34-1.22-1.01-1.22c-0.57,0-1.08,0.43-1.17,1.22H260.41z"/>
	</g>
</g>
<g>
	<g>
		<path d="M211.66,185.62h1.19l0.57,3.3c0.11,0.7,0.22,1.39,0.32,2.09h0.04c0.14-0.7,0.28-1.4,0.42-2.09l0.8-3.3h1.01l0.8,3.3
			c0.14,0.68,0.29,1.39,0.43,2.09h0.04c0.11-0.7,0.21-1.4,0.32-2.09l0.57-3.3h1.11l-1.26,6.54h-1.44l-0.81-3.44
			c-0.11-0.51-0.2-1.01-0.29-1.5h-0.04c-0.09,0.5-0.19,1-0.3,1.5l-0.79,3.44h-1.41L211.66,185.62z"/>
		<path d="M220.21,185.1h1.15v1.83l-0.05,0.95c0.41-0.39,0.9-0.74,1.57-0.74c1.05,0,1.51,0.71,1.51,1.95v3.08h-1.15v-2.93
			c0-0.81-0.23-1.11-0.76-1.11c-0.43,0-0.72,0.21-1.12,0.61v3.43h-1.15V185.1z"/>
		<path d="M225.47,189.71c0-1.64,1.11-2.58,2.33-2.58c1.22,0,2.33,0.94,2.33,2.58c0,1.63-1.11,2.57-2.33,2.57
			C226.58,192.28,225.47,191.34,225.47,189.71z M228.96,189.71c0-0.98-0.43-1.64-1.15-1.64c-0.72,0-1.15,0.66-1.15,1.64
			s0.43,1.63,1.15,1.63C228.52,191.34,228.96,190.69,228.96,189.71z"/>
		<path d="M231.28,190.9v-5.8h1.15v5.86c0,0.28,0.13,0.38,0.25,0.38c0.05,0,0.09,0,0.18-0.02l0.14,0.86
			c-0.14,0.06-0.33,0.1-0.61,0.1C231.58,192.28,231.28,191.75,231.28,190.9z"/>
		<path d="M233.67,189.71c0-1.6,1.11-2.58,2.26-2.58c1.33,0,2.03,0.96,2.03,2.33c0,0.22-0.02,0.44-0.05,0.56h-3.12
			c0.1,0.87,0.66,1.37,1.45,1.37c0.42,0,0.78-0.13,1.14-0.36l0.39,0.72c-0.47,0.32-1.06,0.53-1.68,0.53
			C234.73,192.28,233.67,191.33,233.67,189.71z M236.96,189.24c0-0.76-0.34-1.22-1.01-1.22c-0.57,0-1.08,0.43-1.18,1.22H236.96z"/>
		<path d="M238.58,191.6l0.54-0.73c0.44,0.34,0.86,0.55,1.35,0.55c0.54,0,0.79-0.25,0.79-0.59c0-0.41-0.53-0.6-1.06-0.8
			c-0.64-0.24-1.38-0.61-1.38-1.43c0-0.85,0.69-1.47,1.79-1.47c0.68,0,1.23,0.28,1.63,0.59l-0.53,0.71
			c-0.34-0.25-0.69-0.43-1.08-0.43c-0.49,0-0.73,0.24-0.73,0.54c0,0.39,0.5,0.54,1.03,0.73c0.66,0.25,1.41,0.57,1.41,1.48
			c0,0.84-0.67,1.52-1.91,1.52C239.76,192.28,239.06,191.99,238.58,191.6z"/>
		<path d="M243.11,190.84c0-1.05,0.87-1.6,2.89-1.81c-0.02-0.53-0.23-0.97-0.89-0.97c-0.49,0-0.95,0.22-1.38,0.48l-0.42-0.77
			c0.54-0.34,1.24-0.64,2.01-0.64c1.23,0,1.83,0.76,1.83,2.12v2.91h-0.94l-0.09-0.54h-0.03c-0.44,0.38-0.94,0.66-1.52,0.66
			C243.7,192.28,243.11,191.7,243.11,190.84z M246,190.84v-1.1c-1.33,0.17-1.77,0.52-1.77,1.01c0,0.43,0.3,0.62,0.71,0.62
			C245.33,191.38,245.63,191.18,246,190.84z"/>
		<path d="M248.53,190.9v-5.8h1.15v5.86c0,0.28,0.13,0.38,0.25,0.38c0.05,0,0.09,0,0.18-0.02l0.14,0.86
			c-0.14,0.06-0.33,0.1-0.61,0.1C248.83,192.28,248.53,191.75,248.53,190.9z"/>
		<path d="M250.92,189.71c0-1.6,1.11-2.58,2.26-2.58c1.33,0,2.03,0.96,2.03,2.33c0,0.22-0.02,0.44-0.05,0.56h-3.12
			c0.1,0.87,0.66,1.37,1.45,1.37c0.42,0,0.78-0.13,1.14-0.36l0.39,0.72c-0.47,0.32-1.06,0.53-1.68,0.53
			C251.98,192.28,250.92,191.33,250.92,189.71z M254.21,189.24c0-0.76-0.34-1.22-1.01-1.22c-0.57,0-1.08,0.43-1.18,1.22H254.21z"/>
		<path d="M258.49,190.5v-2.34h-0.7v-0.86l0.76-0.05l0.14-1.34h0.96v1.34h1.25v0.92h-1.25v2.34c0,0.58,0.22,0.86,0.7,0.86
			c0.17,0,0.37-0.06,0.51-0.11l0.2,0.85c-0.27,0.09-0.61,0.18-1,0.18C258.91,192.28,258.49,191.56,258.49,190.5z"/>
		<path d="M261.92,187.25h0.94l0.09,0.88h0.03c0.35-0.64,0.87-1,1.4-1c0.25,0,0.41,0.03,0.56,0.1l-0.2,1
			c-0.17-0.05-0.3-0.08-0.5-0.08c-0.39,0-0.86,0.27-1.16,1.02v2.99h-1.15V187.25z"/>
		<path d="M265.39,190.84c0-1.05,0.87-1.6,2.89-1.81c-0.02-0.53-0.23-0.97-0.89-0.97c-0.49,0-0.95,0.22-1.38,0.48l-0.42-0.77
			c0.54-0.34,1.24-0.64,2.02-0.64c1.23,0,1.83,0.76,1.83,2.12v2.91h-0.94l-0.09-0.54h-0.03c-0.44,0.38-0.94,0.66-1.52,0.66
			C265.98,192.28,265.39,191.7,265.39,190.84z M268.28,190.84v-1.1c-1.33,0.17-1.78,0.52-1.78,1.01c0,0.43,0.3,0.62,0.71,0.62
			C267.61,191.38,267.91,191.18,268.28,190.84z"/>
		<path d="M270.51,189.71c0-1.6,1-2.58,2.08-2.58c0.56,0,0.91,0.21,1.29,0.54l-0.04-0.79v-1.78h1.15v7.06h-0.94l-0.09-0.53h-0.03
			c-0.36,0.36-0.87,0.65-1.4,0.65C271.3,192.28,270.51,191.33,270.51,189.71z M273.83,190.78v-2.29c-0.34-0.3-0.67-0.41-1-0.41
			c-0.62,0-1.14,0.59-1.14,1.61c0,1.07,0.41,1.63,1.12,1.63C273.19,191.33,273.51,191.16,273.83,190.78z"/>
		<path d="M276.13,189.71c0-1.6,1.11-2.58,2.26-2.58c1.33,0,2.03,0.96,2.03,2.33c0,0.22-0.02,0.44-0.05,0.56h-3.12
			c0.1,0.87,0.66,1.37,1.45,1.37c0.42,0,0.78-0.13,1.14-0.36l0.39,0.72c-0.47,0.32-1.06,0.53-1.68,0.53
			C277.19,192.28,276.13,191.33,276.13,189.71z M279.42,189.24c0-0.76-0.34-1.22-1.01-1.22c-0.57,0-1.08,0.43-1.17,1.22H279.42z"/>
	</g>
</g>
<g>
	<g>
		<path d="M211.87,208.57l0.68-0.8c0.47,0.45,1.1,0.75,1.7,0.75c0.74,0,1.14-0.33,1.14-0.84c0-0.54-0.42-0.71-1.02-0.96l-0.89-0.39
			c-0.64-0.27-1.32-0.78-1.32-1.73c0-1.04,0.92-1.84,2.19-1.84c0.76,0,1.5,0.32,2.02,0.83l-0.6,0.74c-0.42-0.35-0.86-0.56-1.42-0.56
			c-0.62,0-1.02,0.29-1.02,0.77c0,0.51,0.5,0.7,1.04,0.93l0.88,0.37c0.78,0.32,1.32,0.82,1.32,1.76c0,1.06-0.88,1.94-2.35,1.94
			C213.34,209.53,212.49,209.18,211.87,208.57z"/>
		<path d="M217.34,206.96c0-1.6,1.11-2.58,2.26-2.58c1.33,0,2.03,0.96,2.03,2.33c0,0.22-0.02,0.44-0.05,0.56h-3.12
			c0.1,0.87,0.66,1.37,1.45,1.37c0.42,0,0.78-0.13,1.14-0.36l0.39,0.72c-0.47,0.32-1.06,0.53-1.68,0.53
			C218.4,209.53,217.34,208.58,217.34,206.96z M220.64,206.49c0-0.76-0.34-1.22-1.01-1.22c-0.57,0-1.08,0.43-1.18,1.22H220.64z"/>
		<path d="M222.73,204.5h0.94l0.09,0.88h0.03c0.35-0.64,0.87-1,1.4-1c0.25,0,0.41,0.03,0.56,0.1l-0.2,1
			c-0.17-0.05-0.3-0.08-0.5-0.08c-0.39,0-0.86,0.27-1.16,1.02v2.99h-1.15V204.5z"/>
		<path d="M225.85,204.5h1.17l0.78,2.55c0.14,0.48,0.28,0.99,0.42,1.48h0.04c0.14-0.49,0.28-1,0.42-1.48l0.78-2.55h1.11l-1.67,4.91
			h-1.33L225.85,204.5z"/>
		<path d="M231.28,202.99c0-0.39,0.3-0.65,0.71-0.65c0.41,0,0.71,0.26,0.71,0.65c0,0.38-0.3,0.65-0.71,0.65
			C231.59,203.64,231.28,203.37,231.28,202.99z M231.41,204.5h1.15v4.91h-1.15V204.5z"/>
		<path d="M233.71,206.96c0-1.64,1.16-2.58,2.46-2.58c0.62,0,1.08,0.24,1.44,0.55l-0.56,0.75c-0.26-0.23-0.51-0.36-0.82-0.36
			c-0.79,0-1.34,0.66-1.34,1.64s0.54,1.63,1.3,1.63c0.38,0,0.74-0.19,1.02-0.42l0.47,0.76c-0.46,0.41-1.04,0.6-1.6,0.6
			C234.74,209.53,233.71,208.58,233.71,206.96z"/>
		<path d="M238.33,206.96c0-1.6,1.11-2.58,2.26-2.58c1.33,0,2.03,0.96,2.03,2.33c0,0.22-0.02,0.44-0.05,0.56h-3.12
			c0.1,0.87,0.66,1.37,1.45,1.37c0.42,0,0.78-0.13,1.14-0.36l0.39,0.72c-0.47,0.32-1.06,0.53-1.68,0.53
			C239.39,209.53,238.33,208.58,238.33,206.96z M241.62,206.49c0-0.76-0.34-1.22-1.01-1.22c-0.57,0-1.08,0.43-1.18,1.22H241.62z"/>
	</g>
</g>
<g>
	<g>
		<path d="M265.05,223.35h1.31l1.16,3.19c0.14,0.42,0.28,0.86,0.42,1.28h0.04c0.14-0.43,0.27-0.87,0.41-1.28l1.13-3.19h1.31v6.54
			h-1.06v-2.99c0-0.6,0.09-1.47,0.15-2.08h-0.04l-0.53,1.52l-1.08,2.94h-0.69l-1.08-2.94l-0.52-1.52h-0.04
			c0.06,0.61,0.15,1.48,0.15,2.08v2.99h-1.04V223.35z"/>
		<path d="M272.08,227.43c0-1.64,1.11-2.58,2.33-2.58s2.33,0.94,2.33,2.58c0,1.63-1.11,2.57-2.33,2.57S272.08,229.06,272.08,227.43z
			 M275.57,227.43c0-0.98-0.43-1.64-1.15-1.64s-1.15,0.66-1.15,1.64s0.43,1.63,1.15,1.63S275.57,228.42,275.57,227.43z"/>
		<path d="M277.89,224.97h0.94l0.09,0.66h0.03c0.44-0.43,0.94-0.78,1.61-0.78c1.05,0,1.51,0.71,1.51,1.95v3.08h-1.15v-2.93
			c0-0.81-0.23-1.11-0.76-1.11c-0.43,0-0.72,0.21-1.12,0.61v3.43h-1.15V224.97z"/>
		<path d="M283.17,227.43c0-1.64,1.11-2.58,2.33-2.58s2.33,0.94,2.33,2.58c0,1.63-1.11,2.57-2.33,2.57S283.17,229.06,283.17,227.43z
			 M286.66,227.43c0-0.98-0.43-1.64-1.15-1.64s-1.15,0.66-1.15,1.64s0.43,1.63,1.15,1.63S286.66,228.42,286.66,227.43z"/>
		<path d="M288.98,224.97h0.94l0.09,0.52h0.03c0.41-0.36,0.94-0.64,1.48-0.64c1.23,0,1.93,0.98,1.93,2.5c0,1.68-1,2.65-2.09,2.65
			c-0.44,0-0.86-0.2-1.26-0.54l0.04,0.82v1.55h-1.15V224.97z M292.28,227.36c0-0.98-0.32-1.56-1.07-1.56
			c-0.36,0-0.69,0.18-1.07,0.55v2.29c0.35,0.3,0.7,0.41,0.98,0.41C291.78,229.05,292.28,228.48,292.28,227.36z"/>
		<path d="M294.3,227.43c0-1.64,1.11-2.58,2.33-2.58s2.33,0.94,2.33,2.58c0,1.63-1.11,2.57-2.33,2.57S294.3,229.06,294.3,227.43z
			 M297.79,227.43c0-0.98-0.43-1.64-1.15-1.64s-1.15,0.66-1.15,1.64s0.43,1.63,1.15,1.63S297.79,228.42,297.79,227.43z"/>
		<path d="M300.11,228.62v-5.8h1.15v5.86c0,0.28,0.13,0.38,0.25,0.38c0.05,0,0.09,0,0.18-0.02l0.14,0.86
			c-0.14,0.06-0.33,0.1-0.61,0.1C300.41,230,300.11,229.48,300.11,228.62z"/>
		<path d="M302.51,231.8l0.21-0.89c0.09,0.03,0.24,0.07,0.35,0.07c0.52,0,0.82-0.35,0.98-0.84l0.09-0.31l-1.93-4.85h1.17l0.85,2.41
			c0.15,0.44,0.29,0.92,0.43,1.39h0.04c0.12-0.46,0.25-0.94,0.38-1.39l0.73-2.41h1.11l-1.78,5.13c-0.41,1.11-0.92,1.79-2,1.79
			C302.88,231.9,302.69,231.86,302.51,231.8z"/>
	</g>
</g>
<g>
	<g>
		<path d="M237.29,427.42h3.95v0.98h-2.79v1.86h2.38v0.98h-2.38v2.73h-1.16V427.42z"/>
		<path d="M242.23,432.13v-3.08h1.15v2.93c0,0.81,0.23,1.11,0.76,1.11c0.43,0,0.72-0.2,1.09-0.68v-3.36h1.15v4.91h-0.94l-0.09-0.72
			h-0.03c-0.43,0.51-0.91,0.84-1.58,0.84C242.69,434.08,242.23,433.37,242.23,432.13z"/>
		<path d="M247.85,432.7v-5.8H249v5.86c0,0.28,0.13,0.38,0.25,0.38c0.05,0,0.09,0,0.18-0.02l0.14,0.86c-0.14,0.06-0.33,0.1-0.61,0.1
			C248.15,434.08,247.85,433.55,247.85,432.7z"/>
		<path d="M250.56,432.7v-5.8h1.15v5.86c0,0.28,0.13,0.38,0.25,0.38c0.05,0,0.09,0,0.18-0.02l0.14,0.86
			c-0.14,0.06-0.33,0.1-0.61,0.1C250.85,434.08,250.56,433.55,250.56,432.7z"/>
		<path d="M254.94,431.51c0-1.63,1.16-2.58,2.46-2.58c0.62,0,1.08,0.24,1.43,0.55l-0.56,0.75c-0.26-0.23-0.51-0.36-0.82-0.36
			c-0.79,0-1.34,0.66-1.34,1.64s0.54,1.63,1.3,1.63c0.38,0,0.74-0.19,1.02-0.42l0.47,0.76c-0.46,0.41-1.04,0.6-1.6,0.6
			C255.97,434.08,254.94,433.14,254.94,431.51z"/>
		<path d="M259.56,431.51c0-1.63,1.11-2.58,2.33-2.58s2.33,0.94,2.33,2.58c0,1.63-1.11,2.57-2.33,2.57S259.56,433.14,259.56,431.51z
			 M263.05,431.51c0-0.98-0.43-1.64-1.15-1.64s-1.15,0.66-1.15,1.64s0.43,1.63,1.15,1.63S263.05,432.49,263.05,431.51z"/>
		<path d="M265.37,429.05h0.94l0.09,0.67h0.03c0.42-0.43,0.89-0.79,1.51-0.79c0.72,0,1.13,0.33,1.35,0.88
			c0.47-0.5,0.96-0.88,1.58-0.88c1.04,0,1.52,0.71,1.52,1.95v3.08h-1.15v-2.93c0-0.81-0.24-1.11-0.76-1.11
			c-0.31,0-0.65,0.2-1.03,0.61v3.43h-1.15v-2.93c0-0.81-0.24-1.11-0.76-1.11c-0.3,0-0.65,0.2-1.03,0.61v3.43h-1.15V429.05z"/>
		<path d="M273.8,429.05h0.94l0.09,0.52h0.03c0.41-0.36,0.94-0.64,1.48-0.64c1.23,0,1.93,0.98,1.93,2.5c0,1.68-1,2.65-2.09,2.65
			c-0.44,0-0.86-0.2-1.26-0.54l0.04,0.82v1.55h-1.15V429.05z M277.09,431.44c0-0.98-0.32-1.56-1.07-1.56
			c-0.36,0-0.69,0.18-1.07,0.55v2.29c0.35,0.3,0.7,0.41,0.98,0.41C276.59,433.13,277.09,432.55,277.09,431.44z"/>
		<path d="M279.12,431.51c0-1.59,1.11-2.58,2.26-2.58c1.33,0,2.03,0.96,2.03,2.33c0,0.22-0.02,0.44-0.05,0.56h-3.12
			c0.1,0.87,0.66,1.37,1.45,1.37c0.42,0,0.78-0.13,1.14-0.36l0.39,0.72c-0.47,0.32-1.06,0.53-1.68,0.53
			C280.18,434.08,279.12,433.13,279.12,431.51z M282.42,431.04c0-0.75-0.34-1.21-1.01-1.21c-0.57,0-1.08,0.43-1.17,1.21H282.42z"/>
		<path d="M284.69,432.3v-2.34h-0.7v-0.86l0.76-0.05l0.14-1.34h0.96v1.34h1.25v0.92h-1.25v2.34c0,0.58,0.22,0.86,0.7,0.86
			c0.17,0,0.37-0.06,0.51-0.11l0.2,0.85c-0.27,0.09-0.61,0.18-1,0.18C285.11,434.08,284.69,433.36,284.69,432.3z"/>
		<path d="M287.99,427.54c0-0.39,0.3-0.65,0.71-0.65c0.41,0,0.71,0.26,0.71,0.65c0,0.38-0.3,0.65-0.71,0.65
			C288.3,428.19,287.99,427.92,287.99,427.54z M288.12,429.05h1.15v4.91h-1.15V429.05z"/>
		<path d="M290.92,432.3v-2.34h-0.7v-0.86l0.76-0.05l0.14-1.34h0.96v1.34h1.25v0.92h-1.25v2.34c0,0.58,0.22,0.86,0.7,0.86
			c0.17,0,0.37-0.06,0.51-0.11l0.2,0.85c-0.27,0.09-0.61,0.18-1,0.18C291.34,434.08,290.92,433.36,290.92,432.3z"/>
		<path d="M294.22,427.54c0-0.39,0.3-0.65,0.71-0.65c0.41,0,0.71,0.26,0.71,0.65c0,0.38-0.3,0.65-0.71,0.65
			C294.53,428.19,294.22,427.92,294.22,427.54z M294.35,429.05h1.15v4.91h-1.15V429.05z"/>
		<path d="M296.65,431.51c0-1.63,1.11-2.58,2.33-2.58c1.22,0,2.33,0.94,2.33,2.58c0,1.63-1.11,2.57-2.33,2.57
			C297.76,434.08,296.65,433.14,296.65,431.51z M300.14,431.51c0-0.98-0.43-1.64-1.15-1.64s-1.15,0.66-1.15,1.64
			s0.43,1.63,1.15,1.63S300.14,432.49,300.14,431.51z"/>
		<path d="M302.46,429.05h0.94l0.09,0.66h0.03c0.44-0.43,0.94-0.78,1.61-0.78c1.05,0,1.51,0.71,1.51,1.95v3.08h-1.15v-2.93
			c0-0.81-0.23-1.11-0.76-1.11c-0.43,0-0.71,0.21-1.12,0.61v3.43h-1.15V429.05z"/>
	</g>
</g>
<g>
	<g>
		<path d="M201.85,453.7h1.42v-4.17h-1.18v-0.72c0.63-0.12,1.07-0.28,1.47-0.52h0.86v5.42h1.25v0.94h-3.83V453.7z"/>
		<path d="M206.71,454.04l0.62-0.7c0.24,0.28,0.63,0.48,1.02,0.48c0.83,0,1.5-0.64,1.5-2.55c0-1.57-0.5-2.23-1.22-2.23
			c-0.53,0-0.95,0.43-0.95,1.21c0,0.75,0.37,1.14,1,1.14c0.37,0,0.81-0.22,1.18-0.79l0.05,0.81c-0.36,0.51-0.96,0.81-1.44,0.81
			c-1.1,0-1.85-0.64-1.85-1.97c0-1.27,0.91-2.09,2-2.09c1.24,0,2.3,0.97,2.3,3.11c0,2.47-1.2,3.49-2.5,3.49
			C207.65,454.76,207.09,454.44,206.71,454.04z"/>
		<path d="M211.78,453.01c0-0.8,0.54-1.32,1.14-1.64v-0.04c-0.48-0.35-0.87-0.82-0.87-1.48c0-1.03,0.82-1.7,1.92-1.7
			c1.14,0,1.87,0.7,1.87,1.72c0,0.63-0.44,1.17-0.85,1.46v0.04c0.59,0.33,1.1,0.8,1.1,1.65c0,0.98-0.86,1.73-2.15,1.73
			C212.7,454.76,211.78,454.04,211.78,453.01z M215.01,452.99c0-0.69-0.67-0.94-1.53-1.3c-0.39,0.29-0.69,0.71-0.69,1.2
			c0,0.63,0.51,1.05,1.17,1.05C214.57,453.94,215.01,453.58,215.01,452.99z M214.89,449.95c0-0.56-0.34-0.97-0.94-0.97
			c-0.49,0-0.87,0.32-0.87,0.88c0,0.63,0.57,0.92,1.28,1.2C214.7,450.71,214.89,450.35,214.89,449.95z"/>
		<path d="M216.88,453.97c1.76-1.71,2.87-2.83,2.87-3.8c0-0.67-0.37-1.09-1.05-1.09c-0.49,0-0.9,0.32-1.24,0.7l-0.64-0.63
			c0.58-0.63,1.16-0.99,2.03-0.99c1.22,0,2.01,0.77,2.01,1.95c0,1.13-1.05,2.29-2.31,3.62c0.34-0.03,0.76-0.06,1.07-0.06h1.56v0.98
			h-4.29V453.97z"/>
	</g>
</g>
<g>
	<g>
		<path d="M265.44,453.85c1.76-1.71,2.88-2.83,2.88-3.8c0-0.67-0.37-1.1-1.05-1.1c-0.49,0-0.9,0.32-1.24,0.7l-0.64-0.63
			c0.58-0.63,1.16-0.99,2.03-0.99c1.21,0,2.01,0.77,2.01,1.95c0,1.13-1.05,2.29-2.32,3.62c0.34-0.03,0.76-0.06,1.07-0.06h1.56v0.98
			h-4.29V453.85z"/>
		<path d="M270.59,451.31c0-2.15,0.84-3.27,2.16-3.27s2.16,1.13,2.16,3.27c0,2.15-0.84,3.33-2.16,3.33S270.59,453.46,270.59,451.31z
			 M273.81,451.31c0-1.8-0.44-2.37-1.06-2.37c-0.62,0-1.06,0.57-1.06,2.37c0,1.8,0.44,2.42,1.06,2.42
			C273.36,453.74,273.81,453.11,273.81,451.31z"/>
		<path d="M276.05,453.58h1.42v-4.17h-1.18v-0.72c0.63-0.12,1.07-0.28,1.47-0.52h0.86v5.42h1.25v0.94h-3.83V453.58z"/>
		<path d="M280.83,453.85c1.76-1.71,2.88-2.83,2.88-3.8c0-0.67-0.37-1.1-1.05-1.1c-0.49,0-0.9,0.32-1.24,0.7l-0.64-0.63
			c0.58-0.63,1.16-0.99,2.03-0.99c1.21,0,2.01,0.77,2.01,1.95c0,1.13-1.05,2.29-2.32,3.62c0.34-0.03,0.76-0.06,1.07-0.06h1.56v0.98
			h-4.29V453.85z"/>
	</g>
</g>
<g>
	<g>
		<path d="M212.08,127.09v-3.67h1.16v3.76c0,1.42,0.53,1.89,1.32,1.89c0.8,0,1.35-0.47,1.35-1.89v-3.76h1.12v3.67
			c0,2.15-0.95,2.99-2.47,2.99S212.08,129.24,212.08,127.09z"/>
		<path d="M218.73,128.3v-2.34h-0.7v-0.86l0.76-0.05l0.14-1.34h0.96v1.34h1.25v0.92h-1.25v2.34c0,0.58,0.22,0.86,0.7,0.86
			c0.17,0,0.37-0.06,0.51-0.11l0.2,0.85c-0.27,0.09-0.61,0.18-1,0.18C219.15,130.08,218.73,129.36,218.73,128.3z"/>
		<path d="M222.04,123.53c0-0.39,0.3-0.65,0.71-0.65c0.41,0,0.71,0.26,0.71,0.65c0,0.38-0.3,0.65-0.71,0.65
			C222.34,124.19,222.04,123.91,222.04,123.53z M222.17,125.05h1.15v4.91h-1.15V125.05z"/>
		<path d="M224.96,128.3v-2.34h-0.7v-0.86l0.76-0.05l0.14-1.34h0.96v1.34h1.25v0.92h-1.25v2.34c0,0.58,0.22,0.86,0.7,0.86
			c0.17,0,0.37-0.06,0.51-0.11l0.2,0.85c-0.27,0.09-0.61,0.18-1,0.18C225.38,130.08,224.96,129.36,224.96,128.3z"/>
		<path d="M228.4,128.69v-5.8h1.15v5.86c0,0.28,0.13,0.38,0.25,0.38c0.05,0,0.09,0,0.18-0.02l0.14,0.86
			c-0.14,0.06-0.33,0.1-0.61,0.1C228.7,130.08,228.4,129.55,228.4,128.69z"/>
		<path d="M230.98,123.53c0-0.39,0.3-0.65,0.71-0.65c0.41,0,0.71,0.26,0.71,0.65c0,0.38-0.3,0.65-0.71,0.65
			C231.28,124.19,230.98,123.91,230.98,123.53z M231.11,125.05h1.15v4.91h-1.15V125.05z"/>
		<path d="M233.9,128.3v-2.34h-0.7v-0.86l0.76-0.05l0.14-1.34h0.96v1.34h1.25v0.92h-1.25v2.34c0,0.58,0.22,0.86,0.7,0.86
			c0.17,0,0.37-0.06,0.51-0.11l0.2,0.85c-0.27,0.09-0.61,0.18-1,0.18C234.32,130.08,233.9,129.36,233.9,128.3z"/>
		<path d="M237.21,123.53c0-0.39,0.3-0.65,0.71-0.65c0.41,0,0.71,0.26,0.71,0.65c0,0.38-0.3,0.65-0.71,0.65
			C237.51,124.19,237.21,123.91,237.21,123.53z M237.34,125.05h1.15v4.91h-1.15V125.05z"/>
		<path d="M239.64,127.5c0-1.6,1.11-2.58,2.26-2.58c1.33,0,2.03,0.96,2.03,2.33c0,0.22-0.02,0.44-0.05,0.56h-3.12
			c0.1,0.87,0.66,1.37,1.45,1.37c0.42,0,0.78-0.13,1.14-0.36l0.39,0.72c-0.47,0.32-1.06,0.53-1.68,0.53
			C240.7,130.08,239.64,129.12,239.64,127.5z M242.93,127.03c0-0.76-0.34-1.22-1.01-1.22c-0.57,0-1.08,0.43-1.18,1.22H242.93z"/>
		<path d="M244.54,129.39l0.54-0.73c0.44,0.34,0.86,0.55,1.35,0.55c0.54,0,0.79-0.25,0.79-0.59c0-0.41-0.53-0.6-1.06-0.8
			c-0.64-0.24-1.38-0.61-1.38-1.43c0-0.85,0.69-1.47,1.79-1.47c0.68,0,1.23,0.28,1.63,0.59l-0.53,0.71
			c-0.34-0.25-0.69-0.43-1.08-0.43c-0.49,0-0.73,0.24-0.73,0.54c0,0.39,0.5,0.54,1.03,0.73c0.66,0.25,1.41,0.57,1.41,1.48
			c0,0.84-0.67,1.52-1.91,1.52C245.73,130.08,245.02,129.79,244.54,129.39z"/>
		<path d="M251.08,128.64c0-1.05,0.87-1.6,2.89-1.81c-0.02-0.53-0.23-0.97-0.89-0.97c-0.49,0-0.95,0.22-1.38,0.48l-0.42-0.77
			c0.54-0.34,1.24-0.64,2.01-0.64c1.23,0,1.83,0.76,1.83,2.12v2.91h-0.94l-0.09-0.54h-0.03c-0.44,0.38-0.94,0.66-1.52,0.66
			C251.67,130.08,251.08,129.49,251.08,128.64z M253.96,128.64v-1.1c-1.33,0.17-1.77,0.52-1.77,1.01c0,0.43,0.3,0.62,0.71,0.62
			C253.29,129.17,253.6,128.98,253.96,128.64z"/>
		<path d="M256.5,125.05h0.94l0.09,0.66h0.03c0.44-0.43,0.94-0.78,1.61-0.78c1.05,0,1.51,0.71,1.51,1.95v3.08h-1.15v-2.93
			c0-0.81-0.23-1.11-0.76-1.11c-0.43,0-0.71,0.21-1.12,0.61v3.43h-1.15V125.05z"/>
		<path d="M261.8,127.5c0-1.6,1-2.58,2.08-2.58c0.56,0,0.91,0.21,1.29,0.54l-0.04-0.79v-1.78h1.15v7.06h-0.94l-0.09-0.53h-0.03
			c-0.36,0.36-0.87,0.65-1.4,0.65C262.59,130.08,261.8,129.12,261.8,127.5z M265.12,128.57v-2.29c-0.34-0.3-0.67-0.41-1-0.41
			c-0.62,0-1.14,0.59-1.14,1.61c0,1.07,0.41,1.63,1.12,1.63C264.48,129.12,264.8,128.96,265.12,128.57z"/>
		<path d="M212.18,139.3v-2.34h-0.7v-0.86l0.76-0.05l0.14-1.34h0.96v1.34h1.25v0.92h-1.25v2.34c0,0.58,0.22,0.86,0.7,0.86
			c0.17,0,0.37-0.06,0.51-0.11l0.2,0.85c-0.27,0.09-0.61,0.18-1,0.18C212.6,141.08,212.18,140.36,212.18,139.3z"/>
		<path d="M215.62,136.05h0.94l0.09,0.88h0.03c0.35-0.64,0.87-1,1.4-1c0.25,0,0.41,0.03,0.56,0.1l-0.2,1
			c-0.17-0.05-0.3-0.08-0.5-0.08c-0.39,0-0.86,0.27-1.16,1.02v2.99h-1.15V136.05z"/>
		<path d="M219.09,139.64c0-1.05,0.87-1.6,2.89-1.81c-0.02-0.53-0.23-0.97-0.89-0.97c-0.49,0-0.95,0.22-1.38,0.48l-0.42-0.77
			c0.54-0.34,1.24-0.64,2.01-0.64c1.23,0,1.83,0.76,1.83,2.12v2.91h-0.94l-0.09-0.54h-0.03c-0.44,0.38-0.94,0.66-1.52,0.66
			C219.68,141.08,219.09,140.49,219.09,139.64z M221.97,139.64v-1.1c-1.33,0.17-1.77,0.52-1.77,1.01c0,0.43,0.3,0.62,0.71,0.62
			C221.31,140.17,221.61,139.98,221.97,139.64z"/>
		<path d="M224.51,136.05h0.94l0.09,0.66h0.03c0.44-0.43,0.94-0.78,1.61-0.78c1.05,0,1.51,0.71,1.51,1.95v3.08h-1.15v-2.93
			c0-0.81-0.23-1.11-0.76-1.11c-0.43,0-0.72,0.21-1.12,0.61v3.43h-1.15V136.05z"/>
		<path d="M229.62,140.39l0.54-0.73c0.44,0.34,0.86,0.55,1.35,0.55c0.54,0,0.79-0.25,0.79-0.59c0-0.41-0.53-0.6-1.06-0.8
			c-0.64-0.24-1.38-0.61-1.38-1.43c0-0.85,0.69-1.47,1.79-1.47c0.68,0,1.23,0.28,1.63,0.59l-0.53,0.71
			c-0.34-0.25-0.69-0.43-1.08-0.43c-0.49,0-0.73,0.24-0.73,0.54c0,0.39,0.5,0.54,1.03,0.73c0.66,0.25,1.41,0.57,1.41,1.48
			c0,0.84-0.67,1.52-1.91,1.52C230.81,141.08,230.1,140.79,229.62,140.39z"/>
		<path d="M234.42,136.05h0.94l0.09,0.52h0.03c0.41-0.36,0.94-0.64,1.48-0.64c1.23,0,1.93,0.98,1.93,2.5c0,1.68-1,2.65-2.09,2.65
			c-0.44,0-0.86-0.2-1.26-0.54l0.04,0.82v1.55h-1.15V136.05z M237.71,138.44c0-0.98-0.32-1.56-1.07-1.56
			c-0.36,0-0.69,0.18-1.07,0.55v2.29c0.35,0.3,0.7,0.41,0.98,0.41C237.21,140.12,237.71,139.55,237.71,138.44z"/>
		<path d="M239.74,138.5c0-1.64,1.11-2.58,2.33-2.58c1.22,0,2.33,0.94,2.33,2.58c0,1.63-1.11,2.57-2.33,2.57
			C240.85,141.08,239.74,140.13,239.74,138.5z M243.22,138.5c0-0.98-0.43-1.64-1.15-1.64c-0.72,0-1.15,0.66-1.15,1.64
			s0.43,1.63,1.15,1.63C242.79,140.14,243.22,139.49,243.22,138.5z"/>
		<path d="M245.55,136.05h0.94l0.09,0.88h0.03c0.35-0.64,0.87-1,1.4-1c0.25,0,0.41,0.03,0.56,0.1l-0.2,1
			c-0.17-0.05-0.3-0.08-0.5-0.08c-0.39,0-0.86,0.27-1.16,1.02v2.99h-1.15V136.05z"/>
		<path d="M249.45,139.3v-2.34h-0.7v-0.86l0.76-0.05l0.14-1.34h0.96v1.34h1.25v0.92h-1.25v2.34c0,0.58,0.22,0.86,0.7,0.86
			c0.17,0,0.37-0.06,0.51-0.11l0.2,0.85c-0.27,0.09-0.61,0.18-1,0.18C249.87,141.08,249.45,140.36,249.45,139.3z"/>
		<path d="M252.63,139.64c0-1.05,0.87-1.6,2.89-1.81c-0.02-0.53-0.23-0.97-0.89-0.97c-0.49,0-0.95,0.22-1.38,0.48l-0.42-0.77
			c0.54-0.34,1.24-0.64,2.01-0.64c1.23,0,1.83,0.76,1.83,2.12v2.91h-0.94l-0.09-0.54h-0.03c-0.44,0.38-0.94,0.66-1.52,0.66
			C253.22,141.08,252.63,140.49,252.63,139.64z M255.51,139.64v-1.1c-1.33,0.17-1.77,0.52-1.77,1.01c0,0.43,0.29,0.62,0.71,0.62
			C254.85,140.17,255.15,139.98,255.51,139.64z"/>
		<path d="M258.22,139.3v-2.34h-0.7v-0.86l0.76-0.05l0.14-1.34h0.96v1.34h1.25v0.92h-1.25v2.34c0,0.58,0.22,0.86,0.7,0.86
			c0.17,0,0.37-0.06,0.51-0.11l0.2,0.85c-0.27,0.09-0.61,0.18-1,0.18C258.64,141.08,258.22,140.36,258.22,139.3z"/>
		<path d="M261.53,134.53c0-0.39,0.3-0.65,0.71-0.65c0.41,0,0.71,0.26,0.71,0.65c0,0.38-0.3,0.65-0.71,0.65
			C261.83,135.19,261.53,134.91,261.53,134.53z M261.66,136.05h1.15v4.91h-1.15V136.05z"/>
		<path d="M263.96,138.5c0-1.64,1.11-2.58,2.33-2.58c1.22,0,2.33,0.94,2.33,2.58c0,1.63-1.11,2.57-2.33,2.57
			C265.07,141.08,263.96,140.13,263.96,138.5z M267.44,138.5c0-0.98-0.43-1.64-1.15-1.64s-1.15,0.66-1.15,1.64s0.43,1.63,1.15,1.63
			S267.44,139.49,267.44,138.5z"/>
		<path d="M269.77,136.05h0.94l0.09,0.66h0.03c0.44-0.43,0.94-0.78,1.61-0.78c1.05,0,1.51,0.71,1.51,1.95v3.08h-1.15v-2.93
			c0-0.81-0.23-1.11-0.76-1.11c-0.43,0-0.71,0.21-1.12,0.61v3.43h-1.15V136.05z"/>
	</g>
</g>
<line class="st0" x1="198.67" y1="436.97" x2="305.37" y2="437.2"/>
<line class="st0" x1="200.39" y1="233.41" x2="307.58" y2="233.62"/>
<line class="st0" x1="198.49" y1="335.51" x2="304.75" y2="335.93"/>
</svg>
