<?xml version="1.0" encoding="utf-8"?>
<!-- Generator: Adobe Illustrator 25.4.1, SVG Export Plug-In . SVG Version: 6.00 Build 0)  -->
<svg version="1.1" xmlns="http://www.w3.org/2000/svg" xmlns:xlink="http://www.w3.org/1999/xlink" x="0px" y="0px"
	 viewBox="0 0 140 440" style="enable-background:new 0 0 140 440;" xml:space="preserve">
<style type="text/css">
	.st0{fill:none;stroke:#000000;stroke-miterlimit:10;}
	.st1{fill:none;stroke:#C900BB;stroke-width:3;stroke-miterlimit:10;}
	.st2{fill:#C900BB;}
	.st3{fill:#3B00BB;}
	.st4{fill:#3B7159;}
	.st5{fill:#979965;}
	.st6{fill:#8D33CD;}
	.st7{fill:#972711;}
	.st8{fill:none;stroke:#3B00BB;stroke-width:3;stroke-miterlimit:10;}
	.st9{fill:none;stroke:#3B7159;stroke-width:3;stroke-miterlimit:10;}
	.st10{fill:none;stroke:#972711;stroke-width:3;stroke-miterlimit:10;}
	.st11{fill:none;stroke:#979965;stroke-width:3;stroke-miterlimit:10;}
	.st12{fill:none;stroke:#8D33CD;stroke-width:3;stroke-miterlimit:10;}
</style>
<g id="Layer_1">
	<g>
		<g>
			<path d="M29.87,20.91h1.16v2.63h2.64v-2.63h1.16v6.54h-1.16v-2.9h-2.64v2.9h-1.16V20.91z"/>
			<path d="M36.08,24.99c0-1.6,1.11-2.58,2.26-2.58c1.33,0,2.03,0.96,2.03,2.33c0,0.22-0.02,0.44-0.05,0.56H37.2
				c0.1,0.87,0.66,1.37,1.45,1.37c0.42,0,0.78-0.13,1.14-0.36l0.39,0.72c-0.47,0.32-1.06,0.53-1.68,0.53
				C37.14,27.56,36.08,26.61,36.08,24.99z M39.37,24.52c0-0.76-0.34-1.22-1.01-1.22c-0.57,0-1.08,0.43-1.18,1.22H39.37z"/>
			<path d="M41.47,22.53h0.94l0.09,0.88h0.03c0.35-0.64,0.87-1,1.4-1c0.25,0,0.41,0.03,0.56,0.1l-0.2,1
				c-0.17-0.05-0.3-0.08-0.5-0.08c-0.39,0-0.86,0.27-1.16,1.02v2.99h-1.15L41.47,22.53L41.47,22.53z"/>
			<path d="M44.74,22.59l0.72-0.05h2.05v0.92h-2.77V22.59z M45.4,22.03c0-1.02,0.47-1.76,1.63-1.76c0.36,0,0.68,0.08,0.9,0.17
				l-0.22,0.86c-0.18-0.08-0.36-0.12-0.53-0.12c-0.41,0-0.62,0.26-0.62,0.83v5.44h-1.15v-5.42H45.4z"/>
			<path d="M48.24,21.02c0-0.39,0.3-0.65,0.71-0.65s0.71,0.26,0.71,0.65c0,0.38-0.3,0.65-0.71,0.65
				C48.55,21.67,48.24,21.4,48.24,21.02z M48.37,22.53h1.15v4.91h-1.15V22.53z"/>
			<path d="M50.99,22.53h0.94l0.09,0.66h0.03c0.44-0.43,0.94-0.78,1.61-0.78c1.05,0,1.51,0.71,1.51,1.95v3.08h-1.15v-2.93
				c0-0.81-0.23-1.11-0.76-1.11c-0.43,0-0.72,0.21-1.12,0.61v3.43h-1.15L50.99,22.53L50.99,22.53z"/>
			<path d="M56.29,24.99c0-1.6,1-2.58,2.08-2.58c0.56,0,0.91,0.21,1.29,0.54l-0.04-0.79v-1.78h1.15v7.06h-0.94l-0.09-0.53h-0.03
				c-0.36,0.36-0.87,0.65-1.4,0.65C57.08,27.56,56.29,26.61,56.29,24.99z M59.62,26.06v-2.29c-0.34-0.3-0.67-0.41-1-0.41
				c-0.62,0-1.14,0.59-1.14,1.61c0,1.07,0.41,1.63,1.12,1.63C58.97,26.61,59.29,26.44,59.62,26.06z"/>
			<path d="M61.97,26.12c0-1.05,0.87-1.6,2.89-1.81c-0.02-0.53-0.23-0.97-0.89-0.97c-0.49,0-0.95,0.22-1.38,0.48l-0.42-0.77
				c0.54-0.34,1.24-0.64,2.01-0.64c1.23,0,1.83,0.76,1.83,2.12v2.91h-0.94l-0.09-0.54h-0.03c-0.44,0.38-0.94,0.66-1.52,0.66
				C62.56,27.56,61.97,26.98,61.97,26.12z M64.86,26.13v-1.1c-1.33,0.17-1.77,0.52-1.77,1.01c0,0.43,0.3,0.62,0.71,0.62
				C64.19,26.66,64.49,26.46,64.86,26.13z"/>
			<path d="M67.39,20.38h1.15v1.83l-0.05,0.95c0.41-0.39,0.9-0.74,1.57-0.74c1.05,0,1.51,0.71,1.51,1.95v3.08h-1.15v-2.93
				c0-0.81-0.23-1.11-0.76-1.11c-0.43,0-0.72,0.21-1.12,0.61v3.43h-1.15L67.39,20.38L67.39,20.38z"/>
			<path d="M72.97,26.18v-5.8h1.15v5.86c0,0.28,0.13,0.38,0.25,0.38c0.05,0,0.09,0,0.18-0.02l0.14,0.86
				c-0.14,0.06-0.33,0.1-0.61,0.1C73.27,27.56,72.97,27.04,72.97,26.18z"/>
			<path d="M75.38,24.5h2.38v0.84h-2.38V24.5z"/>
			<path d="M79,20.91h1.16v2.63h2.65v-2.63h1.16v6.54h-1.16v-2.9h-2.64v2.9h-1.16L79,20.91L79,20.91z"/>
			<path d="M85.4,21.02c0-0.39,0.3-0.65,0.71-0.65s0.71,0.26,0.71,0.65c0,0.38-0.3,0.65-0.71,0.65C85.7,21.67,85.4,21.4,85.4,21.02z
				 M85.53,22.53h1.15v4.91h-1.15V22.53z"/>
			<path d="M88.15,22.53h0.94l0.09,0.88h0.03c0.35-0.64,0.87-1,1.4-1c0.25,0,0.41,0.03,0.56,0.1l-0.2,1
				c-0.17-0.05-0.3-0.08-0.5-0.08c-0.39,0-0.86,0.27-1.16,1.02v2.99h-1.15L88.15,22.53L88.15,22.53z"/>
			<path d="M91.4,26.88l0.54-0.73c0.44,0.34,0.86,0.55,1.36,0.55c0.54,0,0.79-0.25,0.79-0.59c0-0.41-0.53-0.6-1.06-0.8
				c-0.64-0.24-1.38-0.61-1.38-1.43c0-0.85,0.69-1.47,1.79-1.47c0.68,0,1.23,0.28,1.63,0.59l-0.53,0.71
				c-0.34-0.25-0.69-0.43-1.08-0.43c-0.49,0-0.73,0.24-0.73,0.54c0,0.39,0.5,0.54,1.03,0.73c0.66,0.25,1.41,0.57,1.41,1.48
				c0,0.84-0.67,1.52-1.91,1.52C92.58,27.56,91.88,27.28,91.4,26.88z"/>
			<path d="M95.87,24.99c0-1.64,1.16-2.58,2.46-2.58c0.62,0,1.08,0.24,1.44,0.55l-0.56,0.75c-0.26-0.23-0.51-0.36-0.82-0.36
				c-0.79,0-1.34,0.66-1.34,1.64s0.54,1.63,1.3,1.63c0.38,0,0.74-0.19,1.02-0.42l0.47,0.76c-0.46,0.41-1.04,0.6-1.6,0.6
				C96.9,27.56,95.87,26.62,95.87,24.99z"/>
			<path d="M100.81,20.38h1.15v1.83l-0.05,0.95c0.41-0.39,0.9-0.74,1.57-0.74c1.05,0,1.51,0.71,1.51,1.95v3.08h-1.15v-2.93
				c0-0.81-0.23-1.11-0.76-1.11c-0.43,0-0.71,0.21-1.12,0.61v3.43h-1.15V20.38z"/>
			<path d="M106.39,22.53h0.94l0.09,0.67h0.03c0.42-0.43,0.89-0.79,1.51-0.79c0.72,0,1.13,0.33,1.36,0.88
				c0.47-0.5,0.96-0.88,1.58-0.88c1.04,0,1.52,0.71,1.52,1.95v3.08h-1.15v-2.93c0-0.81-0.24-1.11-0.76-1.11
				c-0.31,0-0.65,0.2-1.03,0.61v3.43h-1.15v-2.93c0-0.81-0.24-1.11-0.76-1.11c-0.3,0-0.65,0.2-1.03,0.61v3.43h-1.15L106.39,22.53
				L106.39,22.53z"/>
			<path d="M114.56,26.12c0-1.05,0.87-1.6,2.89-1.81c-0.02-0.53-0.23-0.97-0.89-0.97c-0.49,0-0.95,0.22-1.38,0.48l-0.42-0.77
				c0.54-0.34,1.24-0.64,2.02-0.64c1.23,0,1.83,0.76,1.83,2.12v2.91h-0.94l-0.09-0.54h-0.03c-0.44,0.38-0.94,0.66-1.52,0.66
				C115.15,27.56,114.56,26.98,114.56,26.12z M117.45,26.13v-1.1c-1.33,0.17-1.78,0.52-1.78,1.01c0,0.43,0.3,0.62,0.71,0.62
				C116.78,26.66,117.08,26.46,117.45,26.13z"/>
			<path d="M119.98,22.53h0.94l0.09,0.66h0.03c0.44-0.43,0.94-0.78,1.61-0.78c1.05,0,1.51,0.71,1.51,1.95v3.08h-1.15v-2.93
				c0-0.81-0.23-1.11-0.76-1.11c-0.43,0-0.71,0.21-1.12,0.61v3.43h-1.15V22.53z"/>
			<path d="M29.87,31.91h1.16v6.54h-1.16V31.91z"/>
			<path d="M32.59,33.53h0.94l0.09,0.66h0.03c0.44-0.43,0.94-0.78,1.61-0.78c1.05,0,1.51,0.71,1.51,1.95v3.08h-1.15v-2.93
				c0-0.81-0.23-1.11-0.76-1.11c-0.43,0-0.72,0.21-1.12,0.61v3.43h-1.15L32.59,33.53L32.59,33.53z"/>
			<path d="M37.89,35.99c0-1.6,1-2.58,2.08-2.58c0.56,0,0.91,0.21,1.29,0.54l-0.04-0.79v-1.78h1.15v7.06h-0.94l-0.09-0.53h-0.03
				c-0.36,0.36-0.87,0.65-1.4,0.65C38.69,38.56,37.89,37.61,37.89,35.99z M41.22,37.06v-2.29c-0.34-0.3-0.67-0.41-1-0.41
				c-0.62,0-1.14,0.59-1.14,1.61c0,1.07,0.41,1.63,1.12,1.63C40.57,37.61,40.89,37.44,41.22,37.06z"/>
			<path d="M43.51,35.99c0-1.6,1.11-2.58,2.26-2.58c1.33,0,2.03,0.96,2.03,2.33c0,0.22-0.02,0.44-0.05,0.56h-3.12
				c0.1,0.87,0.66,1.37,1.45,1.37c0.42,0,0.78-0.13,1.14-0.36l0.39,0.72c-0.47,0.32-1.06,0.53-1.68,0.53
				C44.57,38.56,43.51,37.61,43.51,35.99z M46.8,35.52c0-0.76-0.34-1.22-1.01-1.22c-0.57,0-1.08,0.43-1.18,1.22H46.8z"/>
			<path d="M49.87,35.88l-1.45-2.35h1.24l0.54,0.93c0.14,0.27,0.3,0.56,0.45,0.83h0.04c0.13-0.27,0.26-0.56,0.39-0.83l0.46-0.93h1.2
				l-1.45,2.48l1.56,2.43h-1.24l-0.6-0.97c-0.16-0.29-0.33-0.59-0.5-0.87h-0.04c-0.15,0.28-0.29,0.57-0.44,0.87l-0.52,0.97h-1.2
				L49.87,35.88z"/>
			<path d="M55.39,35.99c0-1.64,1.11-2.58,2.33-2.58s2.33,0.94,2.33,2.58c0,1.63-1.11,2.57-2.33,2.57S55.39,37.62,55.39,35.99z
				 M58.88,35.99c0-0.98-0.43-1.64-1.15-1.64s-1.15,0.66-1.15,1.64s0.43,1.63,1.15,1.63C58.44,37.62,58.88,36.98,58.88,35.99z"/>
			<path d="M60.87,39.33c0-0.41,0.26-0.78,0.71-1.05v-0.04c-0.25-0.16-0.44-0.42-0.44-0.82c0-0.38,0.26-0.72,0.54-0.92v-0.04
				c-0.34-0.25-0.65-0.72-0.65-1.3c0-1.13,0.91-1.76,1.94-1.76c0.27,0,0.53,0.05,0.73,0.12h1.75v0.86h-0.9
				c0.16,0.18,0.28,0.49,0.28,0.82c0,1.09-0.83,1.68-1.87,1.68c-0.21,0-0.44-0.04-0.66-0.13c-0.15,0.13-0.24,0.25-0.24,0.47
				c0,0.28,0.2,0.44,0.8,0.44h0.87c1.17,0,1.8,0.36,1.8,1.21c0,0.97-1.02,1.73-2.62,1.73C61.74,40.61,60.87,40.19,60.87,39.33z
				 M64.42,39.07c0-0.38-0.3-0.49-0.87-0.49h-0.67c-0.26,0-0.48-0.02-0.66-0.07c-0.26,0.2-0.38,0.42-0.38,0.65
				c0,0.45,0.48,0.71,1.25,0.71C63.88,39.87,64.42,39.49,64.42,39.07z M63.82,35.18c0-0.62-0.37-0.97-0.85-0.97
				s-0.85,0.35-0.85,0.97s0.38,0.99,0.85,0.99S63.82,35.8,63.82,35.18z"/>
			<path d="M68.4,33.53h0.94l0.09,0.67h0.03c0.42-0.43,0.89-0.79,1.51-0.79c0.72,0,1.13,0.33,1.36,0.88
				c0.47-0.5,0.96-0.88,1.58-0.88c1.04,0,1.51,0.71,1.51,1.95v3.08h-1.15v-2.93c0-0.81-0.24-1.11-0.75-1.11
				c-0.31,0-0.65,0.2-1.03,0.61v3.43h-1.15v-2.93c0-0.81-0.24-1.11-0.75-1.11c-0.3,0-0.65,0.2-1.03,0.61v3.43h-1.15v-4.91H68.4z"/>
			<path d="M76.57,37.12c0-1.05,0.87-1.6,2.89-1.81c-0.02-0.53-0.23-0.97-0.89-0.97c-0.49,0-0.95,0.22-1.38,0.48l-0.42-0.77
				c0.54-0.34,1.24-0.64,2.02-0.64c1.23,0,1.83,0.76,1.83,2.12v2.91h-0.94l-0.09-0.54h-0.03c-0.44,0.38-0.94,0.66-1.52,0.66
				C77.16,38.56,76.57,37.98,76.57,37.12z M79.46,37.13v-1.1c-1.33,0.17-1.78,0.52-1.78,1.01c0,0.43,0.3,0.62,0.71,0.62
				C78.79,37.66,79.09,37.46,79.46,37.13z"/>
			<path d="M81.99,33.53h0.94l0.09,0.88h0.03c0.35-0.64,0.87-1,1.4-1c0.25,0,0.41,0.03,0.56,0.1l-0.2,1
				c-0.17-0.05-0.3-0.08-0.5-0.08c-0.39,0-0.86,0.27-1.16,1.02v2.99H82L81.99,33.53L81.99,33.53z"/>
			<path d="M85.72,31.38h1.13v4.41h0.03l1.82-2.26h1.26l-1.68,2l1.86,2.91h-1.25l-1.26-2.13l-0.77,0.88v1.25h-1.13v-7.06H85.72z"/>
			<path d="M90.62,35.99c0-1.6,1.11-2.58,2.26-2.58c1.33,0,2.03,0.96,2.03,2.33c0,0.22-0.02,0.44-0.05,0.56h-3.12
				c0.1,0.87,0.66,1.37,1.45,1.37c0.42,0,0.78-0.13,1.14-0.36l0.39,0.72c-0.47,0.32-1.06,0.53-1.68,0.53
				C91.68,38.56,90.62,37.61,90.62,35.99z M93.91,35.52c0-0.76-0.34-1.22-1.01-1.22c-0.57,0-1.08,0.43-1.17,1.22H93.91z"/>
			<path d="M96.19,36.79v-2.34h-0.7v-0.86l0.76-0.05l0.14-1.34h0.96v1.34h1.25v0.92h-1.25v2.34c0,0.58,0.22,0.86,0.7,0.86
				c0.17,0,0.37-0.06,0.51-0.11l0.2,0.85c-0.27,0.09-0.61,0.18-1,0.18C96.6,38.56,96.19,37.85,96.19,36.79z"/>
			<path d="M29.45,46.99c0-1.64,1.16-2.58,2.46-2.58c0.62,0,1.08,0.24,1.44,0.55l-0.56,0.75c-0.26-0.23-0.51-0.36-0.82-0.36
				c-0.79,0-1.34,0.66-1.34,1.64s0.54,1.63,1.3,1.63c0.38,0,0.74-0.19,1.02-0.42l0.47,0.76c-0.46,0.41-1.04,0.6-1.6,0.6
				C30.48,49.56,29.45,48.62,29.45,46.99z"/>
			<path d="M34.07,46.99c0-1.64,1.11-2.58,2.33-2.58s2.33,0.94,2.33,2.58c0,1.63-1.11,2.57-2.33,2.57S34.07,48.62,34.07,46.99z
				 M37.56,46.99c0-0.98-0.43-1.64-1.15-1.64s-1.15,0.66-1.15,1.64s0.43,1.63,1.15,1.63C37.12,48.62,37.56,47.98,37.56,46.99z"/>
			<path d="M39.88,44.53h0.94l0.09,0.66h0.03c0.44-0.43,0.94-0.78,1.61-0.78c1.05,0,1.51,0.71,1.51,1.95v3.08h-1.15v-2.93
				c0-0.81-0.23-1.11-0.76-1.11c-0.43,0-0.72,0.21-1.12,0.61v3.43h-1.15L39.88,44.53L39.88,44.53z"/>
			<path d="M45.16,46.99c0-1.64,1.16-2.58,2.46-2.58c0.62,0,1.08,0.24,1.44,0.55l-0.56,0.75c-0.26-0.23-0.51-0.36-0.82-0.36
				c-0.79,0-1.34,0.66-1.34,1.64s0.54,1.63,1.3,1.63c0.38,0,0.74-0.19,1.02-0.42l0.47,0.76c-0.46,0.41-1.04,0.6-1.6,0.6
				C46.19,49.56,45.16,48.62,45.16,46.99z"/>
			<path d="M49.78,46.99c0-1.6,1.11-2.58,2.26-2.58c1.33,0,2.03,0.96,2.03,2.33c0,0.22-0.02,0.44-0.05,0.56H50.9
				c0.1,0.87,0.66,1.37,1.45,1.37c0.42,0,0.78-0.13,1.14-0.36l0.39,0.72c-0.47,0.32-1.06,0.53-1.68,0.53
				C50.84,49.56,49.78,48.61,49.78,46.99z M53.07,46.52c0-0.76-0.34-1.22-1.01-1.22c-0.57,0-1.08,0.43-1.18,1.22H53.07z"/>
			<path d="M55.17,44.53h0.94l0.09,0.66h0.03c0.44-0.43,0.94-0.78,1.61-0.78c1.05,0,1.51,0.71,1.51,1.95v3.08H58.2v-2.93
				c0-0.81-0.23-1.11-0.76-1.11c-0.43,0-0.72,0.21-1.12,0.61v3.43h-1.15L55.17,44.53L55.17,44.53z"/>
			<path d="M60.95,47.79v-2.34h-0.7v-0.86l0.76-0.05l0.14-1.34h0.96v1.34h1.25v0.92h-1.25v2.34c0,0.58,0.22,0.86,0.7,0.86
				c0.17,0,0.37-0.06,0.51-0.11l0.2,0.85c-0.27,0.09-0.61,0.18-1,0.18C61.37,49.56,60.95,48.85,60.95,47.79z"/>
			<path d="M64.38,44.53h0.94l0.09,0.88h0.03c0.35-0.64,0.87-1,1.4-1c0.25,0,0.41,0.03,0.56,0.1l-0.2,1
				c-0.17-0.05-0.3-0.08-0.5-0.08c-0.39,0-0.86,0.27-1.16,1.02v2.99h-1.15L64.38,44.53L64.38,44.53z"/>
			<path d="M67.85,48.12c0-1.05,0.87-1.6,2.89-1.81c-0.02-0.53-0.23-0.97-0.89-0.97c-0.49,0-0.95,0.22-1.38,0.48l-0.42-0.77
				c0.54-0.34,1.24-0.64,2.01-0.64c1.23,0,1.83,0.76,1.83,2.12v2.91h-0.94l-0.09-0.54h-0.03c-0.44,0.38-0.94,0.66-1.52,0.66
				C68.44,49.56,67.85,48.98,67.85,48.12z M70.74,48.13v-1.1c-1.33,0.17-1.77,0.52-1.77,1.01c0,0.43,0.3,0.62,0.71,0.62
				C70.07,48.66,70.37,48.46,70.74,48.13z"/>
			<path d="M73.44,47.79v-2.34h-0.7v-0.86l0.76-0.05l0.14-1.34h0.96v1.34h1.25v0.92H74.6v2.34c0,0.58,0.22,0.86,0.7,0.86
				c0.17,0,0.37-0.06,0.51-0.11l0.2,0.85c-0.27,0.09-0.61,0.18-1,0.18C73.86,49.56,73.44,48.85,73.44,47.79z"/>
			<path d="M76.75,43.02c0-0.39,0.3-0.65,0.71-0.65s0.71,0.26,0.71,0.65c0,0.38-0.3,0.65-0.71,0.65
				C77.06,43.67,76.75,43.4,76.75,43.02z M76.88,44.53h1.15v4.91h-1.15V44.53z"/>
			<path d="M79.18,46.99c0-1.64,1.11-2.58,2.33-2.58s2.33,0.94,2.33,2.58c0,1.63-1.11,2.57-2.33,2.57
				C80.29,49.56,79.18,48.62,79.18,46.99z M82.67,46.99c0-0.98-0.43-1.64-1.15-1.64s-1.15,0.66-1.15,1.64s0.43,1.63,1.15,1.63
				S82.67,47.98,82.67,46.99z"/>
			<path d="M84.99,44.53h0.94l0.09,0.66h0.03c0.44-0.43,0.94-0.78,1.61-0.78c1.05,0,1.51,0.71,1.51,1.95v3.08h-1.15v-2.93
				c0-0.81-0.23-1.11-0.76-1.11c-0.43,0-0.71,0.21-1.12,0.61v3.43h-1.15V44.53z"/>
			<path d="M30.81,59.93h-0.03l-0.1,0.52h-0.91v-7.06h1.15v1.83l-0.03,0.82c0.41-0.36,0.91-0.61,1.42-0.61
				c1.23,0,1.94,0.98,1.94,2.49c0,1.69-1,2.66-2.09,2.66C31.71,60.56,31.23,60.34,30.81,59.93z M33.06,57.92
				c0-0.98-0.32-1.56-1.07-1.56c-0.36,0-0.7,0.18-1.07,0.55v2.29c0.34,0.3,0.7,0.41,0.98,0.41C32.56,59.61,33.06,59.04,33.06,57.92z
				"/>
			<path d="M35.09,62.36l0.21-0.89c0.09,0.03,0.24,0.07,0.35,0.07c0.52,0,0.82-0.35,0.98-0.84l0.09-0.31l-1.93-4.85h1.17l0.85,2.4
				c0.15,0.44,0.29,0.92,0.43,1.39h0.04c0.12-0.46,0.25-0.94,0.38-1.39l0.73-2.41h1.11l-1.77,5.13c-0.41,1.11-0.92,1.79-1.99,1.79
				C35.46,62.46,35.27,62.42,35.09,62.36z"/>
			<path d="M42.22,54.02c0-0.39,0.3-0.65,0.71-0.65s0.71,0.26,0.71,0.65c0,0.38-0.3,0.65-0.71,0.65
				C42.53,54.67,42.22,54.4,42.22,54.02z M42.35,55.53h1.15v4.91h-1.15V55.53z"/>
			<path d="M44.97,55.53h0.94L46,56.19h0.03c0.44-0.43,0.94-0.78,1.61-0.78c1.05,0,1.51,0.71,1.51,1.95v3.08H48v-2.93
				c0-0.81-0.23-1.11-0.76-1.11c-0.43,0-0.72,0.21-1.12,0.61v3.43h-1.15L44.97,55.53L44.97,55.53z"/>
			<path d="M50.27,57.99c0-1.6,1-2.58,2.08-2.58c0.56,0,0.91,0.21,1.29,0.54l-0.04-0.79v-1.78h1.15v7.06h-0.94l-0.09-0.53h-0.03
				c-0.36,0.36-0.87,0.65-1.4,0.65C51.07,60.56,50.27,59.61,50.27,57.99z M53.6,59.06v-2.29c-0.34-0.3-0.67-0.41-1-0.41
				c-0.62,0-1.14,0.59-1.14,1.61c0,1.07,0.41,1.63,1.12,1.63C52.95,59.61,53.27,59.44,53.6,59.06z"/>
			<path d="M56.16,58.61v-3.08h1.15v2.93c0,0.81,0.23,1.11,0.76,1.11c0.43,0,0.72-0.2,1.09-0.68v-3.36h1.15v4.91h-0.94l-0.09-0.72
				h-0.03c-0.43,0.51-0.91,0.84-1.58,0.84C56.62,60.56,56.16,59.85,56.16,58.61z"/>
			<path d="M61.29,59.88l0.54-0.73c0.44,0.34,0.86,0.55,1.35,0.55c0.54,0,0.79-0.25,0.79-0.59c0-0.41-0.53-0.6-1.06-0.8
				c-0.64-0.24-1.38-0.61-1.38-1.43c0-0.85,0.69-1.47,1.79-1.47c0.68,0,1.23,0.28,1.63,0.59l-0.53,0.71
				c-0.34-0.25-0.69-0.43-1.08-0.43c-0.49,0-0.73,0.24-0.73,0.54c0,0.39,0.5,0.54,1.03,0.73c0.66,0.25,1.41,0.57,1.41,1.48
				c0,0.84-0.67,1.52-1.91,1.52C62.47,60.56,61.77,60.28,61.29,59.88z"/>
			<path d="M66.26,58.79v-2.34h-0.7v-0.86l0.76-0.05l0.14-1.34h0.96v1.34h1.25v0.92h-1.25v2.34c0,0.58,0.22,0.86,0.7,0.86
				c0.17,0,0.37-0.06,0.51-0.11l0.2,0.85c-0.27,0.09-0.61,0.18-1,0.18C66.68,60.56,66.26,59.85,66.26,58.79z"/>
			<path d="M69.69,55.53h0.94l0.09,0.88h0.03c0.35-0.64,0.87-1,1.39-1c0.25,0,0.41,0.03,0.56,0.1l-0.2,1
				c-0.17-0.05-0.3-0.08-0.5-0.08c-0.39,0-0.86,0.27-1.16,1.02v2.99h-1.15V55.53z"/>
			<path d="M73.11,62.36l0.21-0.89c0.09,0.03,0.24,0.07,0.35,0.07c0.52,0,0.82-0.35,0.98-0.84l0.09-0.31l-1.93-4.86h1.17l0.85,2.41
				c0.15,0.44,0.29,0.92,0.43,1.39h0.04c0.12-0.46,0.25-0.94,0.38-1.39l0.73-2.41h1.11l-1.77,5.13c-0.41,1.11-0.92,1.79-2,1.79
				C73.48,62.46,73.29,62.42,73.11,62.36z"/>
			<path d="M78.57,56.24l0.58-0.99l-1.02-0.45l0.19-0.59l1.09,0.25l0.11-1.13h0.63l0.11,1.13l1.09-0.25l0.19,0.59l-1.03,0.45
				l0.58,0.99l-0.51,0.37l-0.75-0.87l-0.76,0.87L78.57,56.24z"/>
		</g>
	</g>
	<g>
		<g>
			<path d="M29.53,71.58h1.31L32,74.77c0.14,0.42,0.28,0.86,0.42,1.28h0.04c0.14-0.43,0.27-0.87,0.41-1.28L34,71.58h1.31v6.54h-1.06
				v-2.99c0-0.6,0.09-1.47,0.15-2.08h-0.04l-0.53,1.52l-1.08,2.94h-0.69l-1.08-2.94l-0.52-1.52h-0.04c0.06,0.61,0.15,1.48,0.15,2.08
				v2.99h-1.04V71.58z"/>
			<path d="M36.62,76.8c0-1.05,0.87-1.6,2.89-1.81c-0.02-0.53-0.23-0.97-0.89-0.97c-0.49,0-0.95,0.22-1.38,0.48l-0.42-0.77
				c0.54-0.34,1.24-0.64,2.01-0.64c1.23,0,1.83,0.76,1.83,2.12v2.91h-0.94l-0.09-0.54H39.6c-0.44,0.38-0.94,0.66-1.52,0.66
				C37.21,78.24,36.62,77.65,36.62,76.8z M39.5,76.8v-1.1c-1.33,0.17-1.77,0.52-1.77,1.01c0,0.43,0.3,0.62,0.71,0.62
				C38.83,77.33,39.14,77.14,39.5,76.8z"/>
			<path d="M42.04,73.21h0.94l0.09,0.66h0.03c0.44-0.43,0.94-0.78,1.61-0.78c1.05,0,1.51,0.71,1.51,1.95v3.08h-1.15v-2.93
				c0-0.81-0.23-1.11-0.76-1.11c-0.43,0-0.72,0.21-1.12,0.61v3.43h-1.15L42.04,73.21L42.04,73.21z"/>
			<path d="M47.58,76.29v-3.08h1.15v2.93c0,0.81,0.23,1.11,0.76,1.11c0.43,0,0.72-0.2,1.09-0.68v-3.36h1.15v4.91h-0.94L50.7,77.4
				h-0.03c-0.43,0.51-0.91,0.84-1.58,0.84C48.04,78.24,47.58,77.53,47.58,76.29z"/>
			<path d="M52.74,73.26l0.72-0.05h2.05v0.92h-2.77V73.26z M53.4,72.7c0-1.02,0.47-1.76,1.63-1.76c0.36,0,0.68,0.08,0.9,0.17
				l-0.22,0.86c-0.18-0.08-0.36-0.12-0.53-0.12c-0.41,0-0.62,0.26-0.62,0.83v5.44h-1.15V72.7H53.4z"/>
			<path d="M56.11,76.8c0-1.05,0.87-1.6,2.89-1.81c-0.02-0.53-0.23-0.97-0.89-0.97c-0.49,0-0.95,0.22-1.38,0.48l-0.42-0.77
				c0.54-0.34,1.24-0.64,2.01-0.64c1.23,0,1.83,0.76,1.83,2.12v2.91h-0.94l-0.09-0.54h-0.03c-0.44,0.38-0.94,0.66-1.52,0.66
				C56.7,78.24,56.11,77.65,56.11,76.8z M58.99,76.8v-1.1c-1.33,0.17-1.77,0.52-1.77,1.01c0,0.43,0.3,0.62,0.71,0.62
				C58.32,77.33,58.63,77.14,58.99,76.8z"/>
			<path d="M61.21,75.67c0-1.64,1.16-2.58,2.46-2.58c0.62,0,1.08,0.24,1.44,0.55l-0.56,0.75c-0.26-0.23-0.51-0.36-0.82-0.36
				c-0.79,0-1.34,0.66-1.34,1.64s0.54,1.63,1.3,1.63c0.38,0,0.74-0.19,1.02-0.42l0.47,0.76c-0.46,0.41-1.04,0.6-1.6,0.6
				C62.23,78.24,61.21,77.29,61.21,75.67z"/>
			<path d="M66.32,76.46v-2.34h-0.7v-0.86l0.76-0.05l0.14-1.34h0.96v1.34h1.25v0.92h-1.25v2.34c0,0.58,0.22,0.86,0.7,0.86
				c0.17,0,0.37-0.06,0.51-0.11l0.2,0.85c-0.27,0.09-0.61,0.18-1,0.18C66.74,78.24,66.32,77.52,66.32,76.46z"/>
			<path d="M69.7,76.29v-3.08h1.15v2.93c0,0.81,0.23,1.11,0.76,1.11c0.43,0,0.72-0.2,1.09-0.68v-3.36h1.15v4.91h-0.94l-0.09-0.72
				h-0.03c-0.43,0.51-0.91,0.84-1.58,0.84C70.16,78.24,69.7,77.53,69.7,76.29z"/>
			<path d="M75.32,73.21h0.94l0.09,0.88h0.03c0.35-0.64,0.87-1,1.4-1c0.25,0,0.41,0.03,0.56,0.1l-0.2,1
				c-0.17-0.05-0.3-0.08-0.5-0.08c-0.39,0-0.86,0.27-1.16,1.02v2.99h-1.15L75.32,73.21L75.32,73.21z"/>
			<path d="M78.92,71.7c0-0.39,0.3-0.65,0.71-0.65s0.71,0.26,0.71,0.65c0,0.38-0.3,0.65-0.71,0.65
				C79.22,72.35,78.92,72.08,78.92,71.7z M79.05,73.21h1.15v4.91h-1.15V73.21z"/>
			<path d="M81.67,73.21h0.94l0.09,0.66h0.03c0.44-0.43,0.94-0.78,1.61-0.78c1.05,0,1.51,0.71,1.51,1.95v3.08H84.7v-2.93
				c0-0.81-0.23-1.11-0.76-1.11c-0.43,0-0.71,0.21-1.12,0.61v3.43h-1.15V73.21z"/>
			<path d="M86.93,79.01c0-0.41,0.26-0.78,0.71-1.05v-0.04c-0.25-0.16-0.44-0.42-0.44-0.82c0-0.38,0.26-0.72,0.54-0.92v-0.04
				c-0.34-0.25-0.65-0.72-0.65-1.3c0-1.13,0.91-1.76,1.94-1.76c0.27,0,0.53,0.05,0.73,0.12h1.75v0.86h-0.9
				c0.16,0.18,0.28,0.49,0.28,0.82c0,1.09-0.83,1.68-1.87,1.68c-0.21,0-0.44-0.04-0.66-0.13c-0.15,0.13-0.24,0.25-0.24,0.47
				c0,0.28,0.2,0.44,0.8,0.44h0.87c1.17,0,1.8,0.36,1.8,1.21c0,0.97-1.02,1.73-2.62,1.73C87.81,80.29,86.93,79.87,86.93,79.01z
				 M90.48,78.75c0-0.38-0.3-0.49-0.87-0.49h-0.67c-0.26,0-0.48-0.02-0.66-0.07c-0.26,0.2-0.38,0.42-0.38,0.65
				c0,0.45,0.48,0.71,1.25,0.71C89.94,79.54,90.48,79.17,90.48,78.75z M89.88,74.85c0-0.62-0.37-0.97-0.85-0.97
				s-0.85,0.35-0.85,0.97s0.38,0.99,0.85,0.99S89.88,75.48,89.88,74.85z"/>
		</g>
	</g>
	<g>
		<g>
			<path d="M29.12,117.56h3.95v0.98h-2.79v1.85h2.38v0.98h-2.38v2.73h-1.16V117.56z"/>
			<path d="M33.99,117.67c0-0.39,0.3-0.65,0.71-0.65s0.71,0.26,0.71,0.65c0,0.38-0.3,0.65-0.71,0.65
				C34.3,118.32,33.99,118.05,33.99,117.67z M34.12,119.18h1.15v4.91h-1.15V119.18z"/>
			<path d="M36.74,119.18h0.94l0.09,0.66h0.04c0.44-0.43,0.94-0.78,1.61-0.78c1.05,0,1.51,0.71,1.51,1.95v3.08h-1.15v-2.93
				c0-0.81-0.23-1.11-0.76-1.11c-0.43,0-0.72,0.21-1.12,0.61v3.43h-1.15v-4.91H36.74z"/>
			<path d="M42.08,122.77c0-1.05,0.87-1.6,2.89-1.81c-0.02-0.53-0.23-0.97-0.89-0.97c-0.49,0-0.95,0.22-1.38,0.48l-0.42-0.77
				c0.54-0.34,1.24-0.64,2.01-0.64c1.23,0,1.83,0.76,1.83,2.12v2.91h-0.94l-0.09-0.54h-0.03c-0.44,0.38-0.94,0.66-1.52,0.66
				C42.67,124.21,42.08,123.63,42.08,122.77z M44.97,122.78v-1.1c-1.33,0.17-1.77,0.52-1.77,1.01c0,0.43,0.3,0.62,0.71,0.62
				C44.3,123.31,44.6,123.11,44.97,122.78z"/>
			<path d="M47.5,119.18h0.94l0.09,0.66h0.03c0.44-0.43,0.94-0.78,1.61-0.78c1.05,0,1.51,0.71,1.51,1.95v3.08h-1.15v-2.93
				c0-0.81-0.23-1.11-0.76-1.11c-0.43,0-0.72,0.21-1.12,0.61v3.43H47.5L47.5,119.18L47.5,119.18z"/>
			<path d="M52.78,121.64c0-1.64,1.16-2.58,2.46-2.58c0.62,0,1.08,0.24,1.44,0.55l-0.56,0.75c-0.26-0.23-0.51-0.36-0.82-0.36
				c-0.79,0-1.34,0.66-1.34,1.64s0.54,1.63,1.3,1.63c0.38,0,0.74-0.19,1.02-0.42l0.47,0.76c-0.46,0.41-1.04,0.6-1.6,0.6
				C53.81,124.21,52.78,123.27,52.78,121.64z"/>
			<path d="M57.4,121.64c0-1.6,1.11-2.58,2.26-2.58c1.33,0,2.03,0.96,2.03,2.33c0,0.22-0.02,0.44-0.05,0.56h-3.12
				c0.1,0.87,0.66,1.37,1.45,1.37c0.42,0,0.78-0.13,1.14-0.36l0.39,0.72c-0.47,0.32-1.06,0.53-1.68,0.53
				C58.46,124.21,57.4,123.26,57.4,121.64z M60.69,121.17c0-0.76-0.34-1.22-1.01-1.22c-0.57,0-1.08,0.43-1.18,1.22H60.69z"/>
		</g>
	</g>
	<g>
		<g>
			<path d="M29.12,133.61h2.2c1.36,0,2.41,0.48,2.41,1.94c0,1.41-1.05,2.04-2.41,2.04h-1.04v2.55h-1.16V133.61z M31.21,136.66
				c0.9,0,1.38-0.37,1.38-1.12s-0.49-1.01-1.38-1.01h-0.92v2.13L31.21,136.66L31.21,136.66z M31.11,137.28l0.84-0.69l2.04,3.56h-1.3
				L31.11,137.28z"/>
			<path d="M34.62,137.69c0-1.6,1.11-2.58,2.26-2.58c1.33,0,2.03,0.96,2.03,2.33c0,0.22-0.02,0.44-0.05,0.56h-3.12
				c0.1,0.87,0.66,1.37,1.45,1.37c0.42,0,0.78-0.13,1.14-0.36l0.39,0.72c-0.47,0.32-1.06,0.53-1.68,0.53
				C35.68,140.26,34.62,139.31,34.62,137.69z M37.91,137.22c0-0.76-0.34-1.22-1.01-1.22c-0.57,0-1.08,0.43-1.18,1.22H37.91z"/>
			<path d="M40.19,138.49v-2.34h-0.7v-0.86l0.76-0.05l0.14-1.34h0.96v1.34h1.25v0.92h-1.25v2.34c0,0.58,0.22,0.86,0.7,0.86
				c0.17,0,0.37-0.06,0.51-0.11l0.2,0.85c-0.27,0.09-0.61,0.18-1,0.18C40.61,140.26,40.19,139.55,40.19,138.49z"/>
			<path d="M43.36,138.82c0-1.05,0.87-1.6,2.89-1.81c-0.02-0.53-0.23-0.97-0.89-0.97c-0.49,0-0.95,0.22-1.38,0.48l-0.42-0.77
				c0.54-0.34,1.24-0.64,2.01-0.64c1.23,0,1.83,0.76,1.83,2.12v2.91h-0.94l-0.09-0.54h-0.03c-0.44,0.38-0.94,0.66-1.52,0.66
				C43.95,140.26,43.36,139.68,43.36,138.82z M46.25,138.83v-1.1c-1.33,0.17-1.77,0.52-1.77,1.01c0,0.43,0.3,0.62,0.71,0.62
				C45.58,139.36,45.88,139.16,46.25,138.83z"/>
			<path d="M48.65,133.72c0-0.39,0.3-0.65,0.71-0.65s0.71,0.26,0.71,0.65c0,0.38-0.3,0.65-0.71,0.65
				C48.96,134.37,48.65,134.1,48.65,133.72z M48.78,135.23h1.15v4.91h-1.15V135.23z"/>
			<path d="M51.4,138.88v-5.8h1.15v5.86c0,0.28,0.13,0.38,0.25,0.38c0.05,0,0.09,0,0.18-0.02l0.14,0.86
				c-0.14,0.06-0.33,0.1-0.61,0.1C51.7,140.26,51.4,139.74,51.4,138.88z"/>
			<path d="M56.29,138.49v-2.34h-0.7v-0.86l0.76-0.05l0.14-1.34h0.96v1.34h1.25v0.92h-1.25v2.34c0,0.58,0.22,0.86,0.7,0.86
				c0.17,0,0.37-0.06,0.51-0.11l0.2,0.85c-0.27,0.09-0.61,0.18-1,0.18C56.71,140.26,56.29,139.55,56.29,138.49z"/>
			<path d="M59.72,135.23h0.94l0.09,0.88h0.03c0.35-0.64,0.87-1,1.4-1c0.25,0,0.41,0.03,0.56,0.1l-0.2,1
				c-0.17-0.05-0.3-0.08-0.5-0.08c-0.39,0-0.86,0.27-1.16,1.02v2.99h-1.15L59.72,135.23L59.72,135.23z"/>
			<path d="M63.19,138.82c0-1.05,0.87-1.6,2.89-1.81c-0.02-0.53-0.23-0.97-0.89-0.97c-0.49,0-0.95,0.22-1.38,0.48l-0.42-0.77
				c0.54-0.34,1.24-0.64,2.01-0.64c1.23,0,1.83,0.76,1.83,2.12v2.91h-0.94l-0.09-0.54h-0.03c-0.44,0.38-0.94,0.66-1.52,0.66
				C63.78,140.26,63.19,139.68,63.19,138.82z M66.08,138.83v-1.1c-1.33,0.17-1.77,0.52-1.77,1.01c0,0.43,0.3,0.62,0.71,0.62
				C65.41,139.36,65.71,139.16,66.08,138.83z"/>
			<path d="M68.31,137.69c0-1.6,1-2.58,2.08-2.58c0.56,0,0.91,0.21,1.29,0.54l-0.04-0.79v-1.78h1.15v7.06h-0.94l-0.09-0.53h-0.03
				c-0.36,0.36-0.87,0.65-1.4,0.65C69.11,140.26,68.31,139.31,68.31,137.69z M71.64,138.76v-2.29c-0.34-0.3-0.67-0.41-1-0.41
				c-0.62,0-1.14,0.59-1.14,1.61c0,1.07,0.41,1.63,1.12,1.63C70.99,139.31,71.31,139.14,71.64,138.76z"/>
			<path d="M73.93,137.69c0-1.6,1.11-2.58,2.26-2.58c1.33,0,2.03,0.96,2.03,2.33c0,0.22-0.02,0.44-0.05,0.56h-3.12
				c0.1,0.87,0.66,1.37,1.45,1.37c0.42,0,0.78-0.13,1.14-0.36l0.39,0.72c-0.47,0.32-1.06,0.53-1.68,0.53
				C74.99,140.26,73.93,139.31,73.93,137.69z M77.22,137.22c0-0.76-0.34-1.22-1.01-1.22c-0.57,0-1.08,0.43-1.17,1.22H77.22z"/>
		</g>
	</g>
	<g>
		<g>
			<path d="M28.47,151.26h1.19l0.57,3.3c0.11,0.7,0.22,1.39,0.32,2.09h0.04c0.14-0.7,0.28-1.4,0.42-2.09l0.8-3.3h1.01l0.8,3.3
				c0.14,0.68,0.29,1.39,0.43,2.09h0.04c0.11-0.7,0.21-1.4,0.32-2.09l0.57-3.3h1.11l-1.26,6.54h-1.44l-0.81-3.44
				c-0.11-0.51-0.2-1.01-0.29-1.5h-0.04c-0.09,0.5-0.19,1-0.3,1.5l-0.79,3.44h-1.41L28.47,151.26z"/>
			<path d="M37.02,150.74h1.15v1.83l-0.05,0.95c0.41-0.39,0.9-0.74,1.57-0.74c1.05,0,1.51,0.71,1.51,1.95v3.08h-1.15v-2.93
				c0-0.81-0.23-1.11-0.76-1.11c-0.43,0-0.72,0.21-1.12,0.61v3.43h-1.15L37.02,150.74L37.02,150.74z"/>
			<path d="M42.28,155.35c0-1.64,1.11-2.58,2.33-2.58s2.33,0.94,2.33,2.58c0,1.63-1.11,2.57-2.33,2.57
				C43.39,157.92,42.28,156.98,42.28,155.35z M45.77,155.35c0-0.98-0.43-1.64-1.15-1.64s-1.15,0.66-1.15,1.64s0.43,1.63,1.15,1.63
				C45.33,156.98,45.77,156.33,45.77,155.35z"/>
			<path d="M48.09,156.54v-5.8h1.15v5.86c0,0.28,0.13,0.38,0.25,0.38c0.05,0,0.09,0,0.18-0.02l0.14,0.86
				c-0.14,0.06-0.33,0.1-0.61,0.1C48.39,157.92,48.09,157.39,48.09,156.54z"/>
			<path d="M50.48,155.35c0-1.6,1.11-2.58,2.26-2.58c1.33,0,2.03,0.96,2.03,2.33c0,0.22-0.02,0.44-0.05,0.56H51.6
				c0.1,0.87,0.66,1.37,1.45,1.37c0.42,0,0.78-0.13,1.14-0.36l0.39,0.72c-0.47,0.32-1.06,0.53-1.68,0.53
				C51.54,157.92,50.48,156.97,50.48,155.35z M53.77,154.88c0-0.76-0.34-1.22-1.01-1.22c-0.57,0-1.08,0.43-1.18,1.22H53.77z"/>
			<path d="M55.39,157.24l0.54-0.73c0.44,0.34,0.86,0.55,1.35,0.55c0.54,0,0.79-0.25,0.79-0.59c0-0.41-0.53-0.6-1.06-0.8
				c-0.64-0.24-1.38-0.61-1.38-1.43c0-0.85,0.69-1.47,1.79-1.47c0.68,0,1.23,0.28,1.63,0.59l-0.53,0.71
				c-0.34-0.25-0.69-0.43-1.08-0.43c-0.49,0-0.73,0.24-0.73,0.54c0,0.39,0.5,0.54,1.03,0.73c0.66,0.25,1.41,0.57,1.41,1.48
				c0,0.84-0.67,1.52-1.91,1.52C56.57,157.92,55.87,157.63,55.39,157.24z"/>
			<path d="M59.92,156.48c0-1.05,0.87-1.6,2.89-1.81c-0.02-0.53-0.23-0.97-0.89-0.97c-0.49,0-0.95,0.22-1.38,0.48l-0.42-0.77
				c0.54-0.34,1.24-0.64,2.01-0.64c1.23,0,1.83,0.76,1.83,2.12v2.91h-0.94l-0.09-0.54H62.9c-0.44,0.38-0.94,0.66-1.52,0.66
				C60.51,157.92,59.92,157.34,59.92,156.48z M62.81,156.48v-1.1c-1.33,0.17-1.77,0.52-1.77,1.01c0,0.43,0.3,0.62,0.71,0.62
				C62.14,157.02,62.44,156.82,62.81,156.48z"/>
			<path d="M65.34,156.54v-5.8h1.15v5.86c0,0.28,0.13,0.38,0.25,0.38c0.05,0,0.09,0,0.18-0.02l0.14,0.86
				c-0.14,0.06-0.33,0.1-0.61,0.1C65.64,157.92,65.34,157.39,65.34,156.54z"/>
			<path d="M67.73,155.35c0-1.6,1.11-2.58,2.26-2.58c1.33,0,2.03,0.96,2.03,2.33c0,0.22-0.02,0.44-0.05,0.56h-3.12
				c0.1,0.87,0.66,1.37,1.45,1.37c0.42,0,0.78-0.13,1.14-0.36l0.39,0.72c-0.47,0.32-1.06,0.53-1.68,0.53
				C68.79,157.92,67.73,156.97,67.73,155.35z M71.02,154.88c0-0.76-0.34-1.22-1.01-1.22c-0.57,0-1.08,0.43-1.18,1.22H71.02z"/>
			<path d="M75.3,156.14v-2.34h-0.7v-0.86l0.76-0.05l0.14-1.34h0.96v1.34h1.25v0.92h-1.25v2.34c0,0.58,0.22,0.86,0.7,0.86
				c0.17,0,0.37-0.06,0.51-0.11l0.2,0.85c-0.27,0.09-0.61,0.18-1,0.18C75.72,157.92,75.3,157.2,75.3,156.14z"/>
			<path d="M78.73,152.89h0.94l0.09,0.88h0.03c0.35-0.64,0.87-1,1.4-1c0.25,0,0.41,0.03,0.56,0.1l-0.2,1
				c-0.17-0.05-0.3-0.08-0.5-0.08c-0.39,0-0.86,0.27-1.16,1.02v2.99h-1.15L78.73,152.89L78.73,152.89z"/>
			<path d="M82.2,156.48c0-1.05,0.87-1.6,2.89-1.81c-0.02-0.53-0.23-0.97-0.89-0.97c-0.49,0-0.95,0.22-1.38,0.48l-0.42-0.77
				c0.54-0.34,1.24-0.64,2.02-0.64c1.23,0,1.83,0.76,1.83,2.12v2.91h-0.94l-0.09-0.54h-0.03c-0.44,0.38-0.94,0.66-1.52,0.66
				C82.79,157.92,82.2,157.34,82.2,156.48z M85.09,156.48v-1.1c-1.33,0.17-1.78,0.52-1.78,1.01c0,0.43,0.3,0.62,0.71,0.62
				C84.42,157.02,84.72,156.82,85.09,156.48z"/>
			<path d="M87.32,155.35c0-1.6,1-2.58,2.08-2.58c0.56,0,0.91,0.21,1.29,0.54l-0.04-0.79v-1.78h1.15v7.06h-0.94l-0.09-0.53h-0.03
				c-0.36,0.36-0.87,0.65-1.4,0.65C88.11,157.92,87.32,156.97,87.32,155.35z M90.64,156.42v-2.29c-0.34-0.3-0.67-0.41-1-0.41
				c-0.62,0-1.14,0.59-1.14,1.61c0,1.07,0.41,1.63,1.12,1.63C90,156.97,90.32,156.8,90.64,156.42z"/>
			<path d="M92.94,155.35c0-1.6,1.11-2.58,2.26-2.58c1.33,0,2.03,0.96,2.03,2.33c0,0.22-0.02,0.44-0.05,0.56h-3.12
				c0.1,0.87,0.66,1.37,1.45,1.37c0.42,0,0.78-0.13,1.14-0.36l0.39,0.72c-0.47,0.32-1.06,0.53-1.68,0.53
				C94,157.92,92.94,156.97,92.94,155.35z M96.23,154.88c0-0.76-0.34-1.22-1.01-1.22c-0.57,0-1.08,0.43-1.17,1.22H96.23z"/>
		</g>
	</g>
	<g>
		<g>
			<path d="M28.68,174.21l0.68-0.8c0.47,0.45,1.1,0.75,1.7,0.75c0.74,0,1.14-0.33,1.14-0.84c0-0.54-0.42-0.71-1.02-0.96l-0.89-0.39
				c-0.64-0.27-1.32-0.78-1.32-1.73c0-1.04,0.92-1.84,2.19-1.84c0.76,0,1.5,0.32,2.02,0.83l-0.6,0.74
				c-0.42-0.35-0.86-0.56-1.42-0.56c-0.62,0-1.02,0.29-1.02,0.77c0,0.51,0.5,0.7,1.04,0.93l0.88,0.37c0.78,0.32,1.32,0.82,1.32,1.76
				c0,1.06-0.88,1.94-2.35,1.94C30.15,175.17,29.3,174.82,28.68,174.21z"/>
			<path d="M34.15,172.6c0-1.6,1.11-2.58,2.26-2.58c1.33,0,2.03,0.96,2.03,2.33c0,0.22-0.02,0.44-0.05,0.56h-3.12
				c0.1,0.87,0.66,1.37,1.45,1.37c0.42,0,0.78-0.13,1.14-0.36l0.39,0.72c-0.47,0.32-1.06,0.53-1.68,0.53
				C35.21,175.17,34.15,174.22,34.15,172.6z M37.45,172.13c0-0.76-0.34-1.22-1.01-1.22c-0.57,0-1.08,0.43-1.18,1.22H37.45z"/>
			<path d="M39.54,170.14h0.94l0.09,0.88h0.03c0.35-0.64,0.87-1,1.4-1c0.25,0,0.41,0.03,0.56,0.1l-0.2,1
				c-0.17-0.05-0.3-0.08-0.5-0.08c-0.39,0-0.86,0.27-1.16,1.02v2.99h-1.15L39.54,170.14L39.54,170.14z"/>
			<path d="M42.66,170.14h1.17l0.78,2.55c0.14,0.48,0.28,0.99,0.42,1.48h0.04c0.14-0.49,0.28-1,0.42-1.48l0.78-2.55h1.11l-1.67,4.91
				h-1.33L42.66,170.14z"/>
			<path d="M48.09,168.63c0-0.39,0.3-0.65,0.71-0.65s0.71,0.26,0.71,0.65c0,0.38-0.3,0.65-0.71,0.65
				C48.4,169.28,48.09,169.01,48.09,168.63z M48.22,170.14h1.15v4.91h-1.15V170.14z"/>
			<path d="M50.52,172.6c0-1.64,1.16-2.58,2.46-2.58c0.62,0,1.08,0.24,1.44,0.55l-0.56,0.75c-0.26-0.23-0.51-0.36-0.82-0.36
				c-0.79,0-1.34,0.66-1.34,1.64s0.54,1.63,1.3,1.63c0.38,0,0.74-0.19,1.02-0.42l0.47,0.76c-0.46,0.41-1.04,0.6-1.6,0.6
				C51.55,175.17,50.52,174.22,50.52,172.6z"/>
			<path d="M55.14,172.6c0-1.6,1.11-2.58,2.26-2.58c1.33,0,2.03,0.96,2.03,2.33c0,0.22-0.02,0.44-0.05,0.56h-3.12
				c0.1,0.87,0.66,1.37,1.45,1.37c0.42,0,0.78-0.13,1.14-0.36l0.39,0.72c-0.47,0.32-1.06,0.53-1.68,0.53
				C56.2,175.17,55.14,174.22,55.14,172.6z M58.43,172.13c0-0.76-0.34-1.22-1.01-1.22c-0.57,0-1.08,0.43-1.18,1.22H58.43z"/>
		</g>
	</g>
	<g>
		<g>
			<path d="M81.86,188.99h1.31l1.16,3.19c0.14,0.42,0.28,0.86,0.42,1.28h0.04c0.14-0.43,0.27-0.87,0.41-1.28l1.13-3.19h1.31v6.54
				h-1.06v-2.99c0-0.6,0.09-1.47,0.15-2.08h-0.04l-0.53,1.52l-1.08,2.94h-0.69l-1.08-2.94l-0.52-1.52h-0.04
				c0.06,0.61,0.15,1.48,0.15,2.08v2.99h-1.04L81.86,188.99L81.86,188.99z"/>
			<path d="M88.89,193.07c0-1.64,1.11-2.58,2.33-2.58s2.33,0.94,2.33,2.58c0,1.63-1.11,2.57-2.33,2.57S88.89,194.7,88.89,193.07z
				 M92.38,193.07c0-0.98-0.43-1.64-1.15-1.64s-1.15,0.66-1.15,1.64s0.43,1.63,1.15,1.63S92.38,194.06,92.38,193.07z"/>
			<path d="M94.7,190.61h0.94l0.09,0.66h0.03c0.44-0.43,0.94-0.78,1.61-0.78c1.05,0,1.51,0.71,1.51,1.95v3.08h-1.15v-2.93
				c0-0.81-0.23-1.11-0.76-1.11c-0.43,0-0.72,0.21-1.12,0.61v3.43H94.7V190.61z"/>
			<path d="M99.98,193.07c0-1.64,1.11-2.58,2.33-2.58s2.33,0.94,2.33,2.58c0,1.63-1.11,2.57-2.33,2.57S99.98,194.7,99.98,193.07z
				 M103.47,193.07c0-0.98-0.43-1.64-1.15-1.64s-1.15,0.66-1.15,1.64s0.43,1.63,1.15,1.63S103.47,194.06,103.47,193.07z"/>
			<path d="M105.79,190.61h0.94l0.09,0.52h0.03c0.41-0.36,0.94-0.64,1.48-0.64c1.23,0,1.93,0.98,1.93,2.5c0,1.68-1,2.65-2.09,2.65
				c-0.44,0-0.86-0.2-1.26-0.54l0.04,0.82v1.55h-1.15v-6.86H105.79z M109.09,193c0-0.98-0.32-1.56-1.07-1.56
				c-0.36,0-0.69,0.18-1.07,0.55v2.29c0.35,0.3,0.7,0.41,0.98,0.41C108.59,194.69,109.09,194.12,109.09,193z"/>
			<path d="M111.11,193.07c0-1.64,1.11-2.58,2.33-2.58s2.33,0.94,2.33,2.58c0,1.63-1.11,2.57-2.33,2.57S111.11,194.7,111.11,193.07z
				 M114.6,193.07c0-0.98-0.43-1.64-1.15-1.64s-1.15,0.66-1.15,1.64s0.43,1.63,1.15,1.63S114.6,194.06,114.6,193.07z"/>
			<path d="M116.92,194.26v-5.8h1.15v5.86c0,0.28,0.13,0.38,0.25,0.38c0.05,0,0.09,0,0.18-0.02l0.14,0.86
				c-0.14,0.06-0.33,0.1-0.61,0.1C117.22,195.64,116.92,195.12,116.92,194.26z"/>
			<path d="M119.32,197.44l0.21-0.89c0.09,0.03,0.24,0.07,0.35,0.07c0.52,0,0.82-0.35,0.98-0.84l0.09-0.31l-1.93-4.85h1.17
				l0.85,2.41c0.15,0.44,0.29,0.92,0.43,1.39h0.04c0.12-0.46,0.25-0.94,0.38-1.39l0.73-2.41h1.11l-1.78,5.13
				c-0.41,1.11-0.92,1.79-2,1.79C119.69,197.54,119.5,197.5,119.32,197.44z"/>
		</g>
	</g>
	<g>
		<g>
			<path d="M54.1,393.06h3.95v0.98h-2.79v1.86h2.38v0.98h-2.38v2.73H54.1V393.06z"/>
			<path d="M59.04,397.77v-3.08h1.15v2.93c0,0.81,0.23,1.11,0.76,1.11c0.43,0,0.72-0.2,1.09-0.68v-3.36h1.15v4.91h-0.94l-0.09-0.72
				h-0.03c-0.43,0.51-0.91,0.84-1.58,0.84C59.5,399.72,59.04,399.01,59.04,397.77z"/>
			<path d="M64.66,398.34v-5.8h1.15v5.86c0,0.28,0.13,0.38,0.25,0.38c0.05,0,0.09,0,0.18-0.02l0.14,0.86
				c-0.14,0.06-0.33,0.1-0.61,0.1C64.96,399.72,64.66,399.19,64.66,398.34z"/>
			<path d="M67.37,398.34v-5.8h1.15v5.86c0,0.28,0.13,0.38,0.25,0.38c0.05,0,0.09,0,0.18-0.02l0.14,0.86
				c-0.14,0.06-0.33,0.1-0.61,0.1C67.66,399.72,67.37,399.19,67.37,398.34z"/>
			<path d="M71.75,397.15c0-1.63,1.16-2.58,2.46-2.58c0.62,0,1.08,0.24,1.43,0.55l-0.56,0.75c-0.26-0.23-0.51-0.36-0.82-0.36
				c-0.79,0-1.34,0.66-1.34,1.64s0.54,1.63,1.3,1.63c0.38,0,0.74-0.19,1.02-0.42l0.47,0.76c-0.46,0.41-1.04,0.6-1.6,0.6
				C72.78,399.72,71.75,398.78,71.75,397.15z"/>
			<path d="M76.37,397.15c0-1.63,1.11-2.58,2.33-2.58s2.33,0.94,2.33,2.58c0,1.63-1.11,2.57-2.33,2.57S76.37,398.78,76.37,397.15z
				 M79.86,397.15c0-0.98-0.43-1.64-1.15-1.64s-1.15,0.66-1.15,1.64s0.43,1.63,1.15,1.63S79.86,398.13,79.86,397.15z"/>
			<path d="M82.18,394.69h0.94l0.09,0.67h0.03c0.42-0.43,0.89-0.79,1.51-0.79c0.72,0,1.13,0.33,1.35,0.88
				c0.47-0.5,0.96-0.88,1.58-0.88c1.04,0,1.52,0.71,1.52,1.95v3.08h-1.15v-2.93c0-0.81-0.24-1.11-0.76-1.11
				c-0.31,0-0.65,0.2-1.03,0.61v3.43h-1.15v-2.93c0-0.81-0.24-1.11-0.76-1.11c-0.3,0-0.65,0.2-1.03,0.61v3.43h-1.15v-4.91H82.18z"/>
			<path d="M90.61,394.69h0.94l0.09,0.52h0.03c0.41-0.36,0.94-0.64,1.48-0.64c1.23,0,1.93,0.98,1.93,2.5c0,1.68-1,2.65-2.09,2.65
				c-0.44,0-0.86-0.2-1.26-0.54l0.04,0.82v1.55h-1.15v-6.86H90.61z M93.9,397.08c0-0.98-0.32-1.56-1.07-1.56
				c-0.36,0-0.69,0.18-1.07,0.55v2.29c0.35,0.3,0.7,0.41,0.98,0.41C93.4,398.77,93.9,398.19,93.9,397.08z"/>
			<path d="M95.93,397.15c0-1.59,1.11-2.58,2.26-2.58c1.33,0,2.03,0.96,2.03,2.33c0,0.22-0.02,0.44-0.05,0.56h-3.12
				c0.1,0.87,0.66,1.37,1.45,1.37c0.42,0,0.78-0.13,1.14-0.36l0.39,0.72c-0.47,0.32-1.06,0.53-1.68,0.53
				C96.99,399.72,95.93,398.77,95.93,397.15z M99.23,396.68c0-0.75-0.34-1.21-1.01-1.21c-0.57,0-1.08,0.43-1.17,1.21H99.23z"/>
			<path d="M101.5,397.94v-2.34h-0.7v-0.86l0.76-0.05l0.14-1.34h0.96v1.34h1.25v0.92h-1.25v2.34c0,0.58,0.22,0.86,0.7,0.86
				c0.17,0,0.37-0.06,0.51-0.11l0.2,0.85c-0.27,0.09-0.61,0.18-1,0.18C101.92,399.72,101.5,399,101.5,397.94z"/>
			<path d="M104.8,393.18c0-0.39,0.3-0.65,0.71-0.65s0.71,0.26,0.71,0.65c0,0.38-0.3,0.65-0.71,0.65
				C105.11,393.83,104.8,393.56,104.8,393.18z M104.93,394.69h1.15v4.91h-1.15V394.69z"/>
			<path d="M107.73,397.94v-2.34h-0.7v-0.86l0.76-0.05l0.14-1.34h0.96v1.34h1.25v0.92h-1.25v2.34c0,0.58,0.22,0.86,0.7,0.86
				c0.17,0,0.37-0.06,0.51-0.11l0.2,0.85c-0.27,0.09-0.61,0.18-1,0.18C108.15,399.72,107.73,399,107.73,397.94z"/>
			<path d="M111.03,393.18c0-0.39,0.3-0.65,0.71-0.65s0.71,0.26,0.71,0.65c0,0.38-0.3,0.65-0.71,0.65
				C111.34,393.83,111.03,393.56,111.03,393.18z M111.16,394.69h1.15v4.91h-1.15V394.69z"/>
			<path d="M113.46,397.15c0-1.63,1.11-2.58,2.33-2.58s2.33,0.94,2.33,2.58c0,1.63-1.11,2.57-2.33,2.57
				C114.57,399.72,113.46,398.78,113.46,397.15z M116.95,397.15c0-0.98-0.43-1.64-1.15-1.64s-1.15,0.66-1.15,1.64
				s0.43,1.63,1.15,1.63S116.95,398.13,116.95,397.15z"/>
			<path d="M119.27,394.69h0.94l0.09,0.66h0.03c0.44-0.43,0.94-0.78,1.61-0.78c1.05,0,1.51,0.71,1.51,1.95v3.08h-1.15v-2.93
				c0-0.81-0.23-1.11-0.76-1.11c-0.43,0-0.71,0.21-1.12,0.61v3.43h-1.15V394.69z"/>
		</g>
	</g>
	<g>
		<g>
			<path d="M18.66,419.34h1.42v-4.17H18.9v-0.72c0.63-0.12,1.07-0.28,1.47-0.52h0.86v5.42h1.25v0.94h-3.83L18.66,419.34
				L18.66,419.34z"/>
			<path d="M23.52,419.68l0.62-0.7c0.24,0.28,0.63,0.48,1.02,0.48c0.83,0,1.5-0.64,1.5-2.55c0-1.57-0.5-2.23-1.22-2.23
				c-0.53,0-0.95,0.43-0.95,1.21c0,0.75,0.37,1.14,1,1.14c0.37,0,0.81-0.22,1.18-0.79l0.05,0.81c-0.36,0.51-0.96,0.81-1.44,0.81
				c-1.1,0-1.85-0.64-1.85-1.97c0-1.27,0.91-2.09,2-2.09c1.24,0,2.3,0.97,2.3,3.11c0,2.47-1.2,3.49-2.5,3.49
				C24.46,420.4,23.9,420.08,23.52,419.68z"/>
			<path d="M28.59,418.65c0-0.8,0.54-1.32,1.14-1.64v-0.04c-0.48-0.35-0.87-0.82-0.87-1.48c0-1.03,0.82-1.7,1.92-1.7
				c1.14,0,1.87,0.7,1.87,1.72c0,0.63-0.44,1.17-0.85,1.46v0.04c0.59,0.33,1.1,0.8,1.1,1.65c0,0.98-0.86,1.73-2.15,1.73
				C29.51,420.4,28.59,419.68,28.59,418.65z M31.82,418.63c0-0.69-0.67-0.94-1.53-1.3c-0.39,0.29-0.69,0.71-0.69,1.2
				c0,0.63,0.51,1.05,1.17,1.05C31.38,419.58,31.82,419.22,31.82,418.63z M31.7,415.59c0-0.56-0.34-0.97-0.94-0.97
				c-0.49,0-0.87,0.32-0.87,0.88c0,0.63,0.57,0.92,1.28,1.2C31.51,416.35,31.7,415.99,31.7,415.59z"/>
			<path d="M33.69,419.61c1.76-1.71,2.87-2.83,2.87-3.8c0-0.67-0.37-1.09-1.05-1.09c-0.49,0-0.9,0.32-1.24,0.7l-0.64-0.63
				c0.58-0.63,1.16-0.99,2.03-0.99c1.22,0,2.01,0.77,2.01,1.95c0,1.13-1.05,2.29-2.31,3.62c0.34-0.03,0.76-0.06,1.07-0.06h1.56v0.98
				H33.7L33.69,419.61L33.69,419.61z"/>
		</g>
	</g>
	<g>
		<g>
			<path d="M82.25,419.49c1.76-1.71,2.88-2.83,2.88-3.8c0-0.67-0.37-1.1-1.05-1.1c-0.49,0-0.9,0.32-1.24,0.7l-0.64-0.63
				c0.58-0.63,1.16-0.99,2.03-0.99c1.21,0,2.01,0.77,2.01,1.95c0,1.13-1.05,2.29-2.32,3.62c0.34-0.03,0.76-0.06,1.07-0.06h1.56v0.98
				h-4.29v-0.67H82.25z"/>
			<path d="M87.4,416.95c0-2.15,0.84-3.27,2.16-3.27s2.16,1.13,2.16,3.27c0,2.15-0.84,3.33-2.16,3.33S87.4,419.1,87.4,416.95z
				 M90.62,416.95c0-1.8-0.44-2.37-1.06-2.37s-1.06,0.57-1.06,2.37s0.44,2.42,1.06,2.42C90.17,419.38,90.62,418.75,90.62,416.95z"/>
			<path d="M92.86,419.22h1.42v-4.17H93.1v-0.72c0.63-0.12,1.07-0.28,1.47-0.52h0.86v5.42h1.25v0.94h-3.83L92.86,419.22
				L92.86,419.22z"/>
			<path d="M97.64,419.49c1.76-1.71,2.88-2.83,2.88-3.8c0-0.67-0.37-1.1-1.05-1.1c-0.49,0-0.9,0.32-1.24,0.7l-0.64-0.63
				c0.58-0.63,1.16-0.99,2.03-0.99c1.21,0,2.01,0.77,2.01,1.95c0,1.13-1.05,2.29-2.32,3.62c0.34-0.03,0.76-0.06,1.07-0.06h1.56v0.98
				h-4.29v-0.67H97.64z"/>
		</g>
	</g>
	<g>
		<g>
			<path d="M28.89,92.73v-3.67h1.16v3.76c0,1.42,0.53,1.89,1.32,1.89c0.8,0,1.35-0.47,1.35-1.89v-3.76h1.12v3.67
				c0,2.15-0.95,2.99-2.47,2.99C29.85,95.72,28.89,94.88,28.89,92.73z"/>
			<path d="M35.54,93.94V91.6h-0.7v-0.86l0.76-0.05l0.14-1.34h0.96v1.34h1.25v0.92H36.7v2.34c0,0.58,0.22,0.86,0.7,0.86
				c0.17,0,0.37-0.06,0.51-0.11l0.2,0.85c-0.27,0.09-0.61,0.18-1,0.18C35.96,95.72,35.54,95,35.54,93.94z"/>
			<path d="M38.85,89.17c0-0.39,0.3-0.65,0.71-0.65s0.71,0.26,0.71,0.65c0,0.38-0.3,0.65-0.71,0.65
				C39.15,89.83,38.85,89.55,38.85,89.17z M38.98,90.69h1.15v4.91h-1.15V90.69z"/>
			<path d="M41.77,93.94V91.6h-0.7v-0.86l0.76-0.05l0.14-1.34h0.96v1.34h1.25v0.92h-1.25v2.34c0,0.58,0.22,0.86,0.7,0.86
				c0.17,0,0.37-0.06,0.51-0.11l0.2,0.85c-0.27,0.09-0.61,0.18-1,0.18C42.19,95.72,41.77,95,41.77,93.94z"/>
			<path d="M45.21,94.33v-5.8h1.15v5.86c0,0.28,0.13,0.38,0.25,0.38c0.05,0,0.09,0,0.18-0.02l0.14,0.86
				c-0.14,0.06-0.33,0.1-0.61,0.1C45.51,95.72,45.21,95.19,45.21,94.33z"/>
			<path d="M47.79,89.17c0-0.39,0.3-0.65,0.71-0.65s0.71,0.26,0.71,0.65c0,0.38-0.3,0.65-0.71,0.65
				C48.09,89.83,47.79,89.55,47.79,89.17z M47.92,90.69h1.15v4.91h-1.15V90.69z"/>
			<path d="M50.71,93.94V91.6h-0.7v-0.86l0.76-0.05l0.14-1.34h0.96v1.34h1.25v0.92h-1.25v2.34c0,0.58,0.22,0.86,0.7,0.86
				c0.17,0,0.37-0.06,0.51-0.11l0.2,0.85c-0.27,0.09-0.61,0.18-1,0.18C51.13,95.72,50.71,95,50.71,93.94z"/>
			<path d="M54.02,89.17c0-0.39,0.3-0.65,0.71-0.65s0.71,0.26,0.71,0.65c0,0.38-0.3,0.65-0.71,0.65
				C54.32,89.83,54.02,89.55,54.02,89.17z M54.15,90.69h1.15v4.91h-1.15V90.69z"/>
			<path d="M56.45,93.14c0-1.6,1.11-2.58,2.26-2.58c1.33,0,2.03,0.96,2.03,2.33c0,0.22-0.02,0.44-0.05,0.56h-3.12
				c0.1,0.87,0.66,1.37,1.45,1.37c0.42,0,0.78-0.13,1.14-0.36l0.39,0.72c-0.47,0.32-1.06,0.53-1.68,0.53
				C57.51,95.72,56.45,94.76,56.45,93.14z M59.74,92.67c0-0.76-0.34-1.22-1.01-1.22c-0.57,0-1.08,0.43-1.18,1.22H59.74z"/>
			<path d="M61.35,95.03l0.54-0.73c0.44,0.34,0.86,0.55,1.35,0.55c0.54,0,0.79-0.25,0.79-0.59c0-0.41-0.53-0.6-1.06-0.8
				c-0.64-0.24-1.38-0.61-1.38-1.43c0-0.85,0.69-1.47,1.79-1.47c0.68,0,1.23,0.28,1.63,0.59l-0.53,0.71
				c-0.34-0.25-0.69-0.43-1.08-0.43c-0.49,0-0.73,0.24-0.73,0.54c0,0.39,0.5,0.54,1.03,0.73c0.66,0.25,1.41,0.57,1.41,1.48
				c0,0.84-0.67,1.52-1.91,1.52C62.54,95.72,61.83,95.43,61.35,95.03z"/>
			<path d="M67.89,94.28c0-1.05,0.87-1.6,2.89-1.81c-0.02-0.53-0.23-0.97-0.89-0.97c-0.49,0-0.95,0.22-1.38,0.48l-0.42-0.77
				c0.54-0.34,1.24-0.64,2.01-0.64c1.23,0,1.83,0.76,1.83,2.12v2.91h-0.94l-0.09-0.54h-0.03c-0.44,0.38-0.94,0.66-1.52,0.66
				C68.48,95.72,67.89,95.13,67.89,94.28z M70.77,94.28v-1.1C69.44,93.35,69,93.7,69,94.19c0,0.43,0.3,0.62,0.71,0.62
				C70.1,94.81,70.41,94.62,70.77,94.28z"/>
			<path d="M73.31,90.69h0.94l0.09,0.66h0.03c0.44-0.43,0.94-0.78,1.61-0.78c1.05,0,1.51,0.71,1.51,1.95v3.08h-1.15v-2.93
				c0-0.81-0.23-1.11-0.76-1.11c-0.43,0-0.71,0.21-1.12,0.61v3.43h-1.15V90.69z"/>
			<path d="M78.61,93.14c0-1.6,1-2.58,2.08-2.58c0.56,0,0.91,0.21,1.29,0.54l-0.04-0.79v-1.78h1.15v7.06h-0.94l-0.09-0.53h-0.03
				c-0.36,0.36-0.87,0.65-1.4,0.65C79.4,95.72,78.61,94.76,78.61,93.14z M81.93,94.21v-2.29c-0.34-0.3-0.67-0.41-1-0.41
				c-0.62,0-1.14,0.59-1.14,1.61c0,1.07,0.41,1.63,1.12,1.63C81.29,94.76,81.61,94.6,81.93,94.21z"/>
			<path d="M28.99,104.94v-2.34h-0.7v-0.86l0.76-0.05l0.14-1.34h0.96v1.34h1.25v0.92h-1.25v2.34c0,0.58,0.22,0.86,0.7,0.86
				c0.17,0,0.37-0.06,0.51-0.11l0.2,0.85c-0.27,0.09-0.61,0.18-1,0.18C29.41,106.72,28.99,106,28.99,104.94z"/>
			<path d="M32.43,101.69h0.94l0.09,0.88h0.03c0.35-0.64,0.87-1,1.4-1c0.25,0,0.41,0.03,0.56,0.1l-0.2,1
				c-0.17-0.05-0.3-0.08-0.5-0.08c-0.39,0-0.86,0.27-1.16,1.02v2.99h-1.15L32.43,101.69L32.43,101.69z"/>
			<path d="M35.9,105.28c0-1.05,0.87-1.6,2.89-1.81c-0.02-0.53-0.23-0.97-0.89-0.97c-0.49,0-0.95,0.22-1.38,0.48l-0.42-0.77
				c0.54-0.34,1.24-0.64,2.01-0.64c1.23,0,1.83,0.76,1.83,2.12v2.91H39l-0.09-0.54h-0.03c-0.44,0.38-0.94,0.66-1.52,0.66
				C36.49,106.72,35.9,106.13,35.9,105.28z M38.78,105.28v-1.1c-1.33,0.17-1.77,0.52-1.77,1.01c0,0.43,0.3,0.62,0.71,0.62
				C38.12,105.81,38.42,105.62,38.78,105.28z"/>
			<path d="M41.32,101.69h0.94l0.09,0.66h0.03c0.44-0.43,0.94-0.78,1.61-0.78c1.05,0,1.51,0.71,1.51,1.95v3.08h-1.15v-2.93
				c0-0.81-0.23-1.11-0.76-1.11c-0.43,0-0.72,0.21-1.12,0.61v3.43h-1.15L41.32,101.69L41.32,101.69z"/>
			<path d="M46.43,106.03l0.54-0.73c0.44,0.34,0.86,0.55,1.35,0.55c0.54,0,0.79-0.25,0.79-0.59c0-0.41-0.53-0.6-1.06-0.8
				c-0.64-0.24-1.38-0.61-1.38-1.43c0-0.85,0.69-1.47,1.79-1.47c0.68,0,1.23,0.28,1.63,0.59l-0.53,0.71
				c-0.34-0.25-0.69-0.43-1.08-0.43c-0.49,0-0.73,0.24-0.73,0.54c0,0.39,0.5,0.54,1.03,0.73c0.66,0.25,1.41,0.57,1.41,1.48
				c0,0.84-0.67,1.52-1.91,1.52C47.62,106.72,46.91,106.43,46.43,106.03z"/>
			<path d="M51.23,101.69h0.94l0.09,0.52h0.03c0.41-0.36,0.94-0.64,1.48-0.64c1.23,0,1.93,0.98,1.93,2.5c0,1.68-1,2.65-2.09,2.65
				c-0.44,0-0.86-0.2-1.26-0.54l0.04,0.82v1.55h-1.15L51.23,101.69L51.23,101.69z M54.52,104.08c0-0.98-0.32-1.56-1.07-1.56
				c-0.36,0-0.69,0.18-1.07,0.55v2.29c0.35,0.3,0.7,0.41,0.98,0.41C54.02,105.76,54.52,105.19,54.52,104.08z"/>
			<path d="M56.55,104.14c0-1.64,1.11-2.58,2.33-2.58s2.33,0.94,2.33,2.58c0,1.63-1.11,2.57-2.33,2.57
				C57.66,106.72,56.55,105.77,56.55,104.14z M60.03,104.14c0-0.98-0.43-1.64-1.15-1.64s-1.15,0.66-1.15,1.64s0.43,1.63,1.15,1.63
				C59.6,105.78,60.03,105.13,60.03,104.14z"/>
			<path d="M62.36,101.69h0.94l0.09,0.88h0.03c0.35-0.64,0.87-1,1.4-1c0.25,0,0.41,0.03,0.56,0.1l-0.2,1
				c-0.17-0.05-0.3-0.08-0.5-0.08c-0.39,0-0.86,0.27-1.16,1.02v2.99h-1.15L62.36,101.69L62.36,101.69z"/>
			<path d="M66.26,104.94v-2.34h-0.7v-0.86l0.76-0.05l0.14-1.34h0.96v1.34h1.25v0.92h-1.25v2.34c0,0.58,0.22,0.86,0.7,0.86
				c0.17,0,0.37-0.06,0.51-0.11l0.2,0.85c-0.27,0.09-0.61,0.18-1,0.18C66.68,106.72,66.26,106,66.26,104.94z"/>
			<path d="M69.44,105.28c0-1.05,0.87-1.6,2.89-1.81c-0.02-0.53-0.23-0.97-0.89-0.97c-0.49,0-0.95,0.22-1.38,0.48l-0.42-0.77
				c0.54-0.34,1.24-0.64,2.01-0.64c1.23,0,1.83,0.76,1.83,2.12v2.91h-0.94l-0.09-0.54h-0.03c-0.44,0.38-0.94,0.66-1.52,0.66
				C70.03,106.72,69.44,106.13,69.44,105.28z M72.32,105.28v-1.1c-1.33,0.17-1.77,0.52-1.77,1.01c0,0.43,0.29,0.62,0.71,0.62
				C71.66,105.81,71.96,105.62,72.32,105.28z"/>
			<path d="M75.03,104.94v-2.34h-0.7v-0.86l0.76-0.05l0.14-1.34h0.96v1.34h1.25v0.92h-1.25v2.34c0,0.58,0.22,0.86,0.7,0.86
				c0.17,0,0.37-0.06,0.51-0.11l0.2,0.85c-0.27,0.09-0.61,0.18-1,0.18C75.45,106.72,75.03,106,75.03,104.94z"/>
			<path d="M78.34,100.17c0-0.39,0.3-0.65,0.71-0.65s0.71,0.26,0.71,0.65c0,0.38-0.3,0.65-0.71,0.65
				C78.64,100.83,78.34,100.55,78.34,100.17z M78.47,101.69h1.15v4.91h-1.15V101.69z"/>
			<path d="M80.77,104.14c0-1.64,1.11-2.58,2.33-2.58s2.33,0.94,2.33,2.58c0,1.63-1.11,2.57-2.33,2.57
				C81.88,106.72,80.77,105.77,80.77,104.14z M84.25,104.14c0-0.98-0.43-1.64-1.15-1.64s-1.15,0.66-1.15,1.64s0.43,1.63,1.15,1.63
				S84.25,105.13,84.25,104.14z"/>
			<path d="M86.58,101.69h0.94l0.09,0.66h0.03c0.44-0.43,0.94-0.78,1.61-0.78c1.05,0,1.51,0.71,1.51,1.95v3.08h-1.15v-2.93
				c0-0.81-0.23-1.11-0.76-1.11c-0.43,0-0.71,0.21-1.12,0.61v3.43h-1.15V101.69z"/>
		</g>
	</g>
	<line class="st0" x1="15.48" y1="402.61" x2="122.18" y2="402.84"/>
	<line class="st0" x1="17.2" y1="199.05" x2="124.39" y2="199.26"/>
	<line class="st0" x1="15.3" y1="301.15" x2="121.56" y2="301.57"/>
	<polyline class="st1" points="20.83,240.02 35.2,229.76 48.2,232.26 62.35,229.76 76.73,212.64 90.41,225.2 104.33,225.42 	"/>
	<rect x="20.83" y="70.95" class="st2" width="6.39" height="6.39"/>
	<rect x="20.83" y="88.97" class="st3" width="6.39" height="6.39"/>
	<rect x="20.83" y="118.64" class="st4" width="6.39" height="6.39"/>
	<rect x="20.83" y="150.81" class="st5" width="6.39" height="6.39"/>
	<rect x="20.83" y="169.34" class="st6" width="6.39" height="6.39"/>
	<rect x="20.83" y="134.61" class="st7" width="6.39" height="6.39"/>
	<polyline class="st8" points="49.35,294.21 63.5,298.53 91.56,254.73 	"/>
	<polyline class="st9" points="105.25,258.61 91.56,306.75 76.27,310.18 63.5,340.75 49.35,341.66 	"/>
	<polyline class="st10" points="19.91,377.48 33.6,375.89 48.43,364.25 62.12,343.49 77.3,304.69 91.56,284.62 105.25,273.67 	"/>
	<polyline class="st11" points="20.83,338.01 34.74,335.73 48.43,344.86 62.58,346.92 77.3,337.1 90.41,341.32 105.25,333.45 	"/>
	<polyline class="st12" points="20.83,383.41 32.46,386.61 48.43,385.02 61.89,377.48 103.88,376.12 	"/>
</g>
<g id="Layer_2">
</g>
</svg>
