<?xml version="1.0" encoding="utf-8"?>
<!-- Generator: Adobe Illustrator 25.4.1, SVG Export Plug-In . SVG Version: 6.00 Build 0)  -->
<svg version="1.1" id="Layer_1" xmlns="http://www.w3.org/2000/svg" xmlns:xlink="http://www.w3.org/1999/xlink" x="0px" y="0px"
	 viewBox="0 0 512 512" style="enable-background:new 0 0 512 512;" xml:space="preserve">
<style type="text/css">
	.st0{fill:none;stroke:#C900BB;stroke-width:3;stroke-miterlimit:10;}
	.st1{fill:#C900BB;}
	.st2{fill:#3B00BB;}
	.st3{fill:#3B7159;}
	.st4{fill:#979965;}
	.st5{fill:#8D33CD;}
	.st6{fill:#972711;}
	.st7{fill:none;stroke:#3B00BB;stroke-width:3;stroke-miterlimit:10;}
	.st8{fill:none;stroke:#3B7159;stroke-width:3;stroke-miterlimit:10;}
	.st9{fill:none;stroke:#972711;stroke-width:3;stroke-miterlimit:10;}
	.st10{fill:none;stroke:#979965;stroke-width:3;stroke-miterlimit:10;}
	.st11{fill:none;stroke:#8D33CD;stroke-width:3;stroke-miterlimit:10;}
</style>
<polyline class="st0" points="203.43,268.46 217.87,258.14 230.94,260.66 245.16,258.14 259.61,240.94 273.36,253.56 287.35,253.78 
	"/>
<rect x="203.43" y="98.55" class="st1" width="6.42" height="6.42"/>
<rect x="203.43" y="116.66" class="st2" width="6.42" height="6.42"/>
<rect x="203.43" y="146.47" class="st3" width="6.42" height="6.42"/>
<rect x="203.43" y="178.8" class="st4" width="6.42" height="6.42"/>
<rect x="203.43" y="197.43" class="st5" width="6.42" height="6.42"/>
<rect x="203.43" y="162.52" class="st6" width="6.42" height="6.42"/>
<polyline class="st7" points="232.09,322.91 246.31,327.26 274.51,283.24 "/>
<polyline class="st8" points="288.27,287.14 274.51,335.52 259.15,338.96 246.31,369.68 232.09,370.6 "/>
<polyline class="st9" points="202.51,406.6 216.27,405 231.17,393.3 244.93,372.44 260.18,333.45 274.51,313.28 288.27,302.27 "/>
<polyline class="st10" points="203.43,366.93 217.41,364.64 231.17,373.81 245.39,375.88 260.18,366.02 273.36,370.26 
	288.27,362.35 "/>
<polyline class="st11" points="203.43,412.56 215.12,415.77 231.17,414.17 244.7,406.6 286.89,405.23 "/>
</svg>
