<?xml version="1.0" encoding="utf-8"?>
<!-- Generator: Adobe Illustrator 25.4.1, SVG Export Plug-In . SVG Version: 6.00 Build 0)  -->
<svg version="1.1" id="Layer_1" xmlns="http://www.w3.org/2000/svg" xmlns:xlink="http://www.w3.org/1999/xlink" x="0px" y="0px"
	 viewBox="0 0 140 300" style="enable-background:new 0 0 140 300;" xml:space="preserve">
<style type="text/css">
	.st0{fill:none;stroke:#000000;stroke-miterlimit:10;}
	.st1{fill:none;stroke:#000000;stroke-miterlimit:10;stroke-dasharray:1.4832,1.4832;}
	.st2{fill:#C900BB;}
	.st3{fill:#3B00BB;}
	.st4{fill:#3B7159;}
	.st5{fill:#FBB03B;}
	.st6{fill:#972711;}
	.st7{fill:#8D33CD;}
	.st8{fill:#979965;}
</style>
<g>
	<g>
		<line class="st0" x1="135.17" y1="172.7" x2="134.42" y2="172.7"/>
		<line class="st1" x1="132.93" y1="172.7" x2="12.05" y2="172.7"/>
		<line class="st0" x1="11.31" y1="172.7" x2="10.56" y2="172.7"/>
	</g>
</g>
<g>
	<g>
		<path d="M23.5,22.95h1.63l2.56,7.84h-1.47l-1.19-4.17c-0.25-0.83-0.48-1.72-0.71-2.59h-0.05c-0.22,0.87-0.45,1.76-0.7,2.59
			l-1.2,4.17h-1.42L23.5,22.95z M22.45,27.58h3.69v1.09h-3.69V27.58z"/>
		<path d="M27.8,24.91h1.4l0.94,3.06c0.16,0.58,0.34,1.19,0.5,1.78h0.05c0.16-0.59,0.34-1.19,0.5-1.78l0.94-3.06h1.33l-2,5.89h-1.6
			L27.8,24.91z"/>
		<path d="M34.09,27.86c0-1.91,1.33-3.09,2.72-3.09c1.59,0,2.43,1.15,2.43,2.8c0,0.26-0.03,0.53-0.06,0.67h-3.74
			c0.12,1.05,0.79,1.64,1.74,1.64c0.5,0,0.94-0.16,1.37-0.43l0.47,0.86c-0.56,0.38-1.27,0.64-2.02,0.64
			C35.36,30.94,34.09,29.8,34.09,27.86z M38.04,27.29c0-0.91-0.4-1.46-1.21-1.46c-0.69,0-1.29,0.51-1.41,1.46H38.04z"/>
		<path d="M40.56,24.91h1.13l0.11,1.05h0.04c0.42-0.77,1.04-1.19,1.67-1.19c0.3,0,0.49,0.04,0.67,0.12l-0.24,1.2
			c-0.21-0.06-0.36-0.1-0.6-0.1c-0.47,0-1.04,0.32-1.39,1.22v3.59h-1.38V24.91z"/>
		<path d="M44.72,29.21c0-1.26,1.05-1.92,3.46-2.18c-0.02-0.63-0.27-1.16-1.07-1.16c-0.58,0-1.14,0.26-1.65,0.58l-0.51-0.92
			c0.65-0.41,1.48-0.77,2.42-0.77c1.47,0,2.2,0.91,2.2,2.55v3.49h-1.13l-0.11-0.65h-0.04c-0.53,0.45-1.13,0.8-1.83,0.8
			C45.43,30.94,44.72,30.24,44.72,29.21z M48.18,29.22v-1.32c-1.6,0.2-2.13,0.62-2.13,1.21c0,0.52,0.35,0.75,0.85,0.75
			C47.38,29.86,47.75,29.62,48.18,29.22z"/>
		<path d="M50.82,31.87c0-0.5,0.31-0.93,0.85-1.26v-0.05c-0.3-0.2-0.53-0.51-0.53-0.98c0-0.46,0.31-0.86,0.65-1.1v-0.05
			c-0.4-0.3-0.78-0.86-0.78-1.55c0-1.35,1.09-2.12,2.33-2.12c0.33,0,0.63,0.06,0.87,0.14h2.11v1.03h-1.07
			c0.19,0.22,0.34,0.59,0.34,0.99c0,1.31-0.99,2.01-2.24,2.01c-0.25,0-0.53-0.05-0.8-0.16c-0.18,0.15-0.29,0.3-0.29,0.56
			c0,0.33,0.24,0.53,0.96,0.53h1.05c1.41,0,2.16,0.44,2.16,1.45c0,1.16-1.22,2.08-3.14,2.08C51.87,33.4,50.82,32.9,50.82,31.87z
			 M55.08,31.55c0-0.46-0.36-0.59-1.04-0.59h-0.81c-0.32,0-0.57-0.02-0.8-0.08c-0.32,0.24-0.46,0.5-0.46,0.78
			c0,0.54,0.58,0.85,1.5,0.85C54.44,32.5,55.08,32.06,55.08,31.55z M54.37,26.88c0-0.74-0.45-1.16-1.02-1.16s-1.02,0.42-1.02,1.16
			c0,0.75,0.46,1.19,1.02,1.19C53.91,28.06,54.37,27.63,54.37,26.88z"/>
		<path d="M57.08,27.86c0-1.91,1.33-3.09,2.72-3.09c1.59,0,2.43,1.15,2.43,2.8c0,0.26-0.03,0.53-0.06,0.67h-3.74
			c0.12,1.05,0.79,1.64,1.74,1.64c0.5,0,0.94-0.16,1.37-0.43L62,30.3c-0.56,0.38-1.27,0.64-2.02,0.64
			C58.35,30.94,57.08,29.8,57.08,27.86z M61.03,27.29c0-0.91-0.4-1.46-1.21-1.46c-0.69,0-1.29,0.51-1.41,1.46H61.03z"/>
		<path d="M65.63,29.21c0-1.26,1.05-1.92,3.46-2.18c-0.02-0.63-0.27-1.16-1.07-1.16c-0.58,0-1.14,0.26-1.65,0.58l-0.51-0.92
			c0.65-0.41,1.48-0.77,2.42-0.77c1.47,0,2.2,0.91,2.2,2.55v3.49h-1.13l-0.11-0.65H69.2c-0.53,0.45-1.13,0.8-1.83,0.8
			C66.34,30.94,65.63,30.24,65.63,29.21z M69.1,29.22v-1.32c-1.6,0.2-2.13,0.62-2.13,1.21c0,0.52,0.35,0.75,0.85,0.75
			C68.3,29.86,68.66,29.62,69.1,29.22z"/>
		<path d="M72.14,24.91h1.13l0.11,0.8h0.04c0.53-0.51,1.13-0.94,1.93-0.94c1.26,0,1.81,0.85,1.81,2.34v3.69h-1.38v-3.52
			c0-0.97-0.28-1.33-0.92-1.33c-0.52,0-0.86,0.25-1.34,0.73v4.12h-1.38V24.91z"/>
		<path d="M78.86,24.91H80l0.11,0.8h0.04c0.53-0.51,1.13-0.94,1.93-0.94c1.26,0,1.81,0.85,1.81,2.34v3.69H82.5v-3.52
			c0-0.97-0.28-1.33-0.92-1.33c-0.52,0-0.86,0.25-1.34,0.73v4.12h-1.38V24.91z"/>
		<path d="M85.52,28.6v-3.69h1.38v3.52c0,0.97,0.28,1.33,0.92,1.33c0.52,0,0.86-0.24,1.31-0.82v-4.03h1.38v5.89h-1.13l-0.11-0.87
			h-0.04c-0.52,0.61-1.09,1.01-1.9,1.01C86.07,30.94,85.52,30.09,85.52,28.6z"/>
		<path d="M91.94,29.21c0-1.26,1.05-1.92,3.46-2.18c-0.02-0.63-0.27-1.16-1.07-1.16c-0.58,0-1.14,0.26-1.66,0.58l-0.51-0.92
			c0.65-0.41,1.48-0.77,2.42-0.77c1.47,0,2.2,0.91,2.2,2.55v3.49h-1.13l-0.11-0.65h-0.04c-0.53,0.45-1.13,0.8-1.83,0.8
			C92.65,30.94,91.94,30.24,91.94,29.21z M95.4,29.22v-1.32c-1.6,0.2-2.13,0.62-2.13,1.21c0,0.52,0.36,0.75,0.85,0.75
			C94.6,29.86,94.97,29.62,95.4,29.22z"/>
		<path d="M98.45,29.28v-6.96h1.38v7.03c0,0.34,0.15,0.46,0.3,0.46c0.06,0,0.11,0,0.22-0.02l0.17,1.03
			c-0.17,0.07-0.4,0.12-0.73,0.12C98.81,30.94,98.45,30.31,98.45,29.28z"/>
		<path d="M104.1,29.28v-6.96h1.38v7.03c0,0.34,0.15,0.46,0.3,0.46c0.06,0,0.11,0,0.22-0.02l0.17,1.03
			c-0.17,0.07-0.4,0.12-0.73,0.12C104.46,30.94,104.1,30.31,104.1,29.28z"/>
		<path d="M107.03,29.21c0-1.26,1.05-1.92,3.46-2.18c-0.02-0.63-0.27-1.16-1.07-1.16c-0.58,0-1.14,0.26-1.66,0.58l-0.51-0.92
			c0.65-0.41,1.48-0.77,2.42-0.77c1.47,0,2.2,0.91,2.2,2.55v3.49h-1.13l-0.11-0.65h-0.04c-0.53,0.45-1.13,0.8-1.83,0.8
			C107.74,30.94,107.03,30.24,107.03,29.21z M110.5,29.22v-1.32c-1.6,0.2-2.13,0.62-2.13,1.21c0,0.52,0.36,0.75,0.85,0.75
			C109.7,29.86,110.06,29.62,110.5,29.22z"/>
		<path d="M114.79,30.18h-0.04l-0.12,0.62h-1.09v-8.47h1.38v2.19l-0.04,0.98c0.49-0.43,1.1-0.73,1.7-0.73
			c1.47,0,2.32,1.18,2.32,2.99c0,2.02-1.2,3.19-2.51,3.19C115.86,30.94,115.28,30.67,114.79,30.18z M117.49,27.77
			c0-1.18-0.38-1.87-1.28-1.87c-0.43,0-0.84,0.22-1.29,0.66v2.74c0.41,0.36,0.84,0.49,1.18,0.49
			C116.89,29.8,117.49,29.11,117.49,27.77z"/>
		<path d="M119.91,27.86c0-1.96,1.33-3.09,2.8-3.09s2.8,1.13,2.8,3.09c0,1.95-1.33,3.08-2.8,3.08S119.91,29.81,119.91,27.86z
			 M124.09,27.86c0-1.18-0.52-1.97-1.38-1.97s-1.38,0.79-1.38,1.97s0.52,1.96,1.38,1.96S124.09,29.04,124.09,27.86z"/>
		<path d="M126.89,24.91h1.13l0.11,1.05h0.04c0.42-0.77,1.04-1.19,1.67-1.19c0.3,0,0.49,0.04,0.67,0.12l-0.24,1.2
			c-0.21-0.06-0.36-0.1-0.6-0.1c-0.47,0-1.04,0.32-1.39,1.22v3.59h-1.38V24.91z"/>
		<path d="M21.84,39.31h1.13l0.11,0.63h0.04c0.5-0.43,1.13-0.77,1.78-0.77c1.47,0,2.32,1.18,2.32,3c0,2.01-1.2,3.18-2.51,3.18
			c-0.52,0-1.04-0.24-1.52-0.65l0.04,0.98v1.86h-1.38V39.31z M25.79,42.17c0-1.18-0.38-1.87-1.28-1.87c-0.43,0-0.83,0.22-1.29,0.66
			v2.74c0.42,0.36,0.84,0.49,1.18,0.49C25.19,44.2,25.79,43.51,25.79,42.17z"/>
		<path d="M28.61,39.31h1.13l0.11,1.05h0.04c0.42-0.77,1.04-1.19,1.67-1.19c0.3,0,0.49,0.04,0.67,0.12l-0.24,1.2
			c-0.21-0.06-0.36-0.1-0.6-0.1c-0.47,0-1.04,0.32-1.39,1.22v3.59h-1.38V39.31z"/>
		<path d="M32.69,42.26c0-1.96,1.33-3.09,2.8-3.09c1.47,0,2.8,1.13,2.8,3.09c0,1.95-1.33,3.08-2.8,3.08
			C34.03,45.34,32.69,44.21,32.69,42.26z M36.88,42.26c0-1.18-0.52-1.97-1.38-1.97c-0.86,0-1.38,0.79-1.38,1.97s0.52,1.96,1.38,1.96
			C36.36,44.21,36.88,43.44,36.88,42.26z"/>
		<path d="M39.31,42.26c0-1.92,1.2-3.09,2.49-3.09c0.67,0,1.09,0.25,1.54,0.65l-0.05-0.95v-2.13h1.38v8.47h-1.13l-0.11-0.64H43.4
			c-0.44,0.44-1.04,0.78-1.67,0.78C40.26,45.34,39.31,44.2,39.31,42.26z M43.3,43.54v-2.74c-0.4-0.36-0.8-0.49-1.2-0.49
			c-0.75,0-1.37,0.71-1.37,1.94c0,1.28,0.49,1.96,1.34,1.96C42.53,44.2,42.91,44,43.3,43.54z"/>
		<path d="M46.37,43v-3.69h1.38v3.52c0,0.97,0.28,1.33,0.92,1.33c0.52,0,0.86-0.24,1.3-0.82v-4.03h1.38v5.89h-1.13l-0.11-0.87h-0.04
			c-0.52,0.61-1.09,1.01-1.9,1.01C46.92,45.34,46.37,44.49,46.37,43z"/>
		<path d="M52.72,42.26c0-1.96,1.39-3.09,2.96-3.09c0.75,0,1.3,0.29,1.72,0.66l-0.67,0.9c-0.31-0.27-0.61-0.43-0.98-0.43
			c-0.95,0-1.61,0.79-1.61,1.97s0.65,1.96,1.56,1.96c0.46,0,0.88-0.23,1.22-0.51l0.56,0.91c-0.55,0.49-1.25,0.72-1.92,0.72
			C53.96,45.34,52.72,44.21,52.72,42.26z"/>
		<path d="M58.86,43.21V40.4h-0.84v-1.04l0.91-0.06l0.16-1.61h1.15v1.61h1.5v1.1h-1.5v2.8c0,0.69,0.27,1.03,0.83,1.03
			c0.2,0,0.44-0.07,0.61-0.13l0.24,1.02c-0.32,0.11-0.73,0.22-1.2,0.22C59.37,45.34,58.86,44.48,58.86,43.21z"/>
		<path d="M62.83,37.49c0-0.47,0.36-0.78,0.85-0.78c0.49,0,0.85,0.32,0.85,0.78c0,0.46-0.36,0.78-0.85,0.78
			C63.19,38.27,62.83,37.95,62.83,37.49z M62.99,39.31h1.38v5.89h-1.38V39.31z"/>
		<path d="M65.4,39.31h1.4l0.94,3.06c0.16,0.58,0.34,1.19,0.5,1.78h0.05c0.16-0.59,0.34-1.19,0.5-1.78l0.94-3.06h1.33l-2,5.89h-1.6
			L65.4,39.31z"/>
		<path d="M71.91,37.49c0-0.47,0.36-0.78,0.85-0.78s0.85,0.32,0.85,0.78c0,0.46-0.37,0.78-0.85,0.78S71.91,37.95,71.91,37.49z
			 M72.07,39.31h1.38v5.89h-1.38V39.31z"/>
		<path d="M75.42,43.21V40.4h-0.84v-1.04l0.91-0.06l0.16-1.61h1.15v1.61h1.5v1.1h-1.5v2.8c0,0.69,0.27,1.03,0.83,1.03
			c0.2,0,0.44-0.07,0.61-0.13l0.23,1.02c-0.32,0.11-0.73,0.22-1.2,0.22C75.92,45.34,75.42,44.48,75.42,43.21z"/>
		<path d="M79.17,47.49l0.25-1.07c0.11,0.03,0.28,0.08,0.42,0.08c0.62,0,0.98-0.42,1.17-1.01l0.11-0.37l-2.32-5.82h1.4l1.02,2.89
			c0.18,0.52,0.35,1.1,0.52,1.66h0.05c0.15-0.55,0.3-1.13,0.45-1.66l0.88-2.89h1.33l-2.13,6.16c-0.49,1.33-1.11,2.15-2.39,2.15
			C79.61,47.61,79.38,47.57,79.17,47.49z"/>
		<path d="M87.48,46.27c0-0.5,0.31-0.93,0.85-1.26v-0.05c-0.3-0.2-0.53-0.51-0.53-0.98c0-0.46,0.31-0.86,0.65-1.1v-0.05
			c-0.4-0.3-0.78-0.86-0.78-1.55c0-1.35,1.09-2.12,2.33-2.12c0.33,0,0.63,0.06,0.87,0.14h2.11v1.03h-1.07
			c0.19,0.22,0.34,0.59,0.34,0.99c0,1.31-0.99,2.01-2.24,2.01c-0.25,0-0.53-0.05-0.8-0.16c-0.18,0.15-0.29,0.3-0.29,0.56
			c0,0.33,0.24,0.53,0.96,0.53h1.05c1.41,0,2.16,0.44,2.16,1.45c0,1.16-1.22,2.08-3.14,2.08C88.53,47.8,87.48,47.3,87.48,46.27z
			 M91.74,45.95c0-0.46-0.37-0.59-1.04-0.59H89.9c-0.32,0-0.57-0.02-0.8-0.08c-0.32,0.24-0.46,0.5-0.46,0.78
			c0,0.54,0.58,0.85,1.5,0.85C91.1,46.9,91.74,46.46,91.74,45.95z M91.02,41.28c0-0.74-0.45-1.16-1.02-1.16
			c-0.58,0-1.02,0.42-1.02,1.16c0,0.75,0.46,1.19,1.02,1.19C90.57,42.46,91.02,42.03,91.02,41.28z"/>
		<path d="M94.13,39.31h1.13l0.11,1.05h0.04c0.42-0.77,1.04-1.19,1.67-1.19c0.3,0,0.49,0.04,0.67,0.12l-0.24,1.2
			c-0.21-0.06-0.36-0.1-0.6-0.1c-0.47,0-1.04,0.32-1.39,1.22v3.59h-1.38V39.31z"/>
		<path d="M98.21,42.26c0-1.96,1.33-3.09,2.8-3.09s2.8,1.13,2.8,3.09c0,1.95-1.33,3.08-2.8,3.08S98.21,44.21,98.21,42.26z
			 M102.4,42.26c0-1.18-0.52-1.97-1.38-1.97s-1.38,0.79-1.38,1.97s0.52,1.96,1.38,1.96S102.4,43.44,102.4,42.26z"/>
		<path d="M104.6,39.31h1.39l0.71,3.06c0.12,0.57,0.2,1.12,0.31,1.7h0.05c0.12-0.58,0.23-1.14,0.37-1.7l0.77-3.06h1.25l0.79,3.06
			c0.14,0.57,0.26,1.12,0.39,1.7h0.05c0.12-0.58,0.2-1.13,0.32-1.7l0.71-3.06h1.29l-1.49,5.89h-1.64l-0.69-2.75
			c-0.12-0.55-0.23-1.09-0.35-1.71h-0.05c-0.12,0.62-0.22,1.17-0.35,1.72l-0.67,2.74h-1.59L104.6,39.31z"/>
		<path d="M114.37,43.21V40.4h-0.84v-1.04l0.91-0.06l0.16-1.61h1.15v1.61h1.5v1.1h-1.5v2.8c0,0.69,0.27,1.03,0.83,1.03
			c0.2,0,0.44-0.07,0.61-0.13l0.23,1.02c-0.32,0.11-0.73,0.22-1.2,0.22C114.88,45.34,114.37,44.48,114.37,43.21z"/>
		<path d="M118.5,36.72h1.38v2.19l-0.06,1.14c0.49-0.47,1.08-0.89,1.88-0.89c1.26,0,1.81,0.85,1.81,2.34v3.69h-1.38v-3.52
			c0-0.97-0.28-1.33-0.92-1.33c-0.52,0-0.86,0.25-1.34,0.73v4.12h-1.38V36.72z"/>
		<path d="M23.09,58.98h-0.04l-0.12,0.62h-1.09v-8.47h1.38v2.19l-0.04,0.98c0.49-0.43,1.1-0.73,1.7-0.73c1.47,0,2.32,1.18,2.32,2.99
			c0,2.02-1.2,3.19-2.51,3.19C24.16,59.74,23.58,59.47,23.09,58.98z M25.79,56.57c0-1.18-0.38-1.87-1.28-1.87
			c-0.43,0-0.84,0.22-1.29,0.66v2.74c0.41,0.36,0.84,0.49,1.18,0.49C25.19,58.6,25.79,57.91,25.79,56.57z"/>
		<path d="M28.22,61.89l0.25-1.07c0.11,0.03,0.28,0.08,0.42,0.08c0.62,0,0.98-0.42,1.18-1.01l0.11-0.37l-2.32-5.82h1.4l1.02,2.89
			c0.18,0.52,0.35,1.1,0.52,1.66h0.05c0.15-0.55,0.3-1.13,0.45-1.66l0.88-2.89h1.33l-2.13,6.16c-0.49,1.33-1.11,2.15-2.39,2.15
			C28.66,62.01,28.43,61.97,28.22,61.89z"/>
		<path d="M36.58,56.66c0-1.92,1.2-3.09,2.49-3.09c0.67,0,1.09,0.25,1.54,0.65l-0.05-0.95v-2.13h1.38v8.47h-1.13l-0.11-0.64h-0.04
			c-0.44,0.44-1.04,0.78-1.67,0.78C37.53,59.74,36.58,58.6,36.58,56.66z M40.56,57.94v-2.74c-0.4-0.36-0.8-0.49-1.2-0.49
			c-0.75,0-1.37,0.71-1.37,1.94c0,1.28,0.49,1.96,1.34,1.96C39.79,58.6,40.17,58.4,40.56,57.94z"/>
		<path d="M43.31,56.66c0-1.91,1.33-3.09,2.72-3.09c1.59,0,2.43,1.15,2.43,2.8c0,0.26-0.03,0.53-0.06,0.67h-3.74
			c0.12,1.05,0.79,1.64,1.74,1.64c0.5,0,0.94-0.16,1.37-0.43l0.47,0.86c-0.56,0.38-1.27,0.64-2.02,0.64
			C44.59,59.74,43.31,58.6,43.31,56.66z M47.27,56.09c0-0.91-0.4-1.46-1.21-1.46c-0.69,0-1.29,0.51-1.41,1.46H47.27z"/>
		<path d="M49.4,56.66c0-1.96,1.39-3.09,2.96-3.09c0.75,0,1.3,0.29,1.72,0.66l-0.67,0.9c-0.31-0.27-0.61-0.43-0.98-0.43
			c-0.95,0-1.61,0.79-1.61,1.97s0.65,1.96,1.56,1.96c0.46,0,0.88-0.23,1.22-0.51l0.56,0.91c-0.55,0.49-1.25,0.72-1.92,0.72
			C50.63,59.74,49.4,58.61,49.4,56.66z"/>
		<path d="M55.01,58.01c0-1.26,1.05-1.92,3.46-2.18c-0.02-0.63-0.27-1.16-1.07-1.16c-0.58,0-1.14,0.26-1.65,0.58l-0.51-0.92
			c0.65-0.41,1.48-0.77,2.42-0.77c1.47,0,2.2,0.91,2.2,2.55v3.49h-1.13l-0.11-0.65h-0.04c-0.53,0.45-1.13,0.8-1.83,0.8
			C55.72,59.74,55.01,59.04,55.01,58.01z M58.48,58.02v-1.32c-1.6,0.2-2.13,0.62-2.13,1.21c0,0.52,0.35,0.75,0.85,0.75
			C57.68,58.66,58.04,58.42,58.48,58.02z"/>
		<path d="M61.16,56.66c0-1.92,1.2-3.09,2.49-3.09c0.67,0,1.09,0.25,1.54,0.65l-0.05-0.95v-2.13h1.38v8.47H65.4l-0.11-0.64h-0.04
			c-0.44,0.44-1.04,0.78-1.67,0.78C62.11,59.74,61.16,58.6,61.16,56.66z M65.15,57.94v-2.74c-0.4-0.36-0.8-0.49-1.2-0.49
			c-0.75,0-1.37,0.71-1.37,1.94c0,1.28,0.49,1.96,1.34,1.96C64.38,58.6,64.76,58.4,65.15,57.94z"/>
		<path d="M67.9,56.66c0-1.91,1.33-3.09,2.72-3.09c1.59,0,2.43,1.15,2.43,2.8c0,0.26-0.03,0.53-0.06,0.67h-3.74
			c0.12,1.05,0.79,1.64,1.74,1.64c0.5,0,0.94-0.16,1.37-0.43l0.47,0.86c-0.56,0.38-1.27,0.64-2.02,0.64
			C69.18,59.74,67.9,58.6,67.9,56.66z M71.86,56.09c0-0.91-0.4-1.46-1.21-1.46c-0.69,0-1.29,0.51-1.41,1.46H71.86z"/>
	</g>
</g>
<g>
	<g>
		<path d="M107.67,89.2l0.66-0.88c0.46,0.46,1.04,0.83,1.81,0.83c0.83,0,1.41-0.43,1.41-1.15c0-0.79-0.51-1.3-2.24-1.3V85.7
			c1.49,0,1.98-0.52,1.98-1.22c0-0.64-0.42-1.02-1.13-1.02c-0.59,0-1.07,0.28-1.53,0.72l-0.71-0.85c0.65-0.58,1.38-0.96,2.3-0.96
			c1.46,0,2.46,0.73,2.46,2.02c0,0.85-0.5,1.43-1.33,1.75v0.05c0.9,0.24,1.59,0.88,1.59,1.9c0,1.39-1.21,2.2-2.68,2.2
			C109.03,90.28,108.21,89.8,107.67,89.2z"/>
		<path d="M114.3,89.35c0-0.54,0.39-0.94,0.89-0.94c0.5,0,0.89,0.4,0.89,0.94c0,0.53-0.39,0.93-0.89,0.93
			C114.69,90.28,114.3,89.88,114.3,89.35z"/>
		<path d="M117.32,86.29c0-2.58,1.01-3.93,2.59-3.93s2.59,1.36,2.59,3.93c0,2.58-1.01,3.99-2.59,3.99S117.32,88.87,117.32,86.29z
			 M121.19,86.29c0-2.16-0.53-2.84-1.27-2.84c-0.74,0-1.27,0.69-1.27,2.84c0,2.16,0.53,2.91,1.27,2.91
			C120.65,89.19,121.19,88.45,121.19,86.29z"/>
		<path d="M123.36,84.62c0-1.57,0.77-2.47,1.87-2.47c1.1,0,1.87,0.9,1.87,2.47c0,1.58-0.77,2.49-1.87,2.49
			C124.12,87.11,123.36,86.2,123.36,84.62z M126.1,84.62c0-1.18-0.38-1.67-0.88-1.67c-0.5,0-0.88,0.49-0.88,1.67
			s0.37,1.69,0.88,1.69C125.73,86.31,126.1,85.8,126.1,84.62z M129.75,82.15h0.84l-4.28,8.13h-0.84L129.75,82.15z M128.98,87.78
			c0-1.57,0.77-2.47,1.87-2.47s1.87,0.9,1.87,2.47c0,1.58-0.77,2.49-1.87,2.49S128.98,89.36,128.98,87.78z M131.73,87.78
			c0-1.18-0.37-1.67-0.88-1.67s-0.88,0.49-0.88,1.67s0.37,1.69,0.88,1.69S131.73,88.96,131.73,87.78z"/>
	</g>
</g>
<g>
	<g>
		<path d="M108.56,168.44h1.71v-5.01h-1.41v-0.87c0.76-0.14,1.28-0.33,1.76-0.63h1.03v6.5h1.5v1.13h-4.59V168.44z"/>
		<path d="M114.59,168.78c0-0.54,0.39-0.94,0.89-0.94s0.89,0.4,0.89,0.94c0,0.53-0.39,0.93-0.89,0.93S114.59,169.31,114.59,168.78z"
			/>
		<path d="M117.41,168.65l0.64-0.88c0.46,0.44,1.01,0.82,1.78,0.82c0.85,0,1.47-0.54,1.47-1.46c0-0.91-0.57-1.42-1.4-1.42
			c-0.49,0-0.76,0.13-1.22,0.43l-0.66-0.42l0.23-3.77h4.08v1.17h-2.88l-0.16,1.84c0.32-0.16,0.62-0.25,1.01-0.25
			c1.31,0,2.4,0.74,2.4,2.38c0,1.67-1.28,2.63-2.69,2.63C118.78,169.71,117.98,169.21,117.41,168.65z"/>
	</g>
</g>
<g>
	<g>
		<path d="M109.04,242.27c0-2.58,1.01-3.93,2.59-3.93s2.59,1.36,2.59,3.93c0,2.58-1.01,3.99-2.59,3.99S109.04,244.84,109.04,242.27z
			 M112.91,242.27c0-2.16-0.53-2.84-1.27-2.84s-1.27,0.69-1.27,2.84s0.53,2.91,1.27,2.91S112.91,244.42,112.91,242.27z"/>
	</g>
</g>
<g>
	<g>
		<path d="M15.21,273.36h1.71v-5.01h-1.41v-0.87c0.76-0.14,1.28-0.34,1.76-0.63h1.03v6.51h1.5v1.13h-4.59V273.36z"/>
		<path d="M21.04,273.77l0.74-0.84c0.28,0.33,0.76,0.58,1.22,0.58c1,0,1.8-0.77,1.8-3.07c0-1.89-0.6-2.67-1.47-2.67
			c-0.63,0-1.14,0.52-1.14,1.45c0,0.9,0.45,1.36,1.2,1.36c0.45,0,0.98-0.26,1.41-0.95l0.06,0.97c-0.44,0.61-1.15,0.98-1.72,0.98
			c-1.31,0-2.23-0.77-2.23-2.36c0-1.53,1.09-2.5,2.4-2.5c1.49,0,2.76,1.16,2.76,3.73c0,2.96-1.43,4.19-3,4.19
			C22.17,274.63,21.5,274.25,21.04,273.77z"/>
		<path d="M26.92,273.57l0.64-0.88c0.46,0.44,1.01,0.82,1.78,0.82c0.85,0,1.47-0.54,1.47-1.46c0-0.91-0.57-1.42-1.41-1.42
			c-0.48,0-0.76,0.13-1.22,0.43l-0.66-0.42l0.23-3.77h4.08v1.17h-2.88l-0.16,1.84c0.32-0.16,0.62-0.25,1.01-0.25
			c1.31,0,2.4,0.74,2.4,2.38c0,1.67-1.28,2.63-2.69,2.63C28.29,274.63,27.48,274.14,26.92,273.57z"/>
		<path d="M33.27,270.64c0-2.58,1.01-3.93,2.59-3.93s2.59,1.36,2.59,3.93c0,2.58-1.01,3.99-2.59,3.99S33.27,273.22,33.27,270.64z
			 M37.14,270.64c0-2.16-0.53-2.84-1.27-2.84s-1.27,0.69-1.27,2.84c0,2.16,0.53,2.91,1.27,2.91S37.14,272.8,37.14,270.64z"/>
		<path d="M39.24,273.81l0.64-0.88c0.52,0.41,1.03,0.66,1.63,0.66c0.64,0,0.94-0.3,0.94-0.71c0-0.49-0.64-0.71-1.27-0.95
			c-0.77-0.29-1.65-0.73-1.65-1.72c0-1.02,0.83-1.76,2.14-1.76c0.82,0,1.48,0.33,1.96,0.71L43,270.01c-0.41-0.3-0.83-0.51-1.29-0.51
			c-0.59,0-0.87,0.28-0.87,0.65c0,0.47,0.59,0.64,1.23,0.88c0.8,0.3,1.69,0.68,1.69,1.78c0,1.01-0.8,1.83-2.29,1.83
			C40.66,274.63,39.81,274.29,39.24,273.81z"/>
	</g>
</g>
<g>
	<g>
		<path d="M76.45,273.83c2.12-2.06,3.45-3.4,3.45-4.56c0-0.8-0.44-1.31-1.26-1.31c-0.59,0-1.08,0.39-1.49,0.84l-0.77-0.76
			c0.7-0.75,1.4-1.18,2.44-1.18c1.46,0,2.41,0.93,2.41,2.34c0,1.36-1.26,2.75-2.78,4.34c0.4-0.04,0.91-0.08,1.28-0.08h1.87v1.17
			h-5.15V273.83z"/>
		<path d="M82.63,270.79c0-2.58,1.01-3.93,2.59-3.93s2.59,1.36,2.59,3.93c0,2.58-1.01,3.99-2.59,3.99S82.63,273.37,82.63,270.79z
			 M86.49,270.79c0-2.16-0.53-2.84-1.27-2.84c-0.74,0-1.27,0.69-1.27,2.84c0,2.16,0.53,2.91,1.27,2.91
			C85.96,273.69,86.49,272.95,86.49,270.79z"/>
		<path d="M89.19,273.51h1.71v-5.01h-1.41v-0.87c0.76-0.14,1.28-0.34,1.76-0.63h1.03v6.51h1.5v1.13h-4.59V273.51z"/>
		<path d="M94.94,270.79c0-2.58,1.01-3.93,2.59-3.93s2.59,1.36,2.59,3.93c0,2.58-1.01,3.99-2.59,3.99S94.94,273.37,94.94,270.79z
			 M98.81,270.79c0-2.16-0.53-2.84-1.27-2.84c-0.74,0-1.27,0.69-1.27,2.84c0,2.16,0.53,2.91,1.27,2.91
			C98.27,273.69,98.81,272.95,98.81,270.79z"/>
		<path d="M100.91,273.96l0.64-0.88c0.52,0.41,1.03,0.66,1.63,0.66c0.64,0,0.94-0.3,0.94-0.71c0-0.49-0.64-0.71-1.27-0.95
			c-0.77-0.29-1.65-0.73-1.65-1.72c0-1.02,0.83-1.76,2.14-1.76c0.82,0,1.48,0.33,1.96,0.71l-0.63,0.85
			c-0.41-0.3-0.83-0.51-1.29-0.51c-0.59,0-0.87,0.28-0.87,0.65c0,0.47,0.59,0.64,1.23,0.88c0.8,0.3,1.69,0.68,1.69,1.78
			c0,1.01-0.8,1.83-2.29,1.83C102.33,274.78,101.48,274.43,100.91,273.96z"/>
	</g>
</g>
<rect x="11.79" y="107.44" class="st2" width="12.5" height="143.95"/>
<rect x="24.29" y="101.42" class="st3" width="12.5" height="149.96"/>
<rect x="36.78" y="147.97" class="st4" width="12.5" height="103.41"/>
<rect x="49.28" y="179.41" class="st5" width="12.5" height="71.97"/>
<rect x="61.78" y="147.97" class="st6" width="12.5" height="103.41"/>
<rect x="74.27" y="116.78" class="st7" width="12.5" height="134.6"/>
<rect x="86.77" y="189.53" class="st8" width="12.5" height="61.85"/>
<g id="Layer_2_00000023989454140446697500000017909616157431129225_">
</g>
<g>
	<g>
		<line class="st0" x1="132.73" y1="93.06" x2="131.98" y2="93.06"/>
		<line class="st1" x1="130.5" y1="93.06" x2="9.61" y2="93.06"/>
		<line class="st0" x1="8.87" y1="93.06" x2="8.12" y2="93.06"/>
	</g>
</g>
<line class="st0" x1="11.79" y1="251.38" x2="135.17" y2="251.38"/>
</svg>
